<svg width="13" height="14" viewBox="0 0 13 14" fill="none" xmlns="http://www.w3.org/2000/svg">
<path fill-rule="evenodd" clip-rule="evenodd" d="M3.39209 0.500605H3.46888C3.68112 0.500605 3.81777 0.500605 3.9514 0.512697C4.4963 0.563655 5.01531 0.769233 5.4473 1.10523H9.256C9.5033 1.10523 9.6714 1.10523 9.81893 1.12458C10.3342 1.19258 10.8104 1.43552 11.1679 1.81272C11.5255 2.18992 11.7425 2.67849 11.7828 3.19662C11.9527 3.27346 12.1098 3.37604 12.2484 3.50074C12.3089 3.55395 12.3651 3.61079 12.4183 3.67004C12.7382 4.02556 12.8742 4.45786 12.9383 4.96635C13 5.4573 13 6.07765 13 6.84733V8.24401C13 9.35471 13 10.235 12.9075 10.9237C12.812 11.6323 12.6112 12.2061 12.1589 12.659C11.706 13.1112 11.1322 13.312 10.4236 13.4075C9.73428 13.5 8.85451 13.5 7.74316 13.5H5.25684C4.14549 13.5 3.26512 13.5 2.57642 13.4075C1.86777 13.312 1.29395 13.1112 0.84107 12.659C0.388791 12.2061 0.188047 11.6323 0.0925116 10.9237C0 10.2344 0 9.3547 0 8.24341V3.89254C0 3.41066 9.01e-09 3.10472 0.0495814 2.8405C0.156509 2.27253 0.432317 1.75003 0.840951 1.34131C1.24959 0.932584 1.77203 0.656652 2.34 0.549579C2.60484 0.5 2.91079 0.5 3.39209 0.5V0.500605ZM10.8214 2.96626C10.744 2.71867 10.5974 2.49839 10.3989 2.33138C10.2003 2.16437 9.95822 2.05759 9.70102 2.02365C9.62 2.01337 9.516 2.01216 9.22093 2.01216H6.38572C6.77451 2.39912 6.95107 2.55995 7.15121 2.6712C7.28302 2.74436 7.4227 2.8024 7.56781 2.84412C7.81753 2.91486 8.09144 2.9191 8.8146 2.9191H9.07158C9.77419 2.9191 10.3528 2.9191 10.8214 2.96626ZM3.44651 1.40754C2.89205 1.40754 2.678 1.40935 2.50749 1.4414C2.1192 1.5148 1.76206 1.70355 1.48269 1.98301C1.20331 2.26248 1.01469 2.61968 0.941442 3.00798C0.908791 3.17848 0.906977 3.39252 0.906977 3.94696V8.20955C0.906977 9.36257 0.908186 10.1818 0.991628 10.8034C1.07326 11.411 1.22684 11.7617 1.4826 12.0175C1.73837 12.2732 2.08907 12.4268 2.69735 12.5084C3.31893 12.5919 4.13763 12.5931 5.2907 12.5931H7.7093C8.86237 12.5931 9.68167 12.5919 10.3033 12.5084C10.9109 12.4268 11.2616 12.2732 11.5174 12.0175C11.7732 11.7617 11.9267 11.411 12.0084 10.8028C12.0918 10.1818 12.093 9.36257 12.093 8.20955V6.87817C12.093 6.07039 12.0924 5.50688 12.0386 5.07942C11.986 4.66283 11.8899 4.43851 11.7441 4.27648C11.7121 4.24084 11.6782 4.20694 11.6426 4.1749C11.4805 4.02919 11.2556 3.93305 10.8396 3.88045C10.4121 3.82664 9.84856 3.82603 9.04074 3.82603H8.74809C8.11442 3.82603 7.70567 3.82603 7.3193 3.71599C7.10767 3.65553 6.9027 3.57088 6.70981 3.46386C6.35912 3.26796 6.07009 2.97956 5.62144 2.53093L5.57488 2.48377L5.24233 2.15123C5.14521 2.04973 5.04373 1.95249 4.93819 1.8598C4.63398 1.60757 4.2608 1.4529 3.86735 1.416C3.72726 1.4071 3.58685 1.40428 3.44651 1.40754ZM6.65116 5.79106C6.65116 5.67079 6.69894 5.55545 6.78399 5.47041C6.86903 5.38537 6.98438 5.33759 7.10465 5.33759H10.1279C10.2482 5.33759 10.3635 5.38537 10.4486 5.47041C10.5336 5.55545 10.5814 5.67079 10.5814 5.79106C10.5814 5.91132 10.5336 6.02666 10.4486 6.11171C10.3635 6.19675 10.2482 6.24452 10.1279 6.24452H7.10465C6.98438 6.24452 6.86903 6.19675 6.78399 6.11171C6.69894 6.02666 6.65116 5.91132 6.65116 5.79106Z" fill="black"/>
</svg>
