<svg width="19" height="19" viewBox="0 0 19 19" fill="none" xmlns="http://www.w3.org/2000/svg">
<g clip-path="url(#clip0_6220_31017)">
<path d="M9.5 0C4.25334 0 0 4.25334 0 9.5C0 13.9551 3.06736 17.6936 7.20518 18.7203V12.4032H5.24628V9.5H7.20518V8.24904C7.20518 5.01562 8.66856 3.5169 11.8431 3.5169C12.445 3.5169 13.4835 3.63508 13.9084 3.75288V6.38438C13.6842 6.36082 13.2947 6.34904 12.8109 6.34904C11.2533 6.34904 10.6514 6.93918 10.6514 8.47324V9.5H13.7545L13.2213 12.4032H10.6514V18.9305C15.3554 18.3624 19.0004 14.3572 19.0004 9.5C19 4.25334 14.7467 0 9.5 0Z" fill="black"/>
</g>
<defs>
<clipPath id="clip0_6220_31017">
<rect width="19" height="19" fill="white"/>
</clipPath>
</defs>
</svg>
