<svg width="49" height="46" viewBox="0 0 49 46" fill="none" xmlns="http://www.w3.org/2000/svg">
<g clip-path="url(#clip0_6250_8927)">
<path d="M24.4862 4.1418C30.884 4.1418 31.6416 4.16875 34.1577 4.27656C36.4961 4.37539 37.7588 4.75274 38.6006 5.06719C39.7137 5.48047 40.5181 5.98359 41.3506 6.7832C42.1924 7.5918 42.7068 8.35547 43.1371 9.42461C43.4645 10.2332 43.8573 11.4551 43.9602 13.6922C44.0724 16.118 44.1005 16.8457 44.1005 22.982C44.1005 29.1273 44.0724 29.8551 43.9602 32.2719C43.8573 34.518 43.4645 35.7309 43.1371 36.5395C42.7068 37.6086 42.183 38.3813 41.3506 39.1809C40.5088 39.9895 39.7137 40.4836 38.6006 40.8969C37.7588 41.2113 36.4868 41.5887 34.1577 41.6875C31.6323 41.7953 30.8747 41.8223 24.4862 41.8223C18.0884 41.8223 17.3308 41.7953 14.8147 41.6875C12.4763 41.5887 11.2136 41.2113 10.3718 40.8969C9.25872 40.4836 8.45432 39.9805 7.62186 39.1809C6.78004 38.3723 6.2656 37.6086 5.83534 36.5395C5.50797 35.7309 5.11512 34.509 5.01223 32.2719C4.89999 29.8461 4.87193 29.1184 4.87193 22.982C4.87193 16.8367 4.89999 16.109 5.01223 13.6922C5.11512 11.4461 5.50797 10.2332 5.83534 9.42461C6.2656 8.35547 6.7894 7.58281 7.62186 6.7832C8.46367 5.97461 9.25872 5.48047 10.3718 5.06719C11.2136 4.75274 12.4857 4.37539 14.8147 4.27656C17.3308 4.16875 18.0884 4.1418 24.4862 4.1418ZM24.4862 0C17.9855 0 17.1718 0.0269531 14.6183 0.134766C12.0741 0.242578 10.325 0.637891 8.80975 1.20391C7.22901 1.79688 5.89146 2.57852 4.56326 3.86328C3.22571 5.13906 2.41196 6.42383 1.79463 7.9332C1.20536 9.39766 0.793804 11.0688 0.681562 13.5125C0.56932 15.9742 0.54126 16.7559 0.54126 23C0.54126 29.2441 0.56932 30.0258 0.681562 32.4785C0.793804 34.9223 1.20536 36.6023 1.79463 38.0578C2.41196 39.5762 3.22571 40.8609 4.56326 42.1367C5.89146 43.4125 7.22901 44.2031 8.8004 44.7871C10.325 45.3531 12.0648 45.7484 14.6089 45.8563C17.1624 45.9641 17.9762 45.991 24.4769 45.991C30.9775 45.991 31.7913 45.9641 34.3448 45.8563C36.889 45.7484 38.6381 45.3531 40.1533 44.7871C41.7247 44.2031 43.0623 43.4125 44.3905 42.1367C45.7187 40.8609 46.5418 39.5762 47.1497 38.0668C47.739 36.6024 48.1506 34.9313 48.2628 32.4875C48.375 30.0348 48.4031 29.2531 48.4031 23.009C48.4031 16.7648 48.375 15.9832 48.2628 13.5305C48.1506 11.0867 47.739 9.40664 47.1497 7.95117C46.5605 6.42383 45.7467 5.13906 44.4092 3.86328C43.081 2.5875 41.7434 1.79688 40.172 1.21289C38.6474 0.646875 36.9077 0.251563 34.3635 0.14375C31.8006 0.0269531 30.9869 0 24.4862 0Z" fill="#E67C73"/>
<path d="M24.4863 11.1855C17.6956 11.1855 12.1864 16.4773 12.1864 23C12.1864 29.5227 17.6956 34.8145 24.4863 34.8145C31.2769 34.8145 36.7861 29.5227 36.7861 23C36.7861 16.4773 31.2769 11.1855 24.4863 11.1855ZM24.4863 30.6637C20.0808 30.6637 16.5077 27.2316 16.5077 23C16.5077 18.7684 20.0808 15.3363 24.4863 15.3363C28.8917 15.3363 32.4648 18.7684 32.4648 23C32.4648 27.2316 28.8917 30.6637 24.4863 30.6637Z" fill="#E67C73"/>
<path d="M40.1439 10.7182C40.1439 12.2455 38.8531 13.4764 37.2724 13.4764C35.6823 13.4764 34.4009 12.2365 34.4009 10.7182C34.4009 9.19082 35.6917 7.95996 37.2724 7.95996C38.8531 7.95996 40.1439 9.19981 40.1439 10.7182Z" fill="#E67C73"/>
</g>
<defs>
<clipPath id="clip0_6250_8927">
<rect width="47.8899" height="46" fill="white" transform="translate(0.54126)"/>
</clipPath>
</defs>
</svg>
