<svg width="107" height="102" viewBox="0 0 107 102" fill="none" xmlns="http://www.w3.org/2000/svg">
<path d="M0.779993 24.3323C2.70999 24.3908 4.26999 24.9573 5.95999 25.8362C7.60999 26.7053 9.32001 27.4378 10.92 28.4046C11.74 28.9026 12.56 29.3714 13.39 29.8401C13.43 29.9378 13.5 30.0355 13.61 30.1136C15.08 31.0804 16.31 32.2425 18.03 32.8187C18.65 33.0238 19.26 33.2191 19.86 33.4242C20.18 33.6097 20.5 33.7855 20.81 33.9613C22.8 35.1332 24.74 36.3734 26.69 37.6234C26.59 37.8871 26.52 38.1703 26.44 38.4731C26.44 38.4828 26.44 38.4926 26.44 38.5024C26.17 38.893 25.94 39.3129 25.74 39.6743C25.08 40.8364 24.4 41.9497 23.67 43.0727C23.23 43.7466 22.81 44.4399 22.38 45.1138C22.23 45.3384 22.09 45.563 21.95 45.7876C21.03 47.2525 20.13 48.7271 19.24 50.2213C18.4 51.2857 17.64 52.36 17.05 53.6002C16.64 54.4498 16.26 55.319 15.86 56.1686C15.68 56.5104 15.5 56.8424 15.32 57.1842C14.97 57.7702 14.58 58.3366 14.28 58.9518C13.5 60.5241 12.79 62.155 11.92 63.6785C11.1 65.1238 9.98 66.618 9.69 68.2879C9.55 69.1082 9.37999 69.8504 9.17999 70.6708C9.09999 71.0223 8.82 72.37 8.72 72.4286C8.01 72.7997 8.64 73.8544 9.35 73.4833C9.42 73.4442 9.45998 73.4052 9.51998 73.3563C9.67998 73.2977 9.82001 73.1805 9.89001 72.9755C12.1 66.2469 15.15 59.821 18.66 53.649C19.18 52.7311 19.73 51.8228 20.28 50.9049C20.38 50.7779 20.48 50.6412 20.59 50.5045C21.67 49.1959 22.31 47.7603 23.11 46.2954C23.18 46.1587 23.27 46.0318 23.35 45.895C23.38 45.8462 23.41 45.8071 23.43 45.7583C24.23 44.5962 25.36 43.6684 26.01 42.4087C26.44 41.5883 26.95 40.7485 27.33 39.8989C27.44 39.645 27.5 39.3325 27.56 39.0199C27.74 38.8051 27.94 38.6391 28.17 38.5317C28.81 38.9418 29.45 39.3422 30.1 39.7426C31.45 40.6801 32.79 41.6665 34.06 42.6821C34.67 43.1704 35.41 43.4634 36.12 43.8149C36.89 44.2056 37.32 44.8501 38.01 45.2993C39.31 46.1489 40.38 47.3794 41.84 48.024C42.05 48.1216 42.27 48.2095 42.48 48.2876C42.67 48.4146 42.86 48.5513 43.06 48.6685C43.05 48.688 43.03 48.6978 43.02 48.7076C41.94 50.3385 40.7 51.94 40.08 53.8151C40 54.069 39.94 54.3326 39.9 54.6159C39.84 54.6842 39.78 54.7623 39.75 54.86C39.71 55.0162 39.75 55.2018 39.84 55.3581C39.84 55.7975 39.91 56.2272 40.08 56.6178C40.08 56.6178 40.08 56.6276 40.08 56.6374C40.33 57.2038 40.76 57.6725 41.48 57.8971C43.07 58.3952 45 57.1647 46.26 56.3737C46.41 56.276 46.55 56.1784 46.7 56.0807C47.32 55.8366 47.95 55.612 48.51 55.2702C48.82 55.0846 49.05 54.6842 49.3 54.3229C48.93 55.2311 48.38 56.071 47.84 56.9108C47.2 57.8972 46.62 58.9128 46.06 59.9382C45.57 60.5632 45.08 61.1687 44.71 61.9206C44.22 62.9265 43.92 64.0203 43.52 65.0652C43.44 65.2703 43.38 65.4754 43.33 65.6805C43.25 65.7683 43.2 65.8855 43.19 66.032C43.19 66.198 43.15 66.3641 43.1 66.5398C41.89 68.0145 40.93 69.6356 40.11 71.3153C40.05 71.3837 39.99 71.452 39.92 71.5301C39.25 72.2919 38.85 73.3466 38.44 74.2548C37.98 75.2802 37.56 76.3056 37.19 77.3701C36.81 78.4541 36.56 79.6162 36.13 80.6806C36.09 80.7685 36.07 80.8564 36.04 80.9443C35.73 81.667 35.41 82.3994 35.12 83.1319C34.67 84.2647 34.25 85.3975 33.69 86.4815C33.4 87.0479 33.25 87.7901 32.98 88.4054C32.95 88.4249 32.92 88.4542 32.89 88.464C32.6 88.6007 32.53 88.8546 32.6 89.0792C32.28 89.6651 33.27 90.1925 33.72 89.6065C33.82 89.4796 33.89 89.3429 33.96 89.2062C34.29 88.8741 34.49 88.4054 34.65 87.9659C35.01 86.96 35.43 86.0616 35.94 85.1143C36.6 83.9034 36.96 82.5557 37.3 81.208C37.68 80.3193 38.07 79.4404 38.42 78.5419C39.26 76.4423 40.04 74.2841 41.02 72.2235C41.22 72.0087 41.43 71.8036 41.64 71.5692C42.36 70.7684 42.86 69.7137 43.35 68.7762C43.42 68.6395 43.5 68.493 43.58 68.3563C44.09 69.1082 44.78 69.3133 45.51 69.2059C45.62 69.2254 45.74 69.2449 45.86 69.2449C46.2 69.2449 46.52 69.1278 46.77 68.9129C46.79 68.9129 46.8 68.9227 46.82 68.9227C47.11 68.952 47.36 68.8836 47.57 68.7567C47.46 68.9422 47.36 69.1278 47.28 69.3231C46.29 71.8133 49.23 73.1708 51.32 72.5262C52.6 72.1258 53.74 71.3251 54.76 70.3875C54.62 71.5985 55.02 72.6434 56.32 73.2782C56.5 73.3661 56.69 73.4247 56.87 73.4833C56.9 73.5516 56.94 73.6102 56.99 73.6591C57.23 74.2548 57.5 74.8505 57.73 75.456C57.73 75.4657 57.73 75.4755 57.74 75.4853C57.84 75.7392 57.93 76.0029 58.01 76.2665C58.29 77.1747 58.34 78.0927 58.77 78.9521C59.07 79.5478 59.4 80.1826 59.71 80.8271C60.07 81.9697 60.44 83.1026 60.8 84.2451C60.94 84.8506 61.1 85.4561 61.35 86.0616C61.4 86.169 61.43 86.2862 61.48 86.3936C61.56 86.6475 61.64 86.8917 61.72 87.1456C62.42 89.4308 62.96 91.755 63.61 94.0402C64.29 96.4035 65.09 98.718 65.48 101.15C65.6 101.892 66.69 101.618 66.68 100.925C66.73 100.866 66.77 100.798 66.79 100.72C66.79 100.691 66.8 100.671 66.81 100.642C66.86 100.447 66.81 100.29 66.73 100.163C66.6 99.6262 66.43 99.0989 66.31 98.552C66.17 97.8781 66.2 97.1555 66.04 96.4914C65.75 95.3195 65.13 94.2062 64.71 93.0832C64.3 91.9796 64.04 90.7394 63.82 89.587C63.59 88.3565 63.09 87.0675 62.62 85.9053C62.45 85.378 62.29 84.8506 62.12 84.3233C61.94 83.6397 61.8 82.9561 61.59 82.2529C61.41 81.6084 61.13 80.9639 60.84 80.3291C60.8 80.2217 60.77 80.1045 60.73 79.997C60.23 78.4052 59.55 76.8818 58.98 75.3193C58.94 75.2118 58.9 75.0946 58.85 74.9872C58.68 74.5087 58.54 74.0302 58.41 73.5419C59.81 73.2684 61.12 72.243 62.05 71.2665C62.15 71.3348 62.26 71.3837 62.39 71.3934C62.67 71.4129 62.93 71.4715 63.18 71.5399C63.2 71.5594 63.21 71.5887 63.24 71.6083C63.87 72.1258 65.11 72.0282 65.91 71.784C66.65 71.5887 67.35 71.2567 68 70.8661C69.9 69.7137 71.43 68.0438 72.87 66.3934C73.13 66.0906 73.38 65.7879 73.64 65.4851C74.16 65.114 74.66 64.7234 75 64.1863C75.49 63.4148 75.95 62.6238 76.45 61.862C76.66 61.5788 76.86 61.2956 77.06 61.0027C77.11 60.9343 77.16 60.8659 77.21 60.8073C77.67 60.2312 78.19 59.694 78.62 59.0983C79.63 60.9831 80.98 62.6628 82.21 64.4207C82.3 64.5769 82.38 64.7332 82.47 64.8894C83.14 66.0125 83.7 67.1551 84.09 68.3953C84.49 69.6551 85.18 70.6708 85.98 71.7157C87.65 73.913 88.48 76.4814 90.15 78.6787C91.01 79.8017 91.91 80.8955 92.73 82.0381C93.12 82.5752 93.56 83.0537 94 83.542C95.63 86.2081 97.27 88.8839 98.9 91.5499C99.31 92.2238 100.39 91.6085 99.98 90.9347C98.68 88.8155 97.39 86.7061 96.09 84.587C96.15 84.4405 96.14 84.2744 96.02 84.0987C95.73 83.669 95.4 83.2881 95.06 82.917C93.13 79.7627 91.19 76.5986 89.26 73.4442C87.56 70.6708 85.9 67.8875 84.17 65.1336C83.84 64.6062 83.48 64.0886 83.12 63.5808C82.48 62.4968 82.02 61.3542 81.25 60.3386C80.59 59.4694 80.3 58.4245 79.66 57.5358C79.68 57.5163 79.69 57.487 79.71 57.4675C80.18 56.9108 80.46 56.2663 80.73 55.612C81.16 54.9674 81.58 54.3229 82.01 53.6686C85.26 48.7759 88.56 43.9224 91.62 38.9028C91.66 38.8344 91.7 38.766 91.74 38.6977C92.41 37.8285 93.07 36.9496 93.73 36.0707C94.04 35.6605 94.22 35.2992 94.42 34.8304C94.78 33.9906 95.12 33.307 95.68 32.5843C97.3 30.5042 98.38 28.1604 99.56 25.8459C100.33 24.342 101.19 22.9358 101.85 21.3732C102.47 19.9084 102.89 18.3654 103.22 16.8126C103.4 16.3634 103.59 15.9142 103.75 15.4552C104.8 12.5841 105.55 9.62503 106.53 6.7246C106.57 6.66601 106.61 6.61718 106.66 6.55858C106.72 6.49999 106.76 6.42186 106.78 6.34374C106.78 6.31444 106.78 6.29491 106.79 6.26561C106.8 6.20702 106.81 6.15819 106.81 6.0996C106.81 5.95311 106.75 5.81639 106.65 5.70897C106.42 5.30857 105.68 5.3574 105.5 5.86522C105.46 5.97264 105.43 6.08983 105.39 6.19725C103.96 8.08204 103.19 10.6114 102.67 12.8477C102.36 14.1856 102.14 15.5138 101.87 16.8419C101.24 18.3556 100.54 19.8498 99.8 21.3244C97.37 26.1682 94.85 30.9925 92.1 35.6605C91.58 36.5394 91.05 37.4184 90.52 38.2973C89.74 39.3422 88.97 40.3871 88.2 41.4419C86.64 43.5903 85.11 45.7486 83.46 47.8189C82.68 48.7955 82.19 49.7916 81.83 50.9537C81.43 52.2525 80.3 53.3072 79.79 54.5963C79.66 54.9381 79.5 55.2604 79.33 55.5827C78.66 56.6276 77.97 57.6628 77.28 58.6882C76.78 59.3425 76.28 59.987 75.8 60.6511C75.4 61.198 74.98 61.7058 74.63 62.2917C74.6 62.3503 74.57 62.4089 74.53 62.4675C74.35 62.7019 74.18 62.9265 73.99 63.1609C73.57 63.6882 73.13 64.2156 72.69 64.7332C71.93 65.3484 71.14 65.8953 70.46 66.6375C69.64 67.5262 68.91 68.6102 67.94 69.3719C67.84 69.1571 67.71 68.9617 67.52 68.8153C67.29 68.6297 67.01 68.4735 66.72 68.4149C66.36 68.3367 66.05 68.4149 65.72 68.5516C65.62 68.6004 65.52 68.6492 65.43 68.6883C65.41 68.6883 65.39 68.7078 65.37 68.7176C65.37 68.7176 65.37 68.7176 65.34 68.7274C65.28 68.7469 65.23 68.7664 65.17 68.7762C64.94 68.8446 64.71 68.8934 64.51 69.0106C64.23 69.1668 64.05 69.4012 63.93 69.6844C63.92 69.3621 63.96 69.0106 63.97 68.6688C64.72 67.4188 65.34 66.0906 65.94 64.7722C65.95 64.7429 65.95 64.7234 65.96 64.6941C66.17 64.3718 66.35 64.0203 66.57 63.7371C66.7 63.5711 66.89 63.366 67.03 63.1707C67.18 62.9656 67.29 62.7507 67.41 62.5261C67.68 62.0378 67.96 61.5691 68.04 61.0124C68.04 60.9441 68.05 60.9245 68.05 60.9148C68.05 60.9148 68.05 60.9148 68.05 60.905C68.05 60.8855 68.05 60.8855 68.05 60.8757C68.05 60.8757 68.05 60.8757 68.05 60.8659C68.05 60.8659 68.05 60.8464 68.07 60.8366C68.1 60.8073 68.12 60.778 68.15 60.7487C68.38 60.4753 68.42 60.1921 68.36 59.8503C68.3 59.528 67.89 59.3425 67.59 59.4206C67.3 59.4987 67.16 59.7429 67.15 60.0065C67.09 60.0749 67.02 60.1433 66.98 60.2214C66.84 60.446 66.83 60.6999 66.79 60.9245C66.7 61.3445 66.41 61.7253 66.21 62.1062C66 62.5066 65.74 62.7605 65.46 63.1316C65.18 63.5125 64.98 63.9519 64.69 64.3328C64.67 64.3621 64.67 64.3914 64.65 64.4304C63.64 65.9539 62.67 67.5067 62.1 69.2157C61.69 69.7918 61.2 70.3875 60.65 70.9149C60.65 70.6317 60.61 70.3485 60.48 70.1043C60.34 69.8309 60.1 69.6551 59.83 69.5282C59.44 69.3426 59.06 69.2157 58.63 69.1668C57.94 69.0985 57.26 69.3621 56.64 69.6258C56.49 69.6942 56.34 69.7625 56.2 69.8504C56.43 69.0985 56.8 68.3367 57.12 67.7606C57.67 67.0965 58.19 66.4227 58.71 65.7293C58.95 65.5437 59.19 65.407 59.32 65.0945C59.36 64.9968 59.38 64.8894 59.4 64.8015C60.01 63.9617 60.62 63.1121 61.24 62.2722C61.33 62.155 61.35 62.0281 61.33 61.9109C61.51 61.7742 61.68 61.6374 61.83 61.4519C62.04 61.2077 62.27 60.9734 62.5 60.7487C62.71 60.5339 62.92 60.3191 63.12 60.0944C63.31 59.8796 63.48 59.6355 63.67 59.4499C64.06 59.0593 64.55 58.737 64.7 58.1804C64.76 57.9557 64.7 57.7702 64.56 57.6335C64.62 57.6042 64.67 57.5749 64.71 57.5261C65.91 57.2917 66.66 56.5299 66.31 54.8112C66.12 53.903 65.64 53.0631 65.04 52.2916C66.61 53.1119 68.48 53.7174 69.32 52.0572C69.79 51.1392 69.65 50.1334 69.24 49.1763C69.86 49.1177 70.49 48.9127 70.92 48.4732C71.5 47.8677 71.56 46.979 71.52 46.1978C71.47 45.4067 71.19 44.6548 70.69 44.0298C70.62 43.9419 70.54 43.8442 70.47 43.7563C69.95 42.6821 69.23 41.6762 68.6 40.895C68.55 40.8364 68.49 40.7778 68.44 40.7192C68.19 40.3872 67.92 40.0649 67.65 39.7426C67.04 39.0199 66.65 38.2582 65.88 37.6527C65.3 37.1938 64.73 36.7055 64.15 36.2172C65.01 36.6371 65.85 37.0766 66.71 37.4965C67.73 37.9945 69.68 38.7074 70.3 37.2621C70.73 36.2465 69.91 35.0062 69.34 34.2054C68.41 32.8871 67.25 31.93 65.97 30.9437C63.95 29.3811 61.83 27.9456 59.66 26.5881C59.65 26.5784 59.65 26.5686 59.63 26.5491C59.3 26.2463 58.93 26.0803 58.55 25.9241C58.45 25.8655 58.36 25.8069 58.26 25.7483C58.61 25.2307 58.97 24.7229 59.33 24.2053C60.19 23.258 60.89 22.1252 61.63 21.0998C62.48 19.9181 63.51 18.6779 64.48 17.5841C64.87 17.1447 65.21 16.6661 65.55 16.1876C67.37 14.0977 69.28 12.086 71.27 10.1621C72.01 9.53714 72.76 8.9219 73.5 8.29689C74.14 7.75977 74.71 7.14453 75.28 6.52929C76.45 5.52341 77.65 4.5566 78.87 3.60933C79.67 3.06244 80.47 2.5058 81.26 1.93938C81.5 1.93938 81.72 1.81243 81.77 1.49992C81.77 1.47063 81.78 1.44133 81.79 1.40227C81.87 0.943276 81.36 0.357332 80.87 0.708899C80.8 0.767493 80.72 0.816322 80.64 0.865151C80.53 0.865151 80.41 0.884683 80.29 0.972575C79.54 1.51946 78.82 2.09564 78.09 2.66205C77.68 2.94526 77.27 3.22846 76.85 3.5019C75.99 4.06832 75.3 4.77145 74.61 5.48435C73.21 6.68554 71.83 7.90626 70.5 9.18557C70.29 9.36136 70.08 9.53714 69.87 9.72269C69.05 10.4551 68.09 11.0704 67.34 11.8419C67.1 12.086 66.88 12.3399 66.66 12.6036C66.76 11.4415 66.36 10.5528 64.97 10.5235C62.85 10.4747 61.04 11.8419 59.42 13.1798C59.64 12.7794 59.85 12.379 60.05 11.9688C60.69 10.6797 62.01 6.83203 59.33 6.7246C57.99 6.67577 56.7 7.89649 55.75 8.66799C55.23 9.08791 54.75 9.54691 54.29 10.0157C54.43 9.73246 54.58 9.44925 54.71 9.15627C55.08 8.37501 55.13 7.51563 55.02 6.66601C54.98 6.34374 54.87 6.06053 54.74 5.80662C54.66 5.57224 54.55 5.3574 54.4 5.15232C53.85 4.43942 53.11 4.32223 52.34 4.49801C52.04 4.49801 51.75 4.53707 51.42 4.67379C50.67 4.9863 49.95 5.39646 49.34 5.93358C49.03 6.20702 48.78 6.51952 48.52 6.83203C48.26 7.13476 47.98 7.37891 47.78 7.72071C47.26 8.30665 46.79 8.9219 46.36 9.5762C46.31 9.35159 46.25 9.14651 46.15 8.94143C45.56 7.75001 44.32 7.72071 43.29 8.37502C42.01 9.19534 41.06 10.5528 40.22 11.7735C39.82 12.3497 39.45 12.9356 39.1 13.5313C38.95 13.7755 38.77 14.0099 38.6 14.254C33.38 11.1583 27.93 8.46291 22.93 5.04489C22.27 4.59567 21.64 5.65037 22.3 6.0996C23.74 7.08594 25.16 8.01368 26.64 8.8926C27.82 9.77152 29.1 10.543 30.29 11.3926C30.8 11.754 31.44 11.92 31.99 12.2325C32.72 12.6524 33.37 13.0723 34.06 13.5606C34.44 13.8243 34.76 14.1466 35.15 14.3614C35.78 14.713 36.59 14.8497 37.26 15.1329C37.49 15.2306 37.72 15.3185 37.95 15.4161C37.93 15.4845 37.89 15.5528 37.88 15.631C37.75 16.3439 38.78 16.6759 39.03 16.0802C39.26 16.2853 39.47 16.5001 39.73 16.6661C40.17 16.9591 40.61 17.0372 41.02 17.3204C41.61 17.7306 42.16 18.0529 42.79 18.4044C43.58 18.8439 44.24 19.4396 45.09 19.7814C45.44 19.9279 45.81 20.0646 46.17 20.2111C46.61 20.465 47.04 20.7189 47.47 20.9728C48.76 21.7053 50.06 22.4279 51.36 23.1506C51.65 23.385 51.95 23.6096 52.29 23.8049C53.07 24.2541 53.88 24.635 54.6 25.1721C55.23 25.6311 55.83 25.9436 56.53 26.2854C56.82 26.4319 57.22 26.5881 57.62 26.7542C58.16 27.0764 58.7 27.3987 59.24 27.7307C61.31 29.0296 63.34 30.4066 65.26 31.9007C65.97 32.4574 66.64 33.0042 67.25 33.6097C67.02 33.766 66.88 34.0004 66.77 34.2445C66.56 34.7523 66.55 35.2797 66.8 35.768C66.9 35.9828 67.05 36.1781 67.2 36.3637C66.93 36.2172 66.7 36.0902 66.56 36.0219C64.33 34.889 62.12 33.7269 59.64 33.1898C59.04 33.0628 58.59 33.7562 59.03 34.2054C59.99 35.182 61.28 35.7582 62.32 36.6469C63.54 37.682 64.77 38.6977 65.92 39.8012C66.43 40.2895 66.95 40.8364 67.45 41.4126C67.66 41.7153 67.82 42.0376 67.97 42.3598C67.76 42.4282 67.54 42.5063 67.38 42.6626C66.95 43.0727 67.03 43.7759 67.24 44.2739C67.24 44.3032 67.24 44.3325 67.24 44.3618C67.24 44.4204 67.24 44.479 67.24 44.5376C67.24 44.7036 67.27 44.8599 67.3 45.0259C67.34 45.2603 67.41 45.4849 67.48 45.7095C67.66 46.315 68.05 46.8228 68.74 46.8423C69.02 46.8423 69.31 46.8423 69.58 46.7642C69.63 46.7447 69.69 46.7251 69.74 46.7154C69.76 46.7154 69.79 46.7056 69.82 46.6958C69.84 46.6958 69.85 46.6958 69.85 46.6958C69.83 47.0279 69.74 47.3599 69.5 47.5357C69.06 47.858 68.51 47.5162 68.1 47.272C68.07 47.2525 68.05 47.2329 68.03 47.2232C67.61 46.6763 67.17 46.1782 66.78 45.7681C64.51 43.3462 61.58 41.8422 58.6 40.4262C58.55 40.3286 58.48 40.2504 58.39 40.1918C58.37 40.1625 58.35 40.1235 58.33 40.0942C58.05 39.811 57.73 39.5864 57.4 39.3715C57.11 39.0981 56.74 38.9516 56.42 38.7172C56.24 38.5903 56.05 38.4828 55.86 38.3852C55.79 38.3461 55.71 38.307 55.64 38.268C55.56 38.1996 55.47 38.1313 55.37 38.0531C55.03 37.7895 54.69 37.5355 54.3 37.3598C54.3 37.3598 54.3 37.3695 54.3 37.3793C54.25 37.3598 54.21 37.3207 54.16 37.3012C53.87 37.1938 53.53 37.3988 53.42 37.6527C53.31 37.9067 53.39 38.2875 53.68 38.4145C53.84 38.4828 53.98 38.5707 54.13 38.6586C54.16 38.6781 54.2 38.7074 54.2 38.7172C54.39 38.8735 54.57 39.0297 54.77 39.1664C54.82 39.1957 54.87 39.225 54.92 39.2543C55.11 39.4106 55.31 39.5571 55.52 39.6938C55.85 39.8989 56.2 40.0746 56.53 40.27C56.55 40.2797 56.57 40.2993 56.59 40.309C56.61 40.3286 56.63 40.3481 56.65 40.3774C56.71 40.4555 56.77 40.5336 56.84 40.602C56.93 40.6997 57.05 40.7973 57.18 40.8461C57.18 40.8461 57.18 40.8461 57.18 40.8559C57.21 40.8852 57.24 40.9145 57.27 40.9438C57.32 40.9926 57.38 41.0219 57.43 41.061C57.48 41.1586 57.54 41.2661 57.66 41.3442C60.47 43.2876 63.27 45.2017 65.98 47.2622C65.9 47.2915 65.82 47.3111 65.75 47.3501C65.16 47.6919 65.03 48.3462 65.21 48.9517C65.27 49.1568 65.36 49.3619 65.44 49.567C65.52 49.8111 65.57 50.0552 65.66 50.2994C65.77 50.6119 65.93 50.8951 66.16 51.1392C66.36 51.3541 66.62 51.4517 66.91 51.481C67.02 51.4908 67.12 51.481 67.23 51.481C67.38 51.481 67.54 51.5006 67.69 51.4908C67.85 51.4908 68 51.4517 68.15 51.4127C67.32 52.8775 62.44 49.3619 61.61 48.8638C61.47 48.7759 61.33 48.688 61.19 48.6002C58.77 46.6079 55.98 45.2603 53.43 43.4048C53.31 43.3169 53.2 43.2973 53.09 43.2973C53.06 43.2778 53.02 43.2583 52.99 43.229C52.98 43.2192 52.96 43.2095 52.95 43.1997C52.8 43.0727 52.66 42.9262 52.52 42.7895C52.16 42.4282 51.73 42.1548 51.28 41.9301C51 41.7837 50.67 41.8422 50.47 42.0864C50.29 42.3208 50.29 42.6821 50.52 42.8872L50.62 42.9848C50.69 43.0532 50.78 43.0923 50.87 43.1216C51.03 43.2095 51.18 43.2876 51.33 43.3852C51.33 43.3852 51.33 43.3852 51.31 43.3755C51.34 43.395 51.37 43.4243 51.4 43.4438C51.44 43.4731 51.48 43.5122 51.52 43.5415C51.59 43.6099 51.66 43.6782 51.73 43.7466C52.04 44.0591 52.41 44.3813 52.85 44.4985C55.35 46.3443 57.94 48.0728 60.6 49.6939C61.21 50.2506 61.86 50.817 62.47 51.4127C62.27 51.5396 62.09 51.6959 61.93 51.8814C61.73 52.1256 61.46 52.3209 61.31 52.5943C61.09 53.0045 61.18 53.444 61.37 53.8346C61.44 53.9811 61.53 54.1178 61.62 54.2545C61.66 54.3229 61.7 54.3912 61.75 54.4498C61.75 54.4498 61.76 54.4694 61.77 54.4889C61.86 54.7233 61.91 54.9674 62.01 55.2018C62.15 55.5436 62.33 55.8073 62.69 55.9342C62.89 56.0026 63.12 56.0417 63.33 56.0807C63.76 56.1588 64.13 56.11 64.53 55.944C64.64 55.8952 64.75 55.8366 64.86 55.778C64.86 55.7975 64.86 55.817 64.86 55.8366C64.78 55.9147 64.73 56.0124 64.71 56.1198C64.61 56.2077 64.48 56.2956 64.31 56.3444C64.22 56.3737 64.13 56.3932 64.04 56.4128C62.16 56.237 60.67 55.0944 58.85 54.6549C57.01 54.2057 55.42 53.1022 53.63 52.4186C51.72 51.6861 49.88 50.651 48.14 49.5963C47.35 49.1177 46.49 48.8834 45.65 48.4927C44.84 48.1216 44.12 47.6138 43.28 47.3111C43.1 47.2427 42.91 47.1841 42.73 47.1255C41.03 45.9732 39.42 44.6939 37.78 43.4731C35.47 41.7544 33.02 40.2407 30.57 38.7172C30.52 38.6781 30.47 38.6488 30.42 38.6098C29.6 38.0336 28.73 37.5063 27.86 36.9691C27.78 36.8715 27.66 36.8031 27.53 36.7641C26.57 36.1683 25.62 35.5531 24.76 34.85C23.28 33.6488 21.72 32.6722 19.88 32.0863C18.28 31.1878 16.65 30.3577 15.04 29.469C13.36 28.5413 11.76 27.4768 10.07 26.5784C7.09 24.9963 4.07 23.1897 0.6 23.0822C-0.2 23.0529 -0.2 24.2737 0.6 24.303L0.779993 24.3323ZM65.06 70.2899C65.08 70.2313 65.1 70.1825 65.12 70.1239C65.12 70.1141 65.12 70.1043 65.13 70.0946C65.13 70.0946 65.13 70.0946 65.13 70.0848C65.13 70.0848 65.13 70.075 65.14 70.0653C65.16 70.0653 65.18 70.0457 65.21 70.0262C65.23 70.0262 65.24 70.0164 65.26 70.0067C65.34 69.9774 65.43 69.9579 65.51 69.9383C65.73 69.8797 65.95 69.7918 66.15 69.6942C66.23 69.6551 66.34 69.6258 66.4 69.577C66.32 69.6453 66.34 69.5965 66.41 69.577C66.41 69.577 66.43 69.577 66.44 69.577C66.45 69.577 66.46 69.577 66.47 69.577C66.51 69.5868 66.58 69.6063 66.59 69.6161C66.47 69.577 66.59 69.6161 66.63 69.6356C66.67 69.6551 66.71 69.6844 66.75 69.7039C66.75 69.7039 66.8 69.7528 66.82 69.7723C66.82 69.7723 66.82 69.7821 66.83 69.7918C66.83 69.7918 66.85 69.8309 66.87 69.8602C66.87 69.8797 66.88 69.8895 66.88 69.909C66.88 69.9188 66.88 69.9383 66.89 69.9481C66.89 69.9481 66.89 69.9481 66.89 69.9676V69.9872C66.53 70.1629 66.12 70.3973 65.71 70.5536C65.42 70.6317 65.15 70.661 64.9 70.6512C64.95 70.5243 65.01 70.4071 65.06 70.2801V70.2899ZM68.13 34.557C68.13 34.557 68.12 34.5863 68.11 34.5961C68.11 34.5961 68.13 34.5668 68.14 34.557H68.13ZM67.97 34.9965C67.99 34.9086 68.01 34.8304 68.03 34.7425C68.03 34.723 68.04 34.7035 68.05 34.684C68.08 34.684 68.11 34.684 68.14 34.684C68.17 34.684 68.21 34.6742 68.24 34.6644C68.28 34.7132 68.32 34.7621 68.36 34.8109C68.63 35.2015 69.18 35.8754 69.23 36.4027C69.19 36.4027 69.15 36.4027 69.11 36.4027C69.07 36.393 69.06 36.393 69.05 36.393C69.02 36.3734 68.99 36.3539 68.98 36.3539C68.98 36.3539 68.96 36.3441 68.95 36.3344C68.92 36.3148 68.9 36.2953 68.87 36.266C68.81 36.2074 68.75 36.1488 68.69 36.0805C68.57 35.9535 68.45 35.8168 68.34 35.6801C68.31 35.641 68.28 35.6117 68.25 35.5726C68.25 35.5726 68.23 35.5531 68.22 35.5433C68.16 35.4847 68.11 35.3969 68.06 35.3187C68.04 35.2797 68.01 35.2406 67.99 35.2015C67.99 35.2015 67.99 35.182 67.98 35.182C67.98 35.1527 67.96 35.1136 67.95 35.0941C67.95 35.055 67.95 35.0258 67.95 34.9867L67.97 34.9965ZM63.81 14.6935C63.81 14.6935 63.81 14.5958 63.81 14.547C63.81 14.5372 63.82 14.4688 63.82 14.4395C63.82 14.4102 63.83 14.3712 63.83 14.3614C63.83 14.3126 63.85 14.2638 63.86 14.2149C63.95 13.8145 64.1 13.4239 64.25 13.043C64.28 12.9747 64.3 12.9063 64.33 12.838C64.33 12.8282 64.36 12.7501 64.38 12.7208C64.42 12.6329 64.47 12.5548 64.52 12.4669C64.52 12.4571 64.53 12.4473 64.55 12.4376C64.58 12.4083 64.61 12.379 64.63 12.3399C64.67 12.3008 64.71 12.2716 64.74 12.2325C64.74 12.2325 64.71 12.2423 64.67 12.2618C64.9 12.1739 65.1 11.9786 65.13 11.7344C65.35 11.793 65.51 11.9493 65.54 12.2813C65.59 12.9356 65.23 13.7364 64.97 14.3224C64.88 14.5177 64.79 14.7325 64.69 14.9376C64.63 14.9376 64.57 14.9376 64.5 14.9376C64.53 14.9278 64.57 14.9181 64.6 14.9278C64.58 14.9278 64.56 14.9181 64.55 14.9083C64.52 14.8985 64.51 14.8888 64.5 14.8888L64.39 14.8399C64.25 14.7813 64.11 14.7521 63.95 14.7423C63.9 14.7423 63.85 14.7423 63.8 14.7521C63.8 14.713 63.8 14.6837 63.8 14.6739L63.81 14.6935ZM59.35 8.57033C59.35 8.57033 59.35 8.57033 59.34 8.57033C59.33 8.57033 59.32 8.57033 59.29 8.57033C59.31 8.57033 59.33 8.57033 59.35 8.57033ZM59.31 8.57033C59.31 8.57033 59.3 8.57033 59.29 8.57033C59.29 8.57033 59.3 8.57033 59.31 8.57033ZM58.29 10.5528C58.29 10.5528 58.29 10.5332 58.29 10.5235C58.29 10.4844 58.29 10.4747 58.29 10.4942C58.29 10.4942 58.29 10.4844 58.29 10.4747C58.3 10.4161 58.32 10.3575 58.33 10.2989C58.35 10.2403 58.36 10.1914 58.38 10.1329C58.38 10.1231 58.4 10.084 58.41 10.0547C58.39 10.1231 58.44 10.0059 58.45 9.9766C58.46 9.9473 58.48 9.918 58.49 9.88871C58.65 9.5762 58.79 9.2637 58.97 8.97073C59 8.93166 59.02 8.8926 59.05 8.84377C59.07 8.82424 59.08 8.79494 59.1 8.77541C59.15 8.69728 59.08 8.78518 59.08 8.80471C59.08 8.75588 59.25 8.62892 59.28 8.58986C59.29 8.58986 59.3 8.5801 59.32 8.57033C59.32 8.57033 59.31 8.57033 59.3 8.57033C59.3 8.57033 59.3 8.57033 59.31 8.57033H59.33C59.33 8.57033 59.33 8.57033 59.34 8.57033H59.36C59.36 8.57033 59.35 8.57033 59.33 8.57033C59.33 8.57033 59.33 8.57033 59.32 8.57033C59.32 8.57033 59.34 8.57033 59.35 8.57033C59.39 8.57033 59.42 8.5801 59.35 8.57033C59.36 8.57033 59.37 8.57033 59.37 8.57033C59.53 8.5801 59.68 8.5508 59.81 8.46291C59.86 8.75588 59.81 9.13674 59.78 9.36136C59.71 9.87894 59.53 10.3868 59.31 10.875C59.1 10.7774 58.84 10.7383 58.59 10.7383C58.51 10.7383 58.43 10.7383 58.34 10.7383C58.32 10.7383 58.3 10.7383 58.27 10.7383C58.27 10.7286 58.27 10.7188 58.27 10.709C58.27 10.6602 58.27 10.6114 58.27 10.5625C58.27 10.5625 58.27 10.5625 58.27 10.5528C58.27 10.5528 58.27 10.5625 58.27 10.5723L58.29 10.5528ZM58.21 10.709C58.16 10.67 58.18 10.6895 58.21 10.709V10.709ZM51.69 8.04298C51.69 8.04298 51.71 7.97462 51.72 7.93556C51.73 7.90626 51.75 7.8672 51.76 7.8379C51.77 7.81837 51.78 7.7793 51.81 7.72071C51.84 7.65235 51.87 7.57422 51.89 7.50586C51.95 7.33984 51.99 7.17383 52.04 7.00781C52.06 6.92968 52.09 6.84179 52.12 6.76367C52.12 6.76367 52.16 6.67577 52.16 6.65624C52.22 6.53905 52.29 6.43163 52.35 6.31444C52.46 6.13866 52.53 5.95311 52.58 5.75779C52.61 5.75779 52.64 5.73826 52.66 5.73826C52.7 5.73826 52.74 5.74803 52.79 5.75779C53.06 5.84569 53.38 5.94334 53.6 6.13866C53.64 6.24608 53.68 6.37303 53.69 6.52929C53.75 7.0957 53.67 7.69141 53.51 8.29689C53.38 8.27736 53.24 8.29689 53.12 8.36525C53.12 8.36525 53.07 8.39455 53.04 8.40431C53.04 8.40431 53.02 8.40431 53.01 8.40431C52.97 8.41408 52.92 8.42384 52.88 8.43361C52.87 8.43361 52.88 8.43361 52.86 8.43361C52.76 8.43361 52.66 8.44338 52.56 8.43361C52.52 8.43361 52.48 8.43361 52.44 8.43361C52.44 8.43361 52.44 8.43361 52.42 8.43361C52.32 8.41408 52.21 8.39455 52.11 8.35548C52.09 8.35548 52.06 8.33595 52.04 8.33595C52.01 8.31642 51.97 8.30665 51.94 8.28712C51.91 8.26759 51.88 8.24806 51.84 8.22853C51.83 8.22853 51.83 8.22853 51.82 8.21876C51.79 8.18947 51.76 8.1504 51.72 8.13087C51.72 8.11134 51.7 8.10157 51.69 8.08204C51.69 8.06251 51.69 8.06251 51.68 8.04298C51.68 8.04298 51.68 8.02345 51.68 8.01368L51.69 8.04298ZM43.48 9.85941C43.85 9.49808 44.28 9.15627 44.65 9.13674C44.54 9.35159 44.41 9.55667 44.27 9.75199C44.27 9.75199 44.19 9.84964 44.18 9.86917C44.18 9.86917 44.16 9.88871 44.16 9.89847C44.07 10.0059 43.97 10.1231 43.89 10.2305C43.84 10.2989 43.79 10.3672 43.75 10.4356C43.73 10.4649 43.71 10.4942 43.69 10.5235C43.69 10.5235 43.68 10.543 43.67 10.543C43.65 10.5625 43.63 10.5821 43.62 10.6016C43.62 10.6016 43.61 10.6016 43.6 10.6114C43.58 10.6114 43.55 10.6114 43.54 10.6211C43.51 10.6211 43.48 10.6211 43.47 10.6211C43.42 10.6211 43.37 10.6211 43.32 10.6114C43.27 10.6114 43.22 10.6114 43.18 10.6114C43.18 10.5235 43.18 10.4356 43.18 10.3477C43.36 10.25 43.48 10.0645 43.49 9.85941H43.48ZM48.94 17.799C48.82 17.9845 48.71 18.1701 48.61 18.3654C48.4 18.7658 48.21 19.2248 48.23 19.674C47.9 19.5275 47.58 19.3713 47.26 19.2345C47.09 19.1564 46.92 19.088 46.75 19.0197C44.42 17.6622 42.1 16.2853 39.78 14.8888C39.92 14.7032 40.07 14.5177 40.18 14.3321C40.4 13.9806 40.6 13.6192 40.83 13.2677C41.23 12.6426 41.67 12.0274 42.13 11.4317C42.2 11.5294 42.29 11.6075 42.41 11.6758C42.63 11.7833 42.87 11.8126 43.12 11.8126C43.4 11.8126 43.68 11.8614 43.95 11.7735C44.27 11.6661 44.49 11.4805 44.69 11.2266C44.74 11.1583 44.79 11.0899 44.84 11.0118C44.87 10.9727 44.89 10.9336 44.92 10.9043C44.94 10.8848 44.96 10.8555 44.98 10.836C45.11 10.6797 45.22 10.5137 45.34 10.3575C45.32 10.6309 45.26 10.9141 45.17 11.2168C44.92 11.5391 44.69 11.8614 44.52 12.2227C44.29 12.7012 44.17 13.2091 44.01 13.7169C43.87 14.1856 43.67 14.586 43.65 15.0841C43.62 15.8653 44.87 15.8653 44.9 15.0841C44.91 14.7911 45.05 14.5274 45.15 14.254C45.23 14.2052 45.3 14.1368 45.35 14.0392C45.9 13.0137 46.43 11.9786 47.02 10.9922C47.48 10.5235 48.01 10.084 48.34 9.51761C48.51 9.21487 48.68 8.91213 48.84 8.59963C48.89 8.50197 48.95 8.41408 49.01 8.32619C49.17 8.16017 49.33 7.99415 49.5 7.8379C49.73 7.62305 50.24 7.17383 50.83 6.74413C50.8 6.83203 50.78 6.91992 50.75 7.00781C50.73 7.0664 50.71 7.13476 50.69 7.19336C50.69 7.22266 50.6 7.41797 50.65 7.32031C50.52 7.63282 50.42 7.91602 50.46 8.24806C50.59 9.18557 51.59 9.61527 52.45 9.69339C52.65 9.71292 52.86 9.70316 53.07 9.67386C52.81 10.3184 52.52 10.9336 52.26 11.4903C52.26 11.5001 52.25 11.5098 52.24 11.5196C52.22 11.5684 52.2 11.6172 52.17 11.6563C51.75 12.545 51.3 13.4141 50.84 14.2833C50.69 14.5665 50.54 14.8399 50.39 15.1232C50.25 15.3185 50.11 15.5235 49.96 15.7189C49.56 16.256 49.1 16.92 49.07 17.5841C49.03 17.6622 48.98 17.7306 48.94 17.8087V17.799ZM53.18 21.676C53.18 21.676 53.16 21.7248 53.14 21.7541C53.11 21.8127 53.08 21.8713 53.05 21.9201V21.9299C53.05 21.9299 53.05 21.9299 53.05 21.9396C53.05 21.9396 53.05 21.9396 53.04 21.9494C53.02 21.9689 53.02 21.9689 53.04 21.9494C53.04 21.9592 53.02 21.9787 53.02 21.9787C53.02 21.9689 53.02 21.9494 53.04 21.9299C52.86 22.0178 52.72 22.1936 52.69 22.3986C52.54 22.3205 52.4 22.2326 52.26 22.1545C52.07 22.008 51.87 21.8713 51.69 21.7248C51.01 21.1486 50.21 20.6603 49.38 20.2209C49.55 20.0842 49.67 19.9084 49.74 19.7131C49.74 19.6935 49.76 19.6838 49.77 19.674C49.8 19.5959 49.81 19.4787 49.81 19.3713C49.92 19.2541 50.03 19.1564 50.13 19.0197C50.29 18.8048 50.33 18.5412 50.39 18.2873C50.83 17.6134 50.97 16.8419 51.3 16.1095C51.34 16.0216 51.39 15.9435 51.43 15.8556C51.48 15.797 51.52 15.7482 51.55 15.7091C52.12 14.9767 52.6 14.1856 53.15 13.4337C54.4 11.7344 55.89 10.0547 57.66 8.83401C57.62 8.91213 57.58 8.98049 57.55 9.05862C57.33 9.50784 57.13 9.93753 57.07 10.4356C56.99 11.0508 57.22 11.6758 57.87 11.8712C58.11 11.9493 58.37 11.9493 58.62 11.9493C58.66 11.9493 58.7 11.9493 58.74 11.9493C58.75 11.959 58.76 11.9688 58.78 11.9786C58.64 12.213 58.51 12.4571 58.37 12.6817C57.84 13.5802 57.34 14.4981 56.84 15.4161C55.39 16.6466 54 18.1212 53.87 19.967C53.87 20.006 53.89 20.0353 53.89 20.0744C53.74 20.3381 53.6 20.631 53.49 20.9045C53.39 21.1584 53.31 21.4123 53.21 21.6662L53.18 21.676ZM57.16 24.9963C56.01 24.3127 54.84 23.6487 53.68 22.9943C54.25 22.6916 54.44 21.8615 54.64 21.3244C54.64 21.3049 54.65 21.2853 54.66 21.2658C54.71 21.1682 54.75 21.0803 54.8 20.9826C54.85 20.8752 54.91 20.7678 54.97 20.6603C55 20.6115 55.03 20.5529 55.06 20.5041C55.07 20.4845 55.08 20.465 55.1 20.4455C55.28 20.2697 55.46 20.0842 55.59 19.8791C56.23 19.1955 56.65 18.2287 57.08 17.4865C57.34 17.047 57.6 16.6075 57.86 16.1583C58.12 15.9435 58.38 15.7384 58.61 15.5431C60.05 14.3614 61.54 12.9063 63.3 12.1641C63.23 12.3008 63.17 12.4473 63.11 12.5841C62.92 13.0723 62.72 13.5704 62.63 14.088C62.54 14.6349 62.45 15.338 62.91 15.7579C63.2 16.0216 63.55 16.0118 63.91 15.9825C63.93 15.9825 63.94 15.9825 63.96 15.9923C64.03 16.0216 64.03 16.0216 63.97 15.9923C64.02 16.0118 64.07 16.0314 64.12 16.0509C64.08 16.1193 64.04 16.1779 64 16.2364C63.71 16.5782 63.43 16.92 63.14 17.2619C63.09 17.3107 63.04 17.3595 62.98 17.3986C62.87 17.4865 62.82 17.5744 62.79 17.672C62.09 18.5314 61.41 19.4103 60.74 20.2892C60.37 20.7189 60.02 21.1682 59.71 21.6369C59.34 22.1447 58.99 22.6623 58.64 23.1701C58.43 23.4338 58.2 23.6877 57.95 23.9319C57.9 23.9807 57.36 24.6936 57.16 24.9768V24.9963ZM69.51 45.5825C69.43 45.6021 69.36 45.6314 69.28 45.6411C69.26 45.6411 69.15 45.6411 69.12 45.6411C69.07 45.6411 69.02 45.6411 68.97 45.6411C68.96 45.6411 68.94 45.6411 68.91 45.6411C68.89 45.6021 68.87 45.5435 68.86 45.5435C68.8 45.3482 68.74 45.1431 68.69 44.9478C68.67 44.8794 68.66 44.8208 68.64 44.7524C68.64 44.7427 68.64 44.7524 68.64 44.7427C68.64 44.7231 68.64 44.7036 68.64 44.6743C68.63 44.5376 68.63 44.4009 68.62 44.2642C68.6 44.0884 68.57 43.9224 68.51 43.7563C68.49 43.6977 68.48 43.6294 68.46 43.5708C68.46 43.5513 68.46 43.5513 68.46 43.5415C68.55 43.5122 68.64 43.4927 68.73 43.4731C68.74 43.4731 68.76 43.4731 68.77 43.4731C69 43.7759 69.24 44.0786 69.49 44.3618C69.65 44.7427 69.78 45.1235 69.87 45.5142C69.75 45.5239 69.64 45.5337 69.52 45.5728L69.51 45.5825ZM66.53 48.4732C66.53 48.4927 66.53 48.5025 66.53 48.4732V48.4732ZM67.98 50.2701C67.98 50.2701 67.92 50.2896 67.89 50.2896C67.89 50.2896 67.81 50.2896 67.77 50.2896C67.65 50.2896 67.53 50.2799 67.42 50.2799C67.35 50.2799 67.27 50.2799 67.2 50.2799C67.19 50.2701 67.17 50.2506 67.16 50.2506C67.16 50.2408 67.15 50.2213 67.14 50.2213C67.11 50.1724 67.08 50.1138 67.05 50.065C67.05 50.065 67.05 50.065 67.05 50.0552C67.05 50.0357 67.03 50.0162 67.03 50.0064C67.01 49.9576 67 49.9185 66.98 49.8697C66.95 49.7623 66.92 49.6646 66.89 49.5572C66.84 49.3716 66.77 49.1959 66.7 49.0103C66.67 48.9224 66.63 48.8345 66.6 48.7466C66.59 48.7076 66.57 48.6685 66.56 48.6197C66.56 48.6001 66.55 48.5806 66.54 48.5611C66.54 48.5318 66.54 48.4439 66.53 48.5123C66.53 48.4927 66.53 48.4732 66.53 48.4634C66.53 48.4634 66.53 48.4537 66.53 48.4439C66.54 48.4439 66.55 48.4439 66.55 48.4341C66.57 48.4341 66.58 48.4244 66.6 48.4244C66.62 48.4244 66.63 48.4244 66.65 48.4146H66.64C66.64 48.4146 66.65 48.4146 66.66 48.4146H66.68C66.71 48.4146 66.75 48.3951 66.68 48.4146C66.72 48.4146 66.81 48.4146 66.83 48.4146C67.06 48.4146 67.29 48.4439 67.52 48.4439C67.54 48.4439 67.56 48.4341 67.58 48.4341C67.99 49.0103 68.31 49.6158 68.44 50.1822C68.28 50.2115 68.14 50.2506 67.98 50.2994V50.2701ZM64.38 54.7623C64.33 54.7916 64.28 54.8209 64.23 54.8405C64.21 54.8502 64.13 54.8795 64.13 54.8893C64.1 54.8991 64.07 54.9088 64.04 54.9186C64.02 54.9186 63.99 54.9284 63.97 54.9381C63.94 54.9381 63.91 54.9381 63.87 54.9381C63.85 54.9381 63.83 54.9381 63.81 54.9284C63.71 54.9088 63.62 54.8893 63.52 54.8698C63.47 54.86 63.42 54.8502 63.38 54.8307C63.37 54.7916 63.35 54.7526 63.34 54.7135C63.31 54.6061 63.28 54.4987 63.24 54.401C63.17 54.1764 63.09 53.9615 62.96 53.7565C62.88 53.6393 62.8 53.5221 62.73 53.3951C62.7 53.3463 62.68 53.3072 62.66 53.2584C62.66 53.2486 62.65 53.2194 62.64 53.2096C62.64 53.1901 62.64 53.1803 62.63 53.1608C62.7 53.0924 62.78 53.0143 62.85 52.9459C62.95 52.8483 63.03 52.7408 63.11 52.6334C63.15 52.5846 63.2 52.5357 63.24 52.4869C63.26 52.4674 63.28 52.4576 63.29 52.4381C63.29 52.4381 63.29 52.4381 63.31 52.4381C63.31 52.4381 63.31 52.4381 63.33 52.4381C63.36 52.4381 63.42 52.4186 63.42 52.4186C63.31 52.4381 63.5 52.4186 63.53 52.4186C63.56 52.4186 63.6 52.4186 63.63 52.4186C63.66 52.4576 63.69 52.4967 63.72 52.526C63.91 52.7506 64.08 52.9752 64.24 53.2193C64.39 53.4635 64.53 53.7174 64.63 54.0006C64.7 54.1959 64.72 54.401 64.75 54.5963C64.63 54.6452 64.52 54.7037 64.4 54.7623H64.38ZM41.75 55.153C41.61 55.0748 41.49 54.9772 41.36 54.8893C41.3 54.8405 41.23 54.8014 41.16 54.7623C41.36 54.0494 41.74 53.2486 42.16 52.4674C42.21 52.5162 42.26 52.565 42.31 52.6139C42.33 52.6334 42.34 52.6432 42.34 52.6432C42.34 52.6432 42.34 52.6627 42.36 52.6822C42.43 52.819 42.5 52.9459 42.57 53.0826C42.6 53.151 42.63 53.2096 42.67 53.2779C42.67 53.2877 42.71 53.3561 42.72 53.3854C42.78 53.5319 42.83 53.6783 42.87 53.8248C42.89 53.8834 42.9 53.9518 42.91 54.0104C42.91 54.0299 42.95 54.2643 42.94 54.1666C42.94 54.2448 42.95 54.3326 42.95 54.4205C42.95 54.4596 42.95 54.4987 42.95 54.5475C42.95 54.567 42.95 54.5768 42.95 54.5866C42.95 54.5866 42.92 54.7135 42.91 54.733C42.91 54.7623 42.9 54.7721 42.9 54.7721C42.89 54.8014 42.87 54.8209 42.86 54.8502C42.85 54.86 42.84 54.8698 42.83 54.8795C42.82 54.8893 42.82 54.8893 42.81 54.8893C42.69 54.9577 42.58 55.026 42.45 55.0748C42.42 55.0748 42.32 55.1237 42.31 55.1237C42.26 55.1432 42.2 55.153 42.15 55.1725C42.1 55.1823 42.06 55.192 42.01 55.2018C42.01 55.2018 41.94 55.2018 41.9 55.2018C41.9 55.2018 41.89 55.2018 41.88 55.2018C41.86 55.2018 41.86 55.2018 41.86 55.2018C41.83 55.192 41.8 55.1725 41.77 55.153H41.75ZM47.69 66.1492C47.4 66.452 47.1 66.7449 46.8 67.0379C46.56 67.2723 46.35 67.5555 46.11 67.7703C46.09 67.7899 46.07 67.7996 46.04 67.8192C45.89 67.8777 45.75 67.9266 45.6 67.9559C45.44 67.907 45.28 67.7508 45.09 67.5555C44.74 67.2039 44.57 66.8719 44.53 66.5105C44.55 66.4324 44.58 66.3543 44.6 66.2664C44.62 66.2371 44.65 66.2176 44.67 66.1883C44.74 66.0711 44.81 65.9637 44.89 65.8562C44.91 65.8367 44.96 65.7781 44.97 65.7683C45.02 65.7098 45.08 65.6609 45.13 65.6121C45.15 65.5926 45.17 65.5828 45.19 65.5633C45.19 65.5633 45.19 65.5633 45.21 65.5633C45.26 65.534 45.3 65.5047 45.35 65.4754C45.41 65.4461 45.47 65.4168 45.52 65.3875C45.56 65.3777 45.59 65.3582 45.63 65.3484C45.69 65.3289 45.76 65.3094 45.83 65.2996C45.86 65.2996 45.9 65.2898 45.93 65.2801C46.08 65.2703 46.24 65.2605 46.39 65.2703C46.45 65.2703 46.52 65.2703 46.58 65.2801C46.61 65.2801 46.64 65.2801 46.66 65.2996C46.71 65.3094 46.76 65.3191 46.81 65.3387C46.84 65.3387 46.9 65.368 46.93 65.3777C47.02 65.4168 47.11 65.4656 47.2 65.5242C47.22 65.5437 47.24 65.5535 47.25 65.573C47.3 65.6219 47.35 65.6707 47.4 65.7195C47.41 65.739 47.47 65.7976 47.48 65.8074C47.52 65.8562 47.55 65.9051 47.59 65.9539C47.63 66.0125 47.67 66.0613 47.7 66.1101C47.7 66.1297 47.68 66.1492 47.67 66.1687L47.69 66.1492ZM51.4 70.4852C51.4 70.4852 51.4 70.495 51.4 70.5047C51.4 70.5047 51.4 70.5145 51.39 70.5243C51.19 70.6415 51.02 70.7684 50.78 70.8172C50.5 70.8758 50.18 70.9833 49.9 70.9637C49.61 70.9442 49.21 70.827 49 70.6219C48.8 70.4266 48.75 70.1434 48.71 69.8797C48.73 69.8602 48.75 69.8309 48.77 69.8114C48.81 69.7723 48.85 69.7332 48.89 69.6844C48.89 69.6844 48.9 69.6649 48.91 69.6551C48.94 69.6356 48.95 69.6356 48.95 69.6258C48.97 69.6258 48.99 69.6161 49.01 69.6063C48.91 69.6356 49 69.6063 49.06 69.6063C49.42 69.577 49.72 69.5184 50.04 69.3426C50.06 69.3328 50.22 69.2449 50.17 69.2645C50.17 69.2645 50.18 69.2645 50.2 69.2547C50.21 69.2547 50.21 69.2547 50.22 69.2547C50.23 69.2547 50.24 69.2547 50.24 69.2547C50.26 69.2547 50.27 69.2547 50.29 69.2645C50.36 69.284 50.43 69.3036 50.5 69.3231C50.53 69.3231 50.54 69.3328 50.54 69.3328C50.54 69.3328 50.55 69.3328 50.58 69.3524C50.65 69.3914 50.72 69.4207 50.79 69.4598C50.84 69.4891 50.89 69.5184 50.93 69.5477C50.96 69.5672 51 69.5965 51.03 69.6161C50.99 69.5868 50.99 69.5965 51.05 69.6356C51.1 69.6746 51.14 69.7235 51.19 69.7625C51.21 69.7821 51.23 69.8016 51.25 69.8309C51.25 69.8309 51.26 69.8504 51.28 69.8797C51.3 69.9188 51.33 69.9676 51.35 70.0067C51.35 70.0067 51.37 70.0848 51.38 70.1336C51.38 70.1532 51.38 70.2411 51.38 70.2508C51.38 70.3289 51.38 70.4071 51.38 70.4754L51.4 70.4852ZM48.35 67.6824C48.37 67.6336 48.39 67.5848 48.41 67.5262C48.54 67.3895 48.67 67.2625 48.77 67.1453C48.92 66.9695 49.06 66.7937 49.21 66.618C49.11 66.7449 49 66.8719 48.9 67.0086C48.73 67.2332 48.54 67.4578 48.35 67.6824ZM56.61 71.12C56.61 71.12 56.61 71.1395 56.61 71.1493C56.61 71.1493 56.61 71.1493 56.61 71.1688C56.61 71.1493 56.62 71.1395 56.62 71.12H56.61ZM56.59 71.1786C56.59 71.2079 56.59 71.2079 56.59 71.1786C56.63 71.1297 56.7 71.0419 56.6 71.1395C56.64 71.0907 56.69 71.0516 56.74 71.0126C56.76 70.993 56.78 70.9833 56.81 70.9637C56.92 70.8856 57.04 70.827 57.17 70.7684C57.21 70.7489 57.26 70.7293 57.3 70.7098C57.32 70.7098 57.39 70.6708 57.41 70.661C57.7 70.5536 58 70.4461 58.31 70.3973C58.33 70.3973 58.45 70.3875 58.47 70.3875C58.54 70.3875 58.61 70.3875 58.68 70.3973C58.7 70.3973 58.84 70.4266 58.85 70.4364C58.94 70.4559 59.03 70.4852 59.11 70.5243C59.19 70.5536 59.34 70.6219 59.44 70.6805C59.45 70.7196 59.46 70.7489 59.47 70.7879C59.47 70.8075 59.48 70.9442 59.48 70.9637C59.48 71.0028 59.48 71.0516 59.48 71.0907C59.48 71.12 59.48 71.1297 59.48 71.1395C59.47 71.1883 59.42 71.3446 59.45 71.2762C59.45 71.2762 59.43 71.3251 59.41 71.3641C59.39 71.3837 59.38 71.4032 59.36 71.4227C59.28 71.5106 59.2 71.5985 59.11 71.6864C59.02 71.7743 58.93 71.8524 58.83 71.9403C58.83 71.9403 58.83 71.9403 58.81 71.9501C58.79 71.9598 58.79 71.9598 58.78 71.9696C58.61 72.0282 58.47 72.1454 58.4 72.3016C58.24 72.3407 58.08 72.3798 57.91 72.3895C56.96 72.4481 56.46 72.1551 56.24 71.6864C56.43 71.5985 56.55 71.4227 56.59 71.1981V71.1786ZM57.22 56.2956C57.22 56.2956 57.27 56.2174 57.3 56.1784C57.3 56.1784 57.3 56.1784 57.32 56.1588C57.38 56.0905 57.44 56.0319 57.51 55.9831C57.6 56.0221 57.69 56.071 57.78 56.11C58.82 56.5592 61.28 57.4577 63.32 57.5944C63.45 57.6139 63.57 57.6335 63.69 57.6432C63.65 57.7018 63.61 57.7702 63.58 57.8483C63.57 57.8874 63.54 57.946 63.5 57.985C63.41 58.0827 63.31 58.1804 63.21 58.2682C63.02 58.4343 62.83 58.6003 62.68 58.7956C62.28 59.3034 61.82 59.7526 61.37 60.2019C61.16 60.4167 60.99 60.6804 60.76 60.8757C60.49 61.1003 60.26 61.2566 60.05 61.5398C59.88 61.7742 59.7 61.9597 59.5 62.1745C59.31 62.3699 59.18 62.6042 59.14 62.8582C58.95 63.0535 58.78 63.2683 58.63 63.4929C57.84 64.4402 56.96 65.5828 56.24 66.7547C55.72 67.2137 55.22 67.6629 54.79 68.2C54.38 68.7176 53.93 69.3133 53.44 69.7528C53.22 69.9481 52.93 70.0457 52.62 70.1239C52.57 69.6453 52.37 69.1961 51.98 68.8446C51.53 68.4246 50.83 68.034 50.19 68.0438C49.98 68.0438 49.78 68.1121 49.59 68.2C49.55 68.2196 49.5 68.2488 49.46 68.2684C49.5 68.2196 49.54 68.1707 49.57 68.1317C50.78 66.5691 52.17 65.0847 53.21 63.3953C54.13 61.9011 54.69 60.2312 55.63 58.7468C55.71 58.6198 55.72 58.4929 55.7 58.3659C55.73 58.3073 55.76 58.2585 55.79 58.2096C55.84 58.1218 55.89 58.0436 55.94 57.9557C56.02 57.8386 56.02 57.8386 56.08 57.7604C56.36 57.4284 56.67 57.1257 56.9 56.7643C57 56.6081 57.09 56.4518 57.2 56.3053L57.22 56.2956ZM50.91 53.0045C50.92 52.9264 50.94 52.8483 50.95 52.7604C52.74 53.6686 54.53 54.5768 56.35 55.4166C56.17 55.6315 56.02 55.8659 55.86 56.1003C55.83 56.1491 55.8 56.1979 55.77 56.237C55.77 56.237 55.73 56.2956 55.71 56.3151C55.69 56.3346 55.64 56.3932 55.64 56.403C55.6 56.4518 55.55 56.5006 55.51 56.5495C55.33 56.7448 55.16 56.9401 55 57.155C54.86 57.3405 54.75 57.5358 54.64 57.7311C54.59 57.819 54.54 57.9167 54.49 58.0046C54.46 58.0534 54.43 58.1022 54.4 58.1413C54.4 58.1413 54.38 58.1706 54.36 58.1804C54.35 58.1901 54.33 58.1999 54.32 58.2194C54.21 58.2585 54.11 58.3268 54.03 58.4538C53.69 59.0007 53.14 59.4206 52.73 59.9187C52.17 60.612 51.57 61.2175 50.94 61.8523C49.99 62.8093 49.42 64.0984 48.58 65.1531C48.35 64.8504 48.1 64.5867 47.77 64.3816C47.14 64.0007 46.32 63.9519 45.6 64.0789C45.52 64.0886 45.45 64.1277 45.38 64.1472C45.89 62.9167 46.48 61.7156 47.13 60.5437C47.41 60.2214 47.69 59.8894 47.91 59.528C48.25 58.9519 48.56 58.3464 48.89 57.7604C49.25 57.1159 49.7 56.5299 50.05 55.8854C50.41 55.2311 51.29 53.8737 50.92 53.0045H50.91ZM43.69 49.9478C43.76 49.899 43.82 49.8306 43.87 49.7427C43.94 49.6158 44.01 49.4986 44.08 49.3716V49.3521C45.59 50.2115 47.2 50.9244 48.77 51.6861C49.14 51.8717 49.51 52.0572 49.88 52.2428C49.72 52.36 49.56 52.4869 49.4 52.6139C49.17 52.7408 48.96 52.9166 48.78 53.0924C48.06 53.649 47.33 54.2155 46.57 54.733C46.45 54.8209 46.32 54.9088 46.18 55.0065C46 55.0846 45.82 55.153 45.62 55.2213C45.3 55.3288 45.03 55.5631 44.73 55.6803C44.53 55.7584 44.31 55.7389 44.09 55.8561C43.79 56.0221 43.54 56.3639 43.22 56.4811C42.82 56.6178 42.29 56.5788 41.83 56.4323C42.3 56.4616 42.81 56.2858 43.21 56.071C43.81 55.7584 44.12 55.2506 44.18 54.5963C44.24 53.9811 44.04 53.3463 43.79 52.7897C43.67 52.5358 43.56 52.2525 43.4 52.0279C43.23 51.7838 43.01 51.5689 42.79 51.3639C43.12 50.817 43.44 50.3287 43.68 49.9576L43.69 49.9478Z" fill="black"/>
<path d="M51.51 43.395C51.54 43.4243 51.6 43.4731 51.51 43.395V43.395Z" fill="black"/>
<path d="M53.03 21.9499C53.03 21.9499 53.03 21.9499 53.03 21.9399C53.03 21.9399 53.02 21.9399 53.01 21.9599C53.01 21.9599 53.01 21.9599 53.02 21.9599L53.03 21.9499Z" fill="black"/>
</svg>
