<svg width="167" height="135" viewBox="0 0 167 135" fill="none" xmlns="http://www.w3.org/2000/svg">
<path d="M163.86 111.124C163.69 110.762 163.52 110.401 163.35 110.04C163.23 109.776 163.11 109.512 162.99 109.259C162.58 108.389 162.08 107.393 161.37 106.622C161.3 106.524 161.23 106.426 161.15 106.329L161.07 106.221C161.07 106.221 161.01 106.104 161 106.094C160.95 106.026 160.89 105.958 160.82 105.919C160.72 105.801 160.61 105.684 160.5 105.577L160.48 105.538C160.43 105.43 160.39 105.333 160.32 105.235C160.2 105.05 160 104.923 159.8 104.962C159.42 104.698 158.68 104.258 157.97 104.249C157.78 104.249 157.61 104.298 157.44 104.366C157.39 104.307 157.34 104.249 157.29 104.19C157.06 103.956 156.71 103.946 156.46 104.161C156.25 104.356 156.2 104.649 156.34 104.883C156.26 104.923 156.18 104.962 156.11 105.001C156.02 105.05 155.94 105.089 155.86 105.137L155.74 105.206C155.5 105.235 155.23 105.274 154.96 105.401C154.46 105.616 153.95 105.919 153.37 106.348C153.14 106.514 152.92 106.71 152.78 106.856L152.52 107.003C152.38 107.081 152.24 107.159 152.1 107.237C150.94 107.852 149.69 108.448 148.45 108.682C148.26 108.663 148.07 108.653 147.88 108.614C147.42 108.526 146.98 108.37 146.56 108.165C146.25 108.009 145.96 107.813 145.66 107.608L145.05 107.208C144.86 107.091 144.67 106.964 144.48 106.827C144.43 106.69 144.4 106.544 144.38 106.397C144.36 106.241 144.34 106.085 144.32 105.938C144.27 105.499 144.21 105.05 144.07 104.61C143.9 104.092 143.74 103.585 143.7 103.008V102.882C143.67 102.647 143.66 102.423 143.61 102.198C143.58 102.071 143.54 101.944 143.49 101.827C143.43 101.68 143.39 101.553 143.39 101.436C143.39 101.348 143.39 101.27 143.4 101.192C143.41 101.006 143.42 100.821 143.4 100.635C143.38 100.43 143.34 100.225 143.3 100.03L143.24 99.7174C143.18 99.3659 143.19 99.0045 143.21 98.6139C143.21 98.3698 143.23 98.1158 143.21 97.8717C143.2 97.5689 143.15 97.2662 143.1 96.9733C143.06 96.6998 143.01 96.4361 143 96.1627C142.96 95.3814 142.97 94.5709 142.98 93.9068C143.05 93.233 143.15 92.5591 143.24 91.8853L143.38 90.8892C143.62 89.1021 143.92 86.9731 144.32 84.8051C144.87 81.8363 145.69 78.8773 146.48 76.0062C146.76 75.0101 147.03 74.0042 147.3 73.0081C149.11 66.2209 150.83 58.8966 151.24 51.3281C151.28 50.5468 151.3 49.7656 151.31 49.0625C151.35 48.9648 151.4 48.8671 151.44 48.7695C151.44 48.7597 151.5 48.6035 151.5 48.5937C151.52 48.5546 151.54 48.5156 151.55 48.4667C151.6 48.33 151.64 48.2031 151.68 48.0663C151.72 47.9492 151.75 47.832 151.79 47.7148C151.85 47.6953 151.9 47.6757 151.95 47.6464C152.1 47.5488 152.2 47.3828 152.21 47.1972C152.56 42.1776 152.06 37.6268 150.72 33.6912C149.96 31.4646 148.92 29.5016 147.63 27.861C146.4 26.2887 144.92 24.4528 143.33 22.7242C139.61 18.691 136.18 16.23 132.53 14.98C131.55 14.6479 130.45 14.394 129.19 14.2085C127.83 14.0132 126.46 13.8179 125.09 13.6421L124.42 13.564C124.29 13.5444 124.16 13.5249 124.03 13.5054C124.15 13.3198 124.26 13.1147 124.34 12.8901C124.41 12.8608 124.47 12.8218 124.52 12.7729C125.36 11.9428 125.93 10.9956 126.16 10.0288C126.29 9.48187 126.32 8.92522 126.34 8.43693C126.36 7.86075 126.34 7.33339 126.26 6.83534C126.17 6.25916 126 5.75135 125.76 5.32166C125.65 5.12634 125.55 4.92124 125.44 4.72593C125.33 4.51108 125.22 4.29623 125.1 4.08139C124.82 3.5931 124.48 3.21225 124.03 2.90951C123.91 2.83139 123.79 2.7435 123.66 2.66537L123.38 2.48959C123.18 2.35287 122.99 2.20637 122.81 2.05012L122.65 1.91342C122.31 1.63998 121.9 1.43487 121.41 1.30792C121.41 1.30792 121.4 1.2884 121.39 1.2884C121.28 1.18097 121.12 1.12236 120.96 1.12236C120.86 1.10283 120.77 1.14192 120.69 1.18099C120.68 1.18099 120.66 1.18099 120.65 1.18099C120.22 1.0052 119.86 0.907538 119.51 0.868475C119.12 0.829412 118.77 0.84893 118.48 0.946588C118.16 0.946588 117.87 1.00518 117.62 1.12236H115.31C114.83 1.12236 114.35 1.12236 113.87 1.12236C113.45 1.12236 112.9 1.12238 112.4 1.2298C112.05 1.24933 111.77 1.2884 111.5 1.35676C110.81 1.52278 110.13 1.92317 109.68 2.42123C109.47 2.45052 109.29 2.52866 109.13 2.67515C108.87 2.90952 108.71 3.29038 108.7 3.73961C108.67 4.43298 108.86 5.11656 109.22 5.64391C109.53 6.1029 110.38 7.1869 111.52 7.25526C111.6 7.25526 111.69 7.25526 111.77 7.25526C111.62 7.71425 111.52 8.21232 111.45 8.76897C111.38 9.38421 111.36 10.0092 111.34 10.6147C111.33 11.0151 111.32 11.4057 111.29 11.8061C111.27 12.0893 111.46 12.3335 111.74 12.3921C111.73 12.3921 111.71 12.4116 111.7 12.4116C108.71 12.2358 105.56 12.1186 102.33 12.06C101.63 12.0503 100.94 12.0307 100.24 12.0209C100.23 12.0209 100.21 12.0209 100.2 12.0209H99.5696C99.4496 12.0112 99.3296 12.0405 99.2396 12.1088C99.1496 12.0893 99.0696 12.0893 99.0196 12.1088C98.3296 12.2065 97.6496 12.3237 97.0296 12.4409C96.6896 12.4409 96.3496 12.4702 96.0196 12.519C95.5096 12.5874 95.0196 12.7338 94.5396 12.8706L94.1696 12.978C93.5396 13.1538 92.8996 13.3393 92.2796 13.5444L92.3996 13.8862L92.1496 13.5835C90.7796 13.9839 89.6496 14.355 88.5996 14.7554C88.4796 14.8042 88.3596 14.853 88.2396 14.9019L87.9696 15.0093L87.8796 15.0483L87.7496 15.0972C86.2196 15.7027 84.8496 16.3179 83.5696 16.9624C82.0896 17.7046 80.5796 18.6031 78.9396 19.7066C76.3996 21.4254 73.8996 23.4371 71.5296 25.6833C69.1296 27.9587 66.9096 30.4099 65.2496 32.2849C64.4396 33.2029 63.6296 34.1209 62.8296 35.0486C61.5496 36.5232 60.2596 37.9881 58.9496 39.4432L58.2996 40.1561C57.0596 39.492 55.7196 38.8963 54.3196 38.408C53.5796 38.1248 52.9096 37.9002 52.2896 37.7146C51.1796 37.3826 50.0696 37.1092 48.9796 36.9041C47.6896 36.66 46.6896 36.5818 45.7496 36.6111C43.9796 36.6795 42.1996 37.2654 40.4596 38.3201C40.3996 38.3397 40.3496 38.3592 40.2896 38.3787C40.0596 38.4666 39.8496 38.5838 39.6396 38.6912L39.4396 38.7987C39.2096 38.9158 38.9796 39.0037 38.7396 39.1014C38.4196 39.2283 38.0896 39.3553 37.7696 39.5409C37.3296 39.8045 36.9096 40.1756 36.5296 40.6444C35.8696 41.4549 35.3796 42.4217 35.0796 43.5448C34.9396 44.0526 34.9096 44.5898 34.9896 45.1855C34.7696 46.0253 34.7196 46.8847 34.6796 47.705L34.6596 48.0663C34.5896 49.4238 34.6596 50.4785 34.8696 51.5137C35.0896 52.5391 35.4296 53.5059 35.7396 54.3457C35.7596 54.4824 35.7796 54.6094 35.7896 54.7559C35.8196 55.0489 35.8496 55.3419 35.8896 55.6251C35.9096 55.7911 35.9196 55.9669 35.9396 56.1329C35.9396 56.2794 35.9596 56.4258 35.9796 56.5723C35.1496 56.9922 34.3596 57.334 33.5696 57.6173C32.9996 57.8223 32.4196 58.0079 31.8496 58.1934C31.2896 58.379 30.7296 58.5548 30.1696 58.7599C28.7596 59.2579 27.5696 59.7853 26.5096 60.381L26.3496 60.4689C26.1096 60.5861 25.8196 60.7423 25.6396 60.9962C25.4796 61.2306 25.4396 61.5236 25.5096 61.8165C25.6196 62.2755 25.9696 62.6564 26.5396 62.9591C26.3396 63.4181 26.3296 63.8869 26.5096 64.2677C26.6696 64.5998 26.9596 64.8439 27.3896 65.0295C27.5896 65.2638 27.8696 65.4494 28.2296 65.5861C27.7196 66.0256 27.0596 66.6213 27.0196 67.383C26.9896 67.8908 27.3096 68.3108 27.8596 68.5158C28.1896 69.0334 28.9396 69.2288 29.5596 69.1702C29.7096 69.1604 29.8496 69.1408 29.9996 69.1213C29.9996 69.1311 29.9796 69.1408 29.9696 69.1604C29.9196 69.2385 29.8496 69.2971 29.7796 69.3654C29.6596 69.4826 29.5196 69.6194 29.4196 69.7952C29.3796 69.8733 29.3596 69.9514 29.3396 70.0295C29.2696 70.1272 29.2096 70.2248 29.1596 70.3225C29.1596 70.3225 29.1596 70.342 29.1496 70.3518C28.5096 70.303 27.8696 70.3225 27.2496 70.3909C25.5396 70.5764 23.8696 71.1819 22.4196 72.1487C21.7096 72.6272 21.0296 73.1936 20.3796 73.8772C20.3696 73.6233 20.3496 73.3694 20.3096 73.1155C20.1496 72.0803 19.8096 71.1819 19.2696 70.3713L19.0796 70.0784C18.5796 69.3069 18.0596 68.5158 17.4596 67.7932C17.0196 67.2561 16.4696 66.7775 15.8696 66.3771C15.4496 66.0353 14.9996 65.7326 14.5296 65.4787C14.1096 65.2541 13.6496 65.049 13.1796 64.883C12.9596 64.8048 12.7396 64.7463 12.5196 64.6877C12.2796 64.6193 12.0396 64.5607 11.8096 64.4728L11.6896 64.424C11.4896 64.3459 11.2996 64.2677 11.0896 64.2287C10.7796 64.1603 10.4696 64.1506 10.2396 64.1603C9.82957 64.1603 9.41956 64.1603 9.01956 64.1603H8.66957C8.12957 64.1701 7.60957 64.258 7.05957 64.4924C6.77957 64.6095 6.49958 64.717 6.21958 64.8244L5.67957 65.0295C4.73957 65.4006 3.76958 65.8303 3.10958 66.5725C2.92958 66.7775 2.79957 66.9924 2.67957 67.2072C2.56957 67.4025 2.45958 67.5783 2.32958 67.7248C2.28958 67.7736 2.23958 67.8225 2.18958 67.8713C2.07958 67.9787 1.96958 68.0861 1.88958 68.2131C1.71958 68.467 1.64957 68.7404 1.58957 68.9943C1.51957 69.3069 1.38958 69.5998 1.24958 69.9026L1.09957 70.2639C0.889567 70.7913 0.779569 71.3088 0.679569 71.8948L0.619571 72.2073C0.539571 72.6175 0.459573 73.0374 0.449573 73.4378C0.329573 73.9456 0.22958 74.4241 0.15958 74.8929C-0.11042 76.7191 -0.0404245 78.6136 0.389575 80.7035C0.839575 82.9399 1.58957 85.2446 2.67957 87.7348C3.69957 90.0786 4.94958 92.4029 6.38958 94.6294C6.98958 95.567 7.64957 96.5045 8.30957 97.3737C8.46957 97.7057 8.63957 98.0377 8.83957 98.3502C9.33957 99.1608 9.91957 99.9225 10.4796 100.665L10.8096 101.104C11.0396 101.407 11.2696 101.719 11.4996 102.022C11.0996 102.217 10.6996 102.413 10.3096 102.598C10.1196 102.686 9.99957 102.862 9.98957 103.057C9.97957 103.262 10.0796 103.477 10.2696 103.594C10.4096 103.682 10.5696 103.712 10.7296 103.682C10.6896 103.751 10.6696 103.819 10.6696 103.897C10.6596 104.102 10.7596 104.317 10.9496 104.434C11.1296 104.551 11.3596 104.561 11.5496 104.473C12.3596 104.083 13.1596 103.682 13.9196 103.292C14.0996 103.223 14.2796 103.145 14.4596 103.077L14.8596 102.911C15.3996 102.696 15.8996 102.413 16.3296 102.169C17.2596 101.622 18.2696 101.28 19.3096 100.938C19.7896 100.782 20.2796 100.567 20.8096 100.284C20.9996 100.176 21.1896 100.079 21.3896 99.9811C21.6696 99.8346 21.9496 99.6881 22.2196 99.5416C22.5296 99.3658 22.8096 99.1608 23.0696 98.9557C23.2196 98.8385 23.3696 98.7311 23.5196 98.6237C23.9096 98.36 24.3296 98.1354 24.8396 97.8717C25.2696 97.6471 25.7196 97.4127 26.1396 97.1295C26.6296 96.7975 27.0496 96.3873 27.4396 95.9967L27.7596 95.6744C28.2696 95.1666 28.7696 94.6588 29.2496 94.19L29.6396 93.9166C29.8396 93.7798 30.0396 93.6431 30.2296 93.4967C32.5196 91.7779 34.2596 90.2544 35.6796 88.7017C37.6696 86.5337 38.9096 84.2875 39.3696 82.0414L39.3896 81.9242L39.0396 81.7973L39.4196 81.8266C39.4396 81.7094 39.4596 81.5824 39.4696 81.4652V81.3578C39.8096 78.9164 39.2396 76.6409 37.8896 74.9222C37.4896 74.4143 36.9796 73.9261 36.3296 73.4182C36.1596 73.262 35.9996 73.1155 35.8296 72.969C35.9396 72.969 36.0596 72.969 36.1696 72.969C36.7396 72.9593 37.3096 72.9495 37.8796 72.9495H38.3796C38.9296 72.9593 39.4896 72.969 40.0496 72.8811C40.3496 72.8323 40.6496 72.7639 40.9496 72.6956C41.3096 72.6077 41.6396 72.5296 41.9896 72.4905C42.3196 72.4514 42.7596 72.3929 43.2096 72.2561C43.3596 72.2171 43.5096 72.1682 43.6696 72.1487C43.7596 72.1389 43.8496 72.1389 43.9496 72.1292C44.0596 72.1292 44.1696 72.1292 44.2796 72.1096C44.5996 72.0706 44.9196 72.0022 45.2296 71.9241C45.6396 71.8264 46.0296 71.7385 46.4296 71.7288C46.6296 71.7288 46.7996 71.6409 46.8996 71.4944C46.9596 71.5042 47.0196 71.5139 47.0796 71.5237C47.1196 71.5237 47.1596 71.5335 47.1996 71.5432L47.2396 71.592C47.7496 72.2073 48.1996 72.7249 48.7096 73.1936C49.1996 73.6429 49.7096 74.0628 50.1696 74.4437C50.6696 74.8636 51.1696 75.2835 51.6796 75.6937L51.9796 75.9378C52.3396 76.2308 52.6896 76.5335 53.0396 76.846L54.2296 77.9105C54.9996 78.6039 55.7696 79.2972 56.5596 79.9906C56.6296 80.0785 56.6996 80.1566 56.7796 80.2445C56.9496 80.4301 57.1396 80.5668 57.2396 80.6156C57.3096 80.7035 57.3796 80.7816 57.4496 80.8695C57.7596 81.2113 58.1296 81.3969 58.4896 81.5726L58.6896 81.7094C58.9796 81.9438 59.2696 82.1684 59.6096 82.4516C59.6096 82.4516 59.7596 82.5687 59.7696 82.5785C59.9596 82.7836 60.1496 82.9985 60.3696 83.1742C60.6496 83.4086 60.9496 83.5746 61.1896 83.7113L61.2896 83.7895C62.0296 84.3364 62.8196 84.8246 63.5896 85.2934C63.9096 85.4887 64.2296 85.684 64.5296 85.8696L64.6496 85.9477C64.7496 86.0161 64.8496 86.0844 64.9496 86.1626C65.2596 86.4165 65.5796 86.6606 65.8996 86.9048C66.1596 87.1098 66.4196 87.3052 66.6696 87.5102L66.8196 87.6274C66.9996 87.7739 67.1796 87.9106 67.3696 88.0473C67.5096 88.145 67.6496 88.2427 67.8096 88.3306C67.8896 88.3794 67.9696 88.4087 68.0596 88.4477C68.1496 88.4868 68.2296 88.5259 68.2896 88.5649C68.3596 88.6138 68.4296 88.7212 68.5296 88.8579C68.6896 89.0728 68.8696 89.1802 69.0496 89.2485L69.2196 89.3169C69.4496 89.4048 69.6096 89.4732 69.7496 89.6196L69.8796 89.7661C70.0496 89.9614 70.2196 90.1568 70.4696 90.313C70.5996 90.3911 70.7396 90.4595 70.8796 90.5181C71.0296 90.5864 71.1696 90.645 71.2696 90.7232C71.3496 90.7915 71.4196 90.8599 71.4996 90.9283C71.6596 91.0747 71.8296 91.231 72.0396 91.3579C72.1996 91.4556 72.3696 91.524 72.5496 91.5923C72.6596 91.6314 72.7696 91.6802 72.8796 91.729C72.9796 91.7778 73.0796 91.8951 73.1896 92.022C73.4196 92.2857 73.7396 92.6568 74.2696 92.5982C74.5296 92.5787 74.7396 92.4126 74.8096 92.1783C74.8296 92.1197 74.8396 92.0513 74.8496 91.9927C75.0496 92.0122 75.2396 91.9146 75.3196 91.7974C75.3396 91.7779 75.3596 91.7583 75.3796 91.7388C75.9796 90.9478 76.5496 90.2544 77.1096 89.6196L77.5096 89.1607C78.1496 88.4673 78.8296 87.8227 79.6596 87.0805C79.8096 86.9438 79.9696 86.8071 80.1296 86.6704C80.3896 86.4458 80.6496 86.2212 80.8996 85.977C81.0696 85.811 81.2196 85.6254 81.3696 85.4496C81.5296 85.2543 81.6896 85.059 81.8796 84.893L81.9796 84.8051C82.1296 84.6781 82.2696 84.5512 82.3996 84.4047C82.5496 84.2289 82.6696 84.0336 82.7896 83.8383L82.8396 83.7504C82.9496 83.5746 83.0696 83.4184 83.1996 83.2621C83.3696 83.057 83.4796 82.852 83.5796 82.6176C83.7496 82.2465 83.9796 81.9144 84.2396 81.5726L84.3196 81.4652C84.5296 81.182 84.7496 80.8305 84.8096 80.4203C86.7096 80.9476 88.7396 81.1137 90.8596 80.9086C91.2396 80.8695 91.6496 80.8207 92.0796 80.7425C92.0496 81.6019 92.0096 82.4711 91.9696 83.3305C91.9096 83.4184 91.8796 83.516 91.8696 83.6235C91.8696 83.7309 91.8896 83.8383 91.9396 83.9262C91.6596 88.8677 91.1396 94.0338 90.3396 99.6491L90.2496 99.9225C90.0896 100.352 89.9596 100.792 89.8296 101.221C89.7396 101.524 89.6496 101.817 89.5496 102.12L89.4896 102.296C89.3896 102.598 89.2796 102.921 89.2196 103.253C89.1496 103.663 89.1596 104.063 89.1696 104.424L89.1896 104.708C89.2096 104.971 89.2196 105.225 89.1896 105.46C89.1696 105.596 89.1296 105.733 89.0896 105.87C89.0296 106.055 88.9796 106.241 88.9596 106.446C88.9396 106.71 88.9496 106.983 88.9596 107.247V107.53C88.9796 107.677 88.9696 107.823 88.9696 107.969V108.077C88.7096 109.571 88.4396 111.065 88.1596 112.559L87.9396 113.692C87.6896 114.972 87.4196 116.3 87.2496 117.628C87.2196 117.882 87.1896 118.145 87.1596 118.399L87.1296 118.712C87.0996 118.849 87.0796 118.995 87.0796 119.112L86.9896 120.03C86.9096 120.772 86.8396 121.524 86.7496 122.267C86.6496 123.155 86.5296 123.927 86.3996 124.64C86.2796 124.757 86.1796 124.894 86.1196 125.04C85.9896 125.362 85.9696 125.733 86.0296 126.114C85.9696 126.173 85.9296 126.251 85.9096 126.329C85.8896 126.417 85.8896 126.505 85.9096 126.603C85.8396 126.856 85.7596 127.11 85.6696 127.364C85.0496 129.112 84.0996 130.655 82.8196 131.954C82.6896 132.081 82.6296 132.267 82.6596 132.452C82.6896 132.628 82.7896 132.784 82.9496 132.872C83.1096 132.96 83.2796 133.038 83.4696 133.097C83.3596 133.224 83.3096 133.4 83.3396 133.566C83.3696 133.741 83.4696 133.898 83.6296 133.985C84.1396 134.269 84.6896 134.415 85.2696 134.415C85.7796 134.415 86.2996 134.298 86.8096 134.073C87.1296 133.927 87.3896 133.741 87.6396 133.546C87.7696 133.448 87.8996 133.351 88.0296 133.263C88.4196 133.019 88.8596 132.784 89.3896 132.569C89.8596 132.374 90.3296 132.208 90.8096 132.042C91.2696 131.876 91.7196 131.72 92.1696 131.534C92.6696 131.329 93.0696 131.134 93.4196 130.929C93.6596 130.792 93.8796 130.626 94.0896 130.47C94.2396 130.362 94.3796 130.245 94.5396 130.148C95.0196 129.835 95.5796 129.63 96.1796 129.405C97.0796 129.073 97.9996 128.722 98.6796 127.999C99.2596 127.384 99.3996 126.651 99.5296 125.938L99.5596 125.782C99.7196 124.942 99.9396 124.093 100.21 123.175C100.93 120.763 101.94 118.302 103.34 115.47C103.55 115.206 103.76 114.942 103.97 114.679L104.1 114.522C104.72 113.77 105.35 112.989 105.86 112.12C106 111.876 106.13 111.632 106.26 111.378C106.39 111.124 106.52 110.88 106.67 110.636C106.96 110.147 107.26 109.678 107.61 109.151C108.23 108.223 108.86 107.257 109.43 106.26L109.62 105.919C109.84 105.528 110.05 105.147 110.28 104.757C110.49 104.405 110.71 104.073 110.93 103.731L111.21 103.301C111.56 102.755 111.83 102.188 112.08 101.651C112.32 101.133 112.54 100.684 112.93 100.333C113.08 100.196 113.24 100.069 113.4 99.9518C113.65 99.7565 113.9 99.5514 114.13 99.317C114.18 99.2584 114.24 99.1901 114.3 99.112C114.42 98.9655 114.71 98.6334 114.84 98.6432C115.01 98.6725 115.17 98.6334 115.3 98.5358C115.35 98.4967 115.39 98.4576 115.42 98.4088C115.73 98.3307 116 98.2037 116.27 98.0865L116.31 98.067C117.19 98.0865 118.03 98.3502 118.77 98.8385L118.93 98.9752C119.05 99.0729 119.18 99.1608 119.26 99.2096C119.43 99.3561 119.59 99.5124 119.72 99.6588L120.16 100.245C120.75 101.026 121.32 101.876 121.91 102.833C122.75 104.2 123.53 105.626 124.28 107.012L124.97 108.282C126.17 110.47 127.37 112.432 128.63 114.298C128.95 114.766 129.27 115.235 129.57 115.655C129.67 115.86 129.78 116.065 129.9 116.261C129.97 116.378 130.05 116.485 130.13 116.602C130.21 116.71 130.29 116.827 130.35 116.944C130.44 117.1 130.52 117.257 130.6 117.413C130.75 117.716 130.91 118.028 131.13 118.321C131.28 118.526 131.43 118.731 131.56 118.888L131.61 118.975C131.67 119.083 131.73 119.19 131.81 119.308C132.12 119.727 132.43 120.157 132.79 120.558C133.12 120.929 133.51 121.28 134.02 121.681C134.41 121.993 134.87 122.345 135.38 122.638C136.17 123.097 137.02 123.438 137.85 123.77L138.42 123.995C139.04 124.249 139.55 124.435 140.02 124.591C140.49 124.747 140.97 124.854 141.45 124.972L141.92 125.089C142.97 125.343 144.05 125.606 145.16 125.479C145.7 125.421 146.1 125.177 146.49 124.952L146.65 124.854C147.08 124.61 147.56 124.405 148.04 124.278C148.2 124.239 148.36 124.2 148.52 124.161C148.86 124.083 149.22 124.005 149.57 123.858C149.84 123.751 150.1 123.614 150.35 123.477C150.57 123.36 150.79 123.243 151.02 123.145C152.02 122.726 153.01 122.12 153.97 121.339C154.29 121.075 154.58 120.792 154.87 120.509L154.97 120.401C155.44 120.059 155.9 119.698 156.35 119.347C157.3 118.614 158.28 117.852 159.3 117.208C159.87 116.847 160.56 116.446 161.3 116.222C161.57 116.143 161.86 116.056 162.08 116.104C162.38 116.182 162.68 116.368 162.96 116.544L163.32 116.768C163.57 116.925 163.82 117.091 164.08 117.237C164.13 117.335 164.21 117.403 164.31 117.462C164.42 117.52 164.55 117.54 164.67 117.52C164.92 117.618 165.14 117.677 165.35 117.706C165.62 117.745 165.86 117.638 165.99 117.423C166.91 115.811 165.79 114.22 165.06 113.165C164.58 112.481 164.16 111.866 163.83 111.182L163.86 111.124ZM84.3396 132.042C84.3396 132.042 84.3196 132.042 84.2996 132.042C84.3196 132.023 84.3396 131.993 84.3596 131.974C84.3596 131.974 84.3796 131.983 84.3796 131.993C84.3696 132.013 84.3496 132.032 84.3396 132.052V132.042ZM85.1996 133.175C85.1996 133.175 85.2196 133.175 85.2296 133.175C85.2296 133.175 85.2396 133.175 85.2496 133.175C85.2396 133.175 85.2196 133.175 85.2096 133.175H85.1996ZM148.82 55.3614C148.8 55.5567 148.73 55.7422 148.65 55.9473L148.57 56.1719C148.51 56.338 148.46 56.5137 148.41 56.6895C148.37 56.8165 148.34 56.9434 148.3 57.0606C148.24 57.2364 148.16 57.3926 148.08 57.5489C148.02 57.6661 147.96 57.7833 147.91 57.9005C147.78 58.2032 147.77 58.4962 147.76 58.7794C147.76 59.0919 147.7 59.3848 147.62 59.7169C147.56 59.961 147.5 60.1954 147.44 60.4298C147.34 60.8107 147.24 61.2013 147.16 61.5821C147.05 62.1486 146.99 62.7638 146.96 63.4377C146.96 63.6623 146.96 63.8869 146.95 64.1212C146.95 64.5216 146.95 64.8927 146.9 65.2736C146.85 65.6935 146.77 66.1037 146.69 66.5139C146.65 66.7189 146.61 66.9143 146.58 67.1193L146.5 67.5783C146.42 68.0276 146.35 68.4768 146.24 68.9162C146.01 69.8244 145.67 70.7131 145.34 71.5823L145.05 72.3635C144.83 72.969 144.62 73.5745 144.42 74.18C144.33 74.4534 144.25 74.7366 144.18 75.0198C144.1 75.3128 144.02 75.596 143.93 75.889C143.88 76.0257 143.81 76.1429 143.74 76.2698C143.67 76.387 143.61 76.5042 143.55 76.6312C143.42 76.9339 143.39 77.2367 143.38 77.5492C143.36 78.0179 143.23 78.4769 143.1 78.9652L143 79.3363C142.71 80.4691 142.41 81.6313 142.21 82.8129C142.2 82.8129 142.19 82.7934 142.17 82.7836C142.01 82.6567 141.8 82.5785 141.58 82.5785C141.46 82.5785 141.36 82.5785 141.25 82.5785C141.01 82.4906 140.75 82.4125 140.47 82.3539C140.07 82.266 139.67 82.2074 139.27 82.1488C139.08 82.1195 138.89 82.0902 138.7 82.0609C138.12 81.973 137.54 81.8265 136.98 81.6898L136.45 81.5629C135.62 81.3676 134.73 81.1625 133.81 81.0453C133.08 80.9574 132.34 80.9379 131.62 80.9184L131.04 80.8988L130.69 80.8695C130.52 80.85 130.34 80.8207 130.17 80.8109C129.44 80.7621 128.69 80.7719 127.98 80.7719H127.66L125.34 80.6937C123.45 80.6254 121.57 80.5473 119.68 80.4594C118.73 80.4203 117.78 80.3715 116.83 80.3324C115.99 80.2933 115.13 80.3324 114.14 80.4594C112.65 80.6449 111.11 80.557 109.63 80.4691L108.7 80.4203C106.87 80.3226 105.03 80.4203 103.25 80.4984L102.49 80.5277C101.83 80.557 101.15 80.5765 100.47 80.6644C99.5796 80.7719 98.7396 80.9476 97.9596 81.1918C97.8196 81.2309 97.6796 81.2894 97.5496 81.3383L97.4396 81.3773C97.2396 81.3773 97.0196 81.3773 96.7796 81.4359C96.3396 81.5238 95.9196 81.6898 95.5196 81.8363C95.1596 81.9731 94.8296 82.1 94.4696 82.1781C94.3796 82.1976 94.2896 82.2172 94.1896 82.2367V81.1625V80.225C95.8496 79.805 97.4696 79.2386 98.8796 78.7406C101.91 77.6566 104.41 76.8265 106.77 76.1331C108.15 75.723 109.5 75.3616 110.8 75.0394C111.19 74.9417 111.58 74.8538 111.96 74.7659C112.06 74.9515 112.26 75.0784 112.5 75.0784C112.83 75.0784 113.1 74.8245 113.1 74.5023C113.35 74.4534 113.59 74.3948 113.84 74.346L113.96 74.3265C114.09 74.2972 114.23 74.2776 114.35 74.2288C114.48 74.18 114.61 74.1019 114.74 74.0237C114.8 73.9847 114.85 73.9554 114.9 73.9261C117.23 72.6565 119.82 71.8557 122.33 71.0745C124.81 70.303 127.38 69.5022 129.73 68.2522C134.16 65.8986 138.36 63.047 142.23 59.7657C143.18 58.9552 144.14 58.0958 145.08 57.2169L145.24 57.0704C145.4 56.9239 145.56 56.7774 145.69 56.6114C145.85 56.4161 145.94 56.1914 146.02 55.9961L146.07 55.8789C146.15 55.6836 146.27 55.5664 146.49 55.3614C146.75 55.1172 147.01 54.8535 147.25 54.5899C147.84 53.9453 148.37 53.2715 148.83 52.6563C148.83 52.666 148.83 52.6758 148.83 52.6856C148.81 53.3008 148.81 53.9258 148.83 54.5508V54.6973C148.84 54.9219 148.85 55.1563 148.83 55.3809L148.82 55.3614ZM142.92 26.5426C143.09 26.445 143.25 26.3473 143.42 26.2497L143.49 26.3668C143.63 26.5915 143.76 26.8258 143.92 27.0505C144.2 27.4606 144.54 27.7927 144.88 28.1247C145.21 28.447 145.53 28.7595 145.77 29.1208C145.91 29.3356 146.02 29.5798 146.14 29.8337C146.22 30.0095 146.3 30.195 146.4 30.3708C146.54 30.6247 146.7 30.8786 146.86 31.1228C146.99 31.3278 147.12 31.5329 147.24 31.738C147.4 32.0212 147.55 32.3044 147.7 32.5876L148.17 33.447C148.36 33.7888 148.55 34.1209 148.69 34.4627C148.9 34.9509 149 35.449 149.09 35.908C149.16 36.2889 149.27 36.6502 149.37 36.992L149.49 37.4022C149.79 38.4862 149.99 39.4725 150.09 40.4295C150.18 41.367 150.15 42.3241 150.11 43.2616V43.5741C150.09 43.9159 150.08 44.2577 150.08 44.5995C150.08 45.2929 150.08 45.996 149.98 46.6796C149.95 46.9335 149.89 47.1972 149.81 47.4706C149.76 47.4902 149.71 47.5195 149.67 47.5585C149.55 47.666 149.48 47.8124 149.48 47.9785V48.2519C149.37 48.4179 149.26 48.5742 149.15 48.7304L148.63 49.4921C148.06 50.332 147.48 51.2012 146.85 52.0117C146.45 52.5293 146.03 53.0176 145.62 53.4571C145.41 53.6817 145.2 53.8965 144.97 54.1016L144.88 54.1797C144.71 54.336 144.51 54.5117 144.38 54.7754C144.33 54.8828 144.28 54.9903 144.24 55.0977C144.2 55.1954 144.17 55.293 144.12 55.3809C144.04 55.5274 143.87 55.6739 143.7 55.8204L143.52 55.9864C143.07 56.4063 142.62 56.8165 142.16 57.2266C138.71 60.2833 134.71 63.1349 130.27 65.6838C129.24 66.2795 128.03 66.9533 126.78 67.5002C125.76 67.9397 124.64 68.3498 123.14 68.8283C122.52 69.0334 121.89 69.219 121.26 69.4143C119.45 69.9709 117.57 70.5471 115.78 71.2991C115.15 71.5628 114.54 71.8459 113.98 72.1389C113.88 72.1878 113.79 72.2464 113.69 72.305C113.66 72.3245 113.62 72.344 113.59 72.3635C113.61 72.1585 113.61 71.9632 113.62 71.7971C113.62 71.387 113.62 70.967 113.6 70.5569L113.58 69.3654C113.58 68.9455 113.58 68.5354 113.55 68.1447V67.9885C113.56 67.8029 113.57 67.6271 113.57 67.4416C113.57 67.0021 113.55 66.6408 113.49 66.299C113.49 66.2404 113.46 66.1818 113.44 66.1623V65.9963C113.43 65.8303 113.42 65.6642 113.43 65.4982C113.51 63.6916 113.27 61.9435 113.05 60.6153L113.01 60.3907C112.9 59.6974 112.78 58.9747 112.61 58.2813C112.5 57.8419 112.38 57.4024 112.24 56.9727V56.9337C112.24 56.6505 112.25 56.3672 112.24 56.0743C112.23 55.5762 112.19 55.1368 112.12 54.7364C112.05 54.3653 111.94 54.0235 111.83 53.6914L111.73 53.3789C111.65 53.1348 111.6 52.8809 111.55 52.6367C111.51 52.4609 111.48 52.2851 111.43 52.1191C111.37 51.8848 111.29 51.6797 111.15 51.4062C111.11 51.3379 111.08 51.2695 111.05 51.2011L111.17 51.123C112.82 50 114.46 48.8671 116.03 47.7343C119.17 45.4784 122.24 43.1347 125.18 40.7616C126 40.0975 126.8 39.4236 127.6 38.7498L128.01 38.3885C128.75 37.9783 129.55 37.5096 130.44 36.9529C130.94 36.6404 131.45 36.3279 131.87 35.8787C132.02 35.7127 132.16 35.5466 132.3 35.3709C132.5 35.1267 132.68 34.8924 132.9 34.7068C133.1 34.531 133.35 34.4138 133.62 34.2869C133.83 34.1892 134.04 34.0818 134.24 33.9548C134.59 33.7302 134.89 33.447 135.19 33.1833L135.48 32.9197C135.71 32.7244 135.95 32.5486 136.19 32.3728C136.38 32.2361 136.57 32.0993 136.75 31.9529C137.16 31.6306 137.55 31.2693 137.92 30.8884C138.25 30.5368 138.57 30.1755 138.88 29.8044C139.29 29.3161 139.68 28.8571 140.13 28.4372C140.94 27.6852 141.86 27.1286 142.9 26.5231L142.92 26.5426ZM113.25 10.5659C113.27 9.69671 113.29 8.78848 113.49 7.95839C113.54 7.93886 113.59 7.90957 113.63 7.8705C113.76 7.76308 113.83 7.60685 113.82 7.43106C113.82 7.26504 113.82 7.08924 113.8 7.01111C114.12 6.32751 114.67 5.79042 115.39 5.47791C115.7 5.34119 116.06 5.24352 116.45 5.18492C116.7 5.17516 116.96 5.17516 117.21 5.18492C117.65 5.20445 118.1 5.24353 118.54 5.29236H118.64C119.02 5.34119 119.37 5.38025 119.71 5.47791C120.36 5.66346 120.95 6.05408 121.41 6.59119C121.72 6.95252 121.96 7.37247 122.17 7.91935C122.33 8.46623 122.39 9.03263 122.46 9.57951C122.51 9.98967 122.58 10.4682 122.75 10.9077C122.81 12.1577 122.52 12.9389 121.9 13.2319C120.44 13.0659 118.99 12.9096 117.53 12.7827L116.65 12.6948C116.22 12.519 115.8 12.4995 115.4 12.4897C115.28 12.4897 115.16 12.4897 115.04 12.4702C114.81 12.4507 114.59 12.4018 114.37 12.353C114.17 12.3042 113.96 12.2553 113.75 12.2261V12.06C113.76 11.9038 113.7 11.7475 113.58 11.6303C113.48 11.5327 113.35 11.4741 113.22 11.4643C113.23 11.1714 113.24 10.8784 113.25 10.5756V10.5659ZM88.5096 16.3081C91.4696 15.0874 94.6096 14.1597 97.7596 13.564L98.9596 13.603C99.8796 13.6323 100.8 13.6225 101.72 13.6128H102.93C103.13 13.6128 103.33 13.6128 103.52 13.603C103.98 13.5932 104.41 13.5835 104.84 13.6225C105.06 13.6421 105.28 13.6714 105.5 13.7007C105.88 13.7495 106.27 13.8081 106.68 13.8081C107.15 13.8081 107.62 13.8081 108.08 13.7983C108.96 13.7886 109.86 13.769 110.74 13.8276C110.87 13.8276 111.02 13.8667 111.2 13.896C111.81 13.9936 112.71 14.1499 113.2 13.6518L113.59 13.6811C114.01 13.7104 114.42 13.73 114.84 13.769L115.82 13.8471L115.92 13.8765C116.04 13.9155 116.16 13.9546 116.28 13.9741C116.45 14.0034 116.62 14.0229 116.8 14.0425L117.04 14.0718C117.21 14.0913 117.37 14.1304 117.53 14.1694L117.81 14.228C118.53 14.3647 119.26 14.394 119.88 14.4038C120.34 14.4233 120.8 14.4331 121.33 14.4429C121.38 14.4429 121.44 14.4429 121.49 14.4526H121.56C121.66 14.4917 121.77 14.5112 121.89 14.4819C122.03 14.4819 122.17 14.5015 122.3 14.5112L123.81 14.7065C124.01 14.7358 124.22 14.7651 124.42 14.8042C125.09 14.9311 125.75 15.0874 126.41 15.2339C126.8 15.3218 127.19 15.4097 127.58 15.4976C128.56 15.7026 129.59 15.937 130.56 16.2788C130.91 16.396 131.24 16.5425 131.57 16.6988L131.95 16.8648C132.41 17.0699 132.9 17.2066 133.43 17.3726L133.56 17.4117C133.98 17.5386 134.42 17.6656 134.78 17.8804C134.95 17.9878 135.1 18.1148 135.26 18.2417C135.45 18.398 135.64 18.5542 135.86 18.6812L136.16 18.857C136.46 19.023 136.75 19.189 137 19.3941C137.26 19.5992 137.5 19.8336 137.73 20.0582L138.14 20.4488C138.88 21.1422 139.57 21.7867 140.2 22.5387C140.74 23.1832 141.31 23.857 141.93 24.5016C141.26 25.0485 140.5 25.5172 139.77 25.9762C139.16 26.3571 138.54 26.7477 137.92 27.2067C137.91 27.2067 137.9 27.1872 137.89 27.1872C137.77 27.0993 137.66 27.0016 137.55 26.9235C137.03 26.5231 136.53 26.1813 136.04 25.8786C135.91 25.8004 135.78 25.7321 135.65 25.654C135.37 25.4977 135.1 25.361 134.91 25.1754C134.79 25.068 134.68 24.9508 134.57 24.8336C134.41 24.6578 134.25 24.4821 134.07 24.3356C133.73 24.0524 133.37 23.9254 132.99 23.9547C132.69 23.818 132.37 23.7887 132.01 23.8961C131.72 23.8375 131.45 23.8375 131.19 23.8961C130.65 24.0035 130.16 24.2672 129.76 24.5114C129.43 24.7067 129.12 24.9215 128.8 25.1364L128.54 25.3122C128.32 25.4684 128.09 25.6149 127.86 25.7614C127.62 25.9176 127.37 26.0739 127.13 26.2399L126.74 26.5036C125.83 27.1286 124.88 27.7633 123.88 28.2516C123.54 28.4176 123.14 28.5837 122.75 28.5837C122.54 28.4763 122.31 28.3102 122.06 28.0856C121.9 27.9489 121.75 27.7926 121.6 27.6462C121.33 27.3825 121.06 27.1188 120.75 26.8747C120.24 26.484 119.69 26.152 119.23 25.8883L118.87 25.6833C118.47 25.4586 118.07 25.234 117.69 24.9801C117.37 24.7653 117.06 24.5407 116.75 24.3063L116.5 24.1207C115.79 23.5836 114.91 22.9195 113.9 22.8512C113.88 22.8512 113.86 22.8512 113.84 22.8512C113.82 22.8512 113.79 22.8512 113.76 22.8512C113.59 22.8023 113.41 22.7535 113.22 22.7438C112.97 22.7242 112.72 22.7633 112.5 22.8414C112.22 22.9391 112.07 23.1051 111.94 23.2516C111.9 23.2906 111.87 23.3297 111.83 23.3785C111.54 23.6715 111.1 23.8375 110.64 24.0231C110.46 24.0914 110.28 24.1598 110.11 24.2379C109.44 24.5407 108.74 24.902 107.91 25.361C107.77 25.4 107.61 25.4391 107.45 25.5172C107.2 25.6442 107 25.82 106.9 25.9176L106.48 26.1618C106.14 26.3668 105.81 26.5915 105.48 26.8161C105.3 26.943 105.12 27.0602 104.93 27.1872C104.61 27.3922 104.2 27.6364 103.78 27.7438C103.71 27.6657 103.64 27.5778 103.58 27.4899C103.23 27.0016 102.96 26.4743 102.63 25.8395C102.31 25.2243 102.02 24.7164 101.63 24.2477C101.33 23.8766 100.99 23.5445 100.66 23.2223L100.37 22.9293C100.02 22.5777 99.7196 22.1969 99.3896 21.8063L99.3196 21.7184C99.2496 21.6402 99.1796 21.5523 99.1496 21.5133C99.1296 21.4742 99.1096 21.4156 99.0596 21.357C98.8196 21.0347 98.5096 20.8199 98.2296 20.7711C98.2196 20.7711 98.1196 20.7125 98.1096 20.7125C97.8596 20.6051 97.6096 20.5562 97.3096 20.5855C97.0696 20.5074 96.8296 20.4683 96.5996 20.4976C96.1796 20.5367 95.9296 20.7125 95.6996 20.9078C95.4596 21.1031 95.2296 21.2789 94.9296 21.4156C94.7096 21.5133 94.4796 21.6012 94.2496 21.6793L94.0096 21.7672C93.5996 21.9137 93.2096 22.109 92.8296 22.2945C92.5996 22.402 92.3796 22.5094 92.1496 22.6168C91.7996 22.773 91.4596 22.9195 91.1196 23.0758L90.8696 23.193L90.7196 23.232C90.5796 23.2613 90.4496 23.3004 90.3096 23.3395C89.6096 23.5348 88.9696 23.8473 88.3996 24.1207C88.3496 24.1305 88.2896 24.15 88.2196 24.1598C88.0996 23.9547 88.0296 23.691 87.9596 23.4371C87.9496 23.3981 87.9396 23.3492 87.9296 23.3102L87.9096 23.1832C87.9096 22.3824 87.8396 21.6598 87.7196 20.9469C87.6796 20.6832 87.6296 20.4293 87.5796 20.1656C87.4896 19.6675 87.3996 19.1695 87.3396 18.6617C87.2996 18.2808 87.2796 17.9097 87.2796 17.5581C87.2796 17.3531 87.1696 17.1577 86.9896 17.0601C86.9796 17.0601 86.9696 17.0503 86.9596 17.0406C87.4596 16.8159 87.9596 16.5816 88.4596 16.3765L88.5096 16.3081ZM66.0496 34.1306C67.9396 31.9529 69.9996 29.6384 72.1996 27.4606C72.6496 27.0114 73.1196 26.5719 73.5296 26.1813L73.5796 26.152C74.1696 25.8004 74.7296 25.4098 75.2796 25.0289C75.7496 24.7067 76.2196 24.3844 76.6996 24.0817C77.2896 23.7203 77.7296 23.2614 78.0496 22.9098C78.4696 22.4508 78.8696 22.0992 79.3096 21.816C79.9696 21.3765 80.6996 21.0054 81.4096 20.6539C81.7396 20.4879 82.0596 20.3218 82.3796 20.1461C82.9996 19.814 83.5496 19.4332 83.9596 19.1304C84.1896 18.9644 84.4396 18.8082 84.6896 18.6617C84.6996 18.6617 84.7196 18.6421 84.7296 18.6421C84.8196 18.8472 84.9196 19.0425 85.0396 19.2476C85.3096 19.7359 85.4696 20.273 85.6196 20.9371C85.6996 21.2984 85.7696 21.6598 85.8396 22.0113C85.9196 22.4605 86.0096 22.9 86.0996 23.2711C86.1096 23.5543 86.1196 23.8375 86.1696 24.1207C86.2296 24.4625 86.4096 25.5075 87.3696 25.5856C87.4496 25.5856 87.5196 25.5856 87.5996 25.5856C87.7396 25.6637 87.8896 25.7028 88.0496 25.7223C88.6096 25.7614 89.1196 25.5075 89.4896 25.2926C90.3496 25.0875 91.1696 24.7262 91.8496 24.3942C93.7096 23.984 95.1596 23.4371 96.4196 22.6852C96.6696 22.5387 96.9096 22.3824 97.1596 22.2359L97.4196 22.0797C97.4196 22.0797 97.4596 22.0602 97.4796 22.0406C97.4896 22.0504 97.5096 22.0699 97.5196 22.0797C97.5296 22.109 97.5396 22.1383 97.5496 22.1676C97.5896 22.2848 97.6196 22.402 97.6396 22.5289C97.6896 22.734 97.7396 22.9391 97.8196 23.1344C98.0196 23.6227 98.3796 23.9254 98.7296 24.2281C98.8796 24.3551 99.0296 24.4918 99.1696 24.6383C99.3496 24.8434 99.4996 25.1071 99.6496 25.361L99.7496 25.527C99.9396 25.859 100.12 26.1911 100.29 26.5329L100.51 26.9821C100.7 27.3923 100.9 27.8122 101.15 28.2126C101.4 28.613 101.87 29.3649 102.72 29.3845C102.75 29.3845 102.78 29.3845 102.8 29.3845C102.95 29.4626 103.15 29.5407 103.4 29.5505C104 29.531 104.52 29.2673 104.98 29.0036L105.22 28.8669C105.37 28.779 105.53 28.7106 105.69 28.6325C105.84 28.5544 106 28.486 106.15 28.4079C106.52 28.2028 106.89 27.988 107.26 27.7438C107.57 27.5387 107.9 27.3239 108.25 27.0212L108.62 26.7965C108.72 26.7477 108.81 26.6891 108.91 26.6403L109.08 26.5524C109.2 26.5231 109.31 26.5036 109.43 26.4743C109.63 26.4352 109.84 26.3961 110.04 26.3375L111.19 26.0055C111.58 25.8883 111.96 25.7419 112.34 25.5954C112.56 25.5075 112.79 25.4196 113.01 25.3414L113.22 25.2633C113.59 25.1364 113.97 25.0094 114.32 24.8043L114.37 24.8629C114.69 25.234 115.11 25.4879 115.51 25.7223L115.91 25.9469C116.22 26.1227 116.54 26.2887 116.84 26.4938C117.03 26.6208 117.21 26.7477 117.39 26.8747C117.63 27.0407 117.88 27.2165 118.13 27.3727C118.41 27.5583 118.71 27.7145 119.01 27.8708C119.17 27.9587 119.33 28.0368 119.49 28.1344C119.85 28.3395 120.19 28.6032 120.51 28.9157C120.74 29.1501 120.95 29.3942 121.16 29.6481L121.34 29.863C121.59 30.156 121.96 30.6052 122.5 30.615C122.54 30.615 122.58 30.615 122.62 30.615C122.8 30.7321 122.99 30.7907 123.18 30.7907C123.62 30.7907 123.94 30.5368 124.24 30.3024C124.38 30.195 124.52 30.0778 124.65 29.9606C124.78 29.8532 124.91 29.7458 125.04 29.6384C125.29 29.4431 125.6 29.277 125.91 29.1208L126.23 28.945C126.75 28.652 127.27 28.3786 127.8 28.1051C128.05 27.9782 128.3 27.8512 128.55 27.734C128.81 27.6071 129.06 27.4801 129.32 27.3532C129.79 27.109 130.23 26.8356 130.74 26.5036L130.97 26.3571C131.33 26.1227 131.69 25.8883 132.07 25.6637C132.17 25.6051 132.28 25.5465 132.38 25.4879C132.44 25.4489 132.51 25.4196 132.58 25.3805C132.82 25.5172 133.05 25.6637 133.28 25.8102L133.39 25.8883C133.52 25.9665 133.64 26.0544 133.76 26.1422C133.89 26.2399 134 26.3473 134.12 26.4645C134.23 26.5719 134.34 26.6696 134.45 26.7672C134.79 27.0504 135.17 27.2165 135.54 27.3727C135.73 27.4508 135.92 27.5387 136.13 27.6559C136.39 27.8512 136.6 28.027 136.8 28.193C136.56 28.4176 136.32 28.6423 136.09 28.8669L135.57 29.3552C134.86 30.0192 134.15 30.6736 133.44 31.3279C131.42 33.1736 129.21 35.0974 126.76 37.158L126.29 37.3924C125.72 37.6756 125.16 37.9686 124.6 38.2811C123.63 38.8377 122.74 39.5018 121.93 40.1463L121.41 40.5565C120.73 41.0936 120.05 41.6307 119.35 42.1385C118.99 42.4022 118.64 42.6854 118.29 42.9686C117.8 43.369 117.29 43.7792 116.75 44.121C116.6 44.2089 116.45 44.2968 116.3 44.3847C116.02 44.5507 115.72 44.7069 115.45 44.9218C115.3 45.039 115.16 45.1659 115.03 45.2929L114.89 45.4296C114.72 45.5859 114.52 45.703 114.31 45.8398L114.2 45.9081C114 46.0351 113.76 46.1913 113.55 46.3866L113.38 46.5527C113.26 46.6699 113.15 46.7871 113.02 46.8652C112.96 46.9042 112.89 46.9335 112.83 46.9726C112.67 47.0605 112.51 47.1484 112.36 47.2655C112.12 47.4609 111.94 47.6757 111.75 47.9101C111.43 48.291 111.05 48.6621 110.58 49.0234L110.28 49.2578C109.94 49.5214 109.59 49.7851 109.27 50.1172C109.22 50.166 109.18 50.2051 109.13 50.2539L108.47 50.7129C107.62 51.2793 106.76 51.8359 105.89 52.3828L103.47 53.877C101.13 55.3223 98.7096 56.8067 96.3596 58.3399C96.3796 58.1739 96.4096 58.0079 96.4496 57.8419C96.4896 57.6856 96.5396 57.5294 96.5896 57.3731C96.6796 57.0899 96.7596 56.7969 96.8196 56.504C96.8896 56.0938 96.8996 55.6836 96.9096 55.2833V55.0782C96.9096 54.7363 96.9596 54.4141 97.0196 54.0332L97.2696 52.7246C97.4096 51.9727 97.5596 51.1914 97.5996 50.4004C97.6196 49.9512 97.6596 49.5019 97.6896 49.0527C97.7896 47.705 97.8896 46.2988 97.7496 44.912C97.7096 44.4823 97.6496 44.0331 97.5496 43.6034C97.5296 43.5057 97.4896 43.4276 97.4396 43.3495C97.4096 42.9198 97.3596 42.5096 97.2896 42.0897C97.1996 41.5233 97.2096 40.9471 97.2196 40.3416C97.2196 40.117 97.2196 39.8827 97.2196 39.658C97.2196 39.2381 97.1796 38.828 97.1396 38.408C97.1096 38.0369 97.0696 37.6561 97.0596 37.2752C97.0396 36.4549 97.0996 35.6346 97.1496 34.8728L97.2096 34.1697C97.2696 33.4959 97.3196 32.822 97.3496 32.1579C97.3496 31.9528 97.2596 31.7673 97.0896 31.6599C96.9596 31.5818 96.8096 31.5525 96.6596 31.5818C96.6196 31.572 96.5696 31.5622 96.5296 31.5622C96.4996 31.5232 96.4596 31.4939 96.4196 31.4743C96.2896 31.3962 96.1396 31.3669 95.9896 31.3962C95.8396 31.3571 95.6796 31.3767 95.5396 31.445C95.3496 31.5427 95.2296 31.7283 95.2396 31.9431V32.6462C95.2596 33.3493 95.2596 34.072 95.1896 34.7752C95.1696 34.951 95.1396 35.1267 95.1096 35.3025C95.0596 35.5955 95.0096 35.8982 95.0096 36.201C95.0096 36.406 95.0096 36.6209 95.0096 36.826C95.0096 37.0701 95.0296 37.324 95.0096 37.5682C94.9896 37.9002 94.9396 38.2323 94.8996 38.5643C94.8196 39.1112 94.7396 39.6776 94.7796 40.2733C94.8396 41.1034 95.0196 41.953 95.2996 42.744C95.2296 42.7733 95.1696 42.8124 95.1096 42.8514C94.9096 42.9589 94.7196 43.0761 94.5196 43.1932C94.1296 43.4276 93.7496 43.662 93.3796 43.9062C92.1396 44.7167 90.9796 45.5859 89.9696 46.3769C89.4196 44.5019 88.6996 42.8612 87.7696 41.3964C86.7696 39.8045 85.5596 38.4764 84.1996 37.451C84.0796 37.3533 83.9596 37.2557 83.8396 37.158C83.7496 37.0799 83.6496 37.0115 83.5596 36.9334C83.4796 36.865 83.4096 36.7967 83.3396 36.7283C83.1396 36.5428 82.9296 36.3475 82.6496 36.201C82.3496 36.0447 82.0296 35.9568 81.7896 35.8982C81.4996 35.7713 81.1896 35.6931 80.8996 35.615L80.6296 35.5466C80.5296 35.5173 80.4296 35.5076 80.3396 35.4881H80.2696C79.7196 35.2927 79.2196 35.1658 78.7396 35.0877C75.5496 34.5408 72.2396 35.4295 69.6496 37.5291C68.9896 38.0662 68.3696 38.701 67.8196 39.3846C67.6796 39.1795 67.5496 39.0037 67.4096 38.8377C67.2896 38.701 67.1696 38.5643 67.0396 38.4373C66.9096 38.3006 66.7796 38.1639 66.6596 38.0272C66.5696 37.91 66.4896 37.7928 66.4196 37.6658L66.3696 37.6072C66.2796 37.3436 66.1696 37.0896 66.0396 36.8357L65.9696 36.7088C65.6896 36.1717 65.4296 35.6639 65.3996 35.117C65.3996 35.0584 65.3796 34.9998 65.3596 34.9509L66.0396 34.1697L66.0496 34.1306ZM94.0296 60.0587L93.9696 60.088C93.9696 60.088 93.8596 60.1271 93.8496 60.1271C93.6496 60.1857 93.4996 60.3321 93.4396 60.5177H93.4196C93.2696 60.4591 93.1096 60.4786 92.9596 60.5568C92.2696 60.9279 91.5696 61.2989 90.8796 61.6798C90.8796 61.6505 90.8796 61.631 90.8796 61.6017C90.8496 61.0548 90.8496 60.5079 90.8596 59.961V59.5118C90.9596 58.9063 91.0796 58.0958 91.1096 57.2754C91.1696 55.3028 91.1296 53.5156 90.9696 51.8164C90.8596 50.6152 90.6796 49.4336 90.4496 48.3007C91.4896 47.4511 92.7196 46.4843 94.0496 45.5761C94.5796 45.2148 95.1196 44.8632 95.6396 44.5409V45.3124C95.6396 45.5077 95.6396 45.7128 95.6396 45.9081C95.6396 46.1718 95.6396 46.4257 95.6396 46.6894C95.6396 46.9433 95.5996 47.1874 95.5696 47.4414C95.5396 47.6464 95.5096 47.8515 95.4996 48.0663C95.4896 48.2714 95.4796 48.4765 95.4696 48.6816C95.4696 48.955 95.4496 49.2187 95.4296 49.4921C95.4096 49.6777 95.3896 49.8632 95.3596 50.0488C95.3196 50.3418 95.2796 50.6347 95.2596 50.9277C95.2496 51.2011 95.2396 51.4648 95.2396 51.7383C95.2396 51.9434 95.2396 52.1484 95.2296 52.3438C95.2196 52.7637 95.1596 53.1641 95.0896 53.6035L94.8896 54.6387C94.6796 55.752 94.4596 57.0704 94.3796 58.3595C94.3396 58.5548 94.2696 58.7501 94.1996 58.9356C94.1096 59.1798 94.0196 59.4337 93.9696 59.7071C93.9496 59.8243 93.9696 59.9415 94.0096 60.0392L94.0296 60.0587ZM61.2296 39.6483L61.5996 39.2479C61.7396 39.1502 61.9096 39.0428 62.0396 38.8768C62.1496 38.74 62.2196 38.6033 62.2696 38.4666L62.6296 38.0564C63.0496 37.5779 63.4596 37.1092 63.8796 36.6307C63.8996 36.66 63.9196 36.6892 63.9296 36.7088C64.0196 36.8455 64.1096 36.9822 64.1896 37.1287C64.3096 37.3729 64.4596 37.5975 64.5996 37.8319C64.6296 37.9295 64.6596 38.0174 64.6796 38.115C64.7396 38.3104 64.7896 38.5057 64.8596 38.701C65.0596 39.2381 65.4196 39.6385 65.8296 40.078C66.1096 40.3807 66.3896 40.6932 66.3796 41.0252C66.3796 41.1717 66.4196 41.3084 66.5096 41.4061C66.4796 41.4549 66.4596 41.5135 66.4296 41.5721C65.8396 42.9686 65.6496 44.4823 65.5896 45.7031C65.4896 45.5468 65.3896 45.4003 65.2696 45.2538C65.0596 44.9804 64.8196 44.7265 64.5896 44.4823C64.4196 44.3065 64.2596 44.1307 64.0996 43.9452L63.9496 43.7694C63.6496 43.4081 63.3496 43.037 62.9496 42.7343C62.5596 42.4413 62.1196 42.2167 61.6996 42.0018C61.5596 41.9335 61.4196 41.8651 61.2796 41.787C60.8396 41.5526 60.4096 41.3182 59.9596 41.0741C60.3796 40.6053 60.7896 40.1366 61.2096 39.658L61.2296 39.6483ZM36.1496 76.0062C36.4796 76.387 36.7696 76.7386 36.9896 77.1488L37.0496 77.2464C37.2796 77.6664 37.5196 78.096 37.6196 78.5452C37.7096 78.9359 37.6896 79.3754 37.6796 79.805V79.9808C37.6796 80.0589 37.6596 80.1371 37.6496 80.2152L37.6196 80.4691C37.6096 80.5668 37.5996 80.6547 37.5796 80.7425C37.4496 81.4164 37.1896 82.0414 36.7996 82.5883C36.4996 83.018 36.1396 83.3988 35.7696 83.7992C35.4596 84.141 35.1496 84.4731 34.8696 84.8344C34.5396 85.2543 34.2796 85.7133 34.0896 86.2212L34.0196 86.4067C33.8696 86.8071 33.7296 87.188 33.4896 87.52C33.0596 88.1255 32.4796 88.6431 31.9096 89.1509L31.1696 89.8247C30.9196 90.0591 30.6896 90.2837 30.4296 90.4693C30.2596 90.5864 30.0796 90.6939 29.8996 90.8013C29.6496 90.9478 29.3996 91.0943 29.1696 91.2701C28.6096 91.69 28.1096 92.149 27.7296 92.5103C26.4396 93.4283 25.2396 94.2291 24.0796 94.9615C20.7096 97.0807 17.1296 99.0924 13.1296 101.114C13.0996 101.026 13.0496 100.938 12.9796 100.87C12.3996 100.294 11.8096 99.6491 11.1396 98.8678C10.7796 98.4284 10.4296 97.9693 10.1196 97.569C10.0896 97.5201 10.0696 97.4713 10.0396 97.4225C10.0196 97.3834 9.98958 97.3443 9.96958 97.2955C9.54958 96.4166 9.11958 95.5182 8.46958 94.6783C8.19958 94.3267 7.91957 93.9459 7.73957 93.5064L7.67957 93.3501C7.52957 92.9693 7.36958 92.5884 7.10958 92.2173C6.63958 91.5532 6.02957 90.6743 5.52957 89.7368C5.00957 88.7603 4.57957 87.7153 4.25957 86.9243C4.04957 86.3872 3.84958 85.8305 3.65958 85.2836C3.50958 84.854 3.35957 84.4243 3.19957 83.9946C3.01957 83.516 2.89957 83.0668 2.83957 82.5883C2.79957 82.2856 2.73958 81.9926 2.68958 81.6898C2.64958 81.475 2.60957 81.2504 2.56957 81.0355C2.39957 79.9418 2.36957 78.8578 2.36957 77.8519C2.36957 77.2074 2.36957 76.5531 2.34957 75.9085V74.7269C2.32957 74.512 2.34957 74.2874 2.34957 74.1311C2.53957 73.3596 2.75957 72.676 3.01957 72.051C3.69957 70.4104 4.67957 69.0237 5.83957 68.0275C7.06957 66.9728 8.61958 66.3576 10.1896 66.299C10.2996 66.299 10.4096 66.299 10.5196 66.299C12.0796 66.299 13.6196 66.7385 14.8796 67.5393C14.9596 67.5881 15.0296 67.6467 15.0996 67.6955L15.2396 67.8029C16.1396 68.5939 16.8796 69.5705 17.3796 70.6448C18.1896 72.4026 18.3496 74.4632 17.8496 76.5921C17.7196 77.1585 17.5296 77.7542 17.2896 78.35C17.1796 78.6332 17.3196 78.9457 17.6196 79.0726C17.7196 79.1117 17.8296 79.1312 17.9296 79.1215C17.9096 79.3558 18.0496 79.5902 18.2996 79.6879C18.5996 79.8148 18.9296 79.6976 19.0696 79.4242C19.1596 79.2484 19.2596 79.0628 19.3496 78.8871L19.4196 78.7699C19.4196 78.7699 19.4396 78.7503 19.4496 78.7406C19.8096 78.3695 20.0296 77.9398 20.2496 77.5199C20.4496 77.1292 20.6396 76.7679 20.9196 76.4749C21.2096 76.1722 21.5296 75.8987 21.8496 75.6253L22.0796 75.4202C22.2196 75.303 22.3496 75.1761 22.4696 75.0491C22.7096 74.8245 22.9296 74.6097 23.1896 74.4241C23.4596 74.2386 23.7296 74.0335 23.9896 73.8284C24.4996 73.428 24.9896 73.0472 25.5496 72.803C25.7296 72.7249 25.9296 72.6858 26.1396 72.6468L26.2896 72.6175C26.5396 72.5589 26.7896 72.4807 27.0996 72.3635C27.2496 72.3049 27.3996 72.2464 27.5396 72.2366C27.7696 72.2073 28.0096 72.2366 28.2396 72.2073L28.5496 72.1878C28.9096 72.1585 29.2496 72.1292 29.5696 72.1878C29.6896 72.2073 29.8096 72.2561 29.9396 72.305C30.0196 72.3343 30.1096 72.3635 30.1896 72.3928L30.3596 72.4417C30.5396 72.4905 30.7096 72.5491 30.8796 72.6175C31.2896 72.803 31.7196 72.9593 32.2896 73.135C32.7396 73.2718 33.1296 73.4475 33.4896 73.6624C33.9496 73.9358 34.3996 74.219 34.8296 74.5315L35.1996 74.7855C35.1996 74.7855 35.2996 74.8733 35.3096 74.8831C35.4596 75.0491 35.5796 75.2347 35.7096 75.4202C35.8496 75.6253 35.9896 75.8206 36.1496 76.0062ZM45.3796 69.5706C45.3796 69.5706 45.3796 69.5803 45.3796 69.5901C43.3996 70.0979 41.6496 70.4299 40.0296 70.6057C37.9496 70.8303 35.8396 70.8303 33.7596 70.6057C33.1996 70.5471 32.6096 70.4592 31.9196 70.342C32.1796 70.0881 32.4296 69.8049 32.5796 69.4436C32.7896 68.926 32.6396 68.3596 32.2096 68.0471C32.0896 67.9592 31.9496 67.9006 31.8396 67.8615C31.7596 67.7248 31.6596 67.6174 31.5396 67.5295C31.1196 67.2267 30.5896 67.2268 30.1296 67.2658C29.9096 67.2854 29.6896 67.3147 29.4696 67.344C29.3996 67.344 29.3296 67.3635 29.2696 67.3733C29.3896 67.2365 29.5296 67.1096 29.6496 66.9924C29.9296 66.7385 30.2196 66.5041 30.5196 66.2697C30.6596 66.1525 30.8096 66.0451 30.9496 65.9279C31.1396 65.8498 31.3096 65.6935 31.4696 65.4103C31.4996 65.3517 31.5096 65.2931 31.5096 65.2443C31.5096 65.215 31.5096 65.1271 31.5096 65.088C31.5096 65.0392 31.4896 65.0002 31.4696 64.9513C31.4596 64.922 31.4096 64.8439 31.3896 64.8146C31.3696 64.7853 31.3396 64.756 31.3096 64.7267C31.2796 64.7072 31.2496 64.6779 31.2196 64.6681C31.1796 64.6388 31.1296 64.6193 31.0896 64.5998C30.9996 64.5705 30.9096 64.5607 30.8296 64.5509C30.8296 64.5216 30.8096 64.4923 30.7996 64.4533C30.7896 64.424 30.7396 64.3459 30.7196 64.3263C30.6996 64.297 30.6696 64.2677 30.6396 64.2384L30.5596 64.1896C30.5196 64.1603 30.4696 64.131 30.4196 64.1212C30.1896 64.0529 29.9796 64.0529 29.7996 64.1017C29.4896 64.1017 29.1696 64.1017 28.8596 64.0724C28.7196 64.0627 28.5296 64.0431 28.3396 63.9943C28.3396 63.9162 28.3696 63.8283 28.4096 63.7404C29.4196 63.965 30.5496 63.8966 31.6696 63.5353C31.7696 63.5158 31.8696 63.4865 31.9696 63.4474C31.9696 63.4474 32.0196 63.4279 32.0296 63.4181C32.0796 63.3986 32.1196 63.3595 32.1496 63.3204C32.2396 63.2326 32.3096 63.1251 32.3496 62.9591C32.3696 62.8224 32.3496 62.7052 32.2696 62.588C32.1896 62.4708 31.9696 62.1095 31.5596 62.0607C31.4596 61.9142 31.2396 61.6408 30.8896 61.6017C30.1796 61.2599 29.3096 61.1915 28.5296 61.3771C29.9296 60.6642 31.4496 60.1564 32.9196 59.6681C33.5296 59.463 34.1396 59.2579 34.7496 59.0431C35.3796 58.8185 36.0296 58.545 36.7196 58.213C37.0796 59.0626 37.6496 59.795 38.1996 60.4982C38.3696 60.713 38.5396 60.9278 38.6996 61.1525L38.8796 61.3771C39.7596 62.9591 40.7996 64.4044 41.9496 65.674C42.5596 66.3478 43.2096 67.0021 43.8496 67.6564C44.3896 68.2131 44.9496 68.7795 45.4896 69.3557C45.4596 69.4143 45.4296 69.4729 45.4196 69.5413L45.3796 69.5706ZM82.0496 78.2132C81.9496 78.3499 81.9296 78.5257 81.9696 78.6918C82.0196 78.8578 82.1296 78.9945 82.2796 79.0531C82.2996 79.0531 82.3196 79.0726 82.3396 79.0726C80.6696 81.6703 78.9196 84.0727 77.1396 86.2212C76.8496 86.5727 76.5396 86.9145 76.2396 87.2563L75.9596 87.5688C75.9596 87.5688 75.9396 87.5884 75.9296 87.5981C75.8796 87.6567 75.8196 87.7153 75.7696 87.7739L75.6696 87.8911C75.5896 87.979 75.5196 88.0571 75.4496 88.145C75.3696 88.2427 75.2896 88.3403 75.1996 88.4282C74.8696 88.7798 74.5296 89.1313 74.1896 89.4731L74.0796 89.5903C73.9596 89.7173 73.9196 89.7563 73.8896 89.7466C73.4896 89.7173 73.0396 89.4243 72.6396 89.1704L72.4696 89.063C72.2796 88.9458 72.0896 88.8091 71.8996 88.6821C71.5496 88.4477 71.1896 88.2036 70.8196 87.9985C70.6696 87.9106 70.5096 87.8423 70.3496 87.7837C70.2696 87.7446 70.1896 87.7153 70.1096 87.6762C69.8196 87.5395 69.5296 87.3833 69.2496 87.2172C68.5496 86.8071 67.8596 86.3481 67.2696 85.9477C66.9496 85.7231 66.6196 85.4985 66.2996 85.2739C65.7196 84.8637 65.1296 84.4633 64.5496 84.0825L64.4496 84.0043C64.3796 83.9555 64.3096 83.8969 64.2396 83.8578C64.0796 83.7504 63.9096 83.6528 63.7496 83.5649C63.3996 83.3598 63.0696 83.1645 62.7796 82.9105C62.2896 82.4906 61.7396 82.2172 61.2596 81.973L61.0896 82.2953L61.1696 81.9242C60.7896 81.641 60.4196 81.3383 60.0296 81.0062C59.9896 80.9672 59.9496 80.9281 59.8696 80.8695C59.6696 80.6644 59.4696 80.4496 59.2296 80.264C59.0196 80.098 58.7996 79.9808 58.6496 79.9125C58.2096 79.5707 57.7796 79.2289 57.2896 78.8382L57.2196 78.7699C56.9496 78.4867 56.6496 78.2425 56.3496 77.9984C56.1296 77.7738 55.9296 77.5394 55.7296 77.305C55.5596 77.0999 55.3796 76.9046 55.1996 76.6995C54.9996 76.4847 54.7796 76.3187 54.5896 76.1722L54.5296 76.1038C54.2896 75.8499 54.0096 75.6448 53.7196 75.4398C53.6896 75.4105 53.6596 75.3909 53.6496 75.3812C53.4996 75.2249 53.3396 75.0784 53.1896 74.9319C52.9396 74.6878 52.6796 74.4436 52.4396 74.1897C52.0696 73.7991 51.6696 73.4378 51.2296 73.096C50.8196 72.7249 50.4896 72.4417 50.1396 72.2073L49.8996 72.0413C49.5996 71.8362 49.2996 71.6311 49.0596 71.4651L48.7996 71.1623C48.6996 71.0452 48.5896 70.9182 48.4896 70.7913C48.3996 70.6839 48.3196 70.5764 48.2296 70.4788C48.2696 70.4006 48.2996 70.3127 48.2996 70.2151C48.3196 69.6487 47.8296 69.3362 47.5096 69.1213L47.3596 69.0236C47.2696 68.926 47.1696 68.8283 47.1096 68.799C46.9396 68.6135 46.7896 68.4084 46.6396 68.2033L46.4796 67.9787C46.1196 67.4904 45.6996 67.0607 45.2896 66.6311C44.8996 66.2307 44.5996 65.801 44.2796 65.2834C43.6396 64.258 42.7496 63.4279 41.8896 62.6662C41.4296 62.256 41.0696 61.8751 40.7596 61.4845L40.5696 61.2306C40.0596 60.2931 39.5696 59.2872 39.1296 58.2325C38.9896 57.9005 38.8596 57.5684 38.7296 57.2266L38.6196 56.9337C38.6396 56.8262 38.6196 56.7188 38.5796 56.6212C38.5396 56.5333 38.4796 56.4551 38.4096 56.3965L38.2696 56.0352C38.1896 55.8301 38.1096 55.6348 38.0296 55.4297C37.8996 55.0684 37.7696 54.7168 37.6496 54.4141C37.6196 54.2285 37.5796 54.0528 37.5396 53.8672C37.4496 53.4766 37.4696 53.0566 37.4796 52.6074C37.4796 52.4414 37.4896 52.2754 37.4896 52.0898C37.4896 51.4648 37.4896 50.8398 37.4496 50.2148C37.4196 49.7656 37.3596 49.3261 37.2896 48.8867L37.2096 48.33C37.1396 47.7832 37.0996 47.2167 37.0696 46.5331C37.0596 46.2206 37.0096 45.9179 36.9596 45.6249L36.9396 45.5175C37.6196 43.164 39.3896 40.9667 41.7396 39.5116L41.9596 39.4432C42.1196 39.3944 42.2796 39.3455 42.4396 39.2869C42.6096 39.2283 42.7696 39.1502 42.9196 39.0819C43.0396 39.0233 43.1496 38.9744 43.2696 38.9256C43.7096 38.7498 44.1996 38.6717 44.7796 38.6033L44.9196 38.5838C45.1496 38.5545 45.3796 38.535 45.6096 38.5057C45.8096 38.4764 45.9996 38.4373 46.1896 38.3983C46.3096 38.369 46.4296 38.3494 46.5496 38.3201C46.7996 38.2713 47.0596 38.3299 47.3496 38.408C47.6096 38.4666 47.8996 38.535 48.1896 38.535C48.4496 38.5448 48.6496 38.5643 48.9396 38.6424C49.2096 38.7205 49.4696 38.7987 49.7696 38.8963C50.1396 39.0135 50.5196 39.0623 50.8796 39.1112C51.1296 39.1502 51.3896 39.1795 51.6396 39.2381C51.9396 39.3065 52.2396 39.3944 52.5396 39.4725C52.8496 39.5506 53.1496 39.6385 53.4596 39.7069C53.7796 39.7752 54.0896 39.8436 54.4096 39.8826L54.5696 39.9022C54.7196 39.9217 54.8696 39.9412 54.9596 39.9608L55.0896 40.0292C55.3596 40.1659 55.6396 40.283 55.9196 40.3807L56.3396 40.537C56.4196 40.576 56.4996 40.6053 56.5896 40.6444L56.8496 40.7323C57.0896 40.8495 57.3096 40.9764 57.5396 41.1131C57.6996 41.201 57.8596 41.2889 58.0196 41.3768L58.2596 41.5135C58.9896 41.9628 59.5696 42.3534 60.0896 42.7538C61.8896 44.1307 63.2896 45.498 64.3496 46.9238C64.4696 47.0898 64.5996 47.2363 64.7396 47.3828L64.8096 47.4609C64.8996 47.6464 64.9696 47.8027 65.0096 47.9394C64.8996 48.0566 64.8496 48.2226 64.8796 48.3984C64.9396 48.7402 65.2496 48.9648 65.5896 48.9062C65.5896 48.9062 65.5996 48.9062 65.6096 48.9062C65.6496 48.9843 65.6996 49.0625 65.7696 49.1211C65.8996 49.2383 66.0796 49.2773 66.2596 49.248C66.2696 49.248 66.2796 49.248 66.2896 49.248C66.3896 49.4238 66.5696 49.5312 66.7896 49.541C67.1396 49.5605 67.3896 49.3066 67.4096 48.955C67.3996 48.1835 67.3996 47.4023 67.4096 46.6991C67.4696 46.4452 67.5396 46.1816 67.6196 45.9276C67.9396 44.8827 68.2596 44.0526 68.6396 43.3104C69.0296 42.5487 69.4896 41.8065 69.9396 41.0838L70.0696 40.869C70.2996 40.5077 70.5296 40.1268 70.7096 39.7069C70.8596 39.3651 70.9796 39.1209 71.1896 38.867C71.2796 38.7596 71.3596 38.6326 71.4396 38.4959C71.5396 38.3299 71.6296 38.1834 71.7396 38.0955C71.8196 38.0369 71.9696 37.9978 72.1196 37.9588L72.2896 37.91C72.5096 37.8514 72.7196 37.7928 72.9296 37.7146C73.0896 37.6463 73.2496 37.5779 73.4096 37.4998C73.6396 37.3924 73.8796 37.285 74.1196 37.2068C74.5196 37.0799 74.9496 36.9627 75.3896 36.8846C76.1596 36.7381 77.0096 36.6697 78.0396 36.6697C78.2496 36.6697 78.4596 36.6697 78.6796 36.66C79.2596 36.6404 79.8596 36.6306 80.3296 36.6795C81.1896 37.0213 82.0296 37.4998 82.8496 38.1346C82.9196 38.2127 82.9696 38.3006 83.0296 38.3885C83.0796 38.4666 83.1196 38.535 83.1696 38.6131C83.2996 38.7987 83.4396 38.9647 83.5996 39.1307C83.8996 39.453 84.1796 39.7459 84.4296 40.078L84.6296 40.3416C84.8196 40.5955 85.0096 40.8397 85.2096 41.0838C85.3396 41.2401 85.4796 41.3768 85.6296 41.5233C85.7896 41.6893 85.9596 41.8456 86.0996 42.0311C86.3096 42.3046 86.4996 42.6268 86.6796 43.0468C86.9696 43.6815 87.2196 44.3358 87.4796 44.9901L87.7696 45.7421C88.0796 46.5136 88.4296 47.3925 88.5196 48.33C88.5996 49.1211 88.5796 49.9414 88.5496 50.7324V51.2109C88.5096 52.0898 88.4896 52.998 88.5196 53.8867C88.5396 54.4531 88.6296 55.0196 88.7196 55.5567C88.7796 55.9473 88.8496 56.3477 88.8796 56.7383C88.9496 57.5001 88.9496 58.3009 88.9496 58.9454C88.8896 59.3067 88.8196 59.6583 88.7496 60.0196C88.6296 60.6154 88.5196 61.2208 88.4296 61.8263C88.3696 62.2072 88.3296 62.5978 88.3096 62.9884C87.2596 63.5548 85.9096 64.258 84.5196 64.9025C84.1896 65.0588 83.8496 65.2053 83.4996 65.3517C82.8796 65.6154 82.2296 65.8889 81.6296 66.2307C81.0496 66.5529 79.8496 67.2268 79.9896 68.2717C80.0496 68.7502 80.3296 69.0725 80.8196 69.219C80.9596 69.4729 81.1896 69.6291 81.4196 69.717C81.3796 69.7561 81.3296 69.7854 81.2896 69.8244C80.7496 70.2639 80.1896 70.7229 79.9296 71.4358C79.6596 72.1682 79.7996 73.1253 80.2696 73.721C80.3896 73.8675 80.5296 73.9847 80.6896 74.0726C80.3296 74.6097 80.3496 75.264 80.7496 75.8304C80.9496 76.1038 81.2096 76.348 81.5396 76.5628C81.7696 76.8363 82.0596 77.0804 82.4196 77.2855C82.3596 77.5785 82.1596 77.9495 82.0196 78.1546L82.0496 78.2132ZM84.6896 78.6527C84.5296 78.6136 84.3696 78.5648 84.2096 78.516C84.3396 78.1253 84.3696 77.764 84.2996 77.432C84.1896 76.9144 83.8396 76.6995 83.5196 76.5628C83.3396 76.1819 82.9896 76.0355 82.7096 75.9183C82.6196 75.8792 82.5396 75.8402 82.4296 75.7816C82.2996 75.5667 82.3396 75.4398 82.4496 75.303C82.5496 75.1761 82.7496 75.0979 82.9496 75.0101L83.0896 74.9515C83.3996 74.8147 83.7496 74.639 84.0296 74.2874C84.0496 74.2679 84.0696 74.2288 84.0796 74.1995C84.1896 74.014 84.1896 73.7991 84.1096 73.6819C84.0096 73.428 83.7596 73.2913 83.4996 73.3303C83.4996 73.2425 83.4796 73.1643 83.4396 73.1155C83.3196 72.8225 83.0196 72.6858 82.7096 72.7932C82.6496 72.8128 82.5896 72.8421 82.5296 72.8714L82.2296 72.9983C82.2296 72.9983 82.1496 73.0374 82.1396 73.0374C82.1196 73.0374 82.0996 73.0569 82.0796 73.0765C81.9596 73.1155 81.8596 73.1448 81.7596 73.1546C81.6696 72.7542 81.7596 72.4026 81.9996 72.0803C82.2396 71.7678 82.5496 71.5139 82.8796 71.2405C83.2696 70.9182 83.6796 70.5764 83.9696 70.1467C84.0596 70.0295 84.1296 69.8928 84.1896 69.7756C84.2396 69.6682 84.2596 69.551 84.2396 69.4436C84.2396 69.4143 84.2196 69.3362 84.2096 69.3069C84.1796 69.2287 84.1396 69.1702 84.0696 69.1018C84.0296 69.0627 83.9896 69.0236 83.9396 68.9943C83.8096 68.926 83.6796 68.8869 83.5596 68.8576C83.5596 68.8283 83.5396 68.7893 83.5296 68.7698C83.4996 68.6819 83.4396 68.6135 83.3796 68.5549C83.3496 68.5158 83.3096 68.4865 83.2596 68.467C82.9496 68.3108 82.6196 68.2717 82.3096 68.2619C82.6096 68.0178 82.9796 67.8127 83.2896 67.6564C83.7996 67.3928 84.3296 67.1682 84.8596 66.9338C85.2596 66.758 85.6596 66.5822 86.0496 66.3967C87.3696 65.7717 88.6396 65.0978 89.6096 64.5705C89.7196 64.5705 89.8296 64.5412 89.9196 64.4924C90.0096 64.4435 90.0696 64.3751 90.1196 64.297L91.4196 63.5939C91.5896 63.506 91.7496 63.4181 91.9096 63.3497C92.1496 63.2423 92.3796 63.1251 92.6096 62.9982C92.8696 62.8615 93.1296 62.715 93.3996 62.6173C93.5096 62.5783 93.6196 62.5392 93.7296 62.5001C94.1196 62.3634 94.5196 62.2169 94.8996 61.924C95.1196 61.7482 95.2996 61.6408 95.5396 61.5333C95.7896 61.4259 96.0396 61.3185 96.2896 61.1622C96.5296 61.0157 96.7596 60.8497 96.9896 60.6935C97.2196 60.5274 97.4596 60.3614 97.6996 60.2149C97.9696 60.0489 98.2596 59.9122 98.5496 59.7755C98.7696 59.6681 98.9896 59.5704 99.2096 59.4532C99.4196 59.336 99.6196 59.1993 99.8196 59.0626C100.06 58.8966 100.29 58.7305 100.54 58.6231C101.73 58.1251 102.76 57.4805 103.52 56.963C103.97 56.6602 104.44 56.3672 104.91 56.084C105.43 55.7618 105.95 55.4395 106.46 55.0879C107.24 54.5508 107.94 53.9063 108.62 53.2813L109.17 52.7734C109.17 52.7734 109.2 52.7539 109.21 52.7344C109.38 53.6328 109.65 54.502 109.93 55.3223C110.09 55.8203 110.25 56.3184 110.41 56.8165V57.588C110.39 58.0274 110.41 58.4376 110.48 58.8575L110.51 59.0528C110.56 59.3653 110.61 59.6583 110.61 59.9513V60.1075C110.61 60.4591 110.63 60.8107 110.67 61.1622C110.69 61.2892 110.71 61.4064 110.73 61.5333C110.77 61.7872 110.81 62.0314 110.81 62.2755C110.81 62.6369 110.83 63.0665 111.01 63.5353L111.06 63.6525C111.17 63.9259 111.26 64.1408 111.23 64.3849C111.18 64.8244 111.33 65.1564 111.51 65.5568C111.55 65.6447 111.57 65.7326 111.59 65.8205C111.59 66.1134 111.59 66.4064 111.62 66.7092C111.65 67.0217 111.67 67.344 111.69 67.6174V67.7736C111.67 68.0471 111.65 68.3303 111.65 68.6037C111.65 68.8186 111.65 69.0334 111.65 69.2483C111.67 69.9319 111.68 70.5764 111.5 71.2014C111.38 71.6409 111.3 72.0901 111.26 72.6272C111.26 72.6272 111.26 72.6858 111.26 72.7151C111.26 72.8225 111.25 72.93 111.24 73.0374C109.99 73.3206 108.97 73.5647 108.03 73.8186C105.64 74.4534 103.08 75.2445 100.21 76.221C99.6096 76.4261 98.9996 76.641 98.3996 76.8558C96.7396 77.4515 95.0196 78.057 93.2796 78.4867C93.2296 78.4085 93.1696 78.3402 93.0796 78.2914C92.8896 78.1839 92.6496 78.1742 92.4596 78.2914C92.2796 78.389 92.1696 78.555 92.1596 78.7601C89.4296 79.2972 86.9196 79.2679 84.6996 78.6918L84.6896 78.6527ZM87.3096 132.276C87.3796 132.208 87.4396 132.149 87.4996 132.091L87.5896 132.003C87.8696 131.896 88.1396 131.749 88.3696 131.573L88.4996 131.515C88.5796 131.476 88.6596 131.437 88.7396 131.407C88.8396 131.368 88.9396 131.329 89.0396 131.29C89.0596 131.319 89.0796 131.339 89.1096 131.368C88.4896 131.612 87.8796 131.905 87.3096 132.276ZM96.9296 127.745C96.9296 127.745 96.9196 127.745 96.9096 127.745C96.9196 127.716 96.9296 127.696 96.9396 127.667C96.9696 127.657 96.9996 127.638 97.0196 127.618H97.1496C97.0796 127.657 96.9996 127.696 96.9196 127.735L96.9296 127.745ZM158.89 114.444C158.38 114.639 157.92 114.825 157.5 115.138C157.08 115.45 156.67 115.792 156.27 116.124L155.56 116.71C154.86 117.286 154.14 117.872 153.53 118.487C153.14 118.77 152.63 119.132 152.1 119.454C151.32 119.923 150.45 120.274 149.56 120.626C148.42 121.065 147.36 121.407 146.3 121.661C143.82 122.267 141.51 122.354 139.43 121.935C137.66 121.573 136.02 120.753 134.54 119.503C133.46 118.595 132.46 117.481 131.33 115.977C131.2 115.684 131.07 115.391 130.97 115.089L130.77 114.522C130.52 113.79 130.26 113.028 129.85 112.325C129.77 112.188 129.69 112.042 129.61 111.905C129.42 111.573 129.23 111.221 129 110.899C128.8 110.626 128.65 110.333 128.48 110.02C128.39 109.854 128.3 109.688 128.21 109.522C127.92 109.014 127.55 108.555 127.19 108.116C127.09 107.969 126.98 107.823 126.89 107.706C126.77 107.53 126.67 107.344 126.58 107.139C126.45 106.846 126.31 106.563 126.16 106.28C126.06 106.085 125.96 105.889 125.87 105.694L125.76 105.45C125.68 105.274 125.61 105.108 125.51 104.942C125.47 104.874 125.43 104.805 125.38 104.737C125.29 104.6 125.2 104.454 125.16 104.327C125.15 104.278 125.14 104.219 125.14 104.141C125.14 104.005 125.13 103.829 125.04 103.643C124.96 103.467 124.84 103.35 124.73 103.233C124.68 103.175 124.62 103.126 124.58 103.057C124.48 102.911 124.4 102.755 124.33 102.598C124.22 102.374 124.1 102.139 123.93 101.924C123.75 101.7 123.55 101.485 123.37 101.28C123.34 101.221 123.3 101.153 123.26 101.104C123.06 100.86 122.84 100.626 122.62 100.391C122.48 100.245 122.33 100.098 122.2 99.942L122.01 99.7272C121.72 99.3951 121.43 99.0534 121.11 98.7409C120.66 98.2819 120.23 97.9596 119.78 97.7154C119.64 97.6373 119.51 97.569 119.43 97.5201C119.24 97.3541 119.04 97.1979 118.87 97.0807C118.77 96.983 118.66 96.8951 118.55 96.8072C118.15 96.4752 117.76 96.1627 117.32 95.9771C116.83 95.7623 116.28 95.7623 115.72 95.9576C115.62 95.9967 115.52 96.0357 115.42 96.0846C114.16 96.1139 112.92 96.5338 111.95 97.2564C111.33 97.7154 110.82 98.2916 110.34 99.0827C109.86 99.8639 109.38 100.645 108.9 101.417L108.81 101.563C107.8 103.194 106.79 104.835 105.8 106.475C104.16 109.219 102.87 111.544 101.78 113.722C101.6 113.946 101.42 114.161 101.24 114.376C101.08 114.571 100.92 114.757 100.76 114.952C100.58 115.167 100.42 115.391 100.26 115.616C100.13 115.802 99.9996 115.987 99.8596 116.163C99.7096 116.358 99.5396 116.573 99.4096 116.817C99.2596 117.081 99.1896 117.364 99.0996 117.667L99.0596 117.823C98.9896 118.077 98.9196 118.341 98.8296 118.595C98.7596 118.78 98.6796 118.966 98.5996 119.151L98.4696 119.464C98.2596 119.962 98.1596 120.47 98.0596 120.968L97.9796 121.368C97.8396 122.013 97.7496 122.657 97.7196 123.311C97.6996 123.644 97.6596 123.907 97.5396 124.249C97.4496 124.522 97.3496 124.806 97.3296 125.128C97.1696 125.167 97.0196 125.206 96.8796 125.245C96.7196 125.284 96.5696 125.333 96.4096 125.362C96.0896 125.431 95.7596 125.392 95.4096 125.343C95.2996 125.333 95.1796 125.313 95.0696 125.304C94.8096 125.274 94.5696 125.304 94.4596 125.333C94.1296 125.333 93.7696 125.353 93.4296 125.372C93.0796 125.392 92.7296 125.401 92.3796 125.401H92.0196C91.6796 125.362 91.3996 125.294 91.1596 125.216C90.6096 125.03 90.1796 124.933 89.7296 124.874L89.5796 124.854C89.3896 124.835 89.1996 124.806 89.0196 124.767C88.8896 124.737 88.7596 124.688 88.6196 124.63V124.601C88.6396 124.034 88.7896 123.438 88.9396 122.862L89.0596 122.394C89.1896 121.866 89.3896 121.368 89.5996 120.831C89.6696 120.645 89.7496 120.47 89.8196 120.284C90.1296 119.464 90.3596 118.634 90.5196 117.999C90.9096 116.417 90.9096 114.805 90.9096 113.214V111.759C90.9196 110.841 90.9296 109.923 90.9096 109.063C91.3696 106.446 91.7896 103.721 92.1896 100.811C92.3196 100.44 92.4496 100.079 92.5396 99.6979C92.6896 99.1022 92.7696 98.4869 92.8596 97.901L92.9296 97.3932C92.9896 97.0318 93.0496 96.6608 93.1296 96.2994C93.1796 96.0846 93.2396 95.8697 93.2996 95.6549C93.3496 95.4889 93.3996 95.3326 93.4396 95.1666C93.8396 93.5943 93.8496 91.8951 93.7996 90.4302V90.1177C93.7596 89.5024 93.7396 88.9263 93.9096 88.3696C94.0796 87.8032 94.0596 87.227 94.0296 86.6704C94.0196 86.436 94.0096 86.2016 94.0096 85.977C94.0196 85.5766 94.0496 85.1665 94.0996 84.727C94.2996 84.6586 94.4896 84.5805 94.6796 84.4926C94.8196 84.4243 94.9696 84.3656 95.1096 84.3168C95.3096 84.2485 95.5096 84.1996 95.7096 84.141C95.8896 84.0922 96.0696 84.0434 96.2396 83.9848C96.6396 83.8578 97.0296 83.7113 97.4096 83.5551C97.7296 83.4281 98.0396 83.3012 98.3596 83.184H98.3796C98.5096 83.184 98.6396 83.2035 98.7696 83.1938C99.0596 83.184 99.3196 83.1254 99.5696 83.0668C99.6896 83.0375 99.7996 83.018 99.9196 82.9887C100.28 82.9203 100.68 82.9398 101.07 82.9398H101.2C101.61 82.9398 102.03 82.9594 102.45 82.9105C102.86 82.8715 103.24 82.7738 103.67 82.6664L103.82 82.6274C104.13 82.5492 104.45 82.4711 104.77 82.4125C105.11 82.3539 105.46 82.3539 105.83 82.3637H108.58H111.24H111.47C111.82 82.3637 112.15 82.3637 112.47 82.4027C112.61 82.4223 112.75 82.4418 112.89 82.4613C113.16 82.5004 113.43 82.5395 113.71 82.559C114.32 82.5981 114.94 82.5883 115.54 82.5785C115.82 82.5785 116.11 82.5688 116.39 82.5688H128.28L131.48 82.6664L131.67 82.686C131.76 82.686 131.86 82.7055 131.95 82.725C132.4 82.8032 132.83 82.9203 133.29 83.0473C133.62 83.1352 133.96 83.2328 134.29 83.3109C134.59 83.3793 134.89 83.4379 135.19 83.5063C135.71 83.6137 136.23 83.7309 136.74 83.8578C137.71 84.102 138.48 84.1899 139.24 84.1996H139.67C139.95 84.1801 140.22 84.1801 140.5 84.1801C140.71 84.1801 140.92 84.1899 141.13 84.2289C141.23 84.2485 141.32 84.268 141.42 84.2973C141.51 84.3266 141.6 84.3461 141.69 84.3657C141.69 84.3657 141.72 84.3657 141.75 84.3657C141.78 84.3754 141.81 84.3949 141.84 84.4047C141.9 84.4731 141.97 84.5317 142.05 84.5805L142.01 84.9418C141.96 85.4692 141.84 86.0161 141.72 86.5337L141.66 86.8266C141.22 88.8481 141.19 90.8989 141.2 92.94C141.01 94.4342 140.96 96.1041 141.05 98.0377C141.18 100.753 141.53 102.921 142.16 104.864C142.36 105.489 142.59 106.065 142.85 106.612C142.86 106.651 142.88 106.69 142.93 106.778C143.24 107.393 143.61 107.94 143.99 108.341C144.58 109.288 145.29 109.971 146.11 110.401C147.03 110.88 148.12 110.997 149.35 110.772C149.73 110.792 150.07 110.792 150.38 110.762C151.52 110.645 152.61 110.167 153.44 109.415C153.59 109.278 153.74 109.141 153.89 108.995L154.13 108.751L155.21 108.136C155.76 107.823 156.32 107.511 156.88 107.198H156.92C156.96 107.52 157.03 107.843 157.09 108.155L157.11 108.253C157.29 109.151 157.49 109.962 157.69 110.714L157.85 111.319C158 111.866 158.14 112.413 158.32 112.95C158.43 113.253 158.57 113.614 158.83 113.946C158.89 114.024 158.95 114.093 159.01 114.171C159.06 114.239 159.12 114.298 159.17 114.366C159.09 114.395 159.01 114.415 158.93 114.444H158.89Z" fill="black"/>
<path d="M117.25 11.5424C117.25 11.5424 117.33 11.5424 117.36 11.5327C117.63 11.4838 117.82 11.269 117.84 10.9956C117.86 10.6733 117.94 10.351 118.03 10.0092C118.11 9.71623 118.19 9.41351 118.22 9.11077C118.29 8.59318 118.29 8.06584 118.3 7.55802C118.3 7.32364 118.3 7.07948 118.32 6.84511C118.32 6.66932 118.25 6.50331 118.11 6.39589C117.95 6.23964 117.7 6.1908 117.48 6.25916C117.25 6.33728 117.1 6.54237 117.09 6.78651C117.09 7.03066 117.08 7.2748 117.08 7.51895C117.08 7.99747 117.08 8.49551 117 8.97403C116.96 9.23771 116.9 9.49163 116.83 9.74554C116.76 10.0287 116.69 10.3119 116.66 10.5366C116.64 10.5854 116.62 10.644 116.62 10.6928V10.8881C116.61 11.0346 116.65 11.1713 116.75 11.2788C116.86 11.4448 117.05 11.5424 117.25 11.5424Z" fill="black"/>
<path d="M115.66 8.06595C115.84 8.06595 115.99 7.99758 116.1 7.87062C116.21 7.74367 116.26 7.56789 116.24 7.48C116.26 7.30422 116.2 7.13819 116.09 7.01123C115.87 6.77685 115.43 6.77685 115.22 7.01123C115.12 7.12842 115.07 7.28469 115.08 7.4507C115.08 7.60696 115.13 7.75343 115.23 7.87062C115.34 7.98781 115.49 8.05618 115.66 8.05618V8.06595Z" fill="black"/>
<path d="M118.13 11.9524C118.13 12.0989 118.17 12.2356 118.27 12.3528C118.38 12.4798 118.54 12.5579 118.72 12.5579C118.75 12.5579 118.78 12.5579 118.81 12.5579C118.95 12.5579 119.09 12.5579 119.23 12.5384C119.74 12.5091 120.16 12.4114 120.52 12.2259C121 11.972 121.37 11.5325 121.56 10.9759C121.66 10.6829 121.71 10.3411 121.72 9.93091C121.72 9.72583 121.63 9.55005 121.46 9.44263C121.31 9.34497 121.11 9.32544 120.94 9.38403C120.81 9.3938 120.68 9.4524 120.59 9.54029C120.47 9.64771 120.41 9.78442 120.41 9.95043C120.4 10.4094 120.31 10.7317 120.1 11.0247C120.08 11.054 120.05 11.0735 119.98 11.1321C119.95 11.1516 119.92 11.1712 119.88 11.1907C119.81 11.2298 119.76 11.2493 119.71 11.2688C119.63 11.2981 119.55 11.3177 119.46 11.3372C119.38 11.3567 119.3 11.3567 119.24 11.3665C119.16 11.3665 119.08 11.3665 119 11.3665C118.89 11.3665 118.75 11.3665 118.65 11.4251C118.68 11.4055 118.72 11.386 118.76 11.3762C118.59 11.3762 118.43 11.4348 118.31 11.5618C118.21 11.6692 118.16 11.7962 118.16 11.9427L118.13 11.9524Z" fill="black"/>
<path d="M8.80952 71.8849C8.78952 71.3868 8.76952 70.7716 8.24952 70.3419C8.11952 70.2247 7.95953 70.127 7.79953 70.0391C7.73953 69.961 7.66953 69.8731 7.57952 69.795C7.34952 69.6094 6.75952 69.1895 6.14952 69.3165C6.01952 69.3458 5.89952 69.4141 5.81952 69.502C5.73952 69.502 5.65953 69.5313 5.57953 69.5704C3.81953 70.4981 3.40952 72.5099 3.10952 73.9747C2.88952 75.0197 2.66951 76.1037 2.84951 77.2365C2.88951 77.5099 2.95952 77.7736 3.02952 78.0373C3.09952 78.301 3.16952 78.5646 3.19952 78.8381C3.21952 78.9943 3.22952 79.1408 3.22952 79.2971C3.24952 79.6389 3.25953 79.9904 3.40953 80.3518C3.46953 80.4983 3.52951 80.635 3.59951 80.7717C3.64951 80.8791 3.69951 80.9768 3.73951 81.0842C3.77951 81.1623 3.80952 81.2502 3.83952 81.3381C3.89952 81.5139 3.96953 81.6799 4.04953 81.8459C4.20953 82.1487 4.45952 82.4026 4.78952 82.6077C5.02952 82.9983 5.38952 83.301 5.81952 83.467C6.06952 83.5647 6.27952 83.594 6.44952 83.594C6.77952 83.594 6.98952 83.4671 7.11952 83.3206C7.26952 83.1643 7.32951 82.9788 7.37951 82.803C7.44951 82.5588 7.49953 82.2952 7.54953 82.0413C7.63953 81.5725 7.68952 81.1037 7.74952 80.6252C7.81952 80.01 7.89952 79.385 8.03952 78.7795C8.12952 78.3986 8.14953 78.0373 8.15953 77.6857C8.15953 77.51 8.16953 77.3244 8.18953 77.1486C8.20953 76.924 8.23952 76.7092 8.27952 76.4943C8.32952 76.172 8.37952 75.8498 8.38952 75.5177C8.40952 75.1759 8.49952 74.8439 8.58952 74.4923C8.64952 74.2775 8.70952 74.0529 8.74952 73.8283C8.85952 73.2423 8.83952 72.6661 8.81952 72.1095V71.8556L8.80952 71.8849ZM6.87951 73.1349C6.83951 73.3107 6.78952 73.4767 6.74952 73.6427C6.66952 73.9259 6.58953 74.2189 6.54953 74.5119C6.52953 74.6584 6.51952 74.7951 6.50952 74.9416L6.48951 75.1857C6.46951 75.381 6.43953 75.5763 6.40953 75.7716L6.37951 75.9377C6.30951 76.3576 6.29952 76.758 6.27952 77.1584V77.3634C6.25952 77.6271 6.19951 77.8908 6.12951 78.174C6.08951 78.3693 6.03952 78.5549 6.00952 78.7502C5.94952 79.1213 5.90952 79.4924 5.85952 79.8635L5.81952 80.1858C5.76952 80.5959 5.70952 81.0647 5.58952 81.5432L5.53952 81.3967C5.43952 81.1623 5.33952 80.928 5.21952 80.6741C5.09952 80.4104 5.08952 80.1272 5.06952 79.8049C5.06952 79.6877 5.05952 79.5607 5.03952 79.4338C5.00952 79.092 4.91951 78.76 4.84951 78.4475C4.80951 78.301 4.77952 78.1545 4.74952 78.0178C4.53952 77.0314 4.66953 76.0744 4.82953 75.2736L4.89952 74.9025C5.17952 73.4572 5.48952 71.8263 6.80952 71.1134C6.83952 71.0938 6.86952 71.0743 6.89952 71.0548V71.0743L6.92952 71.7677C6.94952 72.2267 6.95952 72.6661 6.85952 73.0958L6.87951 73.1349Z" fill="black"/>
<path d="M48.0196 57.1579L47.7996 56.6794C47.6796 56.4353 47.5696 56.1912 47.4696 55.9568C47.1596 55.2146 46.8996 54.3747 46.7196 53.4567C46.4496 52.0993 46.3696 50.6833 46.2996 49.3063C46.2796 48.8766 46.2496 48.4371 46.2296 48.0074C46.1696 47.0406 46.0196 45.7711 45.4796 44.5699C45.2096 43.984 44.6096 42.9683 43.5296 42.7046C43.0896 42.4214 42.6196 42.3042 42.1296 42.3628C41.8396 42.3921 41.5496 42.4703 41.2196 42.6168H41.1996C41.1796 42.6168 41.1496 42.6363 41.1396 42.6363C41.0696 42.6656 41.0196 42.7046 40.9796 42.7632C40.9396 42.8023 40.8996 42.8414 40.8796 42.8902C40.8796 42.9 40.8596 42.9195 40.8496 42.939C39.8896 44.6676 39.2996 46.4645 39.0896 48.2809C38.8896 50.0485 39.0396 51.8649 39.5496 53.7009C40.0296 55.4392 40.8296 57.197 41.9296 58.9255C42.4596 59.7556 42.9596 60.3904 43.4996 60.9275C43.8996 61.3182 44.3296 61.6502 44.7296 61.8748C45.2896 62.3338 45.8596 62.6365 46.4096 62.783C46.6396 62.8416 46.8996 62.8807 47.1596 62.8807C47.7796 62.8807 48.4296 62.6756 48.8196 62.1678C49.1096 61.7869 49.2196 61.2889 49.1596 60.6346C49.0496 59.3943 48.5096 58.2126 48.0396 57.1579H48.0196ZM46.7396 61.2205C46.3796 61.2986 45.9496 61.2205 45.4796 60.9666C44.9696 60.5662 44.4996 60.0388 44.0296 59.3845C43.0496 57.9978 42.2396 56.406 41.6796 54.7849C41.1096 53.1247 40.8296 51.4645 40.8696 49.8629C40.9096 48.2125 41.2896 46.5133 41.9796 44.9605C42.1396 44.5992 42.3196 44.2476 42.4996 43.9058C42.6996 43.8277 42.8796 43.7984 43.0596 43.8179C43.8596 44.5113 44.2096 46.1813 44.2996 47.0797C44.3696 47.7828 44.3996 48.486 44.4396 49.1891C44.4896 50.1364 44.5396 51.1227 44.6696 52.0895C44.8796 53.7106 45.2696 55.1169 45.8696 56.3865L45.9696 56.6013C46.3696 57.4705 46.7896 58.3689 47.0596 59.2771C47.1896 59.7068 47.2996 60.1756 47.2696 60.615C47.2496 60.9471 47.0896 61.1229 46.7396 61.201V61.2205Z" fill="black"/>
<path d="M120.14 8.271C120.2 8.3003 120.28 8.3296 120.38 8.3296C120.66 8.3296 120.89 8.15383 120.95 7.89016C120.99 7.68507 120.93 7.48 120.79 7.34328C120.78 7.32374 120.77 7.30421 120.75 7.28468C120.61 7.11867 120.41 7.11865 120.27 7.11865C120.09 7.11865 119.93 7.18702 119.82 7.31398C119.73 7.4214 119.67 7.55812 119.67 7.7046C119.67 7.98781 119.87 8.22218 120.13 8.271H120.14Z" fill="black"/>
</svg>
