<svg width="114" height="109" viewBox="0 0 114 109" fill="none" xmlns="http://www.w3.org/2000/svg">
<path d="M110.481 47.5624C108.451 40.4432 105.221 34.0076 100.391 28.4118C97.6907 25.2868 94.5207 22.523 91.4107 19.7593C87.5707 16.3413 83.0207 14.5347 77.8107 15.6284C74.6907 16.2827 72.2507 15.3452 69.8707 13.7436C67.0307 11.8393 64.2807 9.81778 61.4507 7.88417C58.9307 6.16539 56.4007 4.42709 53.7807 2.85481C52.6507 2.17121 51.3007 1.7513 49.9907 1.43879C47.2807 0.804018 44.5907 0.237603 41.7107 0.735657C39.7007 1.08722 37.5507 0.62822 35.4907 0.81377C30.9707 1.21417 26.8607 2.9134 23.7007 6.02868C18.1607 11.4877 17.6407 20.5211 22.4807 26.5172C23.7207 28.0505 23.3007 28.7145 21.9107 29.6813C19.4207 31.4099 17.0607 33.2556 16.5207 36.5467C16.3107 37.8553 15.5707 39.076 15.1407 40.3553C13.4207 45.5214 10.0007 50.3066 10.5407 55.9903C10.8707 59.379 8.64069 62.504 10.1207 66.0295C10.7107 67.4357 10.9807 68.5393 12.5507 69.0569C13.8907 69.4963 14.4907 72.0452 13.4307 72.8557C12.2207 73.7932 10.9107 74.6722 9.52069 75.3167C7.45069 76.2738 6.18068 78.2171 6.77068 80.4632C7.33068 82.6117 6.55069 85.0825 8.38069 86.9477C8.54069 87.1137 8.42069 87.5337 8.43069 87.8462C8.47069 90.1704 9.43069 91.44 11.7307 92.3384C12.2007 92.524 12.9207 92.8267 12.9707 93.1587C13.3207 95.3853 13.8107 97.6705 13.5907 99.8678C13.5307 100.444 11.1607 100.815 9.84068 101.255C9.53068 101.352 9.19069 101.352 8.86069 101.391C6.91069 101.616 4.95069 101.762 3.01069 102.085C1.31069 102.368 -0.13931 104.126 0.0106902 105.61C0.19069 107.495 1.57069 107.993 3.23069 107.993C9.77069 108.012 16.3207 108.139 22.8507 107.993C29.7407 107.837 36.6107 107.28 43.5007 107.143C48.7007 107.036 53.9007 107.339 59.1007 107.417C63.8407 107.485 68.6207 107.124 73.3007 107.612C82.7207 108.598 91.9707 107.153 101.121 105.766C109.661 104.467 112.541 102.651 113.651 93.5494C114.151 89.4868 113.731 85.3266 113.731 81.2055C114.191 69.8479 113.591 58.6075 110.441 47.5527L110.481 47.5624ZM83.0507 17.6304C85.2507 18.148 86.8407 19.1734 88.0107 20.7945C91.9707 26.2828 94.4407 32.3376 95.2907 39.0662C96.6607 50.0136 95.1507 60.9513 95.2907 71.8889C95.3307 75.2093 95.1207 78.6273 94.3807 81.85C93.1307 87.2895 89.5107 90.3364 83.9607 92.3677C76.2507 95.1998 68.5007 93.9986 60.7607 94.2623C57.2707 94.3795 53.6707 94.1744 50.2707 93.4712C45.8507 92.5533 41.5007 92.3873 36.9207 93.2076C36.9207 88.0122 36.9007 83.2074 36.9307 78.4124C36.9407 76.7523 36.4907 74.555 37.3807 73.5882C38.1607 72.7288 40.5207 73.2561 42.1707 73.1389C45.9407 72.8655 49.7107 72.5628 53.4807 72.3088C54.5807 72.2307 55.8007 72.5725 56.7607 72.2209C58.8107 71.4592 60.7507 70.4045 62.7007 69.3889C64.7107 68.344 66.1007 66.9182 66.1507 64.4474C66.2007 62.2892 66.7507 60.1505 66.8107 57.9923C67.0107 50.8437 66.8607 43.6854 67.3207 36.5564C67.5807 32.4939 68.4107 28.3825 69.6207 24.4859C71.5807 18.2066 76.4607 16.0776 83.0607 17.6304H83.0507ZM63.8207 40.8924C62.4007 39.2811 61.3007 38.0506 60.0107 36.5955C61.1407 35.8728 62.2807 35.1599 63.8207 34.1834V40.8924ZM22.3007 20.9019C21.3807 18.0503 21.1807 14.6811 21.7307 11.7319C22.3307 8.50918 25.2407 6.36072 28.0807 4.74937C32.1907 2.41535 36.7207 1.99542 41.4007 2.75714C42.4907 2.93293 43.6407 2.78646 44.7607 2.83529C48.2907 2.98177 51.5307 4.04622 54.2907 6.17516C59.7307 10.3647 65.5807 13.9194 71.6707 17.1128C71.8307 17.1909 71.9207 17.3863 72.2107 17.7085C71.1707 18.6461 69.8607 19.4078 69.1907 20.5308C67.5907 23.2262 66.0907 26.0192 64.9307 28.9196C64.3007 30.5017 63.4507 31.6931 62.1407 32.7087C58.4107 35.5799 54.1607 37.4842 49.5307 38.1483C47.2507 38.4803 44.8007 37.6795 42.1907 37.3572C43.6407 34.5252 46.0607 35.1306 48.1107 34.6619C45.9107 32.9724 43.7107 33.8806 41.8807 34.9939C40.5107 35.8338 39.4707 35.8533 38.0807 35.4627C34.5007 34.4568 34.0807 34.6716 32.3007 37.8357C32.0507 38.285 31.8507 38.8416 31.4507 39.1053C31.0807 39.3494 30.4407 39.4276 30.0207 39.2811C29.7807 39.203 29.5307 38.4803 29.6307 38.158C30.7107 34.6521 28.8307 31.947 27.1407 29.193C25.4607 26.4489 23.2407 23.8805 22.2807 20.9117L22.3007 20.9019ZM25.3007 30.6677C26.7907 32.8845 27.8707 34.9451 27.4807 37.5232C27.3707 38.2557 27.4607 39.0858 27.6907 39.7987C28.3107 41.7128 30.1307 42.2303 31.7107 40.9217C32.7107 40.0916 33.6607 39.1834 34.4607 38.1776C35.1807 37.2693 35.8907 37.0057 36.9907 37.3865C38.7707 38.0115 40.6207 38.4314 42.3607 39.1443C46.7607 40.9315 50.9907 40.7948 55.3707 38.8904C58.0607 37.7185 58.9107 38.5877 61.0207 40.6776C64.1907 43.8319 63.6307 47.5136 63.5107 51.2832C63.4007 54.5059 63.4107 57.7481 63.6407 60.961C63.8907 64.3595 61.8007 67.8068 58.5107 68.8713C57.1607 69.3108 55.8307 69.799 54.7207 70.1799C54.0507 64.2619 53.4007 58.8321 52.8607 53.3926C52.7507 52.2695 52.1707 51.9863 51.3507 52.2988C50.9607 52.4453 50.5607 53.2656 50.6007 53.7442C51.0807 58.8614 51.6507 63.9689 52.1907 69.0764C52.2307 69.4475 52.1907 69.8186 52.1907 70.3459C49.5107 70.6194 46.9807 70.9807 44.4407 71.1174C39.6707 71.3616 34.8907 71.5569 30.1107 71.596C28.0907 71.6155 26.0707 71.01 24.0507 70.9807C21.3307 70.9417 18.6007 71.1955 15.7007 71.3323C15.5907 70.8244 15.4307 70.092 15.2007 68.9787C19.9407 69.5256 23.4707 66.9084 27.3507 65.2677C29.4407 64.3888 29.8607 63.383 29.2707 61.3126C31.9107 60.1017 32.1907 57.6797 29.9907 55.7364C29.6107 55.4043 29.3707 54.7207 29.3907 54.2129C29.4607 52.1035 28.6207 51.0879 26.4707 51.1855C24.7107 51.2637 22.9707 51.5957 20.9607 51.8496C22.1107 49.8769 21.6907 47.914 20.1607 46.9081C19.1807 46.2636 17.3307 46.8788 15.9207 46.9277C16.5107 40.5213 18.3807 34.3494 25.3307 30.6677H25.3007ZM27.4407 53.627C27.1307 54.0469 26.8907 54.75 26.4907 54.8574C21.8807 56.1172 17.4907 58.295 12.3907 58.0704C11.9807 55.3848 12.4607 54.6719 14.9807 54.3496C18.6207 53.8711 22.2707 53.4414 25.9307 53.0703C26.4107 53.0215 26.9407 53.4317 27.4507 53.627H27.4407ZM11.2207 52.9141C11.6307 52.2598 11.8707 51.3222 12.4607 51.0097C14.2307 50.082 16.1107 49.3105 18.0107 48.6562C18.5107 48.4804 19.2407 48.9394 19.8707 49.1152C19.5107 49.6523 19.2707 50.4726 18.7607 50.6875C16.4407 51.6445 14.0507 52.4258 11.6807 53.2656C11.5207 53.1484 11.3707 53.0313 11.2107 52.9141H11.2207ZM11.3207 62.5236C11.2207 61.2052 11.8207 60.0724 13.5607 59.7403C17.5907 58.9688 21.5807 57.9337 25.6107 57.1426C26.8407 56.8985 28.1607 57.1036 29.3607 57.1036C30.0707 58.6466 29.7507 59.545 28.1607 59.9356C23.4207 61.1173 18.7107 62.3771 13.9507 63.4806C13.0307 63.6955 11.4407 64.1544 11.3207 62.5138V62.5236ZM11.8807 67.299C11.8207 66.4787 11.7907 65.922 11.7407 65.297C14.5807 64.838 17.3407 64.4474 20.0807 63.9396C22.6707 63.4611 25.2307 62.8556 27.8707 62.5724C23.2007 66.049 17.7807 66.9767 11.8807 67.3088V67.299ZM10.5007 87.7387C10.4407 86.645 9.96069 85.5708 9.72069 84.477C9.59069 83.8715 9.54069 83.2465 9.49069 82.6312C9.44069 82.0062 9.69069 81.225 9.39069 80.7758C8.11069 78.9007 9.39069 78.0023 10.6807 77.0355C15.2107 73.6468 20.2007 72.5042 25.8407 73.6468C27.7807 74.0374 29.8407 73.8421 31.8407 73.9007C32.6207 73.9202 33.4107 73.9007 34.3907 73.9007V92.7681C31.1107 92.7681 27.8307 92.9243 24.5807 92.729C20.9807 92.5044 17.3907 91.9868 13.8107 91.5181C11.4807 91.2153 10.6207 90.0337 10.5007 87.7387ZM2.76069 106.03C2.66069 105.815 2.56069 105.591 2.46069 105.376C3.06069 104.966 3.62069 104.272 4.26069 104.184C7.90069 103.676 11.5607 103.11 15.2207 102.973C17.5807 102.885 19.9707 103.725 22.3607 103.764C30.0707 103.872 37.7907 103.755 45.5007 103.823C47.4207 103.842 49.3407 104.233 51.2607 104.448C51.2607 104.633 51.2807 104.819 51.2807 105.014C35.1007 105.161 18.9507 106.655 2.75069 106.04L2.76069 106.03ZM29.2007 101.772C25.7107 101.674 22.2207 101.821 18.7407 101.674C15.9907 101.557 16.0207 101.44 16.1407 98.8229C16.2007 97.4166 16.1507 96.0103 16.1507 94.3209C18.2707 94.5259 20.2007 94.7994 22.1507 94.897C27.2807 95.1314 32.4207 95.3072 37.5607 95.483C42.0507 95.6295 46.5507 95.7955 51.0407 95.8443C52.4407 95.8638 52.8407 96.5182 52.9807 97.6803C53.1807 99.3502 53.4507 101.02 53.7307 102.973C45.3707 100.844 37.2607 102.007 29.2107 101.772H29.2007ZM96.9707 104.038C93.0607 104.399 89.1807 104.985 85.2807 105.454C84.6307 105.532 83.9707 105.561 83.3207 105.551C77.1307 105.444 70.9407 105.307 64.7507 105.219C61.9407 105.18 59.1307 105.219 56.1407 105.219C55.7407 102.026 55.3807 99.067 55.0307 96.3033C59.6707 96.3033 64.1207 96.3033 68.5707 96.3033C72.2907 96.3033 76.0407 96.567 79.7207 96.2154C84.3007 95.776 88.5407 94.1451 91.9907 91.0298C93.3607 89.7896 94.4707 88.2856 95.9407 86.6157C99.7707 91.2837 103.731 96.1275 107.851 101.137C104.191 102.622 100.711 103.696 96.9707 104.048V104.038ZM111.311 83.0316C111.241 86.9087 111.051 90.7954 110.741 94.6627C110.631 96.0103 110.031 97.3287 109.501 99.1842C107.131 96.3619 105.101 93.9595 103.091 91.5572C101.271 89.3794 99.4307 87.2016 97.6607 84.975C97.3207 84.5453 97.0207 83.8324 97.1207 83.3344C98.1307 78.1781 97.9707 73.0022 97.7907 67.7775C97.6407 63.3634 98.0307 58.9395 98.1707 54.5254C98.3907 47.2792 98.5807 39.9647 96.6907 32.9333C95.6307 28.988 93.2907 25.3747 91.6407 21.859C91.5307 21.8004 91.9607 21.9176 92.2007 22.191C96.3407 26.9958 100.781 31.6052 103.611 37.3279C105.091 40.3163 106.401 43.412 107.441 46.5663C109.891 53.9199 110.881 61.5568 111.231 69.2522C111.441 73.8323 111.381 78.4417 111.301 83.0316H111.311Z" fill="black"/>
<path d="M35.1608 21.6441C34.7408 20.9214 34.3208 20.189 33.7808 19.271C34.5408 19.271 35.2008 19.3784 35.8108 19.2515C37.0008 19.0073 38.6008 18.9878 39.2408 18.2358C40.3508 16.9272 38.9308 15.8042 38.0708 14.769C38.0108 14.6909 38.0408 14.5346 38.0508 14.6225C40.5708 13.5873 43.0608 12.6107 45.4908 11.5267C45.8108 11.3803 46.1008 10.6478 46.0008 10.2865C45.9208 10.0131 45.0808 9.62242 44.8208 9.75914C41.7308 11.2435 38.5408 12.2787 35.0608 12.5424C33.7908 12.64 33.4408 13.5678 34.6508 14.5151C35.5908 15.2573 36.5008 16.0483 37.4208 16.8198C37.3608 17.0053 37.3108 17.1811 37.2508 17.3667C34.6208 17.23 31.9808 17.0639 29.3408 16.9956C28.7508 16.976 28.1408 17.3178 27.5408 17.4839C27.5808 17.6596 27.6208 17.8354 27.6708 18.0112C29.1608 18.8315 30.6508 19.6421 32.1408 20.4624C32.0608 20.6772 31.9708 20.8921 31.8908 21.0972C28.7708 20.6186 25.6408 20.1499 22.0308 19.603C24.3508 22.396 32.5408 23.4507 35.1408 21.6441H35.1608Z" fill="black"/>
<path d="M49.0707 16.0189C49.8807 16.517 51.0807 16.3998 52.1207 16.556C52.1607 16.2631 52.2106 15.9701 52.2506 15.6771C51.7506 15.4037 51.1707 15.2084 50.7807 14.8177C50.5307 14.5736 50.4606 14.0072 50.5506 13.6459C50.6106 13.4212 51.1806 13.099 51.4106 13.1771C53.8106 13.9584 56.2707 14.642 58.5407 15.7064C59.5707 16.1849 60.4406 17.3275 58.9406 18.6166C58.0606 19.3686 58.5807 19.9838 59.6207 20.1499C61.0907 20.3842 62.1406 19.5737 61.9706 18.1283C61.8506 17.0834 61.5507 15.9603 60.9807 15.0814C58.9607 11.9466 55.4506 11.4876 52.1606 10.8528C49.7706 10.3938 48.7506 11.2142 48.4106 13.6947C48.3106 14.4564 48.5506 15.6967 49.0806 16.0189H49.0707Z" fill="black"/>
<path d="M53.0107 15.3842C54.0607 16.0483 55.0907 16.7319 56.1707 17.3178C56.2807 17.3764 56.7407 16.8198 57.5107 16.1069C55.9807 15.5502 54.9007 15.1108 53.7907 14.7885C53.6107 14.7397 53.2707 15.1694 53.0107 15.3745V15.3842Z" fill="black"/>
<path d="M28.6707 28.1577C29.2707 28.5581 29.8706 28.9585 30.4606 29.3589C30.7506 28.9292 31.0407 28.4995 31.3407 28.0698C30.6107 27.8062 29.8807 27.5425 29.1507 27.2788C28.9907 27.5718 28.8307 27.8647 28.6707 28.1577Z" fill="black"/>
</svg>
