<svg width="78" height="70" viewBox="0 0 78 70" fill="none" xmlns="http://www.w3.org/2000/svg">
<g clip-path="url(#clip0_6263_5779)">
<path d="M0.359985 16.3101L0.469985 16.1201C0.409985 16.1201 0.359985 16.1701 0.359985 16.3101Z" fill="black"/>
<path d="M4.66003 10.0801V10.0901L4.69003 10.1301L4.66003 10.0801Z" fill="black"/>
<path d="M20.4501 4.6501C20.6901 4.6501 20.4301 3.9601 20.7401 4.2001C20.7401 3.5401 20.3201 2.9301 19.8001 2.4601C19.2901 1.9601 18.7101 1.5601 18.0701 0.920099C17.5301 1.1301 16.9501 0.690099 16.6501 0.970099C16.6501 0.740099 15.3601 0.740099 16.1401 0.420099C16.2101 0.390099 16.3201 0.420099 16.3001 0.490099L16.4401 0.250099C15.7001 -0.369901 15.0201 0.370099 14.3801 0.310099C14.5801 0.390099 14.8501 0.370099 14.6701 0.550099H14.0601L14.1701 0.310099L13.2701 0.250099L13.4201 0.510099C12.9801 0.410099 12.7701 -0.0299007 12.3601 0.430099C12.1901 0.680099 12.8001 0.730099 12.3901 0.890099C11.8101 0.790099 11.0001 0.670099 10.4101 0.690099C10.5201 0.980099 10.3601 1.0001 10.2101 1.0901L10.1401 0.830099C9.58005 1.3001 9.81005 0.290099 9.27005 0.680099L9.29005 0.490099L9.22005 1.0701C8.75005 1.6701 8.87005 0.560099 8.37005 1.3401C8.60005 1.2701 8.54005 1.9201 8.23005 1.8301L8.28005 1.5701C8.13005 1.6401 8.08005 1.7501 7.97005 1.7001C8.06005 1.5501 7.99005 1.3201 7.77005 1.3801L7.90005 1.0501L7.49005 1.5401C7.14005 1.2701 6.62005 1.6101 6.53005 1.2401C6.58005 1.2401 5.74005 1.0001 5.47005 1.3901C5.68005 1.1501 5.13005 1.0301 5.30005 0.750099C4.86005 1.0001 3.82005 1.2901 3.29005 1.1501L3.36005 1.1001C2.07005 1.2001 1.39005 2.1101 0.900051 2.9201C0.710051 3.2801 0.490051 3.6001 0.240051 3.9701C0.540051 4.0501 0.110051 4.7101 0.550051 4.6701C0.500051 5.4901 0.260051 5.7701 0.100051 6.1901C-0.059949 6.5701 -0.069949 6.8801 0.520051 7.1001C0.560051 7.5401 0.200051 7.6001 0.130051 7.8301L0.070051 7.7201C0.140051 8.5401 0.160051 8.7601 0.140051 9.3401C0.270051 9.6301 0.840051 9.6601 0.710051 10.1601C0.480051 10.0101 0.530051 10.2101 0.530051 10.3901C0.490051 10.2701 0.410051 10.2401 0.260051 10.4901C0.330051 10.5201 0.380051 10.5701 0.410051 10.6201C0.390051 10.6201 0.380051 10.6301 0.350051 10.6201C0.440051 10.9201 0.510051 10.8601 0.540051 10.7201C0.570051 10.7201 0.620051 10.7201 0.680051 10.6701C0.400051 11.0101 0.710051 11.5001 0.310051 11.5001C0.360051 12.3301 0.690051 13.0801 0.810051 13.8801C0.610051 13.9601 0.440051 13.7701 0.370051 13.5301L0.420051 14.1101C0.130051 14.0901 0.270051 13.7701 0.220051 13.5901C-0.279949 14.2701 0.620051 15.0201 0.260051 15.9101L0.500051 16.0701L0.470051 16.1301C0.590051 16.1201 0.770051 16.2901 0.830051 16.4201C0.610051 16.5901 0.240051 16.4801 0.370051 17.0601C0.240051 17.6001 0.830051 18.3301 1.26005 18.6901C1.15005 18.4001 1.31005 18.4101 1.44005 18.4601C1.55005 18.6901 1.50005 18.9501 1.69005 19.0401L1.47005 19.3001C1.59005 19.0601 2.01005 19.3901 2.24005 19.4601C2.30005 19.4701 2.35005 19.4701 2.38005 19.4601C2.38005 19.5801 2.28005 19.5901 2.16005 19.5701C2.02005 19.5301 1.86005 19.4201 1.76005 19.4701C1.95005 19.6401 2.08005 19.7501 2.05005 19.7101C2.56005 19.9601 2.41005 19.9701 3.25005 20.1801C3.91005 20.0401 3.25005 19.8601 3.62005 19.6201C4.09005 19.6401 4.59005 19.4101 5.02005 19.6201L4.88005 19.3201C5.57005 19.0801 5.96005 19.0801 6.45005 19.3501C7.61005 18.6201 8.30005 18.0601 8.64005 17.6201C8.82005 17.5501 9.02005 17.4301 9.25005 17.2601L9.06005 17.5101C9.53005 17.7001 10.0601 18.0001 10.8101 18.4401L10.7801 18.5401C11.6201 18.7401 12.1901 18.8201 12.8701 18.3501C12.9301 18.9701 13.6501 18.4701 13.8601 18.6801L13.8301 18.7301C14.1401 18.5101 14.4401 18.6401 14.7501 18.7701C15.0901 18.9001 15.2701 19.0301 15.8301 18.8501C15.7901 18.9001 15.7801 19.0701 15.5501 19.0701C16.2801 19.0201 17.1801 18.9601 17.3501 19.3001C18.0901 19.2501 18.8001 19.1301 19.4201 18.6801C20.0401 18.2201 20.3801 17.5001 20.3901 16.9301C20.3901 16.7301 20.3701 16.5501 20.3201 16.3901L20.4001 16.5001C20.1301 15.8101 20.4601 15.7801 20.2701 15.0901C20.3201 15.0701 20.3401 15.0301 20.3601 15.0401C20.1601 14.6901 20.1201 14.2701 20.0901 13.8501C20.0701 13.4601 20.0901 13.2601 19.9901 13.0901L20.2301 13.0501C20.1901 12.7601 20.1601 12.6801 20.1501 12.4101L20.1001 12.6501C19.4401 12.6101 20.5101 12.1301 20.1201 11.5801C20.2301 11.0701 18.8301 10.4101 19.1901 9.8601C18.9001 9.5701 19.6701 10.1401 19.4701 9.7101C19.8101 9.7201 19.6701 9.9201 19.9501 9.8301C19.8201 9.4201 20.35 9.2001 20.1401 8.6801H20.4101C19.9601 7.9901 20.8101 7.4001 20.3301 6.9301C20.0801 6.2201 21.1201 6.3901 20.5201 5.6301L20.8301 5.2601C20.8301 4.8801 20.3501 5.0701 20.4401 4.6401L20.4501 4.6501ZM17.1001 14.9201C16.9801 15.2501 16.4001 15.1601 16.1201 14.9201C15.7501 14.7201 16.0201 14.6901 15.0201 14.9001C14.9601 14.8301 14.7901 14.9601 14.7801 15.0201L12.9201 14.8201C12.9201 14.8201 12.2201 14.7601 11.2701 14.8301C10.3501 14.9001 9.09005 15.1501 8.25005 15.8801L7.98005 16.1201C7.56005 15.9701 7.19005 15.9201 7.19005 15.9201C6.30005 15.7101 5.68005 15.7701 5.13005 15.9001C4.73005 15.9701 4.84005 16.0501 4.78005 16.1401C4.73005 16.2301 4.63005 16.3201 4.51005 16.3501C4.45005 16.3601 4.39005 16.3501 4.33005 16.3201C4.33005 16.0301 4.84005 15.3401 4.71005 13.4401C4.76005 12.9601 4.79005 12.4501 4.78005 11.8401C4.78005 11.1201 4.70005 10.5901 4.65005 10.0901C4.18005 9.6201 4.61005 8.8301 4.24005 8.3301L4.50005 8.1401C4.38005 7.9701 4.29005 7.7601 4.44005 7.6101H4.51005C4.33005 7.3701 4.47005 7.1201 4.39005 7.0001L4.46005 7.0201V6.7501L4.56005 6.8101C4.48005 6.6001 4.47005 6.4201 4.48005 6.2501C4.50005 6.1201 4.51005 6.1401 4.58005 6.1001L4.29005 5.9701C4.41005 5.9401 4.44005 5.9001 4.46005 5.8501C4.48005 5.7201 4.46005 5.3901 4.78005 5.6301L4.81005 5.7001C4.83005 5.2601 4.99005 5.3901 5.23005 5.5501C5.58005 5.7101 5.99005 5.9101 6.74005 5.5501C6.58005 5.6501 6.81005 5.7101 6.79005 5.7901C7.39005 5.7101 8.03005 5.6301 8.00005 5.0201C8.42005 5.0001 8.36005 5.1901 8.43005 5.4201C8.41005 5.1501 8.76005 5.0101 9.08005 4.9601L8.94005 5.0801L9.85005 4.8701L9.60005 4.3901C10.0901 4.4701 9.81005 4.9901 10.2501 4.7901L10.1801 4.3801C10.8401 4.3601 11.3301 4.9101 11.9901 5.1001C13.2101 4.9501 14.3001 4.5701 15.2701 4.5001C16.2601 4.4101 16.7501 4.7401 16.5901 5.3101L16.3001 5.4601C16.0901 5.5501 16.2501 5.5101 16.4401 5.5201C16.6301 5.5201 16.8301 5.6701 16.6301 5.7201C16.7101 5.7701 16.7901 5.8301 16.8701 5.8901C16.8001 5.9601 16.7301 6.1001 16.6101 6.0101C16.6201 6.2001 16.6901 6.2001 16.8401 6.3301L16.5701 6.5701C16.3901 7.3901 16.9101 8.1901 16.7301 9.2101C16.4001 9.8001 16.3101 10.7101 16.3601 11.7201C16.3701 11.9701 16.4001 12.2301 16.4301 12.5001C16.4601 12.8001 16.5301 13.1401 16.5901 13.3501C16.6501 13.5601 16.7201 13.7801 16.7801 13.9801C16.8301 14.0901 16.8801 14.1301 16.9301 14.2201C17.1301 14.4401 17.1601 14.7401 17.0501 14.9301L17.1001 14.9201Z" fill="black"/>
<path d="M27.63 66.1202L27.74 65.9302C27.68 65.9302 27.63 65.9802 27.63 66.1202Z" fill="black"/>
<path d="M31.92 59.8901V59.9001L31.95 59.9401L31.92 59.8901Z" fill="black"/>
<path d="M47.7099 54.4602C47.9499 54.4602 47.6899 53.7702 47.9999 54.0102C47.9999 53.3502 47.58 52.7402 47.0599 52.2702C46.5499 51.7702 45.9699 51.3702 45.33 50.7302C44.7899 50.9402 44.2099 50.5002 43.9099 50.7802C43.9099 50.5502 42.6199 50.5502 43.4099 50.2302C43.4799 50.2002 43.5899 50.2302 43.5699 50.3002L43.7099 50.0602C42.9699 49.4402 42.2899 50.1802 41.6499 50.1202C41.8499 50.2002 42.1199 50.1802 41.9399 50.3602L41.3299 50.3402L41.4399 50.1102L40.5399 50.0502L40.6899 50.3102C40.2499 50.2102 40.0399 49.7702 39.6299 50.2302C39.4599 50.4802 40.0699 50.5302 39.6599 50.6902C39.0799 50.5902 38.2699 50.4702 37.6799 50.4902C37.7899 50.7802 37.6299 50.8002 37.4799 50.8902L37.4099 50.6302C36.8499 51.1002 37.0799 50.0902 36.5399 50.4802L36.5599 50.2902L36.4899 50.8702C36.0199 51.4702 36.1399 50.3602 35.6399 51.1402C35.8699 51.0702 35.8099 51.7202 35.4999 51.6302L35.5499 51.3702C35.3999 51.4402 35.3499 51.5502 35.2399 51.5002C35.3299 51.3502 35.2599 51.1202 35.0399 51.1802L35.1699 50.8502L34.7599 51.3402C34.4099 51.0702 33.8899 51.4102 33.7999 51.0402C33.8499 51.0402 33.0099 50.8002 32.7399 51.1902C32.9499 50.9502 32.3999 50.8302 32.5699 50.5502C32.1299 50.8002 31.0899 51.0902 30.5599 50.9502L30.6299 50.9002C29.3399 51.0002 28.6599 51.9102 28.1699 52.7202C27.9799 53.0802 27.7599 53.4002 27.5099 53.7702C27.8099 53.8502 27.3799 54.5102 27.8199 54.4702C27.7699 55.2902 27.5299 55.5702 27.3699 55.9902C27.2099 56.3702 27.1999 56.6802 27.7899 56.9002C27.8299 57.3402 27.4699 57.4002 27.3999 57.6302L27.3399 57.5202C27.4099 58.3402 27.4299 58.5602 27.4099 59.1402C27.5399 59.4302 28.1099 59.4602 27.9799 59.9602C27.7499 59.8102 27.7999 60.0102 27.7999 60.1902C27.7599 60.0702 27.6799 60.0402 27.5299 60.2902C27.5999 60.3202 27.6499 60.3702 27.6799 60.4202C27.6599 60.4202 27.6499 60.4302 27.6199 60.4202C27.7099 60.7202 27.7799 60.6602 27.7999 60.5202C27.8399 60.5202 27.8799 60.5202 27.9399 60.4702C27.6599 60.8102 27.9699 61.3002 27.5699 61.3002C27.6199 62.1302 27.9499 62.8802 28.0699 63.6802C27.8699 63.7602 27.6999 63.5702 27.6299 63.3302L27.6799 63.9102C27.3899 63.8902 27.5299 63.5702 27.4799 63.3902C26.9799 64.0702 27.8799 64.8202 27.5199 65.7102L27.7599 65.8702L27.7299 65.9302C27.8499 65.9202 28.0299 66.0902 28.0899 66.2202C27.8699 66.3902 27.4999 66.2802 27.6299 66.8602C27.4999 67.4002 28.0899 68.1302 28.5199 68.4902C28.4099 68.2002 28.5699 68.2102 28.6999 68.2602C28.8099 68.4902 28.7599 68.7502 28.9499 68.8402L28.7299 69.1002C28.8499 68.8602 29.2699 69.1902 29.4999 69.2602C29.5599 69.2702 29.6099 69.2702 29.6399 69.2602C29.6399 69.3802 29.5399 69.3902 29.4199 69.3702C29.2899 69.3302 29.1199 69.2202 29.0199 69.2702C29.2099 69.4402 29.3399 69.5502 29.3099 69.5102C29.8199 69.7602 29.6699 69.7702 30.5099 69.9802C31.1699 69.8402 30.5099 69.6602 30.8799 69.4202C31.3499 69.4402 31.8499 69.2102 32.2799 69.4202L32.1399 69.1202C32.8299 68.8802 33.2199 68.8802 33.7099 69.1502C34.8699 68.4202 35.5599 67.8602 35.8999 67.4202C36.0799 67.3502 36.2799 67.2302 36.5099 67.0602L36.3199 67.3102C36.7899 67.5002 37.3199 67.8002 38.0699 68.2402L38.0399 68.3402C38.8799 68.5402 39.4499 68.6202 40.1299 68.1502C40.1899 68.7702 40.9099 68.2702 41.1199 68.4802L41.0899 68.5302C41.3999 68.3102 41.6999 68.4402 42.0099 68.5702C42.3399 68.7002 42.5299 68.8302 43.0899 68.6502C43.0499 68.7002 43.0399 68.8702 42.8099 68.8702C43.5399 68.8202 44.4399 68.7602 44.6099 69.1002C45.3499 69.0502 46.0599 68.9302 46.6799 68.4802C47.2999 68.0202 47.6399 67.3002 47.65 66.7302C47.65 66.5302 47.6299 66.3502 47.58 66.1902L47.6599 66.3002C47.3899 65.6102 47.7199 65.5802 47.5299 64.8902C47.5799 64.8702 47.5999 64.8302 47.6199 64.8402C47.4199 64.4902 47.3799 64.0702 47.3499 63.6502C47.3299 63.2602 47.3499 63.0602 47.2499 62.8902L47.49 62.8502C47.4499 62.5602 47.4199 62.4802 47.4099 62.2102L47.3599 62.4502C46.6999 62.4102 47.7699 61.9302 47.3799 61.3802C47.49 60.8702 46.0899 60.2102 46.4499 59.6602C46.1599 59.3702 46.9299 59.9402 46.7299 59.5102C47.0699 59.5202 46.9299 59.7202 47.2099 59.6302C47.0799 59.2202 47.6099 59.0002 47.4 58.4802H47.6699C47.2199 57.7902 48.0699 57.2002 47.5899 56.7302C47.3399 56.0202 48.3799 56.1902 47.7799 55.4302L48.0899 55.0602C48.0899 54.6802 47.6099 54.8702 47.6999 54.4402L47.7099 54.4602ZM44.3599 64.7302C44.2399 65.0602 43.66 64.9702 43.3799 64.7302C43.0099 64.5302 43.2799 64.5002 42.2799 64.7102C42.2199 64.6402 42.0499 64.7702 42.0399 64.8302L40.1799 64.6302C40.1799 64.6302 39.4799 64.5702 38.5299 64.6402C37.6099 64.7102 36.3499 64.9602 35.5199 65.6902L35.2499 65.9302C34.8299 65.7802 34.4599 65.7302 34.4599 65.7302C33.5699 65.5202 32.9499 65.5802 32.3999 65.7102C31.9999 65.7802 32.1099 65.8602 32.0499 65.9502C31.9999 66.0402 31.8999 66.1302 31.7799 66.1602C31.7199 66.1702 31.6599 66.1602 31.5999 66.1302C31.5999 65.8402 32.1099 65.1502 31.9799 63.2502C32.0299 62.7702 32.0599 62.2602 32.0499 61.6502C32.0499 60.9302 31.9699 60.4002 31.9199 59.9002C31.4499 59.4302 31.8799 58.6402 31.5099 58.1402L31.7699 57.9502C31.6499 57.7802 31.5599 57.5702 31.7099 57.4202H31.7799C31.5999 57.1802 31.7399 56.9302 31.6599 56.8102L31.7299 56.8302V56.5602L31.8299 56.6202C31.7499 56.4102 31.7399 56.2302 31.7599 56.0602C31.7799 55.9302 31.7899 55.9502 31.8599 55.9102L31.5699 55.7802C31.6899 55.7502 31.7199 55.7102 31.7399 55.6602C31.7599 55.5302 31.7399 55.2002 32.0599 55.4402L32.0899 55.5102C32.1099 55.0702 32.2699 55.2002 32.5099 55.3602C32.8599 55.5202 33.2699 55.7202 34.0299 55.3602C33.8699 55.4602 34.0999 55.5202 34.0799 55.6002C34.6799 55.5202 35.3199 55.4402 35.2899 54.8302C35.7099 54.8102 35.6499 55.0002 35.7199 55.2302C35.6999 54.9602 36.0499 54.8202 36.3699 54.7702L36.2299 54.8902L37.1399 54.6802L36.8899 54.2002C37.3799 54.2802 37.0999 54.8002 37.5399 54.6002L37.4699 54.1902C38.1299 54.1702 38.6199 54.7202 39.2799 54.9102C40.4999 54.7602 41.5899 54.3802 42.5599 54.3102C43.5499 54.2202 44.0399 54.5502 43.8799 55.1202L43.5899 55.2702C43.3799 55.3602 43.5399 55.3202 43.7299 55.3302C43.9199 55.3302 44.1199 55.4802 43.9199 55.5302C43.9999 55.5802 44.0799 55.6402 44.1599 55.7002C44.0899 55.7702 44.02 55.9102 43.9 55.8202C43.91 56.0102 43.9799 56.0102 44.1299 56.1402L43.8599 56.3802C43.6799 57.2002 44.1999 58.0002 44.0199 59.0102C43.6899 59.6002 43.59 60.5102 43.65 61.5202C43.66 61.7702 43.6899 62.0302 43.7199 62.3002C43.75 62.6002 43.82 62.9402 43.8799 63.1502C43.9399 63.3602 44.0099 63.5802 44.0699 63.7802C44.1199 63.8902 44.17 63.9302 44.2199 64.0202C44.42 64.2502 44.4499 64.5402 44.3399 64.7302H44.3599Z" fill="black"/>
<path d="M0.359985 39.92L0.469985 39.73C0.409985 39.73 0.359985 39.78 0.359985 39.92Z" fill="black"/>
<path d="M4.66003 33.6899V33.6999L4.69003 33.7399L4.66003 33.6899Z" fill="black"/>
<path d="M20.4501 28.26C20.6901 28.26 20.4301 27.57 20.7401 27.81C20.7401 27.15 20.3201 26.54 19.8001 26.07C19.2901 25.57 18.7101 25.17 18.0701 24.53C17.5301 24.74 16.9501 24.3 16.6501 24.58C16.6501 24.35 15.3601 24.35 16.1401 24.03C16.2101 24 16.3201 24.03 16.3001 24.1L16.4401 23.86C15.7001 23.24 15.0201 23.98 14.3801 23.92C14.5801 24 14.8501 23.98 14.6701 24.16L14.0601 24.14L14.1701 23.91L13.2701 23.85L13.4201 24.11C12.9801 24.01 12.7701 23.57 12.3601 24.03C12.1901 24.28 12.8001 24.33 12.3901 24.49C11.8101 24.39 11.0001 24.27 10.4101 24.29C10.5201 24.58 10.3601 24.6 10.2101 24.69L10.1401 24.43C9.58005 24.9 9.81005 23.89 9.27005 24.28L9.29005 24.09L9.22005 24.67C8.75005 25.27 8.87005 24.16 8.37005 24.94C8.60005 24.87 8.54005 25.52 8.23005 25.43L8.28005 25.17C8.13005 25.24 8.08005 25.35 7.97005 25.3C8.06005 25.15 7.99005 24.92 7.77005 24.98L7.90005 24.65L7.49005 25.14C7.14005 24.87 6.62005 25.21 6.53005 24.84C6.58005 24.84 5.74005 24.6 5.47005 24.99C5.68005 24.75 5.13005 24.63 5.30005 24.35C4.86005 24.6 3.82005 24.89 3.29005 24.75L3.36005 24.7C2.07005 24.8 1.39005 25.71 0.900051 26.52C0.710051 26.88 0.490051 27.2 0.240051 27.57C0.540051 27.65 0.110051 28.31 0.550051 28.27C0.500051 29.09 0.260051 29.37 0.100051 29.79C-0.059949 30.17 -0.069949 30.48 0.520051 30.7C0.560051 31.14 0.200051 31.2 0.130051 31.43L0.070051 31.32C0.140051 32.14 0.160051 32.36 0.140051 32.94C0.270051 33.23 0.840051 33.26 0.710051 33.76C0.480051 33.61 0.530051 33.81 0.530051 33.99C0.490051 33.87 0.410051 33.84 0.260051 34.09C0.330051 34.12 0.380051 34.17 0.410051 34.22C0.390051 34.22 0.380051 34.23 0.350051 34.22C0.440051 34.52 0.510051 34.46 0.540051 34.32C0.570051 34.32 0.620051 34.32 0.680051 34.27C0.400051 34.61 0.710051 35.1 0.310051 35.1C0.360051 35.93 0.690051 36.68 0.810051 37.48C0.610051 37.56 0.440051 37.37 0.370051 37.13L0.420051 37.71C0.130051 37.69 0.270051 37.37 0.220051 37.19C-0.279949 37.87 0.620051 38.62 0.260051 39.51L0.500051 39.67L0.470051 39.73C0.590051 39.72 0.770051 39.89 0.830051 40.02C0.610051 40.19 0.240051 40.08 0.370051 40.66C0.240051 41.2 0.830051 41.93 1.26005 42.29C1.15005 42 1.31005 42.01 1.44005 42.06C1.55005 42.29 1.50005 42.55 1.69005 42.64L1.47005 42.9C1.59005 42.66 2.01005 42.99 2.24005 43.06C2.30005 43.07 2.35005 43.07 2.38005 43.06C2.38005 43.18 2.28005 43.19 2.16005 43.17C2.02005 43.13 1.86005 43.02 1.76005 43.07C1.95005 43.24 2.08005 43.35 2.05005 43.31C2.56005 43.56 2.41005 43.57 3.25005 43.78C3.91005 43.64 3.25005 43.46 3.62005 43.22C4.09005 43.24 4.59005 43.01 5.02005 43.22L4.88005 42.92C5.57005 42.68 5.96005 42.68 6.45005 42.95C7.61005 42.22 8.30005 41.67 8.64005 41.22C8.82005 41.15 9.02005 41.03 9.25005 40.86L9.06005 41.11C9.53005 41.3 10.0601 41.6 10.8101 42.04L10.7801 42.14C11.6201 42.34 12.1901 42.42 12.8701 41.95C12.9301 42.57 13.6501 42.07 13.8601 42.28L13.8301 42.33C14.1401 42.11 14.4401 42.24 14.7501 42.37C15.0901 42.5 15.2701 42.63 15.8301 42.45C15.7901 42.5 15.7801 42.67 15.5501 42.67C16.2801 42.62 17.1801 42.56 17.3501 42.9C18.0901 42.85 18.8001 42.73 19.4201 42.28C20.0401 41.82 20.3801 41.1 20.3901 40.53C20.3901 40.33 20.3701 40.15 20.3201 39.99L20.4001 40.1C20.1301 39.41 20.4601 39.38 20.2701 38.69C20.3201 38.67 20.3401 38.63 20.3601 38.64C20.1601 38.29 20.1201 37.87 20.0901 37.45C20.0701 37.06 20.0901 36.86 19.9901 36.69L20.2301 36.65C20.1901 36.36 20.1601 36.28 20.1501 36.01L20.1001 36.25C19.4401 36.21 20.5101 35.73 20.1201 35.18C20.2301 34.67 18.8301 34.01 19.1901 33.46C18.9001 33.17 19.6701 33.74 19.4701 33.31C19.8101 33.32 19.6701 33.52 19.9501 33.43C19.8201 33.02 20.35 32.8 20.1401 32.28H20.4101C19.9601 31.59 20.8101 31 20.3301 30.53C20.0801 29.82 21.1201 29.99 20.5201 29.23L20.8301 28.86C20.8301 28.48 20.3501 28.67 20.4401 28.24L20.4501 28.26ZM17.1001 38.53C16.9801 38.86 16.4001 38.77 16.1201 38.53C15.7501 38.33 16.0201 38.3 15.0201 38.51C14.9601 38.44 14.7901 38.57 14.7801 38.63L12.9201 38.43C12.9201 38.43 12.2201 38.37 11.2701 38.44C10.3501 38.51 9.09005 38.76 8.25005 39.49L7.98005 39.73C7.56005 39.58 7.19005 39.53 7.19005 39.53C6.30005 39.32 5.68005 39.38 5.13005 39.51C4.73005 39.58 4.84005 39.66 4.78005 39.75C4.73005 39.84 4.63005 39.93 4.51005 39.96C4.45005 39.97 4.39005 39.96 4.33005 39.93C4.33005 39.64 4.84005 38.95 4.71005 37.05C4.76005 36.57 4.79005 36.06 4.78005 35.45C4.78005 34.73 4.70005 34.2 4.65005 33.7C4.18005 33.23 4.61005 32.44 4.24005 31.94L4.50005 31.75C4.38005 31.58 4.29005 31.37 4.44005 31.22H4.51005C4.33005 30.98 4.47005 30.73 4.39005 30.61L4.46005 30.63V30.36L4.56005 30.42C4.48005 30.21 4.47005 30.03 4.48005 29.86C4.50005 29.73 4.51005 29.75 4.58005 29.71L4.29005 29.58C4.41005 29.55 4.44005 29.51 4.46005 29.46C4.48005 29.33 4.46005 29 4.78005 29.24L4.81005 29.31C4.83005 28.88 4.99005 29 5.23005 29.16C5.58005 29.32 5.99005 29.52 6.74005 29.16C6.58005 29.26 6.81005 29.32 6.79005 29.4C7.39005 29.32 8.03005 29.24 8.00005 28.63C8.42005 28.61 8.36005 28.8 8.43005 29.03C8.41005 28.76 8.76005 28.62 9.08005 28.57L8.94005 28.69L9.85005 28.48L9.60005 28C10.0901 28.08 9.81005 28.6 10.2501 28.4L10.1801 27.99C10.8401 27.97 11.3301 28.52 11.9901 28.71C13.2101 28.56 14.3001 28.18 15.2701 28.11C16.2601 28.02 16.7501 28.35 16.5901 28.92L16.3001 29.07C16.0901 29.16 16.2501 29.12 16.4401 29.13C16.6301 29.13 16.8301 29.28 16.6301 29.33C16.7101 29.38 16.7901 29.44 16.8701 29.5C16.8001 29.57 16.7301 29.71 16.6101 29.62C16.6201 29.81 16.6901 29.81 16.8401 29.94L16.5701 30.18C16.3901 31 16.9101 31.8 16.7301 32.82C16.4001 33.41 16.3101 34.32 16.3601 35.33C16.3701 35.58 16.4001 35.84 16.4301 36.11C16.4601 36.41 16.5301 36.75 16.5901 36.96C16.6501 37.17 16.7201 37.39 16.7801 37.59C16.8301 37.7 16.8801 37.74 16.9301 37.83C17.1301 38.05 17.1601 38.35 17.0501 38.54L17.1001 38.53Z" fill="black"/>
<path d="M56.73 41.46L56.84 41.27C56.78 41.27 56.73 41.32 56.73 41.46Z" fill="black"/>
<path d="M61.03 35.23L61.06 35.27L61.03 35.23Z" fill="black"/>
<path d="M77.2 30.4102C77.2 30.0302 76.72 30.2202 76.81 29.7902C77.05 29.7902 76.79 29.1002 77.1 29.3402C77.1 28.6802 76.68 28.0702 76.16 27.6002C75.65 27.1002 75.07 26.7002 74.43 26.0602C73.89 26.2702 73.31 25.8302 73.01 26.1102C73.01 25.8802 71.72 25.8802 72.51 25.5602C72.58 25.5302 72.69 25.5602 72.67 25.6302L72.81 25.3902C72.07 24.7702 71.39 25.5102 70.75 25.4502C70.95 25.5302 71.22 25.5102 71.04 25.6902L70.43 25.6702L70.54 25.4402L69.64 25.3802L69.79 25.6402C69.35 25.5402 69.14 25.1002 68.73 25.5602C68.56 25.8102 69.17 25.8602 68.76 26.0202C68.18 25.9202 67.37 25.8002 66.78 25.8202C66.89 26.1102 66.73 26.1302 66.58 26.2202L66.51 25.9602C65.95 26.4302 66.18 25.4202 65.64 25.8102L65.66 25.6202L65.59 26.2002C65.12 26.8002 65.24 25.6902 64.74 26.4702C64.97 26.4002 64.91 27.0502 64.6 26.9602L64.65 26.7002C64.5 26.7702 64.45 26.8802 64.34 26.8302C64.43 26.6802 64.37 26.4502 64.14 26.5102L64.27 26.1802L63.86 26.6702C63.51 26.4002 62.99 26.7402 62.9 26.3702C62.95 26.3702 62.11 26.1302 61.84 26.5202C62.05 26.2802 61.5 26.1602 61.67 25.8802C61.23 26.1302 60.19 26.4202 59.66 26.2802L59.73 26.2302C58.44 26.3302 57.76 27.2402 57.27 28.0502C57.08 28.4102 56.86 28.7302 56.61 29.1002C56.91 29.1802 56.48 29.8402 56.92 29.8002C56.87 30.6202 56.63 30.9002 56.47 31.3202C56.31 31.7002 56.3 32.0102 56.89 32.2302C56.93 32.6702 56.57 32.7302 56.5 32.9602L56.44 32.8502C56.51 33.6702 56.53 33.8902 56.51 34.4702C56.63 34.7602 57.21 34.7902 57.08 35.2902C56.85 35.1402 56.9 35.3402 56.9 35.5202C56.86 35.4002 56.78 35.3702 56.63 35.6202C56.7 35.6502 56.75 35.7002 56.78 35.7502C56.76 35.7502 56.75 35.7602 56.72 35.7502C56.81 36.0502 56.88 35.9902 56.9 35.8502C56.94 35.8502 56.98 35.8502 57.04 35.8002C56.76 36.1402 57.07 36.6302 56.67 36.6302C56.72 37.4602 57.05 38.2102 57.17 39.0102C56.97 39.0902 56.8 38.9002 56.73 38.6602L56.78 39.2402C56.49 39.2202 56.63 38.9002 56.58 38.7202C56.08 39.4002 56.98 40.1502 56.62 41.0402L56.86 41.2002L56.83 41.2602C56.95 41.2502 57.13 41.4202 57.19 41.5502C56.97 41.7202 56.6 41.6102 56.73 42.1902C56.6 42.7302 57.19 43.4602 57.62 43.8202C57.5 43.5302 57.67 43.5402 57.8 43.5902C57.91 43.8202 57.86 44.0802 58.05 44.1702L57.83 44.4302C57.95 44.1902 58.37 44.5202 58.6 44.5902C58.66 44.6002 58.71 44.6002 58.74 44.5902C58.74 44.7102 58.64 44.7202 58.52 44.7002C58.38 44.6602 58.22 44.5502 58.12 44.6002C58.31 44.7702 58.44 44.8802 58.41 44.8402C58.92 45.0902 58.77 45.1002 59.61 45.3102C60.27 45.1702 59.61 44.9902 59.98 44.7502C60.45 44.7702 60.95 44.5402 61.38 44.7502L61.24 44.4502C61.93 44.2102 62.32 44.2102 62.81 44.4802C63.97 43.7502 64.66 43.1902 65 42.7502C65.18 42.6802 65.38 42.5602 65.61 42.3902L65.42 42.6402C65.89 42.8302 66.42 43.1302 67.18 43.5702L67.15 43.6702C67.99 43.8702 68.56 43.9502 69.24 43.4802C69.3 44.1002 70.02 43.6002 70.23 43.8102L70.21 43.8602C70.52 43.6402 70.82 43.7702 71.13 43.9002C71.46 44.0302 71.65 44.1602 72.21 43.9802C72.17 44.0302 72.16 44.2002 71.93 44.2002C72.66 44.1502 73.56 44.0902 73.73 44.4302C74.47 44.3802 75.18 44.2602 75.8 43.8102C76.42 43.3502 76.76 42.6302 76.77 42.0602C76.77 41.8602 76.75 41.6802 76.7 41.5202L76.78 41.6302C76.51 40.9402 76.84 40.9102 76.65 40.2202C76.7 40.2002 76.72 40.1602 76.74 40.1702C76.54 39.8202 76.5 39.4002 76.47 38.9802C76.45 38.5902 76.47 38.3902 76.37 38.2202L76.61 38.1802C76.57 37.8902 76.54 37.8102 76.53 37.5402L76.48 37.7802C75.82 37.7402 76.89 37.2602 76.5 36.7102C76.61 36.2002 75.2 35.5402 75.57 34.9902C75.28 34.7002 76.05 35.2702 75.85 34.8402C76.19 34.8502 76.05 35.0502 76.33 34.9602C76.2 34.5502 76.73 34.3302 76.52 33.8102H76.79C76.34 33.1202 77.19 32.5302 76.71 32.0602C76.46 31.3502 77.5 31.5202 76.9 30.7602L77.21 30.3902L77.2 30.4102ZM73.47 40.0602C73.35 40.3902 72.77 40.3002 72.49 40.0602C72.12 39.8602 72.39 39.8302 71.39 40.0402C71.33 39.9702 71.16 40.1002 71.15 40.1602L69.29 39.9602C69.29 39.9602 68.59 39.9002 67.64 39.9702C66.72 40.0402 65.46 40.2902 64.62 41.0202L64.35 41.2602C63.93 41.1102 63.56 41.0602 63.56 41.0602C62.67 40.8502 62.05 40.9102 61.5 41.0402C61.1 41.1102 61.21 41.1902 61.15 41.2802C61.1 41.3702 61 41.4602 60.88 41.4902C60.82 41.5002 60.76 41.4902 60.7 41.4602C60.7 41.1702 61.21 40.4802 61.08 38.5802C61.13 38.1002 61.16 37.5902 61.15 36.9802C61.15 36.2602 61.07 35.7302 61.02 35.2302C60.55 34.7602 60.98 33.9702 60.61 33.4702L60.87 33.2802C60.75 33.1102 60.66 32.9002 60.81 32.7502H60.88C60.7 32.5102 60.84 32.2602 60.76 32.1402L60.83 32.1602V31.8902L60.93 31.9502C60.85 31.7402 60.84 31.5602 60.86 31.3902C60.88 31.2602 60.89 31.2802 60.96 31.2402L60.67 31.1102C60.79 31.0802 60.83 31.0402 60.84 30.9902C60.86 30.8602 60.84 30.5302 61.16 30.7702L61.19 30.8402C61.21 30.4002 61.37 30.5302 61.61 30.6902C61.96 30.8502 62.37 31.0502 63.13 30.6902C62.97 30.7902 63.2 30.8502 63.18 30.9302C63.78 30.8502 64.42 30.7702 64.4 30.1602C64.82 30.1402 64.76 30.3302 64.83 30.5602C64.81 30.2902 65.16 30.1502 65.48 30.1002L65.34 30.2202L66.25 30.0102L66 29.5302C66.49 29.6102 66.21 30.1302 66.65 29.9302L66.58 29.5202C67.24 29.5002 67.73 30.0502 68.39 30.2402C69.61 30.0902 70.7 29.7102 71.67 29.6402C72.66 29.5502 73.15 29.8802 72.99 30.4502L72.7 30.6002C72.48 30.6902 72.65 30.6502 72.84 30.6602C73.03 30.6602 73.23 30.8102 73.03 30.8602C73.11 30.9102 73.19 30.9702 73.27 31.0302C73.2 31.1002 73.13 31.2402 73.01 31.1502C73.02 31.3402 73.09 31.3402 73.24 31.4702L72.97 31.7102C72.79 32.5302 73.31 33.3302 73.13 34.3502C72.8 34.9402 72.7 35.8502 72.76 36.8602C72.77 37.1102 72.8 37.3702 72.83 37.6402C72.86 37.9402 72.93 38.2802 72.99 38.4902C73.05 38.7002 73.12 38.9202 73.18 39.1202C73.23 39.2302 73.28 39.2702 73.33 39.3602C73.53 39.5802 73.56 39.8802 73.45 40.0702L73.47 40.0602Z" fill="black"/>
<path d="M27.86 16.0999L27.99 15.9399C27.93 15.9399 27.88 15.9799 27.86 16.0999Z" fill="black"/>
<path d="M32.17 10.2002V10.2102L32.2 10.2402L32.17 10.2002Z" fill="black"/>
<path d="M27.94 7.4499C27.99 7.8699 27.63 7.9399 27.57 8.1599L27.51 8.0599C27.61 8.8499 27.63 9.0599 27.63 9.6199C27.76 9.8899 28.33 9.8999 28.23 10.3899C27.99 10.2499 28.05 10.4399 28.06 10.6199C28.02 10.5099 27.93 10.4799 27.79 10.7199C27.86 10.7499 27.91 10.7999 27.95 10.8399C27.93 10.8399 27.92 10.8499 27.89 10.8399C27.99 11.1299 28.05 11.0699 28.08 10.9399C28.12 10.9399 28.16 10.9399 28.22 10.8899C27.95 11.2099 28.28 11.7199 27.89 11.7599C28 12.4599 28.33 13.1799 28.45 13.9199C28.24 13.9899 28.08 13.8099 28.01 13.5899L28.05 14.1299C27.76 14.1099 27.9 13.8099 27.85 13.6499C27.35 14.2599 28.24 14.9899 27.8 15.7499L28.03 15.9199L27.99 15.9699C28.11 15.9699 28.27 16.1399 28.31 16.2599C28.06 16.3899 27.73 16.2399 27.76 16.7799C27.52 17.2499 27.97 18.0499 28.2 18.4799C28.18 18.1799 28.34 18.2099 28.43 18.2899C28.49 18.5199 28.31 18.7899 28.46 18.9099L28.18 19.1299C28.42 18.8699 28.73 19.5199 28.9 19.4799C28.79 19.7599 28.53 19.3099 28.37 19.3599C28.68 19.8899 28.75 19.9099 28.9 20.1199C28.93 20.1299 29.07 20.2499 29.42 20.4299C30.05 20.4299 29.52 20.1399 29.91 19.9799C30.35 20.0799 30.83 19.8999 31.25 20.1199L31.19 19.8199C31.99 19.6099 32.37 19.5899 32.87 19.8499C35.06 18.3299 35.5 17.5699 35.11 17.0299C34.46 16.4999 33.49 16.4099 33.49 16.4099C33.09 16.3199 32.77 16.2899 32.47 16.2899C32.38 16.2899 32.35 16.2899 32.34 16.2899C32.34 16.2899 32.34 16.3099 32.34 16.3399C32.34 16.4199 32.21 16.6599 31.98 16.7499C31.88 16.7799 31.79 16.7499 31.74 16.6899C31.85 16.4899 32.44 15.4399 32.33 13.5499C32.38 13.0799 32.41 12.4999 32.35 11.8399C32.3 11.2299 32.21 10.7199 32.15 10.2499C31.67 9.8099 32.08 9.0499 31.69 8.5799L31.95 8.3899C31.82 8.2299 31.73 8.0399 31.88 7.8899H31.95C31.76 7.6599 31.9 7.4299 31.81 7.3099L31.88 7.3299C31.88 7.2399 31.88 7.1499 31.88 7.0799L31.98 7.1299C31.9 6.9599 31.87 6.7499 31.88 6.6399C31.86 6.6099 31.91 6.5499 31.96 6.5299L31.67 6.3999C31.87 6.3499 31.85 6.2699 31.86 6.1399C31.86 6.0299 31.94 5.8999 32.14 6.0599L32.17 6.1299C32.13 5.6899 32.4 5.8199 32.5 5.9699C32.8 6.1299 33.18 6.3199 33.82 5.9699C33.65 6.0599 33.88 6.1399 33.86 6.2099C34.57 6.1699 35.07 6.0899 35.08 5.4899C35.45 5.4899 35.38 5.6799 35.43 5.9199C35.43 5.6499 35.75 5.5399 36.04 5.5199L35.91 5.6199L36.74 5.5299L36.58 5.0199C37.02 5.1699 36.69 5.6399 37.11 5.5199V5.0999C37.71 5.1799 38.07 5.8199 38.66 6.1299C39.92 6.2299 41.14 5.9399 41.98 5.9799C42.83 5.9999 43.38 6.3699 43.38 7.1799L43.13 7.3699C42.71 7.5599 43.91 7.4699 43.53 7.6699L43.77 7.7399C43.71 7.7999 43.64 7.9199 43.52 7.8599C43.53 8.0199 43.61 7.9999 43.77 8.0899L43.51 8.3199C43.38 9.0299 43.93 9.7799 43.78 10.7399C43.47 11.2999 43.4 12.1399 43.44 13.0599C43.48 13.9099 43.65 15.0799 43.83 15.6399C44.21 16.0899 43.87 16.6899 43.29 16.5299C43.03 16.4699 42.87 16.3499 42.72 16.3199C42.49 16.3399 42.16 16.3899 41.86 16.4899C41.71 16.5399 41.56 16.5999 41.41 16.6799L41.3 16.7399L41.25 16.7699L41.22 16.7899H41.21C41.5 17.6499 41.45 17.5299 41.42 17.4299V17.3999L41.38 17.3299L41.2 16.8199V16.8399L41.19 16.8799C41.19 16.8199 41.07 16.9899 41.09 17.0399C40.66 17.0999 40.11 17.1499 39.61 17.1599C39.68 17.1799 37.54 17.2499 36.97 17.4299C36.94 17.4599 36.89 17.4499 36.9 17.5199C36.82 17.6899 36.72 17.8399 36.6 17.9699C36.52 18.1399 36.31 18.2499 36.32 18.2399C36.33 18.2399 36.33 18.2399 36.33 18.2399C36.31 18.2399 36.29 18.2399 36.27 18.2399C36.06 18.2099 35.6 18.4299 35.83 19.0799C36.06 19.6799 36.71 20.2799 37.62 20.8199L37.56 20.9199C38.67 21.2399 39.35 21.2399 40.03 20.6799C40.2 21.2899 40.89 20.6599 41.16 20.8199L41.14 20.8699C41.44 20.5799 41.75 20.6399 42.23 20.6299C42.55 20.5999 42.57 20.6299 42.7 20.6199C42.8 20.6099 42.9 20.5599 42.98 20.4299C42.98 20.4799 43 20.6499 42.91 20.6799C43.05 20.6099 43.23 20.5199 43.41 20.4799C43.64 20.4399 43.95 20.4399 44.01 20.6099C44.84 20.4199 45.8 20.1699 46.43 19.5499C47.09 18.9399 47.28 18.0799 47.11 17.5199L47.19 17.6199C46.93 16.9599 47.26 16.8999 47.09 16.2499C47.14 16.2199 47.16 16.1799 47.18 16.1899C46.79 15.4399 47.1 14.9299 46.95 14.5999H47.19L47.17 13.8499L47.1 14.1199C46.45 13.9899 47.54 13.5799 47.15 12.9999C47.27 12.4799 45.85 11.8499 46.2 11.3199C45.91 11.0399 46.69 11.5799 46.47 11.1699C46.81 11.1699 46.68 11.3699 46.96 11.2799C46.81 10.8799 47.34 10.6499 47.12 10.1499L47.39 10.1299C46.91 9.4899 47.74 8.8699 47.23 8.4199C46.94 7.7299 47.99 7.8399 47.31 7.0799C47.41 6.9499 47.5 6.7999 47.58 6.6499C47.51 6.2299 47.08 6.4799 47.09 6.0499C47.31 5.9899 47.05 5.4899 47.35 5.6299C47.21 4.5199 45.98 4.0299 45.1 2.7599C44.6 2.9399 44.08 2.3999 43.75 2.6499C43.79 2.4199 42.5 2.2399 43.33 2.0299C43.4 2.0099 43.51 2.0499 43.48 2.1199L43.65 1.8999C42.99 1.1699 42.22 1.8399 41.6 1.7099C41.78 1.8099 42.05 1.8199 41.85 1.9799L41.26 1.8999L41.4 1.6899L40.56 1.5299L40.67 1.8099C40.28 1.6599 40.14 1.1999 39.73 1.5899C39.55 1.8099 40.07 1.9599 39.69 2.0499C39.22 1.8699 38.5 1.5799 37.89 1.4999C37.95 1.8099 37.78 1.7999 37.62 1.8599L37.6 1.5899C36.96 1.9599 37.36 0.999902 36.72 1.2999L36.61 1.6699C36.03 2.1999 36.3 1.1099 35.66 1.8399C35.91 1.7899 35.78 2.4299 35.47 2.3099L35.55 2.0499C35.38 2.0999 35.32 2.2099 35.2 2.1599C35.3 2.0199 35.25 1.7799 35 1.8299L35.17 1.5099L34.69 1.9899C34.39 1.7199 33.95 2.0299 33.78 1.6499C33.8 1.6499 32.96 1.3999 32.68 1.7899C32.96 1.5499 32.21 1.4299 32.41 1.1499C31.99 1.4099 31 1.7199 30.49 1.5999L30.56 1.5399C29.72 1.6499 29.13 2.1499 28.71 2.6699C28.3 3.2299 28.02 3.7899 27.57 4.3799C27.87 4.4599 27.45 5.0899 27.89 5.0599C27.85 5.8499 27.62 6.2099 27.46 6.5999C27.32 6.9699 27.31 7.2799 27.91 7.4799L27.94 7.4499Z" fill="black"/>
<path d="M36.73 1.26008L36.79 1.08008L36.73 1.26008Z" fill="black"/>
<path d="M56.96 64.3202L57.09 64.1602C57.03 64.1602 56.98 64.2002 56.96 64.3202Z" fill="black"/>
<path d="M61.27 58.4199V58.4299L61.31 58.4599L61.27 58.4199Z" fill="black"/>
<path d="M76.21 54.2501C76.43 54.1901 76.17 53.6901 76.47 53.8301C76.33 52.7201 75.1 52.2301 74.22 50.9601C73.72 51.1401 73.2 50.6001 72.87 50.8501C72.91 50.6201 71.62 50.4401 72.45 50.2301C72.52 50.2101 72.63 50.2501 72.6 50.3201L72.77 50.1001C72.11 49.3701 71.34 50.0401 70.72 49.9101C70.9 50.0101 71.17 50.0201 70.97 50.1801L70.38 50.1001L70.52 49.8901L69.68 49.7301L69.79 50.0101C69.4 49.8601 69.26 49.4001 68.85 49.7901C68.67 50.0101 69.19 50.1601 68.81 50.2501C68.34 50.0701 67.62 49.7801 67.02 49.7001C67.08 50.0101 66.91 50.0001 66.75 50.0601L66.73 49.7901C66.09 50.1601 66.49 49.2001 65.85 49.5001L65.74 49.8701C65.16 50.4001 65.43 49.3101 64.79 50.0401C65.04 49.9901 64.91 50.6301 64.6 50.5101L64.68 50.2501C64.51 50.3001 64.45 50.4101 64.33 50.3601C64.43 50.2201 64.38 49.9801 64.13 50.0301L64.3 49.7101L63.82 50.1901C63.52 49.9201 63.08 50.2301 62.91 49.8501C62.93 49.8501 62.09 49.6001 61.81 49.9901C62.09 49.7501 61.34 49.6301 61.54 49.3501C61.12 49.6101 60.13 49.9201 59.62 49.8001L59.69 49.7401C58.85 49.8501 58.26 50.3501 57.84 50.8701C57.43 51.4301 57.15 51.9901 56.7 52.5801C57 52.6601 56.58 53.2901 57.02 53.2601C56.98 54.0501 56.75 54.4101 56.59 54.8001C56.45 55.1701 56.44 55.4801 57.04 55.6801C57.1 56.1001 56.74 56.1701 56.67 56.3901L56.61 56.2901C56.71 57.0801 56.73 57.2901 56.73 57.8501C56.86 58.1201 57.43 58.1301 57.33 58.6201C57.09 58.4801 57.15 58.6701 57.16 58.8501C57.12 58.7401 57.03 58.7101 56.89 58.9501C56.96 58.9801 57.01 59.0301 57.05 59.0701C57.03 59.0701 57.02 59.0801 56.99 59.0701C57.09 59.3601 57.15 59.3001 57.18 59.1601C57.22 59.1601 57.26 59.1601 57.32 59.1101C57.05 59.4301 57.38 59.9401 56.99 59.9801C57.1 60.6801 57.43 61.4001 57.55 62.1401C57.34 62.2101 57.18 62.0301 57.11 61.8101L57.15 62.3501C56.86 62.3301 57 62.0301 56.95 61.8701C56.45 62.4801 57.34 63.2101 56.9 63.9701L57.13 64.1401L57.09 64.1901C57.21 64.1901 57.37 64.3601 57.41 64.4801C57.16 64.6101 56.83 64.4601 56.86 65.0001C56.62 65.4701 57.07 66.2701 57.3 66.7001C57.28 66.4001 57.44 66.4301 57.53 66.5101C57.59 66.7401 57.41 67.0101 57.56 67.1301L57.28 67.3401C57.52 67.0801 57.83 67.7301 58 67.6901C57.89 67.9701 57.63 67.5201 57.47 67.5701C57.78 68.1001 57.85 68.1201 58 68.3301C58.03 68.3401 58.17 68.4601 58.52 68.6401C59.15 68.6401 58.62 68.3501 59.02 68.1901C59.46 68.2901 59.94 68.1101 60.36 68.3301L60.3 68.0301C61.1 67.8201 61.48 67.8001 61.98 68.0601C64.17 66.5401 64.61 65.7801 64.22 65.2401C63.57 64.7101 62.6 64.6201 62.6 64.6201C62.2 64.5301 61.87 64.5001 61.58 64.5001C61.49 64.5001 61.46 64.5001 61.45 64.5001C61.45 64.5001 61.45 64.5201 61.45 64.5501C61.45 64.6301 61.32 64.8701 61.09 64.9601C60.99 64.9901 60.9 64.9601 60.85 64.9001C60.96 64.7001 61.55 63.6501 61.44 61.7601C61.49 61.2901 61.52 60.7101 61.46 60.0501C61.41 59.4401 61.32 58.9301 61.26 58.4601C60.78 58.0201 61.19 57.2601 60.8 56.7901L61.06 56.6001C60.93 56.4401 60.84 56.2501 60.99 56.1001H61.06C60.87 55.8701 61.01 55.6401 60.92 55.5201L60.99 55.5401C60.99 55.4501 60.99 55.3601 60.99 55.2901L61.09 55.3401C61.01 55.1701 60.98 54.9601 60.99 54.8501C60.97 54.8201 61.02 54.7601 61.07 54.7401L60.78 54.6101C60.98 54.5601 60.96 54.4801 60.97 54.3501C60.97 54.2401 61.05 54.1101 61.26 54.2701L61.29 54.3401C61.25 53.9001 61.52 54.0301 61.62 54.1801C61.92 54.3401 62.29 54.5301 62.94 54.1801C62.77 54.2701 63 54.3501 62.98 54.4201C63.69 54.3801 64.19 54.3001 64.2 53.7001C64.57 53.7001 64.5 53.8901 64.55 54.1301C64.55 53.8601 64.87 53.7501 65.16 53.7301L65.03 53.8301L65.86 53.7401L65.7 53.2301C66.14 53.3801 65.81 53.8501 66.23 53.7301V53.3101C66.83 53.3901 67.19 54.0301 67.78 54.3401C69.04 54.4401 70.26 54.1501 71.1 54.1901C71.95 54.2101 72.5 54.5801 72.5 55.3901L72.25 55.5801C71.83 55.7701 73.03 55.6801 72.65 55.8801L72.89 55.9501C72.83 56.0101 72.76 56.1301 72.64 56.0701C72.65 56.2301 72.73 56.2101 72.89 56.3001L72.63 56.5401C72.5 57.2501 73.05 58.0001 72.9 58.9601C72.59 59.5201 72.52 60.3601 72.56 61.2801C72.6 62.1301 72.77 63.3001 72.95 63.8601C73.17 64.1501 73.16 64.4801 72.93 64.6601C72.7 64.8601 72.27 64.7301 72.06 64.6201C71.9 64.5701 71.97 64.4901 71.41 64.6001C71.19 64.6401 70.97 64.7101 70.75 64.8001C70.53 64.8901 70.25 65.0401 70.31 65.0901C70.31 65.0301 70.19 65.2001 70.21 65.2501C69.78 65.3101 69.23 65.3601 68.73 65.3701C68.8 65.3901 66.66 65.4601 66.09 65.6401C66.06 65.6701 66.01 65.6601 66.02 65.7301C65.94 65.9001 65.84 66.0501 65.72 66.1801C65.64 66.3501 65.43 66.4601 65.44 66.4501C65.45 66.4501 65.45 66.4501 65.45 66.4501C65.43 66.4501 65.41 66.4501 65.39 66.4501C65.18 66.4201 64.72 66.6401 64.95 67.2901C65.18 67.8901 65.84 68.4901 66.74 69.0301L66.68 69.1301C67.79 69.4501 68.47 69.4501 69.15 68.8901C69.32 69.5001 70.01 68.8701 70.28 69.0301L70.26 69.0801C70.56 68.7901 70.87 68.8501 71.35 68.8401C71.67 68.8101 71.69 68.8401 71.82 68.8301C71.92 68.8201 72.02 68.7701 72.11 68.6401C72.11 68.6901 72.13 68.8601 72.04 68.8901C72.18 68.8201 72.36 68.7301 72.54 68.6901C72.77 68.6501 73.08 68.6501 73.14 68.8201C73.37 68.7601 73.6 68.7101 73.85 68.6501C74.6 68.4501 75.33 68.0901 75.8 67.5001C76.26 66.9101 76.38 66.2201 76.24 65.7301L76.32 65.8301C76.06 65.1701 76.39 65.1101 76.22 64.4601C76.27 64.4301 76.29 64.3901 76.31 64.4001C75.92 63.6501 76.23 63.1401 76.08 62.8101H76.32L76.3 62.0601L76.23 62.3301C75.58 62.2001 76.67 61.7901 76.28 61.2101C76.4 60.6901 74.98 60.0601 75.33 59.5301C75.04 59.2501 75.82 59.7901 75.6 59.3801C75.94 59.3801 75.81 59.5801 76.08 59.4901C75.93 59.0901 76.46 58.8601 76.24 58.3601L76.51 58.3401C76.03 57.7001 76.86 57.0801 76.35 56.6301C76.06 55.9401 77.11 56.0501 76.43 55.2901C76.53 55.1601 76.62 55.0201 76.69 54.8601C76.62 54.4401 76.19 54.6901 76.2 54.2601L76.21 54.2501Z" fill="black"/>
<path d="M0.900024 64.3202L1.03002 64.1602C0.970024 64.1602 0.920024 64.2002 0.900024 64.3202Z" fill="black"/>
<path d="M5.20996 58.4199V58.4299L5.23996 58.4599L5.20996 58.4199Z" fill="black"/>
<path d="M20.1501 54.2501C20.3701 54.1901 20.1101 53.6901 20.4101 53.8301C20.2701 52.7201 19.0401 52.2301 18.1601 50.9601C17.6601 51.1401 17.1401 50.6001 16.8101 50.8501C16.8501 50.6201 15.5601 50.4401 16.39 50.2301C16.4601 50.2101 16.5701 50.2501 16.5401 50.3201L16.7101 50.1001C16.0501 49.3701 15.2801 50.0401 14.6601 49.9101C14.8401 50.0101 15.1101 50.0201 14.9101 50.1801L14.3201 50.1001L14.4601 49.8901L13.6201 49.7301L13.7301 50.0101C13.34 49.8601 13.2001 49.4001 12.7901 49.7901C12.6101 50.0101 13.1301 50.1601 12.7501 50.2501C12.2801 50.0701 11.5601 49.7801 10.9501 49.7001C11.0101 50.0101 10.8401 50.0001 10.6801 50.0601L10.6601 49.7901C10.0201 50.1601 10.4201 49.2001 9.78005 49.5001L9.84005 49.3101L9.67005 49.8701C9.09005 50.4001 9.36005 49.3101 8.72005 50.0401C8.97005 49.9901 8.84005 50.6301 8.53005 50.5101L8.61005 50.2501C8.44005 50.3001 8.38005 50.4101 8.26005 50.3601C8.36005 50.2201 8.31005 49.9801 8.06005 50.0301L8.23005 49.7101L7.75005 50.1901C7.45005 49.9201 7.01005 50.2301 6.84005 49.8501C6.86005 49.8501 6.02005 49.6001 5.74005 49.9901C6.02005 49.7501 5.27005 49.6301 5.47005 49.3501C5.05005 49.6101 4.06005 49.9201 3.55005 49.8001L3.62005 49.7401C2.78005 49.8501 2.19005 50.3501 1.77005 50.8701C1.36005 51.4301 1.08005 51.9901 0.630051 52.5801C0.930051 52.6601 0.510051 53.2901 0.950051 53.2601C0.910051 54.0501 0.670051 54.4101 0.520051 54.8001C0.380051 55.1701 0.370051 55.4801 0.970051 55.6801C1.02005 56.1001 0.660051 56.1701 0.600051 56.3901L0.540051 56.2901C0.640051 57.0801 0.660051 57.2901 0.660051 57.8501C0.790051 58.1201 1.36005 58.1301 1.26005 58.6201C1.02005 58.4801 1.08005 58.6701 1.09005 58.8501C1.05005 58.7401 0.960051 58.7101 0.820051 58.9501C0.890051 58.9801 0.940051 59.0301 0.980051 59.0701C0.960051 59.0701 0.950051 59.0801 0.920051 59.0701C1.02005 59.3601 1.08005 59.3001 1.11005 59.1601C1.15005 59.1601 1.19005 59.1601 1.25005 59.1101C0.980051 59.4301 1.31005 59.9401 0.920051 59.9801C1.03005 60.6801 1.36005 61.4001 1.48005 62.1401C1.27005 62.2101 1.11005 62.0301 1.04005 61.8101L1.08005 62.3501C0.790051 62.3301 0.930051 62.0301 0.880051 61.8701C0.380051 62.4801 1.27005 63.2101 0.830051 63.9701L1.06005 64.1401L1.02005 64.1901C1.14005 64.1901 1.30005 64.3601 1.34005 64.4801C1.09005 64.6101 0.760051 64.4601 0.790051 65.0001C0.550051 65.4701 1.00005 66.2701 1.23005 66.7001C1.21005 66.4001 1.37005 66.4301 1.46005 66.5101C1.52005 66.7401 1.34005 67.0101 1.49005 67.1301L1.21005 67.3401C1.45005 67.0801 1.76005 67.7301 1.93005 67.6901C1.82005 67.9701 1.56005 67.5201 1.40005 67.5701C1.71005 68.1001 1.78005 68.1201 1.94005 68.3301C1.97005 68.3401 2.11005 68.4601 2.46005 68.6401C3.09005 68.6401 2.56005 68.3501 2.96005 68.1901C3.40005 68.2901 3.88005 68.1101 4.30005 68.3301L4.24005 68.0301C5.04005 67.8201 5.42005 67.8001 5.93005 68.0601C8.12005 66.5401 8.56005 65.7801 8.17005 65.2401C7.52005 64.7101 6.55005 64.6201 6.55005 64.6201C6.15005 64.5301 5.83005 64.5001 5.53005 64.5001C5.44005 64.5001 5.41005 64.5001 5.40005 64.5001C5.40005 64.5001 5.40005 64.5201 5.40005 64.5501C5.40005 64.6301 5.27005 64.8701 5.04005 64.9601C4.94005 64.9901 4.85005 64.9601 4.80005 64.9001C4.91005 64.7001 5.50005 63.6501 5.39005 61.7601C5.44005 61.2901 5.47005 60.7101 5.41005 60.0501C5.36005 59.4401 5.27005 58.9301 5.21005 58.4601C4.73005 58.0201 5.14005 57.2601 4.75005 56.7901L5.01005 56.6001C4.88005 56.4401 4.79005 56.2501 4.94005 56.1001H5.01005C4.82005 55.8701 4.96005 55.6401 4.87005 55.5201L4.94005 55.5401C4.94005 55.4501 4.94005 55.3601 4.94005 55.2901L5.04005 55.3401C4.96005 55.1701 4.93005 54.9601 4.94005 54.8501C4.92005 54.8201 4.97005 54.7601 5.02005 54.7401L4.73005 54.6101C4.93005 54.5601 4.91005 54.4801 4.92005 54.3501C4.92005 54.2401 5.00005 54.1101 5.20005 54.2701L5.23005 54.3401C5.19005 53.9001 5.46005 54.0301 5.56005 54.1801C5.86005 54.3401 6.24005 54.5301 6.88005 54.1801C6.71005 54.2701 6.94005 54.3501 6.92005 54.4201C7.63005 54.3801 8.13005 54.3001 8.14005 53.7001C8.51005 53.7001 8.44005 53.8901 8.49005 54.1301C8.49005 53.8601 8.81005 53.7501 9.10005 53.7301L8.97005 53.8301L9.80005 53.7401L9.64005 53.2301C10.0801 53.3801 9.75005 53.8501 10.1701 53.7301V53.3101C10.7701 53.3901 11.1301 54.0301 11.7201 54.3401C12.9801 54.4401 14.2001 54.1501 15.0401 54.1901C15.8901 54.2101 16.4401 54.5801 16.4401 55.3901L16.1901 55.5801C15.7701 55.7701 16.9701 55.6801 16.5901 55.8801L16.8301 55.9501C16.7701 56.0101 16.7001 56.1301 16.5801 56.0701C16.5901 56.2301 16.6701 56.2101 16.8301 56.3001L16.5701 56.5401C16.4401 57.2501 16.9901 58.0001 16.8401 58.9601C16.5301 59.5201 16.4601 60.3601 16.5001 61.2801C16.5401 62.1301 16.7101 63.3001 16.8901 63.8601C17.1101 64.1501 17.1001 64.4801 16.8701 64.6601C16.6401 64.8601 16.2101 64.7301 16.0001 64.6201C15.8401 64.5701 15.9101 64.4901 15.3501 64.6001C15.1301 64.6401 14.9101 64.7101 14.6901 64.8001C14.47 64.8901 14.1901 65.0401 14.2501 65.0901C14.2501 65.0301 14.13 65.2001 14.1501 65.2501C13.72 65.3101 13.1701 65.3601 12.6701 65.3701C12.7401 65.3901 10.6 65.4601 10.0301 65.6401C10.0001 65.6701 9.95005 65.6601 9.96005 65.7301C9.88005 65.9001 9.78005 66.0501 9.66005 66.1801C9.58005 66.3501 9.37005 66.4601 9.38005 66.4501C9.39005 66.4501 9.39005 66.4501 9.39005 66.4501C9.37005 66.4501 9.35005 66.4501 9.33005 66.4501C9.12005 66.4201 8.66005 66.6401 8.89005 67.2901C9.12005 67.8901 9.78005 68.4901 10.6801 69.0301L10.6201 69.1301C11.7301 69.4501 12.4101 69.4501 13.0901 68.8901C13.2601 69.5001 13.9501 68.8701 14.2201 69.0301L14.2001 69.0801C14.5001 68.7901 14.8101 68.8501 15.2901 68.8401C15.6101 68.8101 15.6301 68.8401 15.7601 68.8301C15.8601 68.8201 15.96 68.7701 16.05 68.6401C16.05 68.6901 16.0701 68.8601 15.9801 68.8901C16.1201 68.8201 16.3001 68.7301 16.4801 68.6901C16.7101 68.6501 17.0201 68.6501 17.0801 68.8201C17.3101 68.7601 17.5501 68.7101 17.7901 68.6501C18.5401 68.4501 19.2701 68.0901 19.7401 67.5001C20.2001 66.9101 20.3201 66.2201 20.1801 65.7301L20.2601 65.8301C20.0001 65.1701 20.3301 65.1101 20.1601 64.4601C20.2101 64.4301 20.2301 64.3901 20.2501 64.4001C19.8601 63.6501 20.1701 63.1401 20.0201 62.8101H20.2601L20.2401 62.0601L20.1701 62.3301C19.5201 62.2001 20.6101 61.7901 20.2201 61.2101C20.3401 60.6901 18.9201 60.0601 19.2701 59.5301C18.9801 59.2501 19.7601 59.7901 19.5401 59.3801C19.8801 59.3801 19.7501 59.5801 20.0201 59.4901C19.8701 59.0901 20.4001 58.8601 20.1801 58.3601L20.4501 58.3401C19.9701 57.7001 20.8001 57.0801 20.2901 56.6301C20.0001 55.9401 21.0501 56.0501 20.3701 55.2901C20.4701 55.1601 20.5601 55.0201 20.6401 54.8601C20.5701 54.4401 20.1401 54.6901 20.1501 54.2601V54.2501Z" fill="black"/>
<path d="M54.26 8.9598L54.37 8.7998C54.31 8.7998 54.27 8.8498 54.26 8.9598Z" fill="black"/>
<path d="M59.0801 7.58984L59.0601 7.61984L59.0801 7.58984Z" fill="black"/>
<path d="M56.82 18.39L56.72 18.44C56.95 18.83 57.22 19.2 57.6 19.48C57.95 19.75 58.56 19.98 59 19.88C58.87 20.52 59.91 20.31 60.11 20.55L60.07 20.59C60.86 20.31 61.47 21.25 62.15 20.87C62.12 20.92 62.1 21.09 61.95 21.09C62.43 21.05 63.01 20.92 63.03 21.28C63.93 21.2 65.27 21.44 65.94 20.88L65.89 20.98C66.26 20.6 66.36 20.94 66.78 20.74C66.8 20.79 66.83 20.81 66.83 20.83C67.23 20.45 68.02 20.76 68.35 20.57L68.39 20.81L69.23 20.68L68.91 20.66C68.94 20 69.6 21.01 70.18 20.46C70.83 20.41 70.95 18.87 71.61 18.95C71.74 18.55 71.59 19.51 71.9 19.1C72.09 19.39 71.79 19.39 72.04 19.57C72.41 19.22 73.05 19.47 73.39 18.85L73.61 19.01C73.86 18.13 74.85 17.7 74.5 16.93C74.35 16.03 75.34 16.31 74.74 15.34L75.05 14.95C75.05 14.59 74.57 14.8 74.68 14.42C74.91 14.39 74.78 13.98 75.03 14.13C75.14 13.75 74.9199 13.37 74.7699 13.1C74.6299 12.9 74.5399 12.61 74.8399 12.25C74.3899 12.1 74.6699 11.67 74.3399 11.51C74.5399 11.51 74.39 10.52 74.8 11.1C74.83 11.15 74.82 11.23 74.75 11.22L75.01 11.29C75.52 10.74 74.76 10.18 74.76 9.49996C74.7 9.71996 74.74 9.97996 74.54 9.81996C74.54 9.60996 74.53 9.39996 74.5 9.17996L74.74 9.28996C74.74 8.94996 74.7099 8.57996 74.6299 8.16996L74.41 8.39996C74.39 7.83996 74.7 7.35996 74.01 6.93996C73.68 6.79996 73.9699 7.59996 73.5899 7.12996C73.3299 6.37996 72.9999 5.64996 72.8399 5.27996C72.6199 5.48996 72.56 5.40996 72.43 5.32996L72.64 5.15996C72.03 4.92996 73.0399 4.69996 72.4499 4.33996L72.64 4.28996L72.07 4.43996C71.24 4.18996 72.3499 3.81996 71.1999 3.55996C71.4699 3.80996 70.86 4.05996 70.66 3.66996L70.93 3.57996C70.72 3.43996 70.56 3.42996 70.46 3.27996C70.68 3.27996 70.78 3.04996 70.42 2.80996L70.85 2.74996C70.53 2.67996 70.21 2.63996 69.9 2.63996C69.5 2.03996 68.4 2.08996 68.25 1.71996C68.25 1.67996 67.03 1.39996 66.82 1.83996C67.03 1.57996 66.42 1.50996 66.58 1.20996C66.29 1.49996 65.57 1.81996 65.24 1.58996L65.29 1.54996C64.17 1.43996 63.58 2.40996 63.04 2.11996C63.13 2.41996 62.77 2.30996 62.91 2.68996C62.27 3.17996 61.56 1.99996 61.34 3.23996C60.97 3.31996 60.89 2.96996 60.69 2.90996L60.78 2.83996C60.06 2.96996 59.84 2.98996 59.25 3.00996C58.96 3.15996 58.99 3.71996 58.45 3.66996C58.58 3.41996 58.38 3.48996 58.17 3.52996C58.2899 3.46996 58.32 3.37996 58.02 3.27996C58 3.35996 57.95 3.40996 57.9 3.45996C57.9 3.43996 57.88 3.42996 57.88 3.40996C57.55 3.56996 57.63 3.62996 57.8 3.61996C57.8 3.65996 57.82 3.69996 57.89 3.74996C57.43 3.55996 57.03 3.99996 56.88 3.62996C56.67 3.70996 56.44 3.80996 56.15 3.98996C55.87 4.14996 55.45 4.46996 55.22 4.84996C54.79 5.63996 54.91 5.98996 54.83 6.48996C54.61 6.56996 54.49 6.24996 54.5 5.96996C54.46 6.16996 54.4 6.46996 54.39 6.71996C54.1 6.66996 54.31 6.21996 54.33 5.99996C53.96 6.36996 53.99 6.98996 54.1 7.37996C54.2 7.80996 54.34 8.17996 54.15 8.58996L54.39 8.73996L54.35 8.78996C54.47 8.78996 54.65 8.93996 54.69 9.04996C54.45 9.16996 54.11 9.08996 54.16 9.44996C53.95 9.76996 54.31 10.14 54.53 10.71C54.53 10.44 54.69 10.51 54.79 10.6C54.83 10.82 54.62 11 54.76 11.15L54.44 11.25C54.72 11.1 54.93 11.72 55.09 11.74C54.89 11.93 54.79 11.5 54.59 11.5C54.88 12.3 54.75 11.93 55.01 12.59C55.36 12.83 55.29 12.43 55.63 12.49C55.79 12.75 56.11 12.99 55.96 13.35L56.24 13.2C56.56 13.72 56.52 14.14 56.2 14.53C56.26 14.67 56.31 14.77 56.37 14.89C56.02 15.01 55.83 15.25 55.94 15.52C56 15.79 56.24 16.1 56.4 16.55C56.58 17.01 56.61 17.53 56.81 18.38L56.82 18.39ZM58.34 9.15996C58.38 8.79996 58.44 8.50996 58.49 8.23996C58.52 8.06996 58.55 7.90996 58.59 7.75996H58.62C58.76 7.68996 58.92 7.62996 59.08 7.58996C59.32 7.07996 60.03 7.46996 60.5 7.06996L60.7 7.31996C60.87 7.17996 61.08 7.08996 61.27 7.21996V7.29996C61.53 7.08996 61.87 7.19996 62.01 7.08996V7.16996L62.37 7.10996L62.31 7.21996C62.83 6.97996 63.41 6.89996 63.96 6.88996L63.86 6.58996C65.14 6.68996 65.15 5.94996 65.97 6.20996V6.28996C66.73 5.30996 67.26 6.67996 67.65 5.99996C67.58 6.08996 67.6199 6.15996 67.5899 6.22996C67.7299 6.17996 67.8699 6.22996 68.2699 5.75996C68.3999 5.87996 68.23 5.98996 68.08 6.16996C68.27 5.96996 68.48 6.02996 68.62 6.19996H68.48C68.62 6.31996 68.78 6.48996 68.94 6.68996L69.28 6.28996C69.39 6.71996 68.82 6.70996 69.15 6.98996L69.5 6.74996C69.75 7.28996 69.55 8.08996 69.71 8.73996C69.92 8.99996 70.11 9.24996 70.32 9.52996C70.46 9.72996 70.6 10.21 70.67 10.72C70.75 11.25 70.76 11.89 70.78 12.61C70.78 13.33 70.9 14.17 70.8099 14.67L70.5199 14.83C70.0799 14.97 71.31 15.27 70.9 15.42C70.98 15.49 71.07 15.55 71.14 15.59C71.07 15.65 70.99 15.76 70.8799 15.69C70.8799 15.84 70.96 15.83 71.11 15.88C71.02 15.91 70.92 15.94 70.83 15.95C70.65 16.07 71.09 16.57 70.66 16.69C70.5 16.61 70.38 16.57 70.19 16.6C69.88 16.66 69.5599 16.77 69.24 16.87C68.59 17.09 67.79 17.33 67.19 17.49C66.33 17.84 65.37 17.5 64.37 17.19C63.9 17.03 63.29 16.88 62.86 16.82C62.41 16.76 62.03 16.76 61.65 16.91C61.61 16.84 61.47 16.97 61.47 17.02C61.05 16.93 60.7 16.79 60.37 16.62C60.3 16.58 60.27 16.6 59.83 16.28C59.71 16.2 59.57 16.08 59.41 15.95C59.46 15.84 59.49 15.76 59.49 15.75C59.88 14.82 59.92 13.92 59.56 12.67C59.18 11.48 58.43 10.64 58.25 10.19C58.28 9.82996 58.31 9.49996 58.34 9.16996V9.15996Z" fill="black"/>
<path d="M29.95 33.2601L30.0599 33.1001C29.9999 33.1001 29.96 33.1501 29.95 33.2601Z" fill="black"/>
<path d="M34.77 31.8901L34.75 31.9301L34.77 31.8901Z" fill="black"/>
<path d="M50.73 35.5998C51.24 35.0498 50.48 34.4898 50.48 33.8098C50.42 34.0298 50.46 34.2898 50.26 34.1298C50.26 33.9198 50.25 33.7098 50.22 33.4898L50.46 33.5998C50.46 33.2598 50.43 32.8898 50.35 32.4798L50.13 32.7198C50.11 32.1598 50.42 31.6798 49.73 31.2598C49.4 31.1198 49.69 31.9198 49.31 31.4498C49.05 30.6998 48.72 29.9698 48.56 29.5998C48.34 29.8098 48.28 29.7298 48.15 29.6498L48.36 29.4798C47.75 29.2398 48.76 29.0198 48.17 28.6598L48.36 28.6098L47.79 28.7598C46.96 28.5098 48.07 28.1398 46.92 27.8798C47.19 28.1298 46.58 28.3798 46.38 27.9898L46.65 27.8998C46.44 27.7598 46.28 27.7498 46.18 27.5998C46.4 27.5998 46.5 27.3698 46.14 27.1298L46.57 27.0698C46.25 26.9998 45.93 26.9598 45.62 26.9598C45.22 26.3598 44.12 26.4098 43.97 26.0398C43.97 25.9998 42.75 25.7198 42.54 26.1598C42.75 25.8998 42.15 25.8298 42.3 25.5298C42.01 25.8198 41.29 26.1398 40.96 25.9098L41.01 25.8698C39.89 25.7598 39.3 26.7298 38.76 26.4398C38.85 26.7398 38.49 26.6298 38.63 27.0098C38 27.4998 37.28 26.3198 37.06 27.5598C36.69 27.6398 36.61 27.2898 36.41 27.2298L36.5 27.1598C35.78 27.2898 35.56 27.3098 34.97 27.3298C34.68 27.4798 34.71 28.0398 34.17 27.9898C34.3 27.7398 34.1 27.8098 33.89 27.8498C34.01 27.7898 34.04 27.6998 33.74 27.5998C33.72 27.6798 33.67 27.7298 33.62 27.7798C33.62 27.7598 33.6 27.7498 33.6 27.7298C33.27 27.8898 33.35 27.9498 33.52 27.9398C33.52 27.9798 33.54 28.0198 33.61 28.0598C33.15 27.8698 32.75 28.3098 32.6 27.9398C32.39 28.0198 32.16 28.1198 31.87 28.2998C31.59 28.4598 31.17 28.7798 30.94 29.1598C30.51 29.9498 30.63 30.2998 30.55 30.7998C30.33 30.8798 30.21 30.5598 30.22 30.2798C30.18 30.4798 30.12 30.7798 30.11 31.0298C29.82 30.9798 30.03 30.5298 30.05 30.3098C29.68 30.6798 29.71 31.2998 29.82 31.6898C29.92 32.1198 30.06 32.4898 29.87 32.8998L30.11 33.0498L30.08 33.0998C30.2 33.0998 30.38 33.2498 30.42 33.3598C30.18 33.4798 29.84 33.3998 29.89 33.7598C29.68 34.0798 30.05 34.4498 30.26 35.0198C30.26 34.7498 30.42 34.8198 30.52 34.9098C30.56 35.1298 30.35 35.3098 30.49 35.4598L30.17 35.5598C30.46 35.4098 30.66 36.0298 30.82 36.0498C30.62 36.2398 30.52 35.8098 30.32 35.8098C30.61 36.6098 30.48 36.2398 30.74 36.8998C31.09 37.1398 31.02 36.7398 31.36 36.7998C31.52 37.0698 31.84 37.2998 31.69 37.6598L31.97 37.5098C32.3 38.0298 32.25 38.4498 31.93 38.8398C31.99 38.9798 32.04 39.0798 32.1 39.1998C31.75 39.3198 31.56 39.5598 31.67 39.8298C31.73 40.0998 31.96 40.4098 32.13 40.8598C32.31 41.3198 32.34 41.8398 32.54 42.6898L32.44 42.7398C32.67 43.1298 32.94 43.4998 33.32 43.7798C33.67 44.0498 34.28 44.2798 34.72 44.1798C34.59 44.8198 35.63 44.6098 35.83 44.8498L35.79 44.8898C36.58 44.6098 37.19 45.5498 37.87 45.1698C37.84 45.2198 37.82 45.3898 37.67 45.3898C38.15 45.3498 38.73 45.2198 38.75 45.5798C39.65 45.4998 40.99 45.7398 41.66 45.1798L41.61 45.2798C41.98 44.8998 42.08 45.2398 42.5 45.0398C42.52 45.0898 42.55 45.1098 42.55 45.1298C42.95 44.7498 43.74 45.0598 44.07 44.8698L44.11 45.1098L44.95 44.9798L44.63 44.9598C44.66 44.2998 45.32 45.3098 45.9 44.7598C46.55 44.7098 46.67 43.1698 47.33 43.2498C47.46 42.8498 47.31 43.8098 47.63 43.3998C47.82 43.6898 47.52 43.6898 47.77 43.8698C48.14 43.5198 48.78 43.7698 49.12 43.1498L49.34 43.3098C49.59 42.4298 50.58 41.9998 50.23 41.2298C50.08 40.3298 51.07 40.6098 50.47 39.6398L50.78 39.2498C50.78 38.8898 50.3 39.0998 50.41 38.7198C50.64 38.6898 50.51 38.2798 50.76 38.4298C50.87 38.0498 50.65 37.6698 50.5 37.3998C50.36 37.1998 50.27 36.9098 50.57 36.5498C50.12 36.3998 50.4 35.9698 50.07 35.8098C50.27 35.8098 50.12 34.8198 50.53 35.3998C50.56 35.4498 50.55 35.5298 50.48 35.5298L50.74 35.5998H50.73ZM46.81 40.1798C46.72 40.2098 46.62 40.2398 46.53 40.2498C46.35 40.3698 46.79 40.8698 46.36 40.9898C46.2 40.9098 46.08 40.8698 45.89 40.8998C45.58 40.9598 45.26 41.0698 44.94 41.1698C44.29 41.3898 43.49 41.6298 42.89 41.7898C42.03 42.1398 41.07 41.7998 40.07 41.4898C39.59 41.3298 38.99 41.1798 38.56 41.1198C38.11 41.0598 37.73 41.0698 37.35 41.2098C37.31 41.1398 37.18 41.2698 37.17 41.3198C36.75 41.2298 36.4 41.0898 36.07 40.9198C36 40.8798 35.97 40.8998 35.53 40.5798C35.41 40.4998 35.27 40.3798 35.11 40.2498C35.16 40.1398 35.19 40.0598 35.19 40.0498C35.58 39.1198 35.62 38.2198 35.26 36.9698C34.88 35.7798 34.13 34.9398 33.95 34.4898C33.98 34.1298 34.01 33.7998 34.04 33.4698C34.08 33.1098 34.14 32.8198 34.19 32.5498C34.22 32.3798 34.25 32.2198 34.29 32.0698H34.32C34.46 31.9998 34.62 31.9398 34.78 31.8998C35.02 31.3898 35.73 31.7798 36.2 31.3798L36.4 31.6298C36.57 31.4898 36.78 31.3998 36.97 31.5298V31.6098C37.23 31.3998 37.57 31.5098 37.71 31.3998V31.4798L38.07 31.4198L38.01 31.5298C38.53 31.2898 39.11 31.2098 39.66 31.1998L39.56 30.8998C40.84 30.9998 40.85 30.2598 41.67 30.5198V30.5998C42.43 29.6198 42.96 30.9898 43.35 30.3098C43.28 30.3998 43.32 30.4698 43.29 30.5398C43.43 30.4898 43.57 30.5398 43.97 30.0698C44.1 30.1898 43.93 30.2998 43.78 30.4798C43.97 30.2798 44.18 30.3398 44.32 30.5098H44.18C44.32 30.6298 44.48 30.7998 44.64 30.9998L44.98 30.5998C45.09 31.0298 44.52 31.0198 44.85 31.2998L45.2 31.0598C45.45 31.5998 45.25 32.3998 45.41 33.0498C45.62 33.3098 45.81 33.5598 46.03 33.8398C46.17 34.0398 46.31 34.5198 46.38 35.0298C46.46 35.5598 46.47 36.1998 46.49 36.9198C46.49 37.6398 46.61 38.4798 46.52 38.9798L46.23 39.1398C45.79 39.2798 47.02 39.5798 46.61 39.7298C46.69 39.7998 46.78 39.8598 46.85 39.8998C46.77 39.9598 46.7 40.0698 46.59 39.9998C46.59 40.1498 46.67 40.1398 46.82 40.1898L46.81 40.1798Z" fill="black"/>
</g>
<defs>
<clipPath id="clip0_6263_5779">
<rect width="77.2" height="69.99" fill="white"/>
</clipPath>
</defs>
</svg>
