<svg width="24" height="21" viewBox="0 0 24 21" fill="none" xmlns="http://www.w3.org/2000/svg">
<mask id="path-1-inside-1_6478_3936" fill="white">
<path d="M18.5405 3.74715C16.9499 1.85336 14.742 0.581757 12.3058 0.156441C9.86952 -0.268876 7.36133 0.179393 5.22322 1.42225C3.08511 2.6651 1.45432 4.62277 0.618237 6.95025C-0.217846 9.27772 -0.205555 11.8256 0.652945 14.1449C1.51144 16.4642 3.16105 18.4061 5.31105 19.6282C7.46105 20.8504 9.97344 21.2745 12.4055 20.8257C14.8375 20.3769 17.0331 19.084 18.6052 17.175C20.1774 15.2659 21.0253 12.8632 20.9994 10.3902L18.6641 10.4146C18.6842 12.3376 18.0249 14.2058 16.8024 15.6903C15.5799 17.1747 13.8727 18.18 11.9816 18.5289C10.0906 18.8779 8.13699 18.5482 6.46521 17.5979C4.79343 16.6475 3.51075 15.1376 2.8432 13.3342C2.17565 11.5308 2.1661 9.54959 2.81621 7.73981C3.46633 5.93003 4.73439 4.4078 6.39692 3.44139C8.05946 2.47498 10.0098 2.12642 11.9041 2.45713C13.7985 2.78785 15.5153 3.77661 16.752 5.24917L18.5405 3.74715Z"/>
</mask>
<path d="M18.5405 3.74715C16.9499 1.85336 14.742 0.581757 12.3058 0.156441C9.86952 -0.268876 7.36133 0.179393 5.22322 1.42225C3.08511 2.6651 1.45432 4.62277 0.618237 6.95025C-0.217846 9.27772 -0.205555 11.8256 0.652945 14.1449C1.51144 16.4642 3.16105 18.4061 5.31105 19.6282C7.46105 20.8504 9.97344 21.2745 12.4055 20.8257C14.8375 20.3769 17.0331 19.084 18.6052 17.175C20.1774 15.2659 21.0253 12.8632 20.9994 10.3902L18.6641 10.4146C18.6842 12.3376 18.0249 14.2058 16.8024 15.6903C15.5799 17.1747 13.8727 18.18 11.9816 18.5289C10.0906 18.8779 8.13699 18.5482 6.46521 17.5979C4.79343 16.6475 3.51075 15.1376 2.8432 13.3342C2.17565 11.5308 2.1661 9.54959 2.81621 7.73981C3.46633 5.93003 4.73439 4.4078 6.39692 3.44139C8.05946 2.47498 10.0098 2.12642 11.9041 2.45713C13.7985 2.78785 15.5153 3.77661 16.752 5.24917L18.5405 3.74715Z" fill="#D9D9D9" stroke="black" stroke-width="4" mask="url(#path-1-inside-1_6478_3936)"/>
<path d="M20.6598 7.76494L14.0004 6.55516L20.4464 0.99988L20.6598 7.76494Z" fill="black"/>
</svg>
