<svg width="131" height="134" viewBox="0 0 131 134" fill="none" xmlns="http://www.w3.org/2000/svg">
<path d="M47.4953 73.1749C47.3653 73.2531 47.2653 73.4386 47.2853 73.5851C47.3053 73.7316 47.4553 73.8781 47.6053 73.9171C47.6053 73.9171 47.6653 73.9269 47.7053 73.9269C47.7753 73.9269 47.8353 73.9074 47.8953 73.8878C48.0653 73.8195 48.1653 73.673 48.1253 73.4972C48.1153 73.3898 48.0553 73.2726 47.9653 73.214C47.8453 73.1261 47.6253 73.1066 47.4953 73.1847V73.1749Z" fill="black"/>
<path d="M58.4052 26.4457C58.5152 26.68 58.6352 26.9046 58.7652 27.1293L59.2552 28.057C59.7752 29.0531 60.3152 30.0785 60.7652 31.1235L60.8252 31.2602C61.0452 31.7582 61.2653 32.2758 61.4253 32.7934C61.5353 33.1547 61.6752 33.5063 61.8252 33.8481L61.9052 34.0532C61.8852 34.3266 61.9952 34.5708 62.2252 34.7856C62.2552 34.9126 62.2952 35.0395 62.3252 35.1665C62.3952 35.4009 62.4652 35.6255 62.4752 35.8501C62.5252 37.0806 62.4752 38.1646 62.3252 39.1607C62.1452 40.3423 61.8852 41.5435 61.6352 42.6666C61.4752 43.3892 61.1952 43.985 60.7552 44.5709C60.7252 44.61 60.6853 44.6686 60.6753 44.6783L60.4352 44.815C60.0652 45.0299 59.7252 45.2252 59.3452 45.3326C59.2852 45.3522 59.2252 45.3522 59.1552 45.3619C58.9252 45.3912 58.5852 45.4401 58.3452 45.7526C58.2752 45.8404 58.2352 46.026 58.2652 46.1334C58.3352 46.3873 58.5653 46.5143 59.2053 46.8073C59.3553 46.8756 59.5552 46.9733 59.7852 46.944C59.9052 46.944 60.0353 46.9733 60.2053 47.0709C60.7453 47.3737 61.3052 47.6178 61.8552 47.8424L62.3052 48.0377C62.4252 48.0866 62.5453 48.1452 62.6153 48.2038C62.8153 48.3795 63.0252 48.5456 63.2352 48.7116C63.5752 48.985 63.8952 49.2389 64.1652 49.5417C64.2652 49.6491 64.3752 49.737 64.4952 49.8249L64.5952 49.903C64.8152 50.0788 65.0352 50.2448 65.2552 50.4108C65.7252 50.7721 66.2152 51.153 66.6652 51.5436C67.0052 51.8464 67.3452 52.1394 67.6852 52.4323C68.1052 52.7937 68.5252 53.155 68.9352 53.5261C70.7252 55.1277 72.3352 56.5925 73.8152 58.2527C75.0852 59.6688 75.9252 60.8406 76.5352 62.0711C76.9452 62.8817 77.2852 63.6336 77.5952 64.4442C77.9052 65.2352 78.2253 66.0555 78.6453 66.8563C78.7853 67.1298 78.9752 67.1884 79.1252 67.1884C79.2052 67.1884 79.2652 67.1688 79.2952 67.1591C79.4752 67.1005 79.6353 66.9149 79.6753 66.7294C79.7953 66.1239 79.9852 65.5282 80.1652 64.9423C80.2552 64.659 80.3453 64.3856 80.4253 64.1024C80.5053 63.8192 80.5852 63.5458 80.6552 63.2625C80.8152 62.6473 80.9853 62.0125 81.2353 61.3973C81.6453 60.3816 82.0252 59.4148 82.5652 58.4871C82.7852 58.0965 83.0252 57.7156 83.2552 57.3347C83.4552 57.0125 83.6452 56.6804 83.8452 56.3582C83.8652 56.3191 83.8953 56.28 83.9253 56.241V56.6023C83.9253 57.3445 83.9052 58.0769 83.8852 58.8191C83.8552 59.4734 83.8053 60.0301 83.7053 60.5281C83.5253 61.4656 83.3652 62.4813 83.3752 63.5458C83.3752 63.8778 83.4452 64.1805 83.5852 64.454C83.6952 64.6786 83.9152 64.8251 84.1552 64.8641C84.3952 64.8934 84.6252 64.8153 84.7952 64.6298C84.8952 64.5223 85.0052 64.4149 85.1052 64.3075C85.3852 64.0145 85.6753 63.7215 85.9253 63.3602C86.0853 63.1258 86.3052 62.911 86.5352 62.6864C86.6252 62.5887 86.7252 62.5008 86.8152 62.4032C87.0252 62.1786 87.2852 61.9832 87.5452 61.7879C87.7252 61.6512 87.8952 61.5242 88.0652 61.3778C88.3852 61.1043 88.7152 60.8797 89.0652 60.6942C89.4752 60.4793 89.8852 60.2547 90.2852 60.0301C90.6352 59.8348 90.9952 59.6395 91.3452 59.4539C91.9152 59.1512 92.4952 58.8582 93.0752 58.575C93.8452 58.1941 94.6652 57.8719 95.4952 57.5496L96.0552 57.325C96.6752 57.0808 97.2552 56.8367 97.8852 56.6804C98.0452 56.6414 98.1952 56.5925 98.3552 56.5535L99.2152 56.3191C99.6252 56.2019 100.045 56.0945 100.455 56.0066C101.585 55.7527 102.715 55.5281 103.855 55.2937L104.025 55.2546C104.575 55.1374 105.095 55.03 105.615 55.0788C105.815 55.0984 106.015 55.0788 106.205 55.0788H106.375C107.205 55.0496 108.085 55.1081 108.985 55.2546C109.775 55.3816 110.825 55.5671 111.875 55.821C112.935 56.075 113.725 56.5925 114.285 57.4129C114.535 57.7742 114.845 58.0769 115.285 58.3992C115.385 58.4676 115.595 58.6238 115.845 58.5652C116.095 58.5066 116.215 58.2918 116.285 58.1746C116.465 57.8523 116.535 57.5203 116.505 57.159C116.385 55.8015 116.585 54.6492 117.115 53.6335L117.215 53.448C117.455 52.9792 117.685 52.5398 118.075 52.237C118.455 51.9343 118.865 51.6218 119.325 51.3581C120.165 50.8698 121.105 50.528 122.015 50.2057L122.995 49.8639C123.895 49.5514 124.815 49.2292 125.705 48.819C125.895 48.7311 126.095 48.6725 126.295 48.6042L126.405 48.5651C127.415 48.2428 128.425 47.9303 129.445 47.6276C129.785 47.5202 129.995 47.2955 130.065 46.9635C130.185 46.3971 129.955 45.9869 129.385 45.7819L128.625 45.4986C127.925 45.235 127.235 44.9713 126.525 44.7271C125.705 44.4439 124.865 44.0533 123.895 43.4967C123.685 43.3795 123.475 43.2525 123.255 43.1451C122.225 42.647 121.415 41.8365 120.695 40.606C120.555 40.3619 120.495 40.1177 120.505 39.854C120.525 39.4732 120.525 39.1021 120.525 38.7212V38.2036C120.525 37.9595 120.565 37.7056 120.625 37.4321C120.905 36.1431 121.445 34.9712 121.935 34.0044C122.295 33.2817 122.715 32.4711 123.375 31.8754C123.585 31.6899 123.725 31.475 123.795 31.2406C123.895 30.9281 123.845 30.6254 123.675 30.391C123.495 30.1566 123.215 30.0297 122.875 30.0297C122.375 30.0297 121.865 30.0297 121.365 30.0297C120.945 30.0297 120.525 30.0297 120.105 30.0395C119.575 30.0492 119.035 30.0688 118.505 30.0395C117.035 29.9613 115.745 29.8051 114.565 29.5414C113.095 29.2191 111.725 28.6918 110.455 28.1644C109.475 27.7543 108.535 27.139 107.485 26.221C106.805 25.6253 106.365 24.9417 106.155 24.1409C105.805 22.8519 105.495 21.5628 105.215 20.2932C105.155 20.0003 105.035 19.7366 104.925 19.4827C104.815 19.2483 104.655 19.092 104.455 19.0237C104.315 18.9846 104.095 18.9651 103.815 19.1213C103.355 19.385 103.005 19.7854 102.795 20.3128C102.695 20.5667 102.585 20.8108 102.485 21.0647L102.255 21.6214C101.745 22.8714 101.095 24.1116 100.275 25.4105C99.6252 26.4457 98.9453 27.305 98.2052 28.0277C98.0353 28.1937 97.8752 28.3597 97.7152 28.5258L97.6453 28.6039C97.0453 29.2191 96.5452 29.6293 96.0052 29.9418C95.2652 30.3617 94.6253 30.6156 93.8953 30.5473C93.7453 30.5375 93.7452 30.518 93.7152 30.4399C93.6552 30.2738 93.6052 30.1273 93.6252 29.9809C93.6452 29.8051 93.6653 29.6098 93.6453 29.4144C93.5753 28.8773 93.7552 28.3793 94.2352 27.8031L94.3152 27.7054C94.4052 27.598 94.4952 27.5004 94.5652 27.3832C95.1552 26.5238 95.9052 25.8402 96.5652 25.2738C96.8352 25.0394 97.1652 24.9417 97.5752 24.9515L98.3052 24.9906C98.6752 24.9906 98.9753 24.8831 99.2352 24.6195C99.3252 24.5316 99.3552 24.4046 99.3352 24.2874C99.3052 24.1702 99.2152 24.0726 99.1052 24.0238C98.3652 23.7503 97.7752 23.3109 97.2252 22.637C96.7752 22.0804 96.4752 21.4456 96.1652 20.762L96.1153 20.6643C95.8253 20.0296 95.6952 19.4046 95.7352 18.7698C95.7552 18.4475 95.7552 18.1155 95.7552 17.7834V17.676C95.7552 17.0705 95.7752 16.3479 95.9452 15.6447C95.9852 15.4592 96.0052 15.2736 96.0252 15.0881L96.0452 14.8928C96.1052 14.3264 96.2252 13.6623 96.6052 13.1056C96.6652 13.0177 96.7352 12.9006 96.7852 12.7541C96.8952 12.4025 96.8252 12.0314 96.5952 11.7677C96.3852 11.5236 96.0653 11.4064 95.7352 11.4455C95.1353 11.5236 94.6253 11.5431 94.1453 11.5138C93.8753 11.4943 93.6452 11.5236 93.4352 11.5919C92.9652 11.7384 92.4652 11.7287 91.9052 11.7189C91.6052 11.7189 91.3052 11.7189 91.0052 11.7189C90.2452 11.7189 89.5252 11.7287 88.7952 11.6115C88.1752 11.5041 87.5852 11.3283 87.0352 11.0841C86.4752 10.84 85.9352 10.5665 85.3852 10.2931C85.0752 10.1369 84.7653 9.9806 84.4553 9.83411C83.3053 9.28723 82.5452 8.8673 81.5952 8.10558C80.7352 7.42197 80.0952 6.7286 79.6352 5.98641C79.1452 5.17585 78.7753 4.3067 78.4553 3.47661C78.2153 2.86137 78.0152 2.17776 77.8352 1.35744C77.7552 0.96681 77.6252 0.654305 77.4352 0.380864C77.2752 0.146486 77.0552 0.00976575 76.8152 0C76.6852 0.00976575 76.4052 0.039063 76.1852 0.351567C76.0352 0.546882 75.8752 0.78126 75.7752 1.0547C75.4752 1.85549 75.0452 2.61722 74.6352 3.36918C74.4952 3.62309 74.3552 3.877 74.2152 4.13091C73.9952 4.55084 73.6652 4.88288 73.2152 5.14655L73.0152 5.26374C72.7352 5.42976 72.4553 5.59578 72.1753 5.75203C71.7153 5.99617 71.1652 6.25985 70.5752 6.26961C69.5352 6.27938 68.3253 6.25008 67.1753 5.79109C66.9953 5.72273 66.8152 5.66414 66.6352 5.59578C66.4352 5.52742 66.2352 5.45906 66.0352 5.38093C65.6052 5.20515 65.1852 5.0196 64.8152 4.77545C63.9852 4.22857 63.3752 3.77935 62.8552 3.31059C62.7652 3.23246 62.6153 3.09574 62.3953 3.03715C62.3353 2.97855 62.2752 2.91019 62.2152 2.83207C62.1552 2.75394 62.0952 2.67582 62.0052 2.58792C61.7752 2.36331 61.5252 2.26565 61.2752 2.28519C61.0052 2.30472 60.7652 2.47074 60.5652 2.76371L60.4952 2.86137C60.4552 2.91996 60.4152 2.96879 60.3752 3.02738C60.1452 3.29106 60.1252 3.61333 60.2952 3.9063C60.6252 4.45318 60.8052 5.04889 60.9952 5.68367C61.0652 5.90828 61.1353 6.13289 61.2053 6.3575C61.2753 6.57235 61.3353 6.7872 61.3953 7.01181C61.4553 7.25595 61.5252 7.49033 61.6052 7.72471L61.6453 7.85167C61.8653 8.49621 62.0753 9.11145 62.1753 9.76575C62.3053 10.6447 62.4552 11.6896 62.5152 12.7443C62.5452 13.2424 62.5352 13.7404 62.5352 14.2482C62.5352 14.717 62.5252 15.1857 62.5352 15.6545C62.5752 16.5237 62.5352 17.4123 62.5152 18.2717L62.4852 19.1116C62.4752 19.7073 62.3352 20.2835 62.0652 20.8987C61.6852 21.7776 61.1952 22.3245 60.5152 22.6077C60.2252 22.7347 59.9752 22.9202 59.7352 23.096L59.6552 23.1546C58.9652 23.6527 58.3852 23.8773 57.7452 23.848C57.5952 23.848 57.4753 23.9261 57.4253 23.9652C57.3253 24.0238 57.2552 24.1312 57.2452 24.2484C57.2252 24.5413 57.3852 24.7367 57.5452 24.9124C57.9352 25.4398 58.2352 26.016 58.4452 26.4554L58.4052 26.4457ZM95.5352 31.9438C96.8852 31.4653 97.9052 30.6059 98.8052 29.7563C98.9952 29.5805 99.1752 29.3949 99.3452 29.2094C99.4852 29.0629 99.6252 28.9262 99.7652 28.7894C100.225 28.35 100.665 27.8324 101.105 27.2172C101.445 26.7386 101.765 26.2308 102.055 25.7621C102.665 24.7464 103.185 23.6624 103.675 22.6175L103.805 22.3343C103.825 22.4124 103.855 22.4905 103.875 22.5784C103.955 22.8909 104.025 23.2132 104.105 23.5257C104.205 23.9652 104.315 24.4144 104.435 24.8538C104.605 25.5179 104.985 26.055 105.345 26.5921C105.745 27.1683 106.265 27.5883 106.805 28.0179C107.795 28.809 108.945 29.4535 110.225 29.9418L110.735 30.1371C111.295 30.3617 111.885 30.5863 112.495 30.7524C113.875 31.143 115.155 31.3969 116.385 31.5336C117.605 31.6801 118.835 31.6801 120.025 31.6703C120.395 31.6703 120.775 31.6703 121.145 31.6703C121.195 31.6703 121.245 31.6703 121.305 31.6703C120.845 32.3735 120.405 33.1743 119.955 34.1704C119.525 35.1176 119.225 35.9184 119.015 36.6802C118.945 36.9145 118.915 37.1587 118.875 37.4224C118.745 38.2915 118.705 39.2193 118.745 40.1763C118.775 40.8013 118.985 41.4068 119.385 41.9537C119.875 42.647 120.475 43.4283 121.305 44.0338C121.635 44.2682 121.975 44.4537 122.315 44.6295C122.475 44.7076 122.625 44.7955 122.775 44.8736C124.025 45.5768 125.315 46.1237 126.835 46.6901C126.585 46.7682 126.335 46.8366 126.085 46.9244C125.685 47.0514 125.205 47.2174 124.755 47.4225C123.715 47.8913 122.655 48.2526 121.475 48.6334C119.575 49.2585 117.995 50.1276 116.635 51.2995C116.145 51.7292 115.865 52.2663 115.605 52.7839L115.555 52.8718C115.175 53.6042 114.935 54.405 114.795 55.2839C113.745 54.4734 112.545 54.1609 111.605 53.9851L110.955 53.8679C110.645 53.8191 110.345 53.7605 110.045 53.7019C108.295 53.3503 106.505 53.3698 104.825 53.4382C104.315 53.4577 103.815 53.5749 103.395 53.6823C102.785 53.8288 102.155 53.9363 101.575 54.0339C100.955 54.1316 100.345 54.2878 99.7552 54.4441L99.1352 54.6003C98.9452 54.6492 98.7652 54.698 98.5852 54.7468C98.3952 54.7956 98.2152 54.8542 98.0252 54.8933C96.5952 55.2351 95.2352 55.8113 93.9352 56.3679C93.5852 56.5144 93.2453 56.6609 92.8953 56.8074C92.5053 56.9734 92.1352 57.1687 91.7752 57.364L91.4452 57.5398C91.1152 57.7156 90.7852 57.8914 90.4652 58.0672C89.8652 58.3894 89.2553 58.7117 88.6453 59.0144C87.9253 59.366 87.3152 59.8445 86.7852 60.2742L86.5052 60.4988C86.1052 60.8211 85.6852 61.1531 85.2952 61.534C85.4052 60.9578 85.4752 60.3719 85.5552 59.7273C85.7052 58.448 85.6952 57.159 85.6852 55.9089V55.1472C85.6852 54.8249 85.6252 54.5124 85.5252 54.1999C85.2952 53.487 84.9952 52.6569 84.5852 51.8464C84.2952 51.28 84.0153 50.7136 83.7353 50.1374C83.4753 49.6198 83.2252 49.112 82.9652 48.5944C82.5652 47.8131 82.0552 47.0709 81.4452 46.4069C81.0352 45.9576 80.6452 45.4791 80.2652 45.0006C79.9952 44.6588 79.7153 44.317 79.4253 43.9752C79.6353 43.985 79.8452 44.0045 80.0552 44.0142C80.8852 44.0631 81.7352 44.1217 82.5552 44.2682C83.2152 44.3951 83.8752 44.2682 84.3052 44.1607C84.7152 44.0533 85.0653 43.8092 85.3653 43.399C85.8853 42.6959 86.4452 41.8267 86.6552 40.7037C86.8452 39.6978 86.8852 38.6919 86.9152 37.7544C86.9352 36.9731 86.9252 36.1919 86.9152 35.4106V34.9028C86.9052 34.6001 86.8652 34.2973 86.8152 34.0044L86.7252 33.3891C86.6152 32.6567 86.5052 31.9242 86.3552 31.1918C86.2752 30.811 86.1452 30.4594 86.0152 30.1078C85.9752 30.0004 85.9353 29.8832 85.8953 29.7758L86.9052 30.1566C87.4952 30.3813 88.0853 30.6059 88.6753 30.8207L89.2452 31.0356C89.8552 31.2699 90.4952 31.5043 91.1352 31.6996C91.7852 31.8949 92.5452 32.1 93.3352 32.1782C94.1252 32.2563 94.8752 32.1684 95.5652 31.9242L95.5352 31.9438ZM61.0152 24.7269C61.9052 24.2777 62.5352 23.7894 62.9952 23.1644C63.1852 22.9105 63.4452 22.5589 63.6552 22.1878C63.9052 21.7581 64.0253 21.2893 64.1453 20.8499L64.2053 20.635C64.4353 19.7854 64.4352 18.9163 64.4352 18.0862C64.4352 17.8518 64.4352 17.6077 64.4352 17.3733C64.4452 16.8362 64.4352 16.3088 64.4352 15.7717V14.3459C64.4352 13.6135 64.4352 12.8517 64.3852 12.0998C64.3452 11.4064 64.2352 10.7033 64.1352 10.0294L64.0552 9.53137C63.8952 8.47667 63.5552 7.46104 63.2352 6.48446L63.1052 6.1036C63.1752 6.15242 63.2352 6.20125 63.3052 6.25008C64.0352 6.82626 64.8853 7.17783 65.7053 7.51963L65.8852 7.59776C67.1352 8.11534 68.3752 8.38878 69.5852 8.40831C70.1952 8.40831 70.7952 8.37902 71.3552 8.33019C71.6352 8.31066 71.8852 8.20323 72.0952 8.11534C72.9652 7.74424 73.7653 7.29502 74.4853 6.76767C74.9753 6.40633 75.3852 5.96688 75.7252 5.41023C75.8852 5.16608 76.0152 4.90241 76.1552 4.6485C76.2652 4.44342 76.3652 4.2481 76.4853 4.05279V4.07232C76.7952 5.02936 77.2352 5.89851 77.8052 6.91415C78.2552 7.72471 78.8252 8.43761 79.4752 9.02356C80.8852 10.2833 82.4352 11.2892 84.0952 12.0021C84.7952 12.3048 85.4652 12.6369 86.0752 12.9592C86.7652 13.3205 87.4852 13.5256 88.3552 13.7209C88.8052 13.8185 89.2552 13.8478 89.7952 13.8576C90.6552 13.8771 91.7852 13.8869 92.9352 13.8576C93.2852 13.8576 93.6152 13.7892 93.9452 13.7306L94.2952 13.6721C94.4452 13.6525 94.5752 13.6232 94.7152 13.6232C94.6552 13.8381 94.5952 14.0432 94.5152 14.2482C94.1152 15.3127 93.8852 16.4455 93.8352 17.6174C93.7952 18.6721 93.7352 19.8733 94.3252 20.9866C94.7052 21.719 95.1252 22.3636 95.5952 22.9593C95.6652 23.0472 95.7552 23.1546 95.8052 23.223C95.7452 23.2816 95.6252 23.3694 95.5252 23.4476C94.7852 24.014 94.0852 24.7171 93.2952 25.6839C93.1052 25.9183 92.9252 26.1625 92.7452 26.4066C92.5852 26.6214 92.4252 26.8461 92.2552 27.0609C91.8652 27.5394 91.6752 28.1058 91.6352 28.848C91.6252 29.0824 91.6252 29.3266 91.6252 29.5609C91.6252 29.727 91.6252 29.893 91.6252 30.0785C91.4052 30.0004 91.1952 29.932 90.9752 29.8539C90.4852 29.6879 89.9952 29.5219 89.5152 29.3266C88.5652 28.9457 87.5952 28.6039 86.6352 28.2621L85.6453 27.9105C85.5253 27.8715 85.4052 27.8422 85.2852 27.8129L85.1852 27.7933C84.6752 27.6761 84.2452 27.8324 83.9752 28.2719C83.7552 28.3793 83.5252 28.6039 83.6852 29.0726C83.7752 29.3363 83.8752 29.6 83.9752 29.8637C84.1652 30.3813 84.3652 30.9281 84.5152 31.4653C84.6652 31.9926 84.7652 32.4711 84.8152 32.9301C84.8652 33.3891 84.9452 33.8383 85.0352 34.2876C85.0752 34.4829 85.0952 34.6684 85.0952 34.8637C85.1352 36.0942 85.1752 37.5493 85.0852 39.0142C85.0452 39.7076 84.9652 40.2642 84.8452 40.7623C84.6952 41.3384 84.4052 41.8951 83.8752 42.5494C83.8352 42.5982 83.7952 42.6275 83.6352 42.647C83.1652 42.6861 82.6853 42.6568 82.2053 42.5787C81.4353 42.4517 80.6553 42.3931 79.9253 42.3541C79.2853 42.315 78.6353 42.2271 78.0152 42.1392L77.8152 42.1197C77.7252 42.1197 77.6352 42.1002 77.5452 42.0806C76.6952 41.8853 76.2552 42.4908 76.0352 42.7838C75.8652 43.0181 75.9052 43.3111 76.1352 43.5162C76.3252 43.6822 76.5252 43.8287 76.7252 43.9752C77.5152 44.5611 78.1252 45.1959 78.6052 45.9381C78.7852 46.2213 79.0153 46.4459 79.2353 46.6705L79.3552 46.7975C79.8552 47.3151 80.3352 47.901 80.8152 48.5846C81.1252 49.0241 81.3953 49.5221 81.6453 50.0007L81.7852 50.2741C81.9952 50.6647 82.1752 51.0651 82.3552 51.4753C82.6052 52.0417 82.8653 52.6179 83.2053 53.1648C83.2853 53.3015 83.3452 53.4773 83.4052 53.6628C83.4152 53.7019 83.4352 53.7409 83.4452 53.78C83.1252 53.9167 82.8652 54.1413 82.6852 54.4441C82.4152 54.6101 82.1552 54.8249 82.0552 55.1863C81.9452 55.2742 81.8853 55.4011 81.8653 55.5378C81.5353 55.8992 81.2653 56.2605 81.1153 56.739C81.0553 56.9441 80.8852 57.1687 80.7552 57.3445C80.2852 57.9793 80.0052 58.6726 79.7252 59.3758L79.5952 59.7176C79.2152 60.7039 78.8253 61.7293 78.6453 62.8133C78.6353 62.8914 78.6152 62.9696 78.6052 63.0379C78.4052 62.5594 78.2053 62.1004 77.9553 61.6512C77.8453 61.4461 77.7352 61.2215 77.6352 61.0067C77.4652 60.6453 77.2952 60.2742 77.0552 59.9227L76.9752 59.7957C76.7052 59.3953 76.4252 58.9851 76.0752 58.6238C76.0752 58.5555 76.0452 58.4676 75.9952 58.3894L75.8152 58.1062C75.5152 57.6082 75.1952 57.1004 74.7152 56.6902C74.5852 56.3875 74.3752 56.1531 74.1852 55.948L73.8752 55.5867C73.3752 55.0007 72.8552 54.3855 72.2752 53.8386L72.1652 53.7312C71.7552 53.3405 71.3353 52.9304 70.8653 52.569C70.3453 52.1687 69.8552 51.7194 69.2752 51.1823C68.6752 50.6159 68.0252 50.0788 67.4052 49.5612L67.2053 49.3952C67.0753 49.2878 66.9452 49.1803 66.8252 49.0631C66.5052 48.7799 66.1752 48.4967 65.7952 48.2526L65.5552 48.0963C65.3652 47.9791 65.1852 47.8522 64.9852 47.7448C64.7352 47.608 64.4952 47.4518 64.2552 47.3053C63.7852 47.0123 63.3052 46.7096 62.7452 46.5143C62.4952 46.4264 62.2352 46.3287 61.9852 46.2311C62.2652 45.9869 62.4553 45.6842 62.6153 45.4108C62.6853 45.2936 62.7552 45.1764 62.8352 45.069C63.0852 44.8639 63.2252 44.5904 63.2352 44.2779C63.3152 44.19 63.3753 44.0533 63.3653 43.8678L63.3953 43.7994C63.4453 43.6725 63.4852 43.5455 63.5152 43.4088C63.6152 42.8326 63.7352 42.2662 63.8452 41.69C64.0552 40.7037 64.2653 39.6783 64.3653 38.6431C64.4453 37.8032 64.5052 36.8071 64.3852 35.8013C64.3052 35.1274 64.1253 34.4731 63.9253 33.809C63.7553 33.2329 63.5352 32.6762 63.3152 32.1098L63.0652 31.4946C62.7752 30.7621 62.4753 30.0004 62.1153 29.268L61.7952 28.6137C61.4352 27.8617 61.0552 27.0804 60.6052 26.348C60.3852 25.9964 60.2052 25.6156 60.0152 25.2249L59.9052 24.9906C60.2552 24.9515 60.6352 24.9027 60.9952 24.7171L61.0152 24.7269ZM78.7053 43.6822H78.6753H78.6952H78.7053Z" fill="black"/>
<path d="M0.125186 30.7038C0.235186 30.9089 0.385206 31.0651 0.615206 31.1921C1.08521 31.4655 1.51518 31.778 1.96518 32.1003L2.4252 32.4226C2.6852 32.6081 2.94519 32.7839 3.19519 32.9597C3.86519 33.4187 4.55518 33.8972 5.18518 34.4245C5.22518 34.4538 5.26519 34.4831 5.31519 34.4929C5.53519 34.5613 5.62519 34.6199 5.66519 34.7175C5.67519 34.7468 5.6952 34.7663 5.7052 34.7859C5.7052 34.7859 5.70518 34.7956 5.71518 34.8054C5.71518 34.8054 5.7252 34.8054 5.7352 34.8152C5.8152 34.9031 5.90519 34.9617 5.97519 35.0105C6.00519 35.03 6.05518 35.0593 6.05518 35.0496C6.05518 35.0984 6.0752 35.1472 6.1052 35.196C6.2752 35.4792 6.49518 35.6941 6.71518 35.8992C6.80518 35.9871 6.89519 36.0652 6.97519 36.1531C7.26519 36.4558 7.3852 36.7488 7.39521 37.1101C7.41521 38.2527 7.15519 39.2488 6.59519 40.157C6.11519 40.9383 5.64519 41.7196 5.16519 42.5008L4.0152 44.3856C3.8652 44.62 3.7152 44.8641 3.5752 45.0985C3.4052 45.3817 3.22518 45.7235 3.21518 46.1337C3.21518 46.3095 3.29518 46.4852 3.43518 46.5927C3.56518 46.6903 3.72519 46.7196 3.87519 46.6708C4.06519 46.6122 4.26518 46.5927 4.46518 46.5731C4.74518 46.5438 5.02519 46.5048 5.31519 46.4071C5.74519 46.2509 6.2352 46.1727 6.7652 46.163L7.49518 46.1434C8.36518 46.1239 9.27521 46.1044 10.1452 46.1434C10.5452 46.163 10.9452 46.1532 11.3552 46.1434C12.0952 46.1434 12.7952 46.1239 13.4952 46.2704C13.6452 46.2997 13.8052 46.2997 13.9352 46.2899C14.0152 46.2899 14.1952 46.2899 14.2252 46.3095C14.2552 46.3388 14.2352 46.4852 14.2252 46.5927C14.2052 46.7294 14.1852 46.8954 14.2252 47.0614C14.2752 47.3446 14.1752 47.5204 13.8952 47.6767L13.7752 47.745C13.6752 47.8036 13.5652 47.8525 13.4652 47.911C13.1652 48.0575 12.8552 48.165 12.5352 48.2821L12.2252 48.3896C11.4552 48.6728 10.6652 48.8095 9.80518 48.8095C9.12518 48.8095 8.4452 48.8095 7.7652 48.8388C7.0052 48.8779 6.2452 48.6825 5.3252 48.2333C5.0452 48.0966 4.7552 47.9892 4.4552 47.8817L4.33518 47.8427C3.89518 47.6864 3.60518 47.8427 3.46518 47.9794C3.38518 48.0478 3.23519 48.1747 3.22519 48.3896C3.22519 48.4872 3.2452 48.6337 3.3852 48.7802C3.5552 48.956 3.69519 49.1708 3.84519 49.3857C4.10519 49.7763 4.37518 50.1767 4.83518 50.4599C4.88518 50.4892 4.9652 50.6259 5.0152 50.7236L5.08518 50.8408C5.43518 51.4365 5.61519 52.081 5.62519 52.7646V52.9599C5.64519 53.6533 5.66518 54.3076 5.24518 54.8447C5.12518 55.001 5.01518 55.167 4.90518 55.333C4.79518 55.499 4.68519 55.6748 4.56519 55.8213L4.33518 56.0947C3.33518 57.2959 2.38518 58.4288 1.05518 59.2589C0.745178 59.4151 0.61518 59.6788 0.52518 59.8741L0.475192 59.9718C0.325192 60.255 0.45518 60.5284 0.52518 60.6944L0.565188 60.7921C0.605188 60.9093 0.705198 60.9972 0.825198 61.0265C1.1952 61.1241 1.56518 61.1534 1.93518 61.1339C2.51518 61.1046 3.10518 61.0948 3.68518 61.085C4.13518 61.085 4.5952 61.0655 5.0452 61.0558C5.5152 61.046 5.88518 61.212 6.24518 61.6319C6.69518 62.1495 7.0452 62.6378 7.3552 63.1847C7.9452 64.2003 8.49518 65.1671 8.77518 66.2707C8.81518 66.4464 8.89518 66.6027 8.99518 66.798C9.30518 67.4328 9.4952 68.1066 9.5752 68.7902C9.5852 68.8781 9.60521 68.9758 9.64521 69.1516C9.67521 69.2785 9.76521 69.3859 9.89521 69.4348C10.3852 69.591 10.7752 69.4543 11.0752 69.0344C11.2852 68.7414 11.6152 68.5168 12.1652 68.3117C12.2352 68.2726 12.3052 68.2238 12.3752 68.175C12.3952 68.1652 12.4652 68.1555 12.5152 68.1457C12.6152 68.1359 12.7452 68.1164 12.8752 68.0578C12.8952 68.0578 12.9152 68.0383 12.9352 68.0187C13.0152 68.0187 13.1552 68.0187 13.2952 67.9308L13.8352 67.8625C14.8152 67.7355 15.6352 67.7258 16.4152 67.8332C16.9652 67.9113 17.3052 68.1652 17.5252 68.6828C17.5652 68.7707 17.5852 68.8586 17.6052 68.9562C17.6352 69.093 17.6752 69.2199 17.7252 69.3762L17.7852 69.5715C17.8152 69.6691 17.8852 69.7473 17.9752 69.7863C18.0652 69.8352 18.1652 69.8352 18.2652 69.8059C18.3252 69.7863 18.4052 69.7863 18.5052 69.7961C18.6552 69.7961 18.8352 69.8156 19.0352 69.7473C19.4852 69.6008 19.9552 69.425 20.3652 69.0051C20.4652 68.9074 20.6452 68.8293 20.8352 68.7414C20.9152 68.7023 20.9952 68.673 21.0752 68.634C21.1352 68.6047 21.1852 68.5851 21.2452 68.5656V68.6144C21.1452 68.8976 21.0552 69.1711 21.0052 69.4641C20.9452 69.8254 20.8852 70.1965 20.7752 70.636C20.6752 71.0852 20.5652 71.5442 20.5652 72.0227C20.5652 72.384 20.5652 72.7454 20.5552 73.1067C20.5552 73.595 20.5352 74.0735 20.5552 74.5618C20.5752 75.1575 20.7152 75.6067 21.0052 76.0169L21.1552 76.2317C21.3252 76.4759 21.4952 76.72 21.6852 76.9544C21.8252 77.1399 21.9652 77.3157 22.1052 77.5013C22.5752 78.1165 23.0552 78.7513 23.6652 79.2982L23.9952 79.5912C24.7052 80.2357 25.4152 80.8705 26.1452 81.4955C26.6452 81.9252 26.9452 82.433 27.1252 83.0971C27.2252 83.4779 27.2952 83.8686 27.3552 84.2494C27.3752 84.3764 27.4052 84.5033 27.4352 84.6205C27.4852 84.8549 27.5452 85.0795 27.5452 85.2944C27.5452 85.6264 27.5852 85.9389 27.6352 86.2416L27.6752 86.5346C27.7052 86.7885 27.7452 87.0424 27.7752 87.2866C27.8352 87.726 27.8952 88.1753 27.9352 88.6147C27.9552 88.8491 27.9852 89.0835 28.0152 89.3081C28.0852 89.9233 28.1552 90.4995 28.1252 91.0854C28.1052 91.3589 28.1552 91.6226 28.1952 91.8765L28.2352 92.1402C28.2452 92.228 28.2652 92.3257 28.2852 92.4136C28.3052 92.521 28.3352 92.6284 28.3352 92.7359C28.3852 93.8003 28.5352 94.6695 28.8252 95.5093L28.8552 95.6168C28.9052 95.7925 28.9152 95.8707 28.8852 95.9488C28.7552 96.2222 28.8052 96.5738 29.0052 96.8472C29.0452 96.8961 29.0552 96.9742 29.1052 97.0035C29.1052 97.0328 29.1052 97.0719 29.1052 97.1109C29.0052 97.2867 29.0152 97.482 29.0252 97.5992C29.0252 97.6285 29.0252 97.6773 29.0552 97.6676C28.9352 97.7652 28.9152 97.9019 28.9052 97.9898C28.7952 98.1949 28.8152 98.4098 28.8252 98.5465C28.8352 98.6539 28.8352 98.7027 28.8252 98.7418C28.6052 99.0738 28.5752 99.484 28.5752 99.8063C28.5752 99.9332 28.5252 100.08 28.4852 100.236C28.4552 100.343 28.4252 100.441 28.3952 100.548C28.3752 100.656 28.3752 100.754 28.3752 100.9C28.3752 100.949 28.3852 100.998 28.4052 101.047C28.3852 101.086 28.3752 101.125 28.3752 101.173C28.3752 101.232 28.3752 101.291 28.3752 101.349C28.3752 101.388 28.3752 101.427 28.3952 101.408C28.1252 101.818 28.0852 102.248 28.0452 102.638C28.0252 102.843 28.0052 103.039 27.9452 103.234C27.9352 103.273 27.9252 103.302 27.9352 103.341C27.9352 103.517 27.8952 103.713 27.8552 103.908C27.8052 104.152 27.7452 104.406 27.7652 104.689C27.5452 105.011 27.4652 105.373 27.3852 105.695C27.3652 105.783 27.3452 105.871 27.3252 105.959L27.2352 106.291C27.1452 106.593 27.0652 106.906 26.9952 107.277C26.9652 107.453 26.9352 107.609 26.8552 107.736C26.7152 107.961 26.6852 108.195 26.6652 108.41C26.6452 108.566 26.6352 108.703 26.5752 108.801C26.5352 108.859 26.5152 108.927 26.5152 109.006C26.5152 109.377 26.4052 109.738 26.2752 110.129C26.1652 110.47 26.0552 110.832 26.0152 111.213C26.0152 111.31 25.9952 111.408 25.9752 111.506C25.9452 111.701 25.9252 111.896 25.9252 112.082C25.9252 112.326 25.8552 112.58 25.7852 112.834C25.7352 113 25.6952 113.166 25.6652 113.342C25.4552 113.605 25.4552 113.898 25.4552 114.113L25.4752 114.25C25.3452 114.601 25.2952 114.953 25.2452 115.295C25.1852 115.744 25.1252 116.174 24.8752 116.535C24.7052 116.779 24.7152 117.043 24.7252 117.238C24.7252 117.297 24.7252 117.355 24.7252 117.443V117.56C24.7252 117.56 24.6952 117.599 24.6752 117.619C24.6152 117.687 24.5852 117.765 24.5852 117.853V118.224L24.5552 118.312C24.5152 118.43 24.4752 118.537 24.4352 118.713C24.3952 118.879 24.3752 118.918 24.3452 118.928C24.2452 118.976 24.1652 119.064 24.1352 119.182C24.1052 119.289 24.1352 119.406 24.2052 119.494C24.2352 119.533 24.2652 119.562 24.3352 119.611C24.2452 119.855 24.1952 120.099 24.1552 120.344C24.1352 120.441 24.1252 120.529 24.1052 120.627C24.0852 120.734 24.1052 120.803 24.1752 120.891C24.1752 120.91 24.1252 120.978 24.0652 121.066C23.9252 121.291 23.9052 121.525 23.8852 121.76C23.8752 121.896 23.8752 122.033 23.8852 122.18C23.8852 122.521 23.8852 122.736 23.7352 122.922C23.6452 123.029 23.5952 123.185 23.6152 123.332C23.6452 123.557 23.5852 123.801 23.5252 124.045C23.4752 124.24 23.4352 124.435 23.4152 124.641C23.3952 124.865 23.3652 125.09 23.3352 125.314C23.2952 125.598 23.2652 125.891 23.2452 126.174C23.2452 126.32 23.1852 126.457 23.1152 126.613C23.0552 126.75 23.0052 126.887 22.9752 127.033C22.9452 127.16 22.9852 127.287 23.0852 127.375C23.7252 127.961 24.4052 127.902 24.9252 127.785L25.1652 127.727C25.5852 127.629 25.9952 127.531 26.3752 127.619C26.4152 127.619 26.4452 127.629 26.4852 127.619L26.6952 127.6C26.8352 127.59 26.9652 127.57 27.1052 127.58C27.2552 127.58 27.3752 127.541 27.4752 127.512C27.4852 127.512 27.4952 127.512 27.5052 127.512C27.5052 127.551 27.4952 127.609 27.4852 127.648C27.4752 127.736 27.4652 127.824 27.4652 127.912C27.4652 128.234 27.4352 128.488 27.3652 128.684C27.1852 129.172 26.9652 129.543 26.4952 129.699C26.0952 129.836 25.7152 130.012 25.3252 130.197L24.9352 130.373C24.4852 130.578 24.1252 130.891 23.8552 131.301C23.5952 131.711 23.6252 132.043 23.6952 132.238C23.7652 132.434 23.9352 132.697 24.3752 132.854C24.6352 132.951 24.8652 132.99 25.0652 133C25.3052 133 25.5452 133 25.7952 133.01C26.7852 133.029 27.8052 133.049 28.8352 132.854C29.1752 132.785 29.5252 132.727 29.8752 132.668C30.4952 132.561 31.1452 132.453 31.7752 132.297C32.0852 132.229 32.3552 132.121 32.6052 131.994C33.0052 131.779 33.2052 131.457 33.2052 130.988C33.2052 130.08 33.1852 129.123 33.1152 127.99C33.0952 127.639 33.0752 127.287 33.0752 126.936C33.2052 126.916 33.3352 126.906 33.4652 126.906C33.6452 126.906 33.8252 126.906 34.0052 126.906C34.2152 126.906 34.4252 126.906 34.6252 126.906C35.2552 126.896 35.3952 126.74 35.5752 126.193C35.6952 125.822 35.6952 125.48 35.6852 125.139V124.885C35.6852 124.348 35.6852 123.81 35.6852 123.273C35.6852 122.394 35.6852 121.516 35.7152 120.637C35.7652 119.377 35.8352 118.322 35.9252 117.336C35.9752 116.857 36.0152 116.369 36.0552 115.89C36.1052 115.324 36.1552 114.738 36.2152 114.152C36.3652 115.334 36.5052 116.506 36.6452 117.678C36.6952 118.127 36.7452 118.576 36.7952 119.015C36.8652 119.68 36.9452 120.334 37.0252 120.998C37.1352 121.838 37.2552 122.6 37.4052 123.332C37.5552 124.123 37.6952 124.982 37.8252 125.978C37.8552 126.232 38.0052 126.564 38.5052 126.721C38.6552 126.77 38.8052 126.77 38.9752 126.77H40.4252C40.4252 126.77 40.4652 126.77 40.4852 126.77C40.4852 126.799 40.4852 126.828 40.4852 126.848C40.4852 127.443 40.4652 128.039 40.4452 128.625L40.4152 129.963C40.4152 130.275 40.4152 130.578 40.4152 130.891V131.594C40.4052 131.975 40.6352 132.268 41.0252 132.365L41.2052 132.414C41.4852 132.492 41.7852 132.561 42.0952 132.57C42.4052 132.57 42.7152 132.629 43.0552 132.727C44.0852 133.02 45.0652 133.166 46.0352 133.166C46.1852 133.166 46.3252 133.166 46.4752 133.166L46.9852 133.147C47.5252 133.127 48.0752 133.117 48.6252 133.01C48.9152 132.951 49.3352 132.834 49.4952 132.473C49.6552 132.111 49.4652 131.731 49.3052 131.467C49.0952 131.135 48.7752 130.979 48.5552 130.891L48.3552 130.813C48.0052 130.686 47.6552 130.549 47.3252 130.383C46.7352 130.09 46.1852 129.846 45.6252 129.65C45.3252 129.546 45.1952 129.338 45.2352 129.025C45.3052 128.42 45.3952 127.814 45.4952 127.219C45.5152 127.072 45.5652 126.809 45.5852 126.76C45.6352 126.73 45.8852 126.711 46.0852 126.701C46.1352 126.701 46.1852 126.701 46.2352 126.701L47.0252 126.662C47.4652 126.643 47.8952 126.623 48.3952 126.603C48.6052 126.603 48.9852 126.584 49.1752 126.242L49.2352 126.135C49.3752 125.9 49.5752 125.578 49.4652 125.187C49.3152 124.65 49.2352 124.084 49.1452 123.537C49.0952 123.234 49.0552 122.941 48.9952 122.639L48.8252 121.721C48.6452 120.793 48.4652 119.826 48.3352 118.879C48.2552 118.312 48.1452 117.746 48.0252 117.18C47.9552 116.808 47.8752 116.447 47.8152 116.076C47.6652 115.187 47.4752 114.299 47.2852 113.42C47.2252 113.137 47.1652 112.853 47.1152 112.56C47.0152 112.072 46.9252 111.594 46.8052 111.115C46.6352 110.451 46.5052 109.758 46.3852 109.084C46.3052 108.674 46.2352 108.273 46.1552 107.863C46.0652 107.414 45.9852 106.955 45.9152 106.496C45.8252 105.949 45.7352 105.402 45.6152 104.855C45.2752 103.341 45.0152 101.828 44.7852 100.422L44.6852 99.7867C44.5552 98.9078 44.4152 98.0094 44.1452 97.1207C44.0519 96.8017 44.0585 96.4827 44.1652 96.1636L44.2152 96.0269C44.2552 95.8902 44.3052 95.7632 44.3552 95.6265L44.4052 95.5093C44.4352 95.441 44.4552 95.3726 44.4852 95.3043C44.5552 95.1382 44.6252 94.9722 44.6652 94.7867L44.7552 94.3277C44.9352 93.439 45.1252 92.521 45.1452 91.5737C45.1452 91.4077 45.1652 91.2515 45.1852 91.0562C45.4452 91.0269 45.6652 90.939 45.8652 90.8608C45.9352 90.8315 46.0152 90.8022 46.0852 90.7827C46.4452 90.6655 46.8052 90.5483 47.1652 90.4311C48.2852 90.0698 49.4452 89.6987 50.5552 89.2104L50.8052 89.103C51.6852 88.7124 52.5952 88.3022 53.4652 87.7456C53.6752 87.6088 53.8952 87.4623 54.0652 87.2182C54.5352 86.9838 54.8252 86.5932 55.0752 86.2416L55.1952 86.0756C55.3952 85.8119 55.4952 85.5287 55.5052 85.2065C55.5652 85.1186 55.6152 84.9916 55.6152 84.8256V84.4838C55.6152 83.6537 55.6252 82.8139 55.6252 81.9838C55.6252 81.8666 55.6052 81.7592 55.5652 81.5736C55.3852 80.5873 54.9152 79.6986 54.1352 78.8392C53.6552 78.3118 53.1152 77.7943 52.5052 77.2669C51.9552 76.7884 51.2152 76.1829 50.3352 75.7044C50.0352 75.5384 49.7352 75.3626 49.4352 75.1868C49.0952 74.9915 48.7452 74.7864 48.3952 74.6009C47.4852 74.1028 46.3852 73.5559 45.1652 73.1946C45.0752 73.1653 44.9852 73.136 44.9052 73.1067C44.7052 73.0383 44.4952 72.97 44.2852 72.9309C43.5752 72.8137 42.9152 72.6282 42.2752 72.3645C42.1952 71.8762 42.0252 71.4074 41.8552 70.9582L41.7252 70.5969C41.5852 70.2063 41.3752 69.8645 41.1652 69.5324C41.0952 69.4152 41.0152 69.298 40.9452 69.1809C41.2752 69.0441 41.5552 68.8488 41.8152 68.6633C42.2452 68.3508 42.3152 67.9992 42.3052 67.7551V67.6476C42.2852 67.3644 42.2752 67.0617 42.1752 66.7589C42.0452 66.3488 41.7452 66.0851 41.3552 66.0461L41.1652 66.0265C40.3452 65.9484 39.4852 65.8605 38.6252 66.0753C38.4052 66.1339 38.0752 66.2316 37.8552 66.4757C37.6852 66.6711 37.4752 66.798 37.1852 66.8859C36.6852 67.0422 36.3652 67.423 36.2952 67.9797C36.2452 68.3801 36.2152 68.7414 36.2252 69.093C36.2252 69.1711 36.2152 69.2004 36.2152 69.2102C35.6052 69.425 35.4852 69.9914 35.4252 70.2649C35.3352 70.7043 35.2952 71.1633 35.3152 71.6223C35.3252 71.925 35.4352 72.1692 35.6552 72.3547C35.2752 72.4915 34.9052 72.6477 34.5352 72.804C34.2552 72.9211 33.9852 73.0383 33.7052 73.1458C33.3052 73.2922 32.9052 73.4485 32.5252 73.7122C31.8952 74.1516 31.1352 74.3079 30.0752 74.2005C29.3652 74.1321 28.9452 73.7708 28.7752 73.1067C28.3452 71.3489 28.3452 69.8156 28.7852 68.4094C28.7952 68.3703 28.7952 68.3312 28.7952 68.2824C28.8652 68.2238 28.9052 68.1457 28.9152 68.0578C28.9252 67.9797 28.9152 67.8918 28.9152 67.8137C28.9152 67.7844 28.8952 67.7453 28.8952 67.7453C28.9152 67.7453 28.9352 67.7453 28.9352 67.7453L29.7852 67.9015C31.1252 68.1359 32.5152 68.3898 33.8352 68.7902C34.1952 68.8976 34.5452 68.9269 34.8752 68.8781C35.0052 68.8586 35.1052 68.7805 35.1552 68.6633C35.3852 68.1555 35.3052 67.7258 34.9052 67.3156C34.7552 67.1691 34.6352 66.9836 34.5052 66.7785C34.4452 66.6808 34.3852 66.5929 34.3152 66.4953C33.6952 65.6261 33.1352 64.6886 32.6052 63.7706L32.1152 62.9405C31.8352 62.4718 31.8952 62.3448 32.2752 62.0812C32.8752 61.6515 33.1152 61.0557 33.0152 60.2452C32.9952 60.1182 32.9552 59.7471 32.5752 59.5518V59.5128C32.5952 59.4444 32.6052 59.376 32.6052 59.3174C32.6852 58.3409 32.1552 57.6084 31.1952 57.3545C30.8852 57.2764 30.5552 57.2471 30.1152 57.2373C30.0652 57.0225 29.9652 56.8369 29.8852 56.6612C29.8052 56.4951 29.7252 56.3389 29.6952 56.1826L29.6752 56.0362C29.6452 55.8506 29.6152 55.6651 29.5852 55.4795L29.4452 54.7471C29.3752 54.3662 29.3052 53.9853 29.2352 53.6045C29.2252 53.5264 29.2252 53.4287 29.2352 53.2529L29.2552 52.6181C29.2752 51.915 29.2952 51.2021 29.3252 50.499C29.3352 50.2548 29.3652 50.0107 29.4052 49.7763C29.4652 49.8251 29.5452 49.874 29.6352 49.913C29.8452 49.9814 30.0352 50.0693 30.2252 50.1572C30.4452 50.2548 30.6552 50.3623 30.8852 50.4404C31.7352 50.7236 32.4552 51.29 33.0052 52.1299C33.0452 52.1884 33.1752 52.3056 33.2452 52.3349C33.2452 52.4033 33.2652 52.4814 33.2952 52.54L33.4152 52.7158C33.4852 52.8232 33.5652 52.9404 33.6252 53.0576C34.1452 54.0928 34.6552 55.1377 35.1752 56.1729L35.6252 57.0909C35.7752 57.4131 35.9252 57.7256 36.0952 58.0381C36.6052 58.9463 36.9852 59.9327 37.3552 60.8897C37.4752 61.212 37.6052 61.5245 37.7352 61.8468C37.7652 61.9151 37.7852 61.9933 37.8052 62.0714C37.8452 62.2081 37.8852 62.3448 37.9852 62.5304C38.1552 62.8722 38.3252 63.2042 38.4852 63.546C38.6352 63.8781 38.7852 64.2394 38.7952 64.63C38.7952 64.8742 38.8552 65.1183 38.9552 65.3624C39.0452 65.5968 39.3052 65.8117 39.7652 65.7238C40.0252 65.6652 40.2152 65.4699 40.2452 65.2062L40.2952 64.7863C40.3352 64.4933 40.3752 64.2101 40.3852 63.9171C40.4352 62.9405 40.4752 61.9737 40.5052 60.9972C40.5052 60.8409 40.5052 60.6749 40.4852 60.5186C40.4752 60.3526 40.4552 60.1964 40.4752 60.0303C40.5452 59.3858 40.5252 58.7413 40.5152 58.126V57.5987C40.4952 56.6026 40.5952 55.6358 40.8052 54.7275L40.9352 54.1221C41.1052 53.3213 41.2652 52.5693 41.5752 51.8466C41.7152 51.5146 41.7952 51.1728 41.8652 50.8408C41.8952 50.7041 41.9252 50.5673 41.9652 50.4306C42.2452 49.3564 42.6952 48.4775 43.3352 47.745C43.3952 47.6767 43.4552 47.5888 43.5052 47.5107C43.5352 47.4716 43.5652 47.4228 43.5952 47.3837L43.9052 46.9931C44.2852 46.5048 44.6452 46.0458 45.0952 45.6552C45.7452 45.0887 46.5252 44.5809 47.5452 44.0536C47.8352 43.9071 48.1052 43.7508 48.3852 43.5848C48.5852 43.4676 48.7952 43.3504 49.0052 43.2332C49.1852 43.1356 49.3652 43.0282 49.5452 42.911L49.7652 42.7743C50.8952 42.1004 52.0752 41.5633 53.2852 41.0262C53.6352 40.8699 53.9952 40.6942 54.3652 40.3524C54.4952 40.2352 54.7752 40.0008 54.6452 39.5613C54.5852 39.3465 54.4952 39.0144 54.1452 38.8191C54.0652 38.7801 53.9852 38.7312 53.9052 38.7019L53.7552 38.6433C53.5952 38.575 53.4252 38.5066 53.2552 38.4578C52.8452 38.3406 52.4352 38.2234 52.0252 38.116C51.4152 37.95 50.8052 37.7742 50.1952 37.5984C49.6352 37.4324 49.0452 37.2371 48.5452 36.8562C48.3252 36.6902 48.2852 36.5437 48.2952 36.3777C48.3152 35.9089 48.3552 35.4011 48.5452 34.9714C48.9052 34.1218 49.4352 33.3894 50.1052 32.7937C50.7452 32.2273 51.4552 31.7097 52.0652 31.2897C52.4152 31.0456 52.7652 30.7819 53.1152 30.528C53.8852 29.9616 54.6752 29.3659 55.5352 28.9069C55.6752 28.8288 56.1152 28.5944 56.0252 28.0866C55.9552 27.6862 55.5652 27.3053 55.1552 27.2662C54.9952 27.2467 54.8252 27.2662 54.6752 27.2858C54.2852 27.3639 53.8852 27.3737 53.5252 27.3737H49.0152C48.0352 27.3737 47.0752 27.0807 45.8952 26.4362C45.7952 26.3776 45.7452 26.319 45.7352 26.1627V26.0553C45.7152 25.567 45.6952 25.108 45.8352 24.6686C45.9652 24.2486 46.0852 23.7896 46.2152 23.1939C46.3352 22.6568 46.4752 22.1295 46.6152 21.6021C46.7052 21.2701 46.7952 20.9283 46.8852 20.5767C47.0852 19.7857 47.2852 18.9751 47.6452 18.2427C47.8352 17.8618 47.9852 17.4614 48.1452 17.0513C48.2352 16.8267 48.3152 16.602 48.4152 16.3774C48.4852 16.2016 48.5752 15.9575 48.5652 15.6841C48.5652 15.3911 48.5052 14.9712 48.1852 14.727C47.8652 14.4731 47.4452 14.5219 47.1552 14.561C47.1152 14.561 47.0752 14.5805 46.9952 14.6001L44.4252 15.2153C43.7552 15.3716 43.0952 15.5278 42.4252 15.6938C41.7452 15.8598 41.1052 16.0942 40.4052 16.3579C39.3452 16.7485 38.5252 16.8853 37.7352 16.8169C37.4152 16.7876 37.0852 16.7876 36.6752 16.7974C36.1852 16.8169 35.6752 16.7583 35.0952 16.6411C34.2852 16.4751 33.6752 16.2016 33.1752 15.7817C32.7752 15.4399 32.3752 15.0395 31.9052 14.5024C30.7652 13.1938 29.8952 11.934 29.2452 10.6449C29.1452 10.4399 29.0352 10.2836 28.9252 10.1566C28.6352 9.82461 28.3552 9.77578 28.1652 9.80508C27.9752 9.83438 27.7152 9.9418 27.5252 10.352C27.3852 10.6547 27.2852 10.9574 27.1952 11.2602C27.1252 11.4946 27.0552 11.7289 26.9852 11.9731C26.8652 12.393 26.7452 12.8032 26.5852 13.2036C25.9452 14.8344 25.0052 16.0552 23.6952 16.9243C23.0752 17.3345 22.4052 17.647 21.6452 17.9888C20.8452 18.3501 19.9552 18.5064 18.9152 18.5259C18.4052 18.5259 17.8952 18.5259 17.3852 18.5259C16.7852 18.5259 16.1852 18.5357 15.5752 18.5259C14.1152 18.5161 12.8952 18.438 11.7152 18.0962C11.4652 18.0278 11.2152 18.0083 10.9752 17.9985H10.8452C10.6852 17.979 10.4552 17.9888 10.2352 18.1646C9.9152 18.4282 9.6352 19.3072 9.9252 19.6978C10.0152 19.815 10.0652 19.9517 10.1152 20.1177C10.1552 20.2349 10.1952 20.3619 10.2552 20.479C10.8352 21.6998 11.0252 22.9498 10.8152 24.2096C10.6752 25.069 10.4252 25.5865 9.94519 25.9674C8.87519 26.8366 7.6752 27.4909 6.3552 27.9108C5.3252 28.2428 4.24519 28.4479 3.19519 28.6432L2.7352 28.7311C2.2952 28.8092 1.86518 28.9167 1.43518 29.0241L0.825198 29.1706C0.475198 29.2487 0.325198 29.4635 0.185198 29.6491C0.0451984 29.8444 0.0651966 30.0495 0.105197 30.2057C-0.0048034 30.3229 -0.034801 30.4889 0.045199 30.6257L0.125186 30.7038ZM24.4152 126.721C24.4152 126.721 24.4752 126.682 24.5352 126.691C24.5652 126.691 24.5952 126.701 24.6152 126.711L24.5052 126.77L24.4052 126.73C24.4052 126.73 24.4052 126.73 24.4052 126.721H24.4152ZM24.7552 126.867C24.7552 126.867 24.7052 126.926 24.6752 126.945C24.5952 126.975 24.5352 126.955 24.4852 126.926L24.7652 126.867H24.7552ZM24.7552 126.857L24.6452 126.818H24.7552C24.7552 126.818 24.7552 126.828 24.7552 126.848C24.7552 126.848 24.7552 126.857 24.7552 126.867V126.857ZM45.6652 114.885L45.4952 114.982C45.4952 114.963 45.4952 114.953 45.4952 114.933L45.6652 114.885ZM22.0752 66.4367C21.7152 66.4367 21.3452 66.4269 20.9552 66.5539C20.7452 66.6222 20.5452 66.7004 20.3452 66.7785C20.1652 66.8468 19.9852 66.925 19.8052 66.9836C19.5652 67.0617 19.3952 67.2179 19.2652 67.3351C19.2452 67.3547 19.2152 67.3742 19.1952 67.4035C19.0752 67.2668 18.9552 67.1398 18.8252 67.0129L18.6752 66.8468C18.2152 66.3683 17.6552 66.0851 16.9952 66.0168L16.8652 65.9972C16.3152 65.9289 15.7552 65.8703 15.1852 65.8703C14.7652 65.8703 14.3552 65.9093 13.9352 65.9972C13.8852 66.007 13.8352 66.007 13.7052 66.0168C12.5552 66.0949 11.6652 66.3195 10.8952 66.7199C10.8952 66.6418 10.8852 66.5734 10.8752 66.505C10.8752 66.4269 10.8552 66.3488 10.8552 66.2804C10.8952 65.7531 10.7452 65.2941 10.6052 64.9523C9.9652 63.3605 9.13521 61.9249 8.14521 60.6749C7.88521 60.3526 7.5452 60.0303 7.1352 59.7276C6.7852 59.4639 6.3252 59.3077 5.8552 59.2784C5.5152 59.1807 5.19519 59.2003 4.87519 59.2003C4.72519 59.2003 4.5752 59.21 4.4252 59.2003H4.36521C4.88521 58.7315 5.21519 58.1651 5.44519 57.7061C5.60519 57.3936 5.79519 57.0909 5.97519 56.7881L6.0752 56.6221C6.3952 56.1143 6.72518 55.499 6.83518 54.7861C6.83518 54.7568 6.84518 54.6982 6.83518 54.7178C7.24518 54.2881 7.3452 53.7607 7.4252 53.3017C7.4452 53.1748 7.47519 53.0381 7.50519 52.9111C7.62519 52.4228 7.4952 51.9638 7.3852 51.5537L7.34519 51.4072C7.29519 51.2216 7.23519 51.0459 7.16519 50.8701V50.8505C7.24519 50.7822 7.37519 50.7529 7.59519 50.7529C8.19519 50.7626 8.7852 50.7529 9.3852 50.7431H9.9252C10.9252 50.7138 11.7752 50.6162 12.5352 50.4208C13.5552 50.1572 14.6252 49.8154 15.5252 49.0634C15.8552 48.79 16.2352 48.4091 16.3752 47.8427L16.4852 47.9306C17.0952 48.4482 17.7252 48.9853 18.5252 49.3368C19.1352 49.874 19.8552 49.8837 20.5052 49.874C21.4152 49.874 22.3152 49.7861 23.0852 49.6982C23.5652 49.6493 24.0452 49.5712 24.5252 49.5029C25.2952 49.3857 26.0852 49.2685 26.8752 49.2392C27.0352 49.2392 27.1752 49.1904 27.2952 49.1611C27.3452 49.1513 27.3952 49.1318 27.4452 49.122C27.6152 49.0829 27.7752 49.0829 27.9152 49.122C27.9452 49.122 27.9752 49.1415 27.9952 49.1415C27.9952 49.1708 27.9752 49.2001 27.9652 49.249C27.7752 49.8154 27.6952 50.2841 27.7252 50.7626C27.7452 51.1337 27.7252 51.5048 27.7252 51.8662C27.7152 52.1787 27.7052 52.4814 27.7052 52.7939C27.7052 53.2529 27.7552 53.7412 27.8452 54.2588C27.9752 55.04 28.1152 55.8213 28.2552 56.6026L28.4052 57.4717C27.8452 57.5791 27.3552 57.7842 26.9252 58.1065C26.6552 58.3116 26.3252 58.5948 26.1852 59.0733C26.0752 59.4444 25.9552 59.8155 25.8452 60.1866C25.7452 60.5186 25.6352 60.8409 25.5452 61.1729C25.5452 61.1729 25.5452 61.2022 25.5252 61.2218C24.7252 61.339 24.2552 61.8956 23.9252 62.3741C23.1952 63.4386 22.7452 64.3663 22.5052 65.2941C22.4252 65.5968 22.3152 65.8898 22.2152 66.1925C22.1852 66.2804 22.1552 66.3683 22.1252 66.4562L22.0752 66.4367ZM17.9252 46.5634C18.8152 46.622 19.7152 46.7392 20.6052 47.0126C21.1452 47.1786 21.7152 47.2665 22.2652 47.3642L22.7052 47.4423C23.0952 47.5107 23.4752 47.6181 23.8752 47.7353C23.5552 47.7841 23.2252 47.8232 22.8852 47.8525C22.6452 47.8817 22.3952 47.9013 22.0752 47.9501C21.8452 47.9794 21.6152 48.0087 21.4152 47.9696C21.1552 47.9208 20.9352 47.9208 20.7352 47.9696C20.4452 48.0478 20.1352 47.9989 19.7552 47.8036C19.1152 47.4716 18.5352 47.0517 17.9252 46.5634ZM28.9352 107.912C28.9352 107.912 28.9552 107.961 28.9652 107.99C28.9552 108 28.9452 108.009 28.9252 108.019L28.6352 107.922H28.9352V107.912ZM28.2652 123.986H27.8852H28.2552H28.2652ZM27.6452 121.769L27.7352 121.857L27.6252 121.769H27.6452ZM27.4652 121.642C27.4652 121.642 27.4652 121.613 27.4652 121.603C27.4652 121.603 27.4652 121.603 27.4752 121.603L27.5852 121.711H27.5652L27.4652 121.652V121.642ZM31.2852 130.725C31.0852 130.764 30.8852 130.813 30.6752 130.852C30.2152 130.959 29.7852 131.057 29.3452 131.076C29.0852 131.086 28.8452 131.145 28.6052 131.193C28.3552 131.252 28.1152 131.311 27.8852 131.301C27.8152 131.301 27.7452 131.311 27.6852 131.35C27.6852 131.35 27.6452 131.379 27.6052 131.398C27.3252 131.408 27.0352 131.418 26.7552 131.418L27.3952 131.115C28.3552 130.676 28.9252 129.875 29.1352 128.684C29.2052 128.254 29.1952 127.814 29.1552 127.414C29.3252 127.414 29.4852 127.395 29.6552 127.375C30.0452 127.346 30.4052 127.316 30.7752 127.346C30.9752 127.365 31.1752 127.346 31.3852 127.307C31.3852 127.336 31.3852 127.365 31.3852 127.404C31.3652 127.98 31.4052 128.557 31.4452 129.104C31.4752 129.553 31.5052 129.992 31.5052 130.441C31.5052 130.666 31.4852 130.676 31.2752 130.715L31.2852 130.725ZM29.6952 118.898C29.6952 118.898 29.6552 118.889 29.6352 118.879C29.6352 118.849 29.6252 118.82 29.6252 118.791C29.6652 118.752 29.7052 118.723 29.7652 118.703C29.7952 118.703 29.8152 118.703 29.8452 118.703C29.8752 118.742 29.9052 118.781 29.9152 118.83C29.8252 118.898 29.7052 118.889 29.7052 118.889L29.6952 118.898ZM29.8752 123.146V123.107C29.8752 123.107 29.8852 123.137 29.8952 123.156L29.8752 123.146ZM29.6652 119.963C29.6652 119.963 29.7452 120.031 29.7752 120.07L29.6552 120.256L29.6752 120.119C29.6752 120.119 29.6552 120.139 29.6552 120.148C29.6352 120.168 29.5952 120.168 29.5552 120.187C29.5352 120.168 29.5052 120.148 29.4852 120.139C29.4852 120.119 29.4852 120.109 29.4852 120.09L29.4452 120.119L29.4952 120.09C29.4952 120.09 29.5052 120.06 29.5152 120.051C29.5152 120.031 29.5352 120.021 29.5552 120.012L29.5952 119.924C29.5952 119.924 29.6352 119.963 29.6552 119.992L29.6652 119.963ZM29.6652 123.156L29.7652 123.244V123.312C29.7652 123.312 29.6752 123.244 29.6652 123.156ZM29.7352 124.475L29.7152 124.504H29.6852C29.6852 124.504 29.7152 124.475 29.7252 124.475H29.7352ZM29.6652 123.156C29.6652 123.156 29.6652 123.146 29.6652 123.137V123.156ZM31.7052 123.371H31.7552V123.42C31.7552 123.42 31.7152 123.4 31.6952 123.381L31.7052 123.371ZM31.7452 123.185C31.8252 123.176 31.8652 123.244 31.8852 123.322L31.7452 123.185ZM32.4852 120.08L32.4952 120.099L32.4752 120.08H32.4852ZM32.6752 99.5133C32.6752 99.5133 32.6452 99.484 32.6452 99.4547H32.7152L32.6752 99.5133ZM32.7352 99.4156H32.6452C32.6452 99.4156 32.6852 99.3277 32.7252 99.318C32.7552 99.3082 32.7752 99.318 32.7952 99.3277L32.7452 99.4156H32.7352ZM32.8152 99.5035V99.4254H32.8352C32.8352 99.4547 32.8352 99.484 32.8152 99.5133V99.5035ZM33.6352 125.285L33.7152 125.236L33.7852 125.266C33.7352 125.285 33.6852 125.295 33.6352 125.275V125.285ZM33.7152 125.109C33.7152 125.109 33.7352 125.109 33.7452 125.109H33.7252H33.7152ZM35.3652 111.144L35.1852 111.037C35.1852 111.037 35.1852 110.978 35.2052 110.959L35.3652 111.144ZM36.5552 100.851C36.4752 100.91 36.3852 100.9 36.3552 100.783C36.3252 100.744 36.3252 100.695 36.3552 100.656C36.3552 100.636 36.3752 100.636 36.3852 100.617C36.4252 100.548 36.4852 100.519 36.5552 100.568C36.6652 100.636 36.6652 100.773 36.5552 100.851ZM37.5352 97.2281C37.5352 97.2281 37.4552 97.2965 37.4052 97.2965L37.5252 97.2086H37.5452C37.5452 97.2086 37.5452 97.2281 37.5352 97.2379V97.2281ZM37.5252 97.1793L37.3352 97.0816C37.4152 97.0816 37.4952 97.0914 37.5452 97.1304C37.5452 97.15 37.5652 97.1597 37.5552 97.1793H37.5252ZM38.3752 98.8883C38.3752 98.8883 38.3652 98.8883 38.3552 98.8883C38.3352 98.8883 38.3252 98.8688 38.3152 98.8492L38.3452 98.8297L38.3752 98.8492V98.8883ZM38.2852 98.7906L38.3252 98.8199V98.8492C38.3252 98.8492 38.2952 98.8102 38.2852 98.7906ZM38.2852 98.7906C38.2852 98.7906 38.3452 98.7223 38.3752 98.7223L38.2852 98.7906ZM38.7552 102.423C38.7552 102.423 38.7352 102.404 38.7352 102.384H38.7652V102.414H38.7552V102.423ZM38.7452 102.306C38.7452 102.306 38.7452 102.297 38.7652 102.287V102.316H38.7452V102.306ZM38.7752 102.443L38.9352 102.384C38.9052 102.453 38.8452 102.482 38.7752 102.443ZM38.9252 102.384L38.8752 102.365L38.7952 102.404L38.8652 102.355H38.8352L38.8852 102.267C38.9152 102.287 38.9152 102.345 38.9352 102.384H38.9252ZM39.1052 124.328C39.1052 124.328 39.1552 124.357 39.1752 124.367H39.1152L39.1052 124.328ZM39.1452 124.504V124.484H39.1952C39.1952 124.494 39.1652 124.504 39.1452 124.514V124.504ZM39.1952 124.475L39.1552 124.445L39.1952 124.465V124.475ZM39.4452 125.353C39.4452 125.353 39.4552 125.353 39.4652 125.353H39.4452ZM44.4052 117.697C44.4052 117.697 44.4352 117.726 44.4452 117.746H44.3952L44.4052 117.697L44.3752 117.736L44.3552 117.687C44.3552 117.687 44.3852 117.687 44.4052 117.687V117.697ZM44.6252 119.308L44.3752 119.279C44.3752 119.279 44.3752 119.269 44.3752 119.26L44.6152 119.318L44.6252 119.308ZM44.5252 130.9C44.8752 131.027 45.2052 131.174 45.5452 131.33L45.7652 131.428C45.8252 131.457 45.8752 131.477 45.9352 131.506C45.5252 131.516 45.1252 131.506 44.7352 131.457C44.5552 131.428 44.3752 131.389 44.1952 131.35L43.9752 131.301C43.8052 131.262 43.6252 131.223 43.4552 131.174C43.0652 131.076 42.6652 130.969 42.2352 130.93C42.2152 130.598 42.2152 130.256 42.2452 129.855C42.3052 129.006 42.3252 128.137 42.3052 127.209C42.3052 127.072 42.3152 126.945 42.3452 126.809H42.5852C42.9952 126.809 43.4052 126.809 43.8452 126.809C43.8152 127.043 43.7752 127.268 43.7352 127.502C43.6952 127.756 43.6452 128 43.6152 128.254C43.5652 128.566 43.5352 128.889 43.5152 129.201V129.328C43.4352 130.09 43.7852 130.637 44.5252 130.91V130.9ZM42.4652 102.336C42.4652 102.384 42.4652 102.453 42.4452 102.492V102.355L42.4652 102.336ZM42.7552 97.2281C42.7552 97.2281 42.7752 97.2086 42.7852 97.1988C42.7852 97.2086 42.7852 97.2281 42.7852 97.2379H42.7552V97.2281ZM43.8652 123.977C43.8652 123.977 43.7852 123.918 43.7652 123.85C43.7452 123.732 43.7952 123.684 43.9152 123.703C44.0652 123.732 44.1152 123.83 44.0152 123.928C43.9652 123.977 43.9152 123.986 43.8752 123.977L43.9152 123.703L43.8652 123.977ZM45.3052 84.1029C45.3052 83.8881 45.2952 83.6732 45.3052 83.4682C45.4852 83.4779 45.6552 83.517 45.8252 83.5561C45.8852 83.5658 45.9252 83.5756 45.9452 83.7025C45.9752 83.9174 45.9252 84.0736 45.7752 84.2006C45.6552 84.308 45.5052 84.3959 45.3152 84.474C45.3152 84.3471 45.3152 84.2299 45.3152 84.1029H45.3052ZM38.0652 69.9328C38.0952 69.8449 38.1452 69.7668 38.3852 69.718C38.5852 69.6789 38.7952 69.6887 39.0152 69.6887C39.1452 69.6887 39.2852 69.6887 39.4152 69.6887C39.4352 69.6887 39.4752 69.6887 39.5252 69.718C39.4952 69.718 39.4752 69.7375 39.4552 69.7473C39.3352 69.7863 39.2352 69.9328 39.2052 70.0695C39.1252 70.1379 39.0752 70.2356 39.0752 70.3332C39.0752 70.4211 39.0752 70.509 39.0752 70.6067C39.0752 70.6945 39.0752 70.7922 39.0752 70.8703H39.0552C38.9052 70.8703 38.6752 70.8703 38.4752 71.0168V70.9973C38.3852 71.0168 38.3052 71.0559 38.2552 71.1242C38.0452 71.3782 37.9052 71.6809 37.8452 72.052C37.8252 72.1399 37.8152 72.1887 37.8152 72.2082C37.7952 72.2082 37.7652 72.2082 37.7252 72.1887C37.6852 71.3977 37.8052 70.6457 38.0752 69.9426L38.0652 69.9328ZM38.5852 71.3293L38.4752 71.0071C38.4752 71.0071 38.5652 70.968 38.5752 70.968L38.5952 71.3293H38.5852ZM28.5852 63.966C28.4252 64.2296 28.2552 64.5031 28.1152 64.8058C27.7852 65.5871 27.5552 66.3195 27.4252 67.0324C27.3752 67.3058 27.2952 67.5695 27.2152 67.8332L27.1352 68.0969C26.9552 68.7023 26.7952 69.3566 26.8952 70.0695C26.9452 70.4211 26.9252 70.802 26.8952 71.2024C26.8452 72.1106 27.0052 73.0481 27.3952 74.093C27.4252 74.1809 27.4752 74.3079 27.5652 74.4153C28.0852 75.0013 28.6252 75.5481 29.4052 75.7434C30.5552 76.0364 31.5652 76.0266 32.4852 75.6946C32.8352 75.5677 33.1652 75.4016 33.4852 75.2356C33.6352 75.1575 33.7852 75.0794 33.9452 75.011C34.7652 74.6204 35.7052 74.1809 36.6852 73.9075C36.8852 73.8489 37.0452 73.8294 37.2252 73.8294C38.2052 73.8294 39.1752 73.8196 40.1552 73.8001H40.5052C40.6252 73.8001 40.7452 73.7903 40.8652 73.7805C41.0552 73.7708 41.2452 73.7708 41.4352 73.7512C41.6252 73.7317 41.6352 73.7415 41.6552 73.7708C41.8052 73.9563 42.0552 73.9661 42.1352 73.9661C42.6052 73.9856 43.0552 74.1321 43.5352 74.2786L43.9452 74.4055C44.8952 74.6887 46.0052 75.0305 47.0452 75.4993L47.1752 75.5579C47.2352 75.5872 47.2952 75.6067 47.3452 75.636C47.6952 75.8313 48.0552 76.0266 48.4152 76.2122C49.2252 76.6419 50.0752 77.0911 50.8352 77.5989C51.9152 78.3118 52.8152 79.2201 53.5052 80.2748L53.6052 80.431C53.8552 80.8021 54.0852 81.1439 54.2052 81.5443C54.2752 81.7689 54.3252 81.9545 54.3252 82.1302V82.4818C54.3252 82.9994 54.3152 83.517 54.2752 84.0248C54.2452 84.4838 54.0652 84.8744 53.7052 85.2553C52.7152 86.3295 51.6052 87.0717 50.3052 87.5307C49.8652 87.687 49.4452 87.8823 49.0352 88.0776C48.8552 88.1655 48.6752 88.2436 48.4952 88.3315C48.4552 88.351 48.4152 88.3706 48.3252 88.4194C47.7352 88.5171 47.1852 88.7319 46.6552 88.9272C46.4152 89.0151 46.1752 89.1128 45.9252 89.1909C45.7352 89.2592 45.5252 89.2885 45.2952 89.3081V86.2026C45.9952 86.0561 46.6052 85.7045 47.2352 85.099C47.6152 84.7279 47.7952 84.1811 47.7352 83.6146C47.6752 83.0482 47.3752 82.5697 46.9352 82.2865C46.7552 82.1791 46.5352 82.101 46.2552 82.0521C45.9552 82.0033 45.6452 81.9642 45.3452 81.9252L44.9052 81.8666C44.9052 81.8666 44.7752 81.847 44.7552 81.847C44.4352 81.8275 44.0852 81.8568 43.8452 82.0912C43.6052 82.3256 43.5752 82.6674 43.5852 82.9994C43.6152 84.5717 43.6352 86.144 43.6552 87.7163C43.6552 88.1948 43.6552 88.6733 43.6452 89.1518V89.8061C43.5252 90.2944 43.5152 90.7827 43.5052 91.2515C43.5052 91.6519 43.4852 92.0327 43.4152 92.4038C43.3752 92.5991 43.3452 92.8042 43.3052 93.0093C43.1852 93.732 43.0652 94.4156 42.7452 95.0503C42.6652 95.2164 42.6052 95.4019 42.5552 95.5777C42.5352 95.6656 42.5052 95.7437 42.4752 95.8218C42.4452 95.9097 42.4352 95.9097 42.3552 95.9097C41.2352 95.8902 40.1252 95.8707 39.0052 95.8707C38.8652 95.8707 38.7352 95.8707 38.5952 95.8707C38.2552 95.8707 37.9252 95.8707 37.5852 95.8707C36.8952 95.8707 36.2052 95.8707 35.5252 95.8707H35.3452C34.4852 95.8511 33.5952 95.8414 32.7452 95.7339C32.4252 95.6949 32.1052 95.6753 31.7852 95.6558C31.4952 95.6363 31.2152 95.6265 30.9252 95.5875C30.6852 95.5582 30.5652 95.4703 30.4852 95.2554C30.3952 95.0113 30.3152 94.7671 30.2452 94.5132L30.1952 94.3277C30.3952 93.9566 30.2752 93.605 30.1952 93.3609C30.1752 93.3023 30.1552 93.2437 30.1452 93.1949C30.0752 92.9019 30.0352 92.6089 30.0452 92.3062C30.0452 91.8765 29.9852 91.4761 29.9052 91.105C29.7752 90.4507 29.6552 89.7964 29.5352 89.1421C29.4552 88.7026 29.3752 88.2631 29.2952 87.8237C29.1952 87.3061 29.0852 86.7885 28.9452 86.2807C28.8852 86.0658 28.8652 85.8705 28.8652 85.6752C28.8652 85.0307 28.8652 84.3959 28.8652 83.7514C28.8652 82.4232 28.3652 81.3197 27.3852 80.4701L26.4652 79.6693C26.0352 79.2982 25.5952 78.9173 25.1652 78.5365C24.9952 78.39 24.8452 78.224 24.6952 78.0579L24.4852 77.8235C23.8852 77.1497 23.3052 76.5052 22.8752 75.7532C22.8352 75.6751 22.7752 75.5677 22.6652 75.4895C22.3052 75.1966 22.2352 74.8059 22.2452 74.2298C22.2452 73.8782 22.2452 73.5266 22.2452 73.1751C22.2452 72.0618 22.2452 70.9192 22.3952 69.7961C22.4552 69.3078 22.5652 68.8195 22.6752 68.3703C22.7252 68.1847 22.7852 67.9699 22.9152 67.8137C23.1152 67.5793 23.1652 67.3449 23.0452 67.0715C23.0452 67.0422 23.0652 66.9933 23.0752 66.9738L23.1152 66.8664C23.4452 65.8312 23.9552 64.8839 24.6352 64.0441L24.7352 63.9269C24.9252 63.6925 25.1152 63.4679 25.2752 63.214C25.4252 62.9698 25.6352 62.8429 25.9552 62.8038C26.2752 62.755 26.5652 62.7648 26.8252 62.8233C27.6252 63.0089 28.2652 63.214 28.8352 63.4777C28.7552 63.6339 28.6552 63.7804 28.5652 63.9269L28.5852 63.966ZM32.1552 66.4171L29.5452 65.9289V65.9093C29.7452 65.4015 30.0252 64.9035 30.4052 64.3859C30.5152 64.2394 30.6352 64.0636 30.6952 63.8683C30.6952 63.8781 30.7052 63.8976 30.7152 63.9073L30.8052 64.1222C31.1752 64.9816 31.6152 65.7336 32.1552 66.4074V66.4171ZM29.7752 58.7803H29.8952L30.0852 58.7901C30.2752 58.8194 30.4852 58.8389 30.6852 58.8682C30.7652 58.8682 30.8452 58.9073 30.9452 59.0538C31.0652 59.2198 31.0352 59.2589 30.9452 59.3565C30.8352 59.4737 30.7652 59.5909 30.7052 59.6983C30.6652 59.7667 30.6252 59.835 30.5752 59.8936C30.4352 60.0499 30.3952 60.2452 30.4452 60.4307C30.5052 60.6163 30.6552 60.7628 30.8652 60.8116C30.9952 60.8507 31.1252 60.88 31.2652 60.8995C31.2852 60.8995 31.3052 60.8995 31.3252 60.9093C31.2752 60.9581 31.2152 61.0069 31.1652 61.046C30.9452 61.2022 30.7152 61.3487 30.4952 61.4952C30.2352 61.6612 29.9852 61.837 29.7352 62.0128C29.6552 62.0714 29.6152 62.0909 29.4452 62.0128C28.6952 61.6612 27.9052 61.4073 27.0852 61.2511C27.1052 61.1143 27.1452 60.9874 27.1852 60.8507C27.2852 60.5772 27.3552 60.3038 27.4352 60.0303L27.5352 59.6788C27.6452 59.2979 27.8652 59.0928 28.2552 58.9952C28.7352 58.8682 29.2552 58.8292 29.7952 58.7706L29.7752 58.7803ZM4.87519 30.1276C5.14519 30.069 5.42519 30.0007 5.69519 29.9421C7.09519 29.6491 8.41519 29.112 9.62519 28.36C10.2652 27.9596 11.0152 27.4518 11.6552 26.7389C12.1652 26.1725 12.3652 25.5084 12.5152 24.9322C12.7752 23.9264 12.7052 22.9107 12.6352 21.9244C12.6152 21.6119 12.4952 21.3189 12.3852 21.0455C12.3452 20.9478 12.3052 20.8501 12.2752 20.7525C12.2152 20.5669 12.1452 20.3814 12.0752 20.1958L12.0252 20.0494L13.0652 20.2251C13.5852 20.313 14.1452 20.3423 14.8752 20.3326C16.1352 20.313 17.1852 20.3033 18.2652 20.3423C19.8452 20.4009 21.3852 20.0787 22.8652 19.3853C23.7052 18.9947 24.7852 18.438 25.6952 17.5982C25.9752 17.3442 26.2552 17.0806 26.4852 16.7974C27.5052 15.5376 28.1752 14.268 28.5652 12.8715C28.6152 12.9497 28.6552 13.0375 28.7052 13.1254C28.8252 13.35 28.9552 13.5747 29.1252 13.7895C29.3552 14.0727 29.5652 14.3559 29.7852 14.6391L30.0752 15.02C30.0752 15.02 30.1252 15.0981 30.1552 15.1469C30.2052 15.2348 30.2752 15.352 30.3752 15.4497C30.4152 15.5083 30.4652 15.5571 30.5352 15.6352L30.9552 16.0649C31.2752 16.397 31.6052 16.729 31.9252 17.0513C32.5252 17.6567 33.2652 18.0669 34.1452 18.3013C34.9752 18.5161 35.8352 18.6333 36.6852 18.604C36.9052 18.604 37.1352 18.604 37.3552 18.604C37.6152 18.604 37.8752 18.604 38.1352 18.604C38.5352 18.604 38.9852 18.5845 39.4452 18.4478C40.1352 18.2525 40.8052 18.0571 41.4652 17.8228C42.0652 17.6079 42.6752 17.4517 43.3052 17.2954C44.0852 17.1001 44.8652 16.9145 45.6452 16.729L46.5452 16.5142C46.5452 16.5142 46.6352 16.4946 46.6852 16.4849C46.6452 16.5727 46.6052 16.6704 46.5752 16.7583L46.4352 17.0903C46.0152 18.0962 45.5752 19.1314 45.3152 20.2154C45.0152 21.4654 44.6952 22.7642 44.3152 24.0435C44.1252 24.6881 44.0452 25.4205 44.0652 26.3287C44.0852 27.2369 44.5252 27.8913 45.3452 28.2135C45.5252 28.2819 45.6952 28.36 45.8652 28.4381C46.0852 28.5358 46.3152 28.6335 46.5352 28.7213C47.2052 28.985 47.8952 29.1217 48.6352 29.1413C49.7452 29.1706 51.0352 29.1999 52.3452 29.151C52.1552 29.2878 51.9552 29.4245 51.7552 29.5612C51.0852 29.9909 50.4552 30.4889 49.8552 30.9675L49.2552 31.4362C48.4052 32.1003 47.7152 32.9987 47.2152 34.1218L47.1752 34.2195C47.1052 34.3855 47.0252 34.5515 46.9552 34.7175C46.6552 35.4597 46.5652 36.2214 46.6752 36.9832C46.7552 37.5398 47.0052 37.9597 47.4352 38.2918C47.9752 38.7117 48.4352 38.9559 48.9352 39.1023C49.8452 39.366 50.7452 39.6297 51.6452 39.8934C51.7152 39.9129 51.7852 39.9324 51.8552 39.952C50.6052 40.3719 49.5052 41.0555 48.4352 41.7098L48.2752 41.8075C47.7952 42.1004 47.2952 42.3836 46.7252 42.6668C45.7652 43.1454 44.8552 43.7508 44.0252 44.4735C43.7852 44.6786 43.5552 44.9227 43.3352 45.1864C43.1152 45.4501 42.9052 45.7138 42.7052 45.9774C42.5452 46.1825 42.3852 46.3876 42.2152 46.5829C41.2952 47.7157 40.6452 49.0243 40.2252 50.5869C40.0152 51.3974 39.7852 52.1396 39.5352 52.872C39.4652 53.0771 39.4252 53.2822 39.4252 53.4678C39.4252 53.5654 39.4052 53.6631 39.3652 53.79C39.1752 54.4248 39.0752 55.0693 38.9652 55.6944C38.9352 55.8994 38.8952 56.1143 38.8552 56.3877V59.7764C38.4252 58.751 37.9352 57.7549 37.4552 56.7784L36.8152 55.4502C36.5552 54.9033 36.2952 54.3564 36.0152 53.8291L35.7452 53.3115C35.3752 52.5986 35.0052 51.8662 34.5552 51.1728C33.8952 50.1376 33.0452 49.4052 32.0352 48.9853C31.2952 48.6825 30.5652 48.3603 29.8352 48.0478C29.1952 47.7646 28.5552 47.4911 27.9152 47.2177C26.1652 46.4852 24.2752 45.9286 22.1452 45.5282L22.0152 45.5087C21.6652 45.4403 21.3152 45.3817 20.9752 45.2841C20.1452 45.0399 19.2252 44.8934 18.1052 44.8153C17.8252 44.7958 17.5552 44.7762 17.2752 44.7469C16.5652 44.6883 15.8452 44.6298 15.1152 44.6298C15.0352 44.6298 14.9552 44.6298 14.8752 44.6298C14.4452 44.6298 14.0652 44.6102 13.7152 44.5516C13.3952 44.493 13.0652 44.4833 12.7852 44.4833L10.5952 44.4637C9.80519 44.4637 9.00518 44.454 8.21518 44.4442C7.28518 44.4247 6.57518 44.4735 5.90518 44.5907H5.8252C5.9052 44.4637 6.0052 44.3172 6.1052 44.1708C6.1652 44.0829 6.22519 43.995 6.28519 43.9071C6.30519 43.868 6.33521 43.8387 6.36521 43.7997C6.42521 43.7215 6.50518 43.6336 6.55518 43.5165C6.83518 42.9012 7.19518 42.3348 7.58518 41.7293C7.82518 41.3582 8.05518 40.9871 8.27518 40.5965C8.80518 39.6492 9.01519 38.6336 9.12519 37.8523C9.20519 37.2859 9.15519 36.6902 8.97519 36.075C8.82519 35.5769 8.51519 35.196 8.19519 34.864C7.02519 33.6335 5.6752 32.5007 4.0752 31.3972C3.6952 31.1335 3.3252 30.86 2.9552 30.5964L2.8852 30.5378C3.5552 30.4304 4.2152 30.2839 4.8552 30.1374L4.87519 30.1276Z" fill="black"/>
<path d="M82.2852 115.031H82.2952V115.021L82.2852 115.031Z" fill="black"/>
<path d="M53.6852 71.4365C53.2652 71.4072 52.9052 71.4268 52.5452 71.4756C52.2152 71.5244 51.9152 71.6123 51.5752 71.7295C51.2252 71.8467 50.9953 72.1006 50.9253 72.4619C50.9053 72.5694 50.8752 72.667 50.8452 72.7744C50.7552 73.0967 50.8053 73.3994 51.0153 73.6924C51.3053 74.0928 51.7153 74.3565 52.2353 74.4737C52.6553 74.5713 53.1052 74.6299 53.6652 74.669C53.8152 74.669 53.9452 74.6788 54.0552 74.6885C54.1752 74.6885 54.3052 74.6885 54.2952 74.6592C54.3152 74.7178 54.3452 74.8936 54.3752 75.0694L54.4152 75.3428C54.5852 76.3975 54.8352 76.7003 55.8252 77.0421C55.9152 77.0714 56.0152 77.0909 56.1052 77.1007L56.2152 77.1202C56.5852 77.2081 56.9652 77.3253 57.3752 77.4815C57.3752 77.5401 57.3753 77.5889 57.3953 77.6475L57.4152 77.794C57.4352 77.9698 57.4552 78.1456 57.5052 78.3214C57.6352 78.8194 57.8552 79.005 58.3752 79.0636C58.4552 79.0636 58.5452 79.0733 58.6252 79.0733C59.1052 79.0831 59.5852 79.171 60.0852 79.3273C60.6152 79.4933 61.1853 79.6105 61.7952 79.6691L62.1952 79.7081C63.0052 79.7862 63.8452 79.8741 64.6552 80.0109C65.3552 80.128 66.0553 80.2062 66.7653 80.2941L68.1753 80.4601C68.8353 80.5382 69.4852 80.6066 70.1352 80.7238C71.9652 81.0363 73.7652 81.3292 75.5952 81.3683H75.7452C75.8152 81.3683 75.9252 81.3683 75.9152 81.3976C75.9152 81.4757 75.9052 81.5636 75.9152 81.671C75.9452 81.8468 75.9953 82.0128 76.0452 82.1886C76.2052 82.7355 76.3652 83.2824 76.5352 83.8293C76.9852 85.3234 77.3852 86.8176 77.7252 88.341C78.1152 90.0989 78.5152 91.9251 79.1252 93.6731C79.2352 93.9954 79.2552 94.2884 79.1952 94.6009C79.0752 95.2259 78.9553 95.89 78.9553 96.5736C78.9553 98.4584 78.8552 100.372 78.7552 102.228C78.7252 102.824 78.6952 103.419 78.6552 104.064V104.201C78.4552 106.085 78.3652 107.658 78.3452 109.123C78.3452 109.933 78.3352 110.734 78.3552 111.544C78.3752 112.111 78.3952 112.677 78.4152 113.253C78.4652 114.484 78.5253 115.754 78.4853 116.994V117.345C78.4853 117.795 78.4852 118.224 78.3152 118.615C78.2652 118.742 78.2552 118.879 78.2552 118.966C78.2552 119.162 78.2553 119.357 78.2353 119.552C78.2153 120.021 78.1953 120.509 78.2653 120.998C78.4653 122.336 78.5252 123.361 78.4652 124.318C78.4552 124.552 78.4653 124.855 78.6453 125.109C78.7653 125.265 78.8152 125.402 78.8252 125.558C78.8452 125.822 78.9953 126.027 79.2952 126.174C79.8652 126.457 80.4552 126.467 80.9052 126.437C81.5252 126.408 82.1652 126.418 82.7852 126.427H83.2552C83.2052 127.492 82.9952 128.215 82.5652 128.83C82.2452 129.279 81.9952 129.689 81.7852 130.07L81.6052 130.412C81.2852 130.988 80.9653 131.584 80.7353 132.238C80.6053 132.619 80.5252 132.912 80.6652 133.156C80.8052 133.4 81.0652 133.449 81.3852 133.517L81.5952 133.556C81.5952 133.556 81.6853 133.566 81.7353 133.566C81.8253 133.566 81.9052 133.556 82.0052 133.537C82.5252 133.478 82.9852 133.273 83.4352 132.931C84.0552 132.463 84.4952 131.994 84.8452 131.428C84.8752 131.496 84.9152 131.554 84.9452 131.623C85.0252 131.769 85.1152 131.926 85.2452 132.062C85.4752 132.297 85.8053 132.394 86.1453 132.336C86.4653 132.277 86.7252 132.082 86.8352 131.818C87.1152 131.174 87.3953 130.48 87.4253 129.709C87.4453 129.269 87.4453 128.82 87.4553 128.381L87.4752 127.433C87.4852 126.935 87.5452 126.496 87.6652 126.086H89.2752C89.4852 126.086 89.6853 126.086 89.8953 126.086C89.8953 126.271 89.8852 126.467 89.8752 126.662C89.8752 127.209 89.8552 127.726 89.7252 128.224C89.4952 129.084 89.2353 129.914 88.6753 130.617C88.3453 131.027 88.1552 131.496 87.9752 131.945L87.9152 132.101C87.7952 132.385 87.9152 132.756 88.0952 133C88.2452 133.215 88.4453 133.342 88.6453 133.342H88.8052C89.1852 133.351 89.6552 133.361 90.0652 133.01C90.7652 132.414 91.3552 131.828 91.8852 131.183L92.3653 130.607C92.4353 130.676 92.4952 130.744 92.5552 130.822C92.7052 131.027 92.8853 131.164 93.0452 131.291L93.1952 131.408C93.3452 131.525 93.5152 131.574 93.6852 131.555C93.8052 131.535 93.9852 131.467 94.1252 131.242C94.2652 131.017 94.3352 130.773 94.3352 130.51V129.953C94.3352 129.709 94.3352 129.474 94.3352 129.23C94.3352 128.898 94.3352 128.566 94.3352 128.234C94.3552 127.541 94.3652 126.828 94.2653 126.086C94.6453 126.086 95.0252 126.105 95.4152 126.115L96.2452 126.135C96.4552 126.135 96.6752 126.135 96.8852 126.154C97.1052 126.164 97.4952 126.125 97.6952 125.627C97.7452 125.5 97.8052 125.295 97.8052 125.07C97.7852 124.035 97.6953 123.185 97.5452 122.394C97.4652 122.004 97.3852 121.623 97.3052 121.232C97.2252 120.851 97.1452 120.47 97.0652 120.099C97.0452 119.992 97.0352 119.875 97.0252 119.767L96.9553 118.976C96.9153 118.507 96.8752 118.048 96.8152 117.589C96.7752 117.238 96.7252 116.896 96.6652 116.545C96.6052 116.144 96.5452 115.744 96.5052 115.343C96.4052 114.435 96.2652 113.478 96.0752 112.443C95.8952 111.447 95.6852 110.46 95.4752 109.474C95.3052 108.654 95.1252 107.833 94.9652 107.013C94.7052 105.665 94.4652 104.308 94.2252 102.951C94.0152 101.769 93.8052 100.578 93.5752 99.3959C93.5452 99.2201 93.5252 99.0443 93.5153 98.8588C93.9453 98.8588 94.3552 98.8002 94.7452 98.7513C94.9252 98.722 95.1053 98.7025 95.2952 98.683C95.8252 98.6341 96.2652 98.4681 96.6252 98.1849C97.0052 97.9017 97.1352 97.5013 97.0352 97.0033C97.0052 96.847 96.9253 96.7103 96.8653 96.6322C96.8253 96.5736 96.7852 96.5247 96.6952 96.4271C97.1052 96.056 97.2052 95.5384 96.9652 95.0306C96.7552 94.5911 96.4353 94.3665 95.9853 94.347C96.3653 94.1907 96.7452 94.0149 97.0952 93.7708C97.5352 93.4681 97.9453 93.136 98.3653 92.8138L98.8852 92.4036C99.5652 91.886 100.125 91.2219 100.555 90.4504C100.965 89.718 101.365 88.927 101.525 88.0383C101.765 86.7004 101.875 85.5285 101.875 84.4347C101.875 84.1613 101.845 83.8879 101.785 83.5851C101.585 82.6085 101.255 81.6906 100.825 80.6261L100.735 80.4113C100.625 80.1183 100.505 79.8351 100.365 79.5519C99.2653 77.3839 97.3352 76.0948 95.5952 75.1182C95.4952 75.0694 95.3952 75.0206 95.2952 74.9717C94.1053 74.4834 93.0152 74.0635 91.8252 73.8877C91.6052 73.8584 91.3853 73.8096 91.1753 73.751C91.1553 73.7315 91.1252 73.6534 91.0952 73.6045C91.0552 73.4971 90.9952 73.3701 90.8852 73.253C90.7852 73.1358 90.6952 73.0186 90.5952 72.9014C90.5152 72.794 90.4252 72.6963 90.3452 72.5889C90.2152 72.4326 90.1252 72.3154 90.0952 72.1983C89.9752 71.6807 89.7652 71.2022 89.5752 70.7334C89.4852 70.5185 89.3952 70.3037 89.3052 70.0791C89.0452 69.4052 88.6952 68.8779 88.2252 68.4677C88.2052 68.4482 88.1753 68.4287 88.1453 68.4091C88.1053 68.3408 88.0553 68.292 87.9853 68.2627C87.9353 68.1845 87.8552 68.1259 87.7552 68.0966C87.6152 68.0673 87.4752 68.0966 87.3852 68.2041L87.2852 68.3115L86.6652 67.9013C86.6652 67.9013 86.5252 67.872 86.4752 67.8623C86.4052 67.7548 86.2852 67.7451 86.1652 67.6962C86.1652 67.6962 86.1652 67.6865 86.1552 67.6767V67.4423C86.1352 67.3154 86.0552 67.1982 85.9352 67.1396C85.7452 67.0419 85.5352 67.0419 85.3552 67.1005H85.2353C85.1153 67.081 85.0052 67.0712 84.8852 67.0712C84.4552 67.0712 84.0252 67.1201 83.5952 67.1689C83.3852 67.1884 83.1752 67.208 82.9652 67.2275C82.4652 67.2665 82.0553 67.3642 81.6453 67.7255C81.2953 68.0283 81.1352 68.3506 81.1352 68.7705C81.1352 69.2099 81.3052 69.5908 81.6352 69.8642C81.7352 69.9521 81.7652 69.9717 81.6552 70.1474C81.1452 70.958 80.9452 71.876 81.0352 72.8819C81.0352 72.9405 81.0352 72.9893 81.0352 73.0674C79.7352 73.0869 78.2253 73.0576 76.7353 72.8428C76.1953 72.7647 75.6452 72.7061 75.0952 72.6572L74.6252 72.6084C74.4352 72.5889 74.2552 72.5694 74.0652 72.5596C73.7952 72.5401 73.5252 72.5108 73.2552 72.4815C72.8952 72.4326 72.5452 72.3838 72.1852 72.3252C71.3752 72.208 70.5352 72.0811 69.6952 72.0322C69.1452 71.9932 68.5952 71.9346 68.0452 71.876L67.6252 71.8272C67.3052 71.7881 66.9653 71.749 66.6153 71.7783C66.2353 71.7979 65.9253 71.7783 65.6453 71.71C65.2753 71.6221 64.9052 71.583 64.5552 71.5342L63.5652 71.4072C62.9252 71.3193 62.2952 71.2314 61.6552 71.1631C61.3952 71.1338 61.1352 71.1045 60.8752 71.0654C60.1752 70.9775 59.4552 70.8799 58.7252 70.8994C58.5952 70.8994 58.4652 70.8994 58.3452 70.8799C58.1852 70.8701 58.0152 70.8603 57.8552 70.8603C57.2052 70.8799 56.9553 71.2314 56.8653 71.4951H56.0153C55.2553 71.4854 54.4753 71.4756 53.7053 71.4268L53.6852 71.4365ZM89.5552 131.916L89.2852 131.769C89.2852 131.769 89.3252 131.721 89.3352 131.691L89.5452 131.916H89.5552ZM93.8552 123.683C93.8552 123.683 93.8553 123.683 93.8653 123.683H93.8552ZM93.7053 123.83L93.7653 123.81L93.7053 123.898C93.7053 123.898 93.6853 123.879 93.6753 123.869C93.6753 123.859 93.6952 123.849 93.6952 123.83H93.7053ZM80.0652 121.838C80.0652 121.838 80.0452 121.838 80.0252 121.838C79.9852 121.838 79.9553 121.838 79.9253 121.818C79.9053 121.779 79.8953 121.74 79.9253 121.701C79.9253 121.701 79.9253 121.681 79.9253 121.672C79.9253 121.672 79.9453 121.652 79.9553 121.652C79.9653 121.652 80.0052 121.623 80.0652 121.623C80.0752 121.623 80.0952 121.623 80.1052 121.623C80.1052 121.642 80.1053 121.652 80.1153 121.672C80.1153 121.672 80.1452 121.701 80.1552 121.72C80.1552 121.72 80.1552 121.74 80.1652 121.75C80.1352 121.779 80.1152 121.808 80.0652 121.818V121.838ZM80.6352 94.7376L80.7152 94.6888C80.7152 94.6888 80.6552 94.7376 80.6252 94.7376H80.6352ZM80.6753 94.5911L80.6952 94.5814H80.6652L80.6753 94.5911ZM81.0952 121.769C81.0952 121.72 81.1152 121.672 81.1852 121.672C81.1852 121.672 81.2053 121.672 81.2053 121.681V121.759H81.0952V121.769ZM81.2452 121.916L81.3352 121.769C81.3352 121.857 81.3052 121.896 81.2452 121.916ZM81.3452 121.769H81.2353L81.2552 121.711L81.2152 121.769V121.691C81.2152 121.691 81.2352 121.701 81.2552 121.711C81.2852 121.73 81.3152 121.75 81.3352 121.769H81.3452ZM81.9253 103.331V103.419H81.9352L81.9152 103.331L81.8752 103.371L81.7353 103.224C81.7353 103.224 81.7652 103.195 81.7852 103.185C81.7952 103.185 81.8052 103.185 81.8252 103.185C81.8852 103.195 81.9452 103.205 81.9952 103.224C81.9952 103.234 81.9952 103.244 81.9952 103.263L81.9152 103.341L81.9253 103.331ZM82.3852 115.05C82.3852 115.05 82.3352 115.089 82.3052 115.089V115.031L82.1453 115.07L82.1952 115.031H82.1352C82.1352 115.031 82.1352 115.031 82.1352 115.021H82.2053L82.2852 114.962V114.914L82.3352 114.923L82.3752 114.894C82.3752 114.894 82.3953 114.982 82.3953 115.031C82.3953 115.031 82.3953 115.041 82.3953 115.05H82.3852ZM82.2653 114.836C82.2653 114.836 82.3052 114.836 82.3252 114.836H82.2653ZM82.3452 94.806C82.3452 94.806 82.3553 94.7669 82.3653 94.7474H82.3752L82.3653 94.7962H82.3452V94.806ZM82.3953 94.7864V94.7278H82.4052V94.7864H82.3953ZM82.4752 94.7571L82.4952 94.7181C82.4952 94.7181 82.5152 94.7278 82.5252 94.7376L82.4853 94.7571H82.4752ZM86.0552 126.291C86.0352 126.398 86.0052 126.506 86.0052 126.642C86.0052 127.463 85.9753 128.283 85.9553 129.103C85.9553 129.289 85.9453 129.455 85.9253 129.631C85.9153 129.592 85.9052 129.553 85.8852 129.513C85.7552 129.191 85.5453 129.074 85.3953 129.045C85.2453 129.015 85.0052 129.015 84.7252 129.269C84.2652 129.679 83.9152 130.168 83.6252 130.597L83.5552 130.705C83.3652 130.978 83.1952 131.232 82.9752 131.447C82.8352 131.584 82.7152 131.691 82.5852 131.779C82.9452 130.949 83.4452 130.178 83.9352 129.426L83.9952 129.328C84.3852 128.732 84.6052 128.088 84.6652 127.375C84.6852 127.092 84.7253 126.808 84.7653 126.515L84.7852 126.388C84.9652 126.369 85.1352 126.34 85.3052 126.31C85.5752 126.271 85.8252 126.232 86.0752 126.222C86.0752 126.242 86.0652 126.271 86.0552 126.301V126.291ZM84.5552 95.0794C84.5552 95.0794 84.5752 95.0013 84.5852 94.972C84.6252 94.972 84.6652 94.9525 84.6952 94.9427L84.7053 94.9622L84.6552 95.1282L84.5452 95.0696L84.5552 95.0794ZM84.9152 121.466C84.9152 121.437 84.9652 121.408 85.0352 121.398L85.0552 121.476C85.0552 121.476 84.9752 121.486 84.9152 121.476V121.466ZM85.6453 123.976H85.7452C85.7452 123.976 85.7452 124.015 85.7452 124.035L85.6552 124.006C85.6552 124.006 85.6552 123.986 85.6552 123.976H85.6453ZM88.1652 98.976H87.9452C87.9452 98.976 88.0352 98.9271 88.1252 98.9271C88.1452 98.9271 88.1553 98.9271 88.1753 98.9271V98.976H88.1652ZM88.1753 98.9271C88.1753 98.9271 88.2252 98.9564 88.2452 98.976H88.1652V98.9271H88.1753ZM88.1552 99.0638L88.1352 99.1615C88.1352 99.1615 88.1152 99.1615 88.0952 99.1615C88.0552 99.181 88.0152 99.142 88.0052 99.1224L88.1552 99.0541V99.0638ZM88.2152 117.541L88.1753 117.423H88.2252C88.2252 117.423 88.2252 117.502 88.2252 117.541H88.2152ZM88.1652 117.423L88.1052 117.257V117.599C88.1052 117.599 87.9852 117.521 87.9752 117.472C87.9452 117.375 88.0052 117.297 88.1052 117.257C88.2052 117.257 88.2152 117.326 88.2152 117.394C88.2152 117.394 88.2152 117.394 88.2152 117.404H88.1652V117.423ZM88.1352 99.1615L88.1552 99.0638L88.2752 99.015C88.2752 99.0638 88.2052 99.142 88.1352 99.1615ZM88.4152 97.9603C88.4152 97.9603 88.4053 97.9603 88.3953 97.9701C88.3853 97.9701 88.3652 97.9798 88.3552 97.9896C88.3252 97.9896 88.3053 97.9896 88.2653 97.9896C88.2253 97.9896 88.1852 97.9505 88.1552 97.9212C88.1352 97.9017 88.1153 97.8822 88.1153 97.8431C88.1153 97.8431 88.1153 97.8431 88.1153 97.8334C88.1153 97.7845 88.1353 97.7357 88.1753 97.6966C88.2153 97.6673 88.2652 97.6478 88.3152 97.6478C88.3152 97.6478 88.3452 97.6576 88.3352 97.6478C88.3952 97.6478 88.4353 97.6966 88.4553 97.7357C88.4553 97.765 88.4752 97.7943 88.4652 97.8334C88.4652 97.8822 88.4452 97.931 88.4152 97.9603ZM88.7252 100.158L88.7053 100.148L88.5952 100.226C88.5952 100.226 88.6152 100.167 88.6252 100.148C88.6452 100.148 88.6652 100.148 88.6852 100.138L88.6453 100.099L88.7053 100.128L88.7353 100.148H88.7152L88.7252 100.158ZM88.8552 100.275L88.7653 100.206L88.7752 100.187L88.8552 100.236C88.8552 100.236 88.8552 100.265 88.8552 100.285V100.275ZM89.2752 115.207C89.2752 115.207 89.2452 115.148 89.2452 115.119C89.2452 115.119 89.2452 115.119 89.2452 115.109L89.3052 115.216C89.3052 115.216 89.2852 115.216 89.2752 115.207ZM92.8452 128.898C92.5752 128.703 92.3353 128.683 92.1753 128.713C91.9953 128.742 91.7352 128.84 91.5252 129.181C91.2352 129.631 90.9052 130.051 90.5652 130.431C90.7852 129.982 90.9253 129.513 91.0452 129.064C91.2552 128.303 91.4452 127.394 91.3552 126.418C91.3552 126.32 91.3552 126.213 91.3552 126.115C91.3552 126.115 91.3552 126.115 91.3552 126.095C91.8152 126.095 92.2652 126.095 92.7252 126.095H92.7752C92.8152 126.457 92.8453 126.808 92.8653 127.16C92.8653 127.248 92.8653 127.336 92.8653 127.424C92.8653 127.59 92.8452 127.785 92.8852 127.97C92.8452 128.293 92.8452 128.595 92.8452 128.898ZM90.5852 95.9486C90.5852 95.9486 90.5852 95.929 90.5852 95.9193L90.6352 96.1244C90.6352 96.1244 90.5852 96.0072 90.5752 95.9486H90.5852ZM90.6352 96.1244L90.8052 95.9779C90.7952 96.056 90.6652 96.1634 90.6352 96.1244ZM91.1552 120.422L91.1352 120.334L91.0652 120.451H91.0352C91.0352 120.402 91.0652 120.353 91.1352 120.334C91.1752 120.353 91.2353 120.363 91.2353 120.392C91.2553 120.451 91.2352 120.49 91.1852 120.509V120.48L91.2353 120.392L91.1552 120.412V120.422ZM91.2852 83.3898C91.2652 83.2629 91.2552 83.1359 91.2452 82.9992C91.8752 83.3507 92.4252 83.8293 92.9052 84.4347C93.2552 84.884 93.2552 85.4016 93.2552 86.007V86.3195C93.2552 86.6906 93.1152 87.0324 92.7852 87.4231C92.3652 87.9309 91.9652 88.3703 91.4152 88.6243C91.3952 88.634 91.3752 88.6438 91.3452 88.6536C91.3452 88.4582 91.3352 88.2727 91.3452 88.0774C91.3452 87.8039 91.3452 87.5305 91.3452 87.257C91.3452 86.7492 91.3452 86.2707 91.3852 85.7824C91.4652 84.9621 91.3852 84.1418 91.2852 83.3703V83.3898ZM94.0852 97.3744L93.8352 97.4134C93.6152 97.4427 93.4253 97.4427 93.2353 97.4134L92.9052 96.1439C92.8852 96.0755 92.8652 96.0072 92.8452 95.9388C92.8152 95.8607 92.7952 95.7826 92.7752 95.7044C92.7552 95.5482 92.6852 95.4212 92.6352 95.3138C92.6352 95.2943 92.6152 95.2747 92.6052 95.265C92.7752 95.2259 92.9352 95.1868 93.0552 95.1282C93.2652 95.431 93.5252 95.6068 93.8052 95.7142C93.6252 95.7923 93.4652 95.8997 93.3452 96.0658C93.1552 96.3099 93.0952 96.5833 93.1852 96.8275C93.2752 97.0619 93.4853 97.2279 93.7653 97.2962C93.8853 97.3255 94.0152 97.3451 94.1352 97.3646H94.0752L94.0852 97.3744ZM85.9652 73.253V73.3408L85.9352 73.2725L85.9652 73.253ZM82.9853 71.0752C82.9853 71.0752 83.0152 71.0264 83.0252 71.0068L83.1252 70.7529C83.1852 70.6064 83.2353 70.4599 83.2653 70.4307C83.3053 70.4014 83.5053 70.3721 83.7053 70.3428L83.9652 70.3037C83.9652 70.3037 84.0452 70.2939 84.0652 70.2842C84.3452 70.2158 84.5453 70.2939 84.8653 70.5967C85.2153 70.9287 85.4853 71.2998 85.6753 71.71C85.6153 71.6611 85.5553 71.6221 85.4853 71.583C85.3953 71.5342 85.3052 71.4756 85.2152 71.417L85.0752 71.3291C85.0252 71.2998 84.9553 71.2803 84.8953 71.2705C84.6453 71.251 84.4453 71.251 84.2653 71.2705C84.2453 71.2314 84.2252 71.1924 84.1852 71.1631C84.1852 71.1631 84.1652 71.1436 84.1552 71.1436C84.0952 71.1045 84.0252 71.1045 83.9452 71.1143C83.9052 71.1143 83.8752 71.124 83.8352 71.1338C83.7352 71.1631 83.6252 71.2705 83.5852 71.3584C83.5652 71.4268 83.5852 71.4854 83.5952 71.5537C83.4252 71.7295 83.2853 71.9932 83.1153 72.3838L82.9452 72.7744C82.9052 72.8721 82.8952 72.9697 82.8752 73.1065C82.8552 73.1065 82.8252 73.1065 82.8052 73.1065C82.7352 73.1065 82.6752 73.1065 82.6052 73.1065C82.5752 73.1065 82.5453 73.1065 82.5153 73.1065C82.4953 72.2178 82.6352 71.6123 82.9952 71.085L82.9853 71.0752ZM84.8953 72.9014C84.8953 72.9502 84.8953 73.0088 84.8953 73.0576C84.8553 73.0576 84.8152 73.0576 84.7752 73.0576H84.6652H84.2353H84.1252C84.1852 72.9014 84.2752 72.7549 84.3752 72.5987L84.4253 72.5108C84.4753 72.4326 84.5152 72.4326 84.5652 72.4424C84.8252 72.501 84.8652 72.5791 84.8852 72.6475C84.8952 72.6865 84.8953 72.7647 84.8953 72.8135V72.9112V72.9014ZM58.7752 72.3643C59.7552 72.4131 60.7552 72.5401 61.7252 72.667L62.5052 72.7647C63.2352 72.8526 63.9552 72.96 64.6852 73.0674L65.6753 73.2041C65.7653 73.2139 65.8452 73.2237 65.9352 73.2237C66.4652 73.2237 66.9152 73.2627 67.3752 73.3506C67.8452 73.4483 68.3352 73.4776 68.8752 73.4971C69.7552 73.5459 70.6852 73.6534 71.7152 73.8194C72.3952 73.9366 73.0953 73.9952 73.7653 74.0635C74.2453 74.1123 74.7252 74.1514 75.1952 74.2198L75.5852 74.2686C75.8352 74.2979 76.0852 74.3272 76.3352 74.3662C77.1152 74.4932 77.8852 74.5323 78.4752 74.5518C80.1252 74.6104 82.0553 74.669 83.9553 74.5518C84.3053 74.5323 84.6652 74.542 85.0252 74.5518H85.1052C85.0052 75.3331 85.1553 76.0753 85.2952 76.8077C85.4152 77.4229 85.8452 77.9015 86.5552 78.1944C86.8152 78.3019 87.0953 78.3604 87.3953 78.3702C88.8253 78.419 89.9052 78.1847 91.1352 77.5694C91.6952 77.2862 92.0853 76.8663 92.2653 76.3292C92.3353 76.1339 92.4653 75.753 92.2353 75.421C93.4253 75.7237 94.7252 76.1631 95.8852 77.0128C96.0652 77.1495 96.2653 77.2667 96.4553 77.3936C96.6653 77.5206 96.8752 77.6573 97.0752 77.8038C97.5952 78.214 98.0652 78.7413 98.5652 79.4737C98.9052 79.9718 99.1252 80.5187 99.3552 81.0949L99.5352 81.5343C99.8752 82.3449 100.135 83.2043 100.315 84.1125C100.495 85.0305 100.565 85.9484 100.525 86.8566C100.505 87.2766 100.305 87.6672 100.095 88.0871L100.015 88.2434C99.8652 88.5461 99.6852 88.8489 99.5153 89.1516C99.4053 89.3371 99.2952 89.5325 99.1852 89.718C98.7152 90.5676 97.9952 91.1926 97.2852 91.7395L97.1652 91.8274C96.9352 92.0032 96.7053 92.179 96.4853 92.3645C96.0053 92.7454 95.4652 92.9798 94.7952 93.2435C93.8252 93.6243 92.7652 93.7708 91.8052 93.888C91.7952 93.6829 91.7652 93.4778 91.7452 93.2727C91.7152 92.9798 91.6753 92.6868 91.6753 92.3841C91.6753 91.9544 91.6053 91.5247 91.5452 91.1145C91.5153 90.9387 91.4952 90.7629 91.4752 90.5872L91.4352 90.2454C92.0152 90.0501 92.4953 89.7766 92.8953 89.4348C93.7053 88.7317 94.2753 88.009 94.6453 87.1984C94.7453 86.9836 94.7852 86.7688 94.7852 86.5539V86.1242C94.7852 85.8312 94.7752 85.5383 94.7452 85.2551C94.6552 84.2785 94.3152 83.5168 93.6952 82.9211C93.0552 82.3058 92.3352 81.7003 91.3852 81.3488C91.1952 81.2804 90.9953 81.2218 90.7952 81.1632C90.5153 81.0851 90.2352 81.2316 90.1052 81.5245C90.0052 81.7589 89.8853 82.0421 89.9553 82.3937C90.0853 83.048 90.0453 83.6925 89.9553 84.4738C89.9153 84.7668 89.8852 85.0695 89.8852 85.3625C89.8852 85.8215 89.8753 86.2902 89.8653 86.7492C89.8353 87.9602 89.8052 89.2004 89.9352 90.4407C89.9652 90.7727 90.0152 91.095 90.0552 91.427C90.1252 91.9934 90.2052 92.5891 90.2252 93.1653V93.4485C90.2452 93.556 90.2452 93.6829 90.2852 93.6731C90.2052 93.722 89.8253 93.761 89.6753 93.7708C88.8553 93.8587 88.0153 93.9075 87.1753 93.9075C86.1553 93.9173 85.1452 93.9075 84.1252 93.888H83.1852C83.0952 93.8685 83.0052 93.8587 82.9152 93.8392L82.6052 93.7903C82.0452 93.7024 81.4752 93.6145 80.8852 93.5853C80.8252 93.5853 80.7452 93.5853 80.6852 93.5853C80.6352 93.5853 80.5952 93.5853 80.5952 93.5853C80.5652 93.5462 80.5253 93.3899 80.4853 93.263L80.4253 93.0677C80.1953 92.2962 79.9653 91.5247 79.7653 90.7434C79.6453 90.2649 79.5352 89.7961 79.4352 89.3176C79.3352 88.8684 79.2352 88.4289 79.1252 87.9797C79.0452 87.6574 78.9652 87.3352 78.8852 87.0129C78.6752 86.1438 78.4653 85.2551 78.1753 84.3859C78.1153 84.2199 78.0853 84.0539 78.0452 83.8781C78.0152 83.7316 77.9752 83.5851 77.9352 83.4386C77.7652 82.8527 77.5752 82.2277 77.2552 81.6417C77.1352 81.4269 77.0553 81.1827 76.9553 80.9288L76.8452 80.6261C76.6252 80.0499 76.1752 79.923 75.8352 79.9327C74.8152 79.9523 73.7753 79.8058 72.7653 79.6691C72.2653 79.6007 71.7552 79.5323 71.2552 79.4835C70.9852 79.4542 70.7252 79.4054 70.4652 79.3468C70.1852 79.2882 69.9053 79.2296 69.6153 79.2003C68.8153 79.1124 68.0053 79.005 67.2053 78.8976L66.6052 78.8194C65.6252 78.6925 64.6452 78.5558 63.6652 78.4093L63.4553 78.38C63.1953 78.3507 62.9452 78.3116 62.7252 78.214C62.4752 78.0968 62.1952 78.0968 61.9452 78.1065H61.8452C61.8452 78.1065 61.8352 78.1065 61.8252 78.1065C61.2152 78.1065 60.6853 78.0186 60.2053 77.8331C60.0853 77.7843 59.9552 77.755 59.8252 77.7354C59.7152 77.7159 59.6052 77.6866 59.5252 77.6573C59.3752 77.589 59.2252 77.5792 59.1052 77.5694C59.0652 77.5694 59.0053 77.5694 59.0153 77.589C58.9653 77.5011 58.9453 77.335 58.9253 77.1886L58.9052 77.0616C58.8452 76.6124 58.7953 76.1729 58.7353 75.7237L58.6153 74.7471C58.5653 74.3174 58.5052 73.878 58.4452 73.4483L58.4052 73.126C58.4052 73.0772 58.3852 73.0283 58.3752 72.9795C58.3752 72.9405 58.3552 72.9014 58.3552 72.8623C58.3452 72.7158 58.3252 72.501 58.3352 72.3838C58.4452 72.3838 58.6353 72.3838 58.7952 72.3838L58.7752 72.3643ZM56.9452 72.8623C56.9452 72.8623 56.9452 72.96 56.9452 73.0772V73.2237V73.3018C56.9152 73.5948 56.9652 73.8975 57.0252 74.2588C57.0852 74.6397 57.1252 75.0108 57.1652 75.3917V75.4795C57.0452 75.4991 56.9453 75.5479 56.8653 75.5772L56.7752 75.6163C56.5252 75.7042 56.2552 75.6553 55.9952 75.587C55.9652 75.587 55.8952 75.5577 55.8252 75.3721C55.7652 75.1963 55.7053 75.0206 55.6453 74.835C55.5853 74.6495 55.5253 74.4737 55.4553 74.2881L55.4052 74.1514C55.0952 73.292 55.0153 73.1455 54.2653 73.0283C54.1253 73.0088 53.9353 72.9795 53.7053 72.9307C53.5553 72.9014 53.4152 72.8916 53.2852 72.8916H53.2252C53.1452 72.8916 53.0752 72.8916 53.0052 72.8916C52.9552 72.8916 52.9252 72.8819 52.9052 72.8819L52.8953 72.8135C52.8953 72.8135 52.9152 72.7842 52.9752 72.7451C53.0852 72.6865 53.1353 72.667 53.1453 72.667L53.4253 72.6475C53.7953 72.6084 54.1152 72.5791 54.4152 72.6963C54.6952 72.8135 54.9752 72.8037 55.2252 72.8037H55.4152H55.7852C56.1152 72.8037 56.4452 72.8037 56.7752 72.833C56.8652 72.833 56.9152 72.8428 56.9352 72.8428L56.9452 72.8623Z" fill="black"/>
</svg>
