<svg width="112" height="134" viewBox="0 0 112 134" fill="none" xmlns="http://www.w3.org/2000/svg">
<path d="M80.8886 37.9476C80.8886 38.6116 81.1986 39.1683 81.7586 39.5003C82.0586 39.6761 82.3986 39.764 82.7486 39.764C83.0986 39.764 83.4186 39.6859 83.7286 39.5198C84.4086 39.1683 84.8886 38.4847 84.9386 37.7718C84.9786 37.1858 84.7286 36.6585 84.2186 36.2972C83.6386 35.887 82.8386 35.7893 82.1186 36.0432C81.4686 36.2679 81.0086 36.7464 80.8486 37.3519C80.8086 37.5179 80.8286 37.6839 80.9086 37.8304C80.9086 37.8694 80.8986 37.9085 80.8986 37.9476H80.8886Z" fill="black"/>
<path d="M67.6185 38.3187C67.8285 37.6351 67.6685 36.8929 67.1985 36.3655C67.0885 36.2386 66.9185 36.1702 66.7385 36.1604C66.5485 36.1409 66.3685 36.2288 66.2385 36.346C65.8985 36.6878 65.6485 37.0101 65.5085 37.3128C65.3685 37.3128 65.2285 37.3421 65.1185 37.4007C64.3185 37.8792 63.9485 38.8265 64.2285 39.7152C64.3785 40.2035 64.7285 40.5746 65.1585 40.721C65.2885 40.7601 65.4285 40.7894 65.5585 40.7894C65.8385 40.7894 66.1185 40.7015 66.3785 40.516C66.5985 40.3597 66.8085 40.0863 66.9385 39.7835C67.1285 39.6078 67.2485 39.3831 67.2685 39.1585C67.3285 39.1292 67.3985 39.0902 67.4585 39.0316C67.6685 38.8558 67.7185 38.5628 67.6085 38.3089L67.6185 38.3187Z" fill="black"/>
<path d="M76.5085 46.8833C79.2385 46.5122 81.3885 44.891 82.2685 42.5668C82.3485 42.3519 82.3185 42.1371 82.1785 41.9808C82.0285 41.8051 81.7685 41.7172 81.5185 41.7562C81.2785 41.7953 81.0885 41.9515 80.9985 42.1762C80.2185 44.2465 78.0285 45.6137 75.4285 45.6625C72.8285 45.7016 70.4385 44.432 68.4285 43.182C68.0785 42.9574 67.7185 43.1137 67.5485 43.3773C67.3685 43.6508 67.3785 44.061 67.7385 44.2856C69.6285 45.4672 72.3885 46.9614 75.3485 46.9614C75.7285 46.9614 76.1185 46.9321 76.5085 46.8833Z" fill="black"/>
<path d="M52.5685 66.6003C53.1585 67.2839 54.2085 67.5671 55.3085 67.3523C58.0585 66.8054 60.1385 64.1687 61.1885 61.8639C62.1185 61.3561 62.9485 60.6628 63.5685 60.1061C64.9185 58.8951 66.2685 57.6451 67.5785 56.4342L68.2085 55.858C68.0585 56.8834 67.9085 57.9088 67.7685 58.9342C67.5585 60.5749 67.3585 62.2448 67.1885 63.8952C67.1385 64.364 67.0785 64.8425 67.0085 65.3308C66.8385 66.5222 66.6685 67.7527 66.7585 68.8953C66.8185 69.7058 67.2585 70.1941 68.0685 70.3504C68.7685 72.9481 69.6085 75.4286 70.5685 77.7138C70.6985 78.0165 70.8185 78.3485 70.9485 78.6903C71.5785 80.331 72.2885 82.1767 73.7085 83.1142C74.7285 83.7881 76.0985 83.8857 77.3285 83.8857C78.7985 86.6494 80.4285 89.4229 82.1785 92.1475C80.7385 92.6358 78.6185 93.7882 77.9385 95.3312C77.6285 96.0245 77.6485 96.7081 77.9885 97.3624C78.3185 97.9972 78.7185 98.3097 79.2085 98.3097C79.2385 98.3097 79.2685 98.3097 79.2985 98.3097C81.0785 98.173 82.8485 93.5733 82.9585 93.2511C83.0985 93.2218 83.2285 93.1925 83.3685 93.1729C83.5685 93.1339 83.7385 93.0069 83.8185 92.8116C83.9085 92.6065 83.8985 92.3819 83.7885 92.2061C82.0685 89.5694 80.3985 86.7568 78.8185 83.8369C79.2685 83.8174 79.6885 83.8076 80.0785 83.8076C81.3785 83.8271 83.1485 83.8271 83.7485 81.9716C84.2185 80.5263 83.6485 79.2567 83.0985 78.0263C82.9185 77.6161 82.7285 77.1962 82.5785 76.7762L82.5285 76.62C82.4585 76.4149 82.2485 75.829 82.2585 75.6239L82.7785 75.2333C82.7785 75.2333 82.8185 75.1942 82.8385 75.1649C83.0285 74.8719 83.1285 74.8329 83.1285 74.8231C83.1285 74.8231 83.1985 74.8719 83.2785 75.0672C83.2985 75.1063 83.3185 75.1454 83.3485 75.1649C83.6585 75.4188 83.9185 75.9071 84.1485 76.3368C84.2185 76.4637 84.2885 76.5907 84.3485 76.7079C85.1085 78.0263 85.7385 79.4716 86.1985 81.0146C86.7785 82.9384 87.3885 83.2509 89.4485 82.6943L89.9185 82.5673C90.1485 84.0713 90.5085 85.4287 91.0285 86.6982C91.0785 86.8252 91.1385 86.9717 91.1885 87.1182C91.3485 87.5381 91.5285 87.9971 91.7585 88.4366C91.6685 88.5049 91.5885 88.5928 91.5385 88.6905C91.4485 88.876 91.4585 89.0811 91.5785 89.2666C92.3085 90.4483 93.5185 92.4307 95.4985 92.46C96.2085 92.4893 96.9785 92.1475 97.5285 91.6202C97.9985 91.171 98.2485 90.6143 98.2485 90.0674C98.2485 89.5205 98.0185 89.0518 97.5985 88.71C97.0285 88.2412 96.0885 88.0459 95.2085 88.2022C94.9785 88.2412 94.7785 88.3096 94.5985 88.3682C94.0885 88.5342 93.7585 88.6416 93.1685 88.1436C92.7785 87.8115 92.3985 86.6982 92.1885 86.1025C92.1385 85.9658 92.0985 85.8486 92.0685 85.751C91.6785 84.6963 91.3985 83.5439 91.1985 82.2451C91.9085 82.0595 92.6585 81.8642 93.3985 81.6298C94.2085 81.3857 94.9685 81.0927 95.4385 80.37C96.5385 78.6513 96.3085 75.7508 95.9785 73.4168C95.8285 72.3328 95.5585 71.2293 95.1685 70.116C95.3485 70.3894 95.6285 70.5945 95.9585 70.6531C96.2985 70.7117 96.6285 70.6043 96.8685 70.3504C100.689 66.1804 104.229 61.7077 107.389 57.0494C107.619 56.7076 107.629 56.3268 107.419 56.0045C107.169 55.6236 106.679 55.4088 106.219 55.4771C102.369 56.0533 97.0985 56.8346 92.9885 54.7642C91.1285 53.8267 89.8185 52.2349 88.5485 50.7017C88.2585 50.3501 87.9685 49.9986 87.6785 49.6567C88.0885 49.1978 88.5285 48.7485 88.9985 48.3091C89.8285 47.5376 90.7685 46.7466 91.9785 45.8481C92.3085 45.604 92.6485 45.3501 92.9985 45.1059C94.4885 44.0414 96.0285 42.9477 96.8685 41.3168C96.9085 41.2484 96.9385 41.1801 96.9585 41.1019C97.4085 40.9945 97.8185 40.8773 98.1985 40.7406C98.2285 40.9262 98.3385 41.1117 98.5285 41.1996C98.7585 41.3168 98.9885 41.3949 99.2185 41.434C99.5485 41.6098 99.8785 41.6684 100.049 41.6977C101.079 41.8441 101.899 41.6098 102.489 41.0141C103.639 39.8422 103.859 37.3226 103.129 33.5335C103.349 32.2249 103.439 30.8772 103.379 29.51C105.219 30.1155 107.029 30.6135 108.739 30.9944C109.409 31.1409 110.179 31.2385 110.729 30.8967C111.049 30.6917 111.249 30.3694 111.349 29.9299C111.489 29.2561 111.359 28.3967 111.249 27.6447C111.199 27.3225 111.159 27.0197 111.129 26.7561L110.809 22.9377C110.789 22.6935 110.649 22.4787 110.429 22.3712C110.229 22.2736 110.009 22.2736 109.809 22.3908C107.209 23.8654 104.649 25.5939 102.209 27.5276L102.269 27.215C102.289 27.1272 102.279 27.0393 102.269 26.9514C103.929 22.7912 105.189 18.6212 106.029 14.5586C106.099 14.2071 106.199 13.8067 106.309 13.3867C106.689 11.9121 107.159 10.0762 106.689 8.74801C106.419 7.98628 105.739 7.4101 105.139 6.91205C104.989 6.7851 104.839 6.65814 104.699 6.53119L101.469 3.60146C101.259 3.41591 100.979 3.37685 100.739 3.49404C100.589 3.45497 100.429 3.47451 100.289 3.5331C100.129 3.61123 100.009 3.75771 99.9685 3.94326C99.3185 6.58978 98.2985 9.11911 96.9285 11.4727C96.9285 11.4824 96.9185 11.502 96.9085 11.5117C96.6685 11.6387 96.4785 11.8926 96.5485 12.2246L99.4685 26.6486C98.1985 26.1311 97.0585 25.633 96.0185 25.1349C95.7985 25.0275 95.5285 25.0373 95.3285 25.1642C95.1385 25.2814 95.0285 25.4767 95.0285 25.7014L95.0585 31.8245C95.0585 32.0296 95.1685 32.2346 95.3485 32.3616C95.5185 32.4788 95.7185 32.5081 95.9085 32.4495C97.4685 31.9319 98.9585 31.2288 100.359 30.3499L100.329 30.5061C100.189 30.6135 100.099 30.7796 100.089 30.9651C100.069 31.2678 100.059 31.5706 100.049 31.8733L99.8385 33.2112C98.9885 32.8694 98.0385 32.8792 97.2885 33.2405C96.1185 33.8069 95.6185 35.0276 95.8185 36.8636C95.8485 37.1078 95.8785 37.3421 95.9085 37.5863C96.0285 38.4652 96.1485 39.2855 95.9085 40.1058C95.7985 40.223 95.7485 40.3695 95.7485 40.5453C95.2885 41.5609 94.4185 42.352 93.5385 43.0551C92.8885 43.5825 92.1985 44.0903 91.5385 44.5786C90.3685 45.4477 89.1585 46.3559 88.0585 47.3813C87.9785 47.4595 87.8685 47.5571 87.7385 47.6743C87.4585 47.9282 87.0985 48.2602 86.7185 48.6313C85.9185 47.811 85.1685 47.2055 84.3685 46.7466C88.6485 43.8559 91.5985 39.9594 92.4885 35.9945C92.9385 33.9729 92.8585 31.9319 92.2485 30.0959C92.9785 28.6799 92.7585 26.8732 91.6985 25.5256C92.8585 19.2267 93.3985 12.8008 93.3085 6.43353C94.0685 6.60931 94.8485 6.45306 95.4185 5.99407C95.9385 5.56438 96.2085 4.91984 96.1485 4.20694C96.0885 3.52333 95.7285 2.91786 95.1885 2.56629C95.1285 2.25379 94.9585 1.99011 94.6785 1.78503C94.2485 1.47253 93.7785 1.3651 93.3185 1.47253C92.8185 1.59948 92.3585 1.98035 92.0885 2.51746C91.4285 3.14247 91.2185 4.17764 91.5885 5.05656C91.6285 5.14445 91.6685 5.22258 91.7185 5.31047L90.2385 6.53119C90.0985 6.52142 89.9485 6.55072 89.8285 6.62884C89.6585 6.73627 89.5485 6.91205 89.5185 7.1269L84.3285 11.4043C84.1785 11.5313 83.9885 11.6973 83.7885 11.8926C83.2985 12.3516 82.6785 12.918 82.1285 13.2403C82.0385 13.2696 81.9685 13.2989 81.9085 13.3574C81.4785 13.5723 81.1285 13.6211 80.8485 13.5039C80.4485 13.3477 79.8485 12.4883 79.4585 11.9121C79.2785 11.6484 79.1185 11.4141 78.9885 11.2578C78.2385 10.3496 77.4985 9.42185 76.7985 8.4941C75.5885 6.91205 74.3885 5.24211 73.1485 3.39638C73.2585 3.24013 73.3385 3.07411 73.3785 2.90809C73.5685 2.4784 73.5585 1.97058 73.3485 1.46276C73.0985 0.86705 72.6185 0.378762 72.0485 0.163915C71.2285 -0.158354 70.5085 -0.00210231 69.9885 0.603374C69.5485 0.788924 69.1985 1.16002 68.9985 1.63854C68.6885 2.36121 68.8885 3.20106 69.4685 3.66005C69.5285 3.79678 69.6185 3.91396 69.7185 4.01162C69.5885 4.07022 69.4885 4.17764 69.4385 4.30459C69.3485 4.51944 69.3985 4.77335 69.5585 4.96867C69.7185 5.16398 69.9485 5.26164 70.1985 5.22258C70.3185 5.20304 70.4385 5.18351 70.5585 5.15421L70.5385 6.7265C69.6685 9.24607 68.9385 11.5215 68.2985 13.6602L61.5485 9.03122C61.7485 8.82614 61.8885 8.582 61.9685 8.31832C62.2285 7.48823 61.7785 6.74603 61.1985 6.3554C61.0385 6.08196 60.7985 5.84758 60.5185 5.68157L60.4985 5.62297C60.3985 5.40812 60.1285 5.26164 59.8885 5.2714C59.7485 5.28117 59.6085 5.31047 59.4585 5.3593C59.4385 5.3593 59.4085 5.34953 59.3985 5.3593C58.7585 5.36906 58.2085 5.7011 57.8785 6.25775C57.4985 6.89252 57.4885 7.71284 57.8385 8.33785C57.8385 8.33785 57.8585 8.36715 57.8685 8.37691C57.9885 8.74801 58.2685 9.03122 58.6585 9.17771C58.8985 9.40232 59.1985 9.55857 59.5385 9.6367C59.8185 15.3301 59.3585 21.0138 58.1485 26.5217C58.1085 26.7268 58.1485 26.9318 58.2785 27.0979C58.3985 27.2443 58.5785 27.3322 58.7785 27.3322L60.2885 27.3518C59.3685 29.0998 59.1585 31.1116 59.7085 33.0647C59.7285 33.1331 59.7685 33.2015 59.8185 33.2698C59.5185 36.5316 59.8185 39.3441 60.7685 41.8637C62.2485 45.7993 65.2285 48.6313 69.1785 49.8618C68.9485 51.1216 68.7285 52.4107 68.5085 53.8072C68.4785 53.8267 68.4485 53.8463 68.4185 53.8756L64.1485 57.8014C63.9185 58.0162 63.6785 58.2408 63.4385 58.4752C62.2285 59.6373 60.9685 60.8385 59.4085 61.2389C58.7785 61.3952 58.1285 61.4147 57.4885 61.4245C56.5785 61.444 55.6385 61.4538 54.7285 61.8932C53.5985 62.4401 52.6885 63.3679 52.2885 64.3835C51.9485 65.2429 52.0485 66.0437 52.5585 66.6199L52.5685 66.6003ZM80.6785 95.2921C80.5185 95.5851 80.3485 95.8683 80.1685 96.1417C79.3185 96.2882 79.1985 96.132 79.1985 96.132C79.1885 96.1124 79.1785 95.9757 79.4185 95.6437C79.8885 94.7843 80.6485 94.2081 81.3385 93.8468C81.1285 94.4034 80.9185 94.8624 80.6785 95.2823V95.2921ZM94.6685 89.5987C95.0385 89.462 95.3885 89.335 95.7285 89.3936L96.8085 90.292L96.2585 90.9366C95.7085 91.2589 95.1085 91.1612 94.3285 90.6046C94.0285 90.3897 93.7785 90.126 93.5585 89.8428C93.9585 89.8624 94.3185 89.7159 94.6585 89.5889L94.6685 89.5987ZM103.299 58.7584C103.429 58.4948 103.459 58.2115 103.379 57.9479C103.659 57.9186 103.939 57.8893 104.209 57.8502C103.659 58.6315 103.089 59.403 102.519 60.1745C102.799 59.7057 103.059 59.237 103.299 58.7584ZM96.5085 67.5476C96.5085 67.5476 96.4785 67.5769 96.4685 67.5867C96.4685 67.5867 96.4985 67.5574 96.5085 67.5476ZM96.4385 62.4108L96.0385 63.1628V62.2253C96.1485 62.3229 96.2885 62.3913 96.4385 62.4108ZM109.599 24.0216L109.929 27.9377C109.929 28.0354 109.969 28.1819 109.999 28.3479C110.049 28.6213 110.149 29.1291 110.079 29.2756C109.869 29.6956 109.389 29.6956 108.779 29.637C108.199 29.5881 107.549 29.383 106.929 29.1877C106.679 29.1096 106.449 29.0315 106.219 28.9729C105.389 28.7385 104.539 28.4748 103.549 28.1428C105.469 26.6486 107.499 25.2717 109.599 24.0314V24.0216ZM96.4085 30.8577L96.3885 26.6975C97.5485 27.2346 98.6985 27.7229 99.8085 28.1721L99.9785 29.0315C98.8885 29.7541 97.6885 30.3596 96.4085 30.8479V30.8577ZM97.9385 12.2832C97.9985 12.2344 98.0485 12.1758 98.0985 12.0977C99.3985 9.87107 100.399 7.4687 101.079 4.96867L103.099 6.80463C103.279 6.97064 103.479 7.13666 103.689 7.30268C104.569 8.02535 105.469 8.77731 105.519 9.84178C105.559 10.623 105.349 11.5215 105.149 12.4004C105.069 12.7227 104.999 13.0449 104.939 13.3379C104.739 14.4024 104.499 15.4766 104.249 16.5313C103.749 18.6407 103.119 20.7501 102.359 22.9669C102.449 18.1329 102.099 13.2793 101.319 8.50387C101.279 8.27926 101.149 8.11324 100.949 8.04488C100.729 7.96675 100.459 8.00581 100.269 8.16207C100.069 8.31832 99.9885 8.54293 100.029 8.78708C100.969 14.5196 101.259 20.3888 100.909 26.2385C100.909 26.385 100.939 26.5119 101.009 26.6193C100.969 26.7072 100.939 26.7951 100.899 26.883L97.9385 12.2734V12.2832ZM97.3285 34.9398C97.5985 34.5003 98.0085 34.344 98.2985 34.2855C98.4085 34.2659 98.5285 34.2562 98.6385 34.2562C98.9785 34.2562 99.3185 34.3538 99.6185 34.5198L99.2185 36.6976L98.5885 39.1488C98.2385 39.3343 97.8385 39.5004 97.3985 39.6371C97.4385 39.305 97.4385 38.9535 97.4185 38.5824C97.3985 38.2211 97.3285 37.85 97.2485 37.4593C97.0785 36.5609 96.8985 35.6331 97.3285 34.9398ZM94.8185 74.784C94.8985 76.0536 94.9485 77.6747 94.5585 79.0517C94.2185 80.2333 92.8585 80.5263 91.5385 80.8095C91.2285 80.8779 90.9185 80.9462 90.6385 81.0146C90.4485 81.0634 90.2485 81.1318 90.0385 81.2099C89.6385 81.3466 89.2285 81.4833 88.8685 81.5029C88.8285 81.5029 88.7885 81.5126 88.7585 81.5322C88.4385 81.7177 88.0485 81.8154 87.6385 81.1708C87.5385 80.8095 87.4385 80.4482 87.3185 80.0966C86.9485 78.954 86.4785 77.8505 85.9285 76.8055C85.8785 76.7079 85.8185 76.6005 85.7585 76.4735C85.1185 75.1942 83.7785 72.5477 82.0285 73.2996C80.2185 74.0711 81.1785 76.8055 81.5085 77.6259C81.6185 77.8993 81.7385 78.163 81.8685 78.4267C82.2385 79.2177 82.5885 79.9696 82.5785 80.829C82.5785 81.3368 82.4385 81.7177 82.1685 81.9814C81.5685 82.5478 80.3985 82.5185 79.3685 82.499H78.9385C78.6185 82.499 78.2785 82.499 77.9185 82.5185C76.7585 82.5673 75.4485 82.6162 74.5785 82.1279C73.6485 81.6005 73.1285 80.3505 72.6585 79.247C72.5685 79.0224 72.4685 78.8075 72.3885 78.6024C71.2485 76.0633 70.2585 73.2899 69.4385 70.3504C69.8885 70.3016 70.3485 70.2137 70.7585 70.1355C71.1185 70.0672 71.4485 70.0086 71.7185 69.9793L87.5185 68.3386C87.9685 68.2898 88.4485 68.2703 88.9285 68.241C89.9885 68.1921 91.0785 68.1336 92.0285 67.8503C92.2485 67.782 92.4385 67.6941 92.6185 67.5769C93.8985 69.8719 94.6385 72.2938 94.7985 74.7743L94.8185 74.784ZM86.6585 51.9517C86.6785 51.8931 86.6985 51.8247 86.6985 51.7662C86.7985 51.8931 86.9085 52.0201 87.0085 52.147C87.3185 52.5376 87.6385 52.9283 87.9585 53.3091C89.2685 54.8521 90.6985 55.985 92.3085 56.7467C92.2685 56.7467 92.2285 56.7467 92.1885 56.7467C92.1685 56.7467 92.1485 56.7467 92.1385 56.7467C91.8885 56.5611 91.5685 56.4928 91.2485 56.5709C91.0485 56.6197 90.8585 56.7076 90.7185 56.8443C90.1885 55.9947 89.6185 55.2525 88.9785 54.5689C88.7785 54.3541 88.5185 54.2369 88.2485 54.2369C88.1385 54.2369 88.0185 54.2564 87.9085 54.2955L86.5385 52.147C86.5885 52.0787 86.6285 52.0005 86.6585 51.9224V51.9517ZM85.3585 50.2134C85.3585 50.2134 85.3285 50.2525 85.3185 50.272L85.1385 49.9986C85.2085 50.0669 85.2785 50.145 85.3585 50.2232V50.2134ZM92.0185 6.77533C92.0185 7.4101 92.0185 8.04488 92.0185 8.67965C91.9285 8.56246 91.8085 8.47457 91.6785 8.42574C91.6485 8.00582 91.6185 7.58589 91.5785 7.16596C91.5785 7.16596 91.5785 7.14643 91.5785 7.13666L92.0185 6.76556V6.77533ZM90.1085 24.4709L90.1585 24.1388C90.5985 22.8107 90.9585 21.4728 91.2585 20.1153C91.0785 21.4826 90.8685 22.8498 90.6385 24.1974C90.6185 24.2853 90.6085 24.4123 90.5985 24.5588V24.5978C90.3985 24.5881 90.2085 24.6564 90.0685 24.7834C90.0885 24.6857 90.0985 24.5881 90.1085 24.4806V24.4709ZM91.3985 28.133C91.1485 27.7131 90.8785 27.3225 90.5885 26.9611C90.5585 26.9318 90.5385 26.8928 90.5085 26.8635H90.9385C90.9385 26.8635 91.0085 26.8635 91.0485 26.8537C91.2685 27.2639 91.3885 27.7033 91.4085 28.133H91.3985ZM89.7985 7.14643L89.7185 7.16596L89.6885 7.13666H89.7885L89.7985 7.14643ZM89.6485 25.5842C89.7385 25.5451 89.8185 25.4963 89.8785 25.4279C89.8985 25.4865 89.9285 25.5353 89.9685 25.5842C89.8685 25.5842 89.7585 25.5842 89.6485 25.5842ZM88.9385 19.6466C89.0185 19.92 89.0985 20.2032 89.1585 20.4962C89.1785 20.5646 89.2085 20.6329 89.2485 20.6915C89.2185 21.1017 89.1785 21.5314 89.1285 21.9806C88.8685 20.9747 88.6485 19.9298 88.4685 18.8653C88.6985 18.9825 88.8485 19.2364 88.9285 19.6271V19.6466H88.9385ZM88.7485 9.47068C88.6985 10.5058 88.5985 11.5313 88.4685 12.5957C88.3985 11.9805 88.3185 11.3652 88.2285 10.7598C88.1885 10.5254 88.0085 10.3398 87.7585 10.2812L88.7485 9.47068ZM87.4085 15.9551C87.4185 16.2872 87.4285 16.6192 87.4385 16.9512C87.3685 16.9512 87.2985 16.9708 87.2285 16.9903L87.3985 15.9551H87.4085ZM87.1285 25.5939H87.1385H87.1185H87.1285ZM84.9885 12.586C85.3385 12.3027 85.6785 12.0098 86.0285 11.7266L86.8985 11.0137L86.5485 13.0742C86.4285 13.0449 86.3085 13.0449 86.1985 13.0742C85.9785 13.1426 85.8185 13.3086 85.7885 13.543L85.3785 15.9161C85.2185 15.1934 85.0185 14.4805 84.7985 13.7871C84.7085 13.5137 84.4485 13.3282 84.1485 13.3282C84.1385 13.3282 84.1285 13.3282 84.1085 13.3282C84.4085 13.084 84.6985 12.8399 84.9885 12.5957V12.586ZM83.6585 25.4474C83.7685 25.2131 83.8685 24.9787 83.9585 24.7443C84.0685 24.6955 84.1585 24.6076 84.2185 24.5002C84.2485 24.4513 84.2685 24.4025 84.2985 24.3537C84.4185 24.4513 84.5685 24.5002 84.7185 24.4904C84.7785 24.4904 84.8285 24.4806 84.8885 24.4709C84.8885 24.5002 84.8885 24.5295 84.8885 24.5588C84.9285 24.9689 85.2485 25.174 85.5585 25.174C85.7085 25.174 85.8385 25.1349 85.9385 25.0568C85.9685 25.1349 85.9985 25.2131 86.0285 25.2912C86.0785 25.4182 86.1685 25.5256 86.2785 25.6037L83.5085 25.633C83.5685 25.5842 83.6185 25.5158 83.6485 25.4474H83.6585ZM83.4985 13.8164C83.4985 13.8164 83.4885 13.9043 83.4885 13.9532C83.4985 14.6661 83.4885 15.3692 83.4485 16.0919L83.0885 14.1387C83.2185 14.0313 83.3585 13.9239 83.4885 13.8164H83.4985ZM82.3885 17.6446L82.4085 17.7423C82.3685 17.8888 82.3285 18.0255 82.2985 18.172L82.3885 17.6348V17.6446ZM81.7685 22.5666C81.7685 22.5666 81.7585 22.6349 81.7485 22.674V22.7423C81.7285 22.674 81.7185 22.6154 81.7085 22.547C81.7285 22.547 81.7485 22.5666 81.7685 22.5763V22.5666ZM81.4685 15.1543L81.3485 15.8477C81.3185 15.6231 81.2985 15.3887 81.2685 15.1641C81.3385 15.1836 81.3985 15.1641 81.4585 15.1446L81.4685 15.1543ZM78.8085 13.0742C78.9185 13.2012 79.0385 13.3672 79.1685 13.543C79.3785 13.8262 79.6085 14.1387 79.8685 14.4219C79.8785 14.6563 79.8885 14.8907 79.8985 15.1348C79.7685 14.9688 79.5685 14.8907 79.3785 14.8809H79.3585C79.2385 14.8809 79.1185 14.9102 79.0285 14.9688C78.9285 14.8418 78.7885 14.754 78.6285 14.7247L78.0685 12.1953C78.3185 12.4981 78.5685 12.791 78.8185 13.0938L78.8085 13.0742ZM77.6485 24.7248C77.8085 24.6467 77.9085 24.5002 77.9485 24.3146C77.9785 24.1681 78.0185 24.0314 78.0585 23.8947C78.0885 23.8947 78.1085 23.8947 78.1385 23.9045C78.2585 23.9142 78.3885 23.8947 78.4985 23.8361C78.6485 23.9045 78.8185 23.9142 78.9785 23.8752C79.0485 23.8556 79.1185 23.8166 79.1685 23.7775C79.1485 24.0998 79.0885 24.4318 78.9885 24.7638C78.8685 25.1642 79.1185 25.4572 79.4385 25.5451C79.7485 25.633 80.1485 25.5158 80.2685 25.1252C80.3785 24.7834 80.4985 24.4513 80.6285 24.1095C80.6385 24.1779 80.6485 24.256 80.6685 24.3244C80.7085 24.5295 80.8485 24.6955 81.0485 24.7736C81.1585 24.8127 81.2785 24.8224 81.3885 24.8127C81.4585 24.9592 81.5985 25.0764 81.7785 25.1349C81.9685 25.1935 82.1985 25.174 82.3785 25.0568C82.3985 25.1349 82.4185 25.2228 82.4485 25.3107C82.4885 25.4475 82.5685 25.5646 82.6885 25.6428L76.5685 25.7014C76.7085 25.6037 76.8185 25.4377 76.8385 25.2228C76.8485 25.1154 76.8585 25.008 76.8585 24.9006C76.8785 24.9006 76.8985 24.9006 76.9185 24.9006C77.0385 24.9006 77.1685 24.8517 77.2685 24.7834C77.4085 24.8029 77.5485 24.7834 77.6685 24.7248H77.6485ZM72.4885 5.16398C72.5185 5.06632 72.5585 4.96867 72.5885 4.88077C73.9485 6.85346 75.2285 8.61129 76.5085 10.2422C76.7485 10.5547 76.9985 10.8574 77.2385 11.1602C77.2385 11.1602 77.2185 11.1602 77.2085 11.1602C76.8585 11.209 76.6185 11.4727 76.6285 11.8047L76.6785 12.8887L76.1585 10.7988C76.0885 10.5156 75.8285 10.3203 75.5185 10.3203C75.4885 10.3203 75.4485 10.3203 75.4185 10.3203C75.2585 10.3398 75.1185 10.4082 75.0185 10.5058L74.5785 7.97652C74.5185 7.63472 74.2185 7.41987 73.8585 7.48823C73.7785 7.498 73.6985 7.52729 73.6285 7.56636C73.5685 7.17573 73.4985 6.79486 73.4285 6.42376C73.3685 6.10149 73.0785 5.90618 72.7385 5.93547C72.5885 5.94524 72.4385 6.0136 72.3285 6.11126L72.2985 5.65227L72.4685 5.16398H72.4885ZM74.9085 20.34C74.7985 20.6427 74.6785 20.9259 74.5485 21.2091C74.5085 21.2579 74.4785 21.3068 74.4385 21.3556L74.4585 20.3107C74.6185 20.3107 74.7685 20.3302 74.9085 20.34ZM74.7785 19.0216C74.8885 18.9142 74.9585 18.7774 74.9785 18.6114C74.9985 18.4552 75.0185 18.2989 75.0285 18.1427L75.1585 18.8751C75.1685 18.9435 75.1985 19.0118 75.2285 19.0704C75.0785 19.0509 74.9385 19.0314 74.7885 19.0216H74.7785ZM75.2885 22.6837C75.3985 23.0841 75.4685 23.4845 75.4985 23.8849C75.4685 24.3732 75.4685 24.8029 75.4985 25.2033C75.5085 25.4182 75.6085 25.5939 75.7585 25.7111L73.7485 25.7307C73.8985 25.2131 74.0885 24.7053 74.3185 24.1681C74.6685 23.6994 74.9985 23.2013 75.2885 22.6837ZM72.2085 16.5411C72.2685 16.5606 72.3285 16.5704 72.3985 16.5606C72.6985 16.5606 73.0285 16.3555 73.0685 15.9551C73.1285 15.3594 73.1885 14.7637 73.2385 14.1582C73.3085 14.7637 73.3685 15.3594 73.4285 15.9356C73.2985 16.043 73.2185 16.209 73.2085 16.3946C73.1785 17.2149 73.0785 18.0645 72.9085 18.9728C72.6885 18.9825 72.4585 19.0118 72.2285 19.0411C72.2285 19.0118 72.2285 18.9923 72.2285 18.963V18.7872C72.2585 18.0352 72.2585 17.2833 72.2285 16.5411H72.2085ZM70.8485 25.1642C71.2085 24.5978 71.4585 23.9826 71.6185 23.3283C71.6185 23.3283 71.6185 23.338 71.6185 23.3478C71.6885 23.592 71.9285 23.7873 72.2085 23.8166C72.2685 23.8166 72.3285 23.8166 72.3885 23.8166C72.4385 24.4611 72.4285 25.0959 72.3585 25.7404L70.2685 25.76C70.3085 25.6818 70.3385 25.5939 70.3785 25.5158L70.4085 25.4474C70.5985 25.4084 70.7585 25.3107 70.8485 25.1642ZM70.3485 11.5605C70.3985 11.3945 70.4485 11.2285 70.4985 11.0625V12.1563C70.4985 12.1563 70.4085 12.0977 70.3685 12.0781C70.3185 12.0488 70.2585 12.0391 70.2085 12.0195L70.3485 11.5508V11.5605ZM68.9285 22.088C68.9885 22.0294 69.0485 21.9806 69.0985 21.922C69.1585 22.049 69.2485 22.1466 69.3685 22.215C69.3985 22.2345 69.4285 22.2443 69.4585 22.254C69.2585 22.4103 69.1085 22.3712 68.8985 22.215V22.0783L68.9285 22.088ZM68.4285 25.7307L68.5085 25.7697H68.4185C68.4185 25.7697 68.4285 25.7404 68.4385 25.7307H68.4285ZM87.9485 26.8928C88.0485 27.0979 88.2285 27.2248 88.4485 27.2541C88.6185 27.2639 88.7785 27.2248 88.9085 27.1369C89.7385 27.9865 90.3685 28.9241 90.7985 29.9202C90.6885 30.0569 90.5785 30.1643 90.4585 30.262C89.7685 30.8186 88.8985 31.0042 88.0585 30.7698C87.3085 30.5647 86.7085 30.0276 86.4585 29.344C86.4585 28.8655 86.4385 28.3674 86.3785 27.9084C86.3285 27.5373 85.9685 27.2932 85.6585 27.2932H85.6485C85.3485 27.2932 85.1285 27.4885 85.0785 27.7912C85.0785 27.7912 85.0785 27.8108 85.0785 27.8303C85.0685 27.8596 85.0585 27.8987 85.0685 27.9279C84.9985 28.4553 85.0385 28.9827 85.1785 29.4807C85.1785 30.6331 84.9685 31.4436 84.5185 31.8928C84.2385 32.176 83.8685 32.303 83.3985 32.3128C81.8285 32.3128 80.8885 29.969 80.6685 28.4944V28.3772L80.6385 28.2698V28.1526L80.6185 28.094C80.5685 27.7619 80.2685 27.5666 79.8985 27.5959C79.5185 27.635 79.2785 27.9182 79.3085 28.2502C79.3285 28.4358 79.3485 28.6213 79.3885 28.8166C79.5085 29.7151 79.6085 30.7503 79.1485 31.5706C78.8885 32.0393 78.4585 32.3518 77.9585 32.43C77.4685 32.5081 76.9785 32.3616 76.5785 32.0003C75.5085 31.0432 75.6385 29.3635 75.7485 28.0158V27.8987C75.7785 27.6447 75.6285 27.4006 75.3685 27.2932C75.1085 27.176 74.8085 27.2248 74.6185 27.4201C73.7485 28.3088 73.5385 29.3635 73.3485 30.3889C73.2385 30.9456 73.1285 31.5217 72.8985 32.0882C72.8285 32.3128 72.7185 32.5276 72.5685 32.762C72.4185 33.0843 72.2485 33.2601 72.0585 33.3186C71.8685 33.3675 71.6285 33.2893 71.3485 33.094C71.3285 33.0745 71.2985 33.0647 71.2785 33.055C70.2685 32.7522 70.1585 32.4495 70.1385 31.2874C70.1385 30.8967 70.1485 30.5256 70.1685 30.1545C70.1985 29.5295 70.2285 28.8752 70.1385 28.2307C70.1385 28.2014 70.1385 28.1819 70.1385 28.1526V28.0744C70.0885 27.7619 69.8385 27.5666 69.5085 27.5764C69.1985 27.5959 68.8585 27.8205 68.8285 28.2014C68.7585 29.3733 68.5485 30.4085 68.2085 31.3655C67.8285 32.4397 67.0085 33.9729 66.3885 34.012C66.1185 34.012 65.9085 33.7288 65.7685 33.4651C65.4285 32.8304 65.4485 31.8831 65.4585 31.053C65.4585 30.8186 65.4585 30.594 65.4585 30.3889C65.4385 29.383 65.4585 28.3186 65.5085 27.1272L87.9985 26.9221L87.9485 26.8928ZM68.1285 15.0958C68.1085 15.1739 68.0785 15.252 68.0585 15.3204C67.8185 15.3497 67.5785 15.4961 67.4985 15.7598C67.4885 15.7989 67.4785 15.8379 67.4685 15.8868C67.4485 15.4766 67.4285 15.0958 67.4085 14.7149C67.4085 14.6661 67.3985 14.627 67.3885 14.5879L68.1285 15.0958ZM63.7985 12.127L66.6585 14.0899C66.3885 14.1094 66.1685 14.2852 66.0985 14.5586C66.0885 14.5977 66.0785 14.6368 66.0685 14.6856C65.9785 14.4707 65.7585 14.3145 65.4985 14.295C65.4785 14.295 65.4485 14.295 65.4285 14.295C65.2385 14.295 65.0685 14.3731 64.9585 14.5C64.9585 14.3438 64.9585 14.1973 64.9685 14.0508C64.9685 13.7578 64.7685 13.5039 64.4685 13.4258C64.3885 13.4063 64.3085 13.3965 64.2285 13.4063C64.2285 13.211 64.1385 13.0449 63.9785 12.9278C63.9185 12.8789 63.8385 12.8496 63.7585 12.8301L63.8085 12.7227C63.9085 12.4981 63.8885 12.2832 63.7985 12.127ZM65.2485 18.2403C65.1885 18.5431 65.1185 18.8458 65.0585 19.1485C65.0885 18.6407 65.0885 18.1231 65.0685 17.6055C65.1085 17.4981 65.1485 17.4005 65.1785 17.293C65.2085 17.6056 65.2285 17.9278 65.2385 18.2403H65.2485ZM62.3885 27.3615L63.9685 27.3811C63.4585 28.9045 62.6085 30.2131 61.4285 31.2678C61.5485 30.5452 61.6885 29.8323 61.8485 29.1487C61.9585 28.6799 62.1285 28.0061 62.3885 27.3713V27.3615ZM62.1285 24.2951C62.2185 24.1388 62.3085 23.9826 62.3885 23.8263C62.3785 23.9631 62.3685 24.09 62.3585 24.2267C62.3185 24.2365 62.2685 24.256 62.2185 24.2658C62.1885 24.2658 62.1485 24.2853 62.1185 24.2951H62.1285ZM63.5285 25.7795C63.6085 25.7893 63.6885 25.8088 63.7685 25.8185H63.4885C63.4885 25.8185 63.5185 25.7893 63.5285 25.7795ZM62.0185 12.0098L62.5585 11.2773L63.3085 11.7852C63.0785 11.7559 62.8285 11.8535 62.6685 12.0684C62.5085 12.2832 62.3485 12.4981 62.1985 12.7227C62.1385 12.6836 62.0685 12.6543 61.9985 12.6348C62.0185 12.4297 62.0285 12.2149 62.0185 12V12.0098ZM60.4285 26.0432H59.6085C59.6585 25.799 59.7085 25.5646 59.7485 25.3205C59.8385 25.4377 59.9685 25.5256 60.0985 25.5646C60.3985 25.6623 60.6885 25.5353 60.8285 25.2521C60.8985 25.1154 60.9585 24.9689 61.0285 24.8322C61.0985 24.8713 61.1785 24.9006 61.2585 24.9201C61.4285 24.9494 61.5985 24.9201 61.7385 24.8322C61.7385 24.8615 61.7385 24.881 61.7385 24.9103C61.7385 25.0568 61.7785 25.1838 61.8585 25.2912C61.8285 25.3107 61.8085 25.3303 61.7885 25.3498C61.6285 25.506 61.4885 25.6721 61.3385 25.8576H60.8985C60.7185 25.8576 60.5585 25.926 60.4385 26.0529L60.4285 26.0432ZM64.2685 45.2915C62.1585 42.811 61.0085 39.2855 61.0385 35.3597C61.0385 34.6859 61.0885 33.9632 61.1785 33.1038C62.3285 32.3128 63.2785 31.3557 64.0085 30.2522C64.0085 31.1702 64.0485 32.1468 64.2285 33.094C64.3585 33.7679 64.8085 35.3597 66.1485 35.5062C67.4385 35.6527 68.1885 34.2757 68.6585 33.4065C68.7785 33.1819 68.8985 32.9475 69.0085 32.6936C69.1785 33.4651 69.4685 34.012 69.9085 34.3636C70.3585 34.7249 70.9485 34.8616 71.6685 34.7737C73.7285 34.5394 74.1385 32.6448 74.5085 30.9749C74.5185 30.926 74.5285 30.8772 74.5385 30.8284C74.9485 32.7327 76.0085 33.7483 77.6485 33.7972C79.0485 33.8265 79.9985 33.1136 80.4385 31.678C81.2085 32.8987 82.2385 33.5726 83.3785 33.5823H83.4285C84.8585 33.5823 85.8185 32.762 86.2385 31.1995C87.3585 32.2444 88.9785 32.5081 90.4185 31.8343C90.7185 31.6878 91.0085 31.512 91.2685 31.3069C91.2985 31.4046 91.3185 31.5022 91.3385 31.5999C92.5285 37.9867 87.2485 43.5727 81.9085 46.6684C76.6085 49.7544 68.8185 50.6333 64.2685 45.2915ZM68.3185 66.1023C68.7885 60.8874 69.5085 55.526 70.4785 50.1743C72.6885 50.6431 75.0585 50.5747 77.3485 49.9888C78.9885 49.5689 80.6585 48.895 82.3185 48.0063C83.1985 49.3833 84.0885 50.7505 84.9685 52.0982C84.9985 52.1568 85.0385 52.2154 85.0585 52.2447C85.7585 53.3189 86.4585 54.4029 87.1485 55.4869C87.1685 55.6139 87.1985 55.7213 87.2585 55.8385L92.1485 64.8913C92.2485 65.3503 92.2485 65.7214 92.1585 66.0046C92.0985 66.0827 92.0585 66.1706 92.0385 66.2683C91.9385 66.4245 91.8085 66.5417 91.6385 66.6296C91.3185 66.7956 90.6585 66.8054 90.1285 66.8249C89.8785 66.8249 89.6385 66.8249 89.4585 66.8542L72.9985 68.5632C72.5785 68.6023 72.1385 68.6804 71.6885 68.7488C70.8085 68.8855 69.8985 69.032 69.0885 68.9734C69.0485 68.9734 69.0085 68.9734 68.9785 68.9929C68.6185 69.1394 68.3385 69.0808 68.0985 68.8074L68.1385 68.2312C68.0685 67.821 68.1485 67.3035 68.2285 66.8054C68.2685 66.5613 68.2985 66.3367 68.3185 66.1218V66.1023ZM53.6885 64.5105C53.8685 64.0808 54.4885 63.5046 54.9985 63.2018C55.8485 62.694 56.7385 62.6745 57.6785 62.6647C58.0485 62.6647 58.4385 62.655 58.8285 62.6159C58.9885 62.5964 59.1585 62.5768 59.3285 62.5378C58.6185 63.6999 57.1885 65.5749 55.1885 66.0535C54.6585 66.1804 53.9385 66.2097 53.6385 65.8679C53.3585 65.5456 53.5085 64.9597 53.6885 64.5105Z" fill="black"/>
<path d="M20.9886 58.2114C21.1686 58.2114 21.3486 58.1723 21.4986 58.0845C21.7386 57.9575 21.9086 57.7329 21.9686 57.4594C22.3386 57.3227 22.6386 57.0493 22.7586 56.7173C22.9186 56.2778 22.5986 55.809 22.1986 55.5454C21.5686 55.1254 20.5486 55.145 20.0486 55.8579C19.9686 55.9653 19.9286 56.0825 19.8886 56.1997C19.7586 56.2973 19.6586 56.434 19.6286 56.5903C19.5886 56.7661 19.6286 56.9419 19.7386 57.0981L19.9186 57.352V57.3911C19.9486 57.4399 19.9686 57.4985 19.9986 57.5669C20.0686 57.8013 20.2486 58.0063 20.5186 58.1235C20.6686 58.1919 20.8186 58.2212 20.9786 58.2212L20.9886 58.2114Z" fill="black"/>
<path d="M33.4486 59.5593C33.4986 59.5593 33.5486 59.5593 33.5986 59.5593C34.0286 59.5593 34.3986 59.3054 34.5786 58.8757C34.8786 58.6414 35.0686 58.3289 35.1086 57.9871C35.1686 57.4988 34.9486 56.9714 34.5486 56.6394C34.3486 56.4734 34.1086 56.3562 33.8686 56.3171C33.4186 56.2488 33.1686 56.5124 32.9386 56.7663C32.4386 57.3132 32.2286 57.8601 32.3186 58.3875C32.4286 58.9929 32.8886 59.4715 33.4486 59.5398V59.5593Z" fill="black"/>
<path d="M33.4785 63.759C33.2885 63.5051 32.8985 63.3684 32.5485 63.6126C30.9285 64.7747 28.8085 65.2532 26.7385 64.9114C24.6685 64.5794 22.8085 63.4661 21.6485 61.8547C21.5085 61.6594 21.3085 61.5715 21.0785 61.591C20.8385 61.6106 20.6085 61.7668 20.5085 61.9914C20.4085 62.1965 20.4285 62.4309 20.5685 62.6262C21.9285 64.511 24.0885 65.8099 26.5085 66.2005C27.0185 66.2786 27.5286 66.3177 28.0286 66.3177C29.9486 66.3177 31.8185 65.7415 33.3285 64.6575C33.6285 64.4426 33.6885 64.0618 33.4585 63.759H33.4785Z" fill="black"/>
<path d="M15.5486 80.9173C14.9986 81.3665 14.4586 81.8548 13.8886 82.3724C12.7486 83.3978 11.5685 84.4622 10.3385 85.1654C9.51855 85.6244 8.18855 85.3021 6.90855 84.9896C6.10855 84.7943 5.34855 84.6087 4.69855 84.6087H4.67855C2.95855 84.6087 1.71855 84.9994 0.908548 85.7904C0.0985476 86.5717 -0.211447 87.7631 0.148553 88.6811C0.548553 89.7162 1.66855 90.3022 3.29855 90.3315C3.33855 90.3315 3.38855 90.3315 3.42855 90.3315C6.15855 90.3315 8.90855 88.9838 10.8186 86.7181C10.8986 86.6205 10.9486 86.5033 10.9686 86.3861C11.7786 85.9466 12.5186 85.2533 13.1786 84.6478C13.4986 84.3451 13.7985 84.0618 14.0985 83.8275L19.7086 79.2571L17.0885 98.3882C16.9085 98.6324 16.8586 98.9351 16.9786 99.189L16.5585 102.265C16.4785 102.841 16.3586 103.457 16.2286 104.101C15.9586 105.498 15.6685 106.943 15.7685 108.242C15.9285 110.41 19.3286 110.83 21.3686 111.074C21.5686 111.103 21.7386 111.123 21.8986 111.142C24.2486 111.465 26.7185 111.445 29.2386 111.074L32.8485 121.992C32.8885 122.119 32.9586 122.285 33.0286 122.451C33.1586 122.773 33.3285 123.174 33.3285 123.408C33.3285 124.014 32.9686 124.736 32.3686 125.342C32.1986 125.517 32.0285 125.683 31.8486 125.85C31.5086 126.172 31.1485 126.514 30.8285 126.894C29.6185 128.32 28.8586 129.629 28.5586 130.781C28.3086 131.738 28.5986 132.666 29.2786 133.096C29.5186 133.242 29.7886 133.32 30.0586 133.32C30.4786 133.32 30.9385 133.145 31.3785 132.803C32.4486 131.953 33.2085 130.508 33.8186 129.336L33.9385 129.102C34.7285 127.598 35.3386 125.937 35.8186 124.053C35.8685 123.838 35.8186 123.633 35.6686 123.486C35.4986 123.33 35.2285 123.271 34.9885 123.34C34.8785 123.369 34.7886 123.418 34.7085 123.496C34.6786 123.349 34.6286 123.203 34.5886 123.056C34.3186 122.109 33.9986 121.162 33.6786 120.244C33.5186 119.785 33.3586 119.326 33.2085 118.867L30.5686 110.879C33.4186 110.322 36.1286 109.355 38.6386 107.988C38.9986 107.793 39.3486 107.578 39.6986 107.363C40.8486 109.882 42.1285 112.265 43.4885 114.443C44.2185 115.605 45.0085 116.767 45.9085 117.988C45.8285 118.144 45.6485 118.349 45.4885 118.535C45.0085 119.092 44.3386 119.863 44.9186 120.674C45.1986 121.064 45.6085 121.201 45.9985 121.328L46.1486 121.377C46.9686 121.65 47.8285 121.855 48.6585 122.051C49.0685 122.148 49.4786 122.246 49.8886 122.353C50.0586 122.402 50.2386 122.451 50.4286 122.5C51.5386 122.812 52.9086 123.203 54.0286 122.627C55.0286 122.119 55.3986 121.015 54.8986 120C54.4586 119.101 53.4185 118.408 52.2985 118.262C51.6285 118.174 50.9585 118.291 50.3186 118.408L49.9985 118.467C48.6585 118.691 48.0586 118.613 47.3086 117.676C47.2786 117.441 47.1785 117.217 46.9885 116.982C46.8985 116.865 46.7786 116.787 46.6386 116.758C44.4086 113.652 42.4585 110.254 40.8285 106.66C42.5785 105.478 44.1485 104.121 45.4885 102.627C46.3385 101.689 47.2885 100.576 47.9385 99.355C48.5385 98.2222 48.0686 97.3726 47.5686 96.4741C47.4986 96.3472 47.4185 96.2104 47.3485 96.0737L46.5785 94.6186C46.6485 94.4331 46.6486 94.2475 46.5686 94.0717C46.4785 93.8667 46.2886 93.7104 46.0586 93.6323C43.7486 89.2572 41.0686 84.0716 38.6486 78.6126C42.8186 78.4368 46.9886 78.8762 51.0286 79.9407C51.1586 79.9798 51.2886 79.9602 51.4186 79.9016C52.9886 80.8782 55.1885 81.9134 57.0185 81.5325C57.9185 81.347 58.6586 80.8294 59.2085 79.9993C59.7285 79.2083 59.8186 78.3001 59.4585 77.4309C59.0085 76.3371 57.9086 75.4485 56.6686 75.1652C55.4986 74.9016 54.2085 75.2043 53.0485 76.0149C52.4485 76.4348 51.8886 76.9914 51.3886 77.6751C51.2786 77.8313 51.1885 77.9583 51.1085 78.0754C50.9152 78.3619 50.5785 78.4596 50.0985 78.3684C46.3985 77.7043 42.3885 77.1282 38.0985 77.343C37.4585 75.8781 36.8986 74.5207 36.3886 73.2219C40.0186 71.5324 42.6785 67.9288 43.5185 63.5245C44.6985 57.3232 41.9785 50.829 36.5485 46.7957C38.8085 46.6785 41.2886 46.366 43.3986 45.0965C44.4286 44.4715 45.2286 43.6219 46.0086 42.7918C46.2386 42.5476 46.4685 42.3035 46.7085 42.0593C48.0985 40.6531 49.8085 39.6179 51.7985 38.9929C52.0385 38.9148 52.1985 38.7292 52.2185 38.4948C52.2485 38.2214 52.0985 37.9382 51.8485 37.7917C51.7185 37.7136 51.5785 37.6452 51.4385 37.5671C51.5285 37.4401 51.5785 37.2937 51.5686 37.1472C51.5686 36.8933 51.3986 36.6882 51.1386 36.6198C50.1986 36.3464 49.1986 36.1608 48.1686 36.0632C44.3986 34.6276 41.2686 34.5202 38.8886 35.7409C35.8786 37.2937 34.4885 40.5554 33.5485 43.5047C33.5385 43.5242 33.5085 43.573 33.4985 43.6023L33.1885 44.6473C33.1885 44.6473 33.1386 44.6961 33.1186 44.7254C28.3686 42.0691 24.6385 42.0398 22.0185 44.618C21.4185 44.9012 20.8086 45.2527 20.1386 45.6727C19.9686 45.4481 19.7886 45.2527 19.6086 45.0672C19.3886 44.8621 18.9786 44.8523 18.7586 45.0574C17.7186 45.9949 16.8486 47.0887 16.1886 48.3192C12.3186 46.3367 7.82855 46.7567 4.40855 49.4325C4.22855 49.4423 4.06855 49.5399 3.95855 49.7059L3.76855 49.9989C2.49855 51.161 1.52855 52.6064 0.988549 54.1201L0.488549 54.8622C0.288549 55.1552 0.358553 55.4677 0.538553 55.6728C0.358553 56.5615 0.288548 57.4502 0.338548 58.3291C0.358548 58.6221 0.568549 58.8467 0.878549 58.8955C1.19855 58.9443 1.50855 58.7881 1.61855 58.5146C2.90855 55.3798 6.05855 54.5986 9.39855 53.7685C11.3086 53.29 13.2785 52.8017 14.9085 51.8349C14.5685 52.3915 14.2585 52.9384 13.9885 53.4462C12.3085 56.6591 12.0485 60.0186 13.2385 63.1631C14.4785 66.4347 17.0886 69.2472 20.7886 71.3078L19.9586 77.3918L15.5585 80.9759L15.5486 80.9173ZM2.88855 89.0033C2.08855 88.9154 1.54855 88.515 1.43855 87.9389C1.31855 87.3236 1.72855 86.6693 2.48855 86.2787C3.00855 86.015 3.63855 85.9466 4.18855 85.9076C5.29855 85.8294 6.24855 86.0931 7.25855 86.3861C7.73855 86.5228 8.23855 86.6693 8.76855 86.7767C8.80855 86.7767 8.84855 86.7865 8.88855 86.7963C7.12855 88.3783 4.87855 89.2182 2.89855 89.0033H2.88855ZM33.8785 125.869C33.5885 126.709 33.2485 127.5 32.8585 128.271C32.3985 129.189 31.8886 130.039 31.3386 130.791L30.9586 131.318C30.8486 131.504 30.7386 131.602 30.5986 131.621C30.4586 131.641 30.1886 131.592 29.7586 131.23C29.7586 130.664 30.5985 129.424 30.8785 128.994L30.9786 128.848C31.2886 128.379 31.6486 127.92 32.0286 127.48C32.3086 127.168 32.6586 126.885 33.0286 126.582C33.3186 126.357 33.6086 126.123 33.8686 125.869H33.8785ZM46.5785 119.189C46.5785 119.189 46.6385 119.131 46.6786 119.101C46.6885 119.101 46.6986 119.082 46.7085 119.072C47.1885 119.687 47.5786 119.961 48.6986 119.912C49.1586 119.892 49.6385 119.795 50.0985 119.697C51.0285 119.512 51.9886 119.316 52.7786 119.697L53.3086 120.049C53.5686 120.224 53.7185 120.4 53.7085 120.508C53.7085 120.556 53.6486 120.713 53.1486 120.918C53.1186 120.928 53.0985 120.947 53.0785 120.967L52.7586 121.26C52.6186 121.387 52.4986 121.504 52.4585 121.514C52.4385 121.514 52.3886 121.514 52.3386 121.504C52.2386 121.494 52.1086 121.474 51.8986 121.465C51.4486 121.445 50.9386 121.289 50.4486 121.133C50.2186 121.064 49.9986 120.986 49.7886 120.937L48.8886 120.703C48.2586 120.537 47.6285 120.381 46.9985 120.215L46.3386 120.029L46.5686 119.17L46.5785 119.189ZM55.6386 76.3176C56.3886 76.2395 57.0886 76.5325 57.7085 77.1575C58.2085 77.6653 58.3885 78.2415 58.2185 78.7981C58.0185 79.4524 57.3885 79.9798 56.5485 80.1751C54.9685 80.5462 53.4485 79.6282 52.1885 78.8176C52.9985 77.6555 54.2886 76.4543 55.6386 76.3176ZM12.2286 48.4364L9.59855 48.9149C9.54855 48.8465 9.48855 48.7879 9.41855 48.7391C9.28855 48.661 9.12855 48.6317 8.95855 48.6708C8.63855 48.7391 8.30855 48.827 7.95855 48.9247C9.34855 48.4364 10.7985 48.2801 12.2385 48.4461L12.2286 48.4364ZM1.83855 55.7412C1.87855 55.5361 1.93855 55.331 1.99855 55.1162C2.65855 54.4228 3.39855 53.7489 4.17855 53.1142C5.27855 53.1337 6.36855 53.0946 7.46855 53.0068C5.36855 53.5536 3.30855 54.2568 1.83855 55.7412ZM14.5386 50.4872C14.4586 50.4872 14.3886 50.4872 14.3186 50.5067C12.1086 51.122 9.82855 51.5224 7.53855 51.7079L8.94855 51.2489C10.8785 50.7313 12.8686 50.3993 14.8586 50.2528C14.7586 50.3309 14.6586 50.4091 14.5386 50.4872ZM45.9585 96.2007C46.2285 96.6597 46.5085 97.1382 46.6885 97.6069C46.9985 98.4468 46.6485 98.9351 46.1085 99.6773L46.0185 99.7945C44.4885 101.943 42.5386 103.838 40.2286 105.429C40.1286 105.322 39.9986 105.254 39.8485 105.244C39.5985 105.205 39.3486 105.322 39.1986 105.507C39.0586 105.683 39.0385 105.908 39.1285 106.123C34.7085 108.847 29.4685 110.244 24.3585 110.039C23.1385 109.99 21.9086 109.843 20.6886 109.609C19.9586 109.463 19.2386 109.287 18.5585 109.082C17.4785 108.759 17.0786 108.105 17.2486 106.904L18.1985 99.9507C22.6586 102.041 27.9885 102.568 33.6285 101.464C37.3385 100.742 42.5686 99.3648 45.6986 95.7612C45.7786 95.9077 45.8685 96.0542 45.9585 96.2007ZM42.2786 43.5437C42.2786 43.5437 42.1785 43.5828 42.1285 43.6023C42.1585 43.573 42.1885 43.5437 42.2085 43.5144C42.9385 42.9969 43.6086 42.4109 44.1986 41.7468C44.1186 42.489 43.4685 43.0847 42.2685 43.5437H42.2786ZM49.7085 38.1237C49.7886 38.1628 49.8585 38.2019 49.9385 38.2409C48.9785 38.6413 48.1385 39.1101 47.3785 39.6765C46.7285 40.155 46.1686 40.7019 45.6386 41.2683C45.6186 40.9363 45.5285 40.5945 45.3785 40.2624C45.4185 40.2136 45.4585 40.155 45.4985 40.1062C45.5985 39.9499 45.6286 39.7644 45.5886 39.5788C45.5686 39.491 45.5286 39.4031 45.4786 39.3347C46.8686 38.8855 48.2885 38.4851 49.7185 38.1433L49.7085 38.1237ZM47.7485 37.2741C46.8285 37.528 45.8986 37.8015 44.9786 38.0944C44.9386 37.9577 44.8486 37.8308 44.7286 37.7331C44.6086 37.6452 44.4685 37.5964 44.3285 37.5964C44.2385 37.5964 44.1386 37.6159 44.0586 37.6648C43.9086 37.7429 43.7586 37.8308 43.6186 37.9187C43.5686 37.948 43.5186 37.9773 43.4786 38.0066C43.3386 37.8991 43.1986 37.7917 43.0586 37.6941C44.6086 37.2937 46.1885 37.1569 47.7685 37.2741H47.7485ZM41.6285 36.2194C42.2785 36.1413 42.9785 36.1413 43.7085 36.2194C42.8785 36.3757 42.0686 36.5905 41.2786 36.8737C41.3986 36.6589 41.5185 36.4343 41.6285 36.2194ZM42.2286 38.739C42.0986 38.8171 41.9686 38.905 41.8386 38.9831C41.8686 38.9441 41.8886 38.905 41.9186 38.8562C41.9786 38.7683 42.0085 38.6804 42.0185 38.5925C42.0885 38.6413 42.1485 38.6902 42.2185 38.739H42.2286ZM40.4985 38.2214C40.6085 38.0261 40.7286 37.8405 40.8386 37.6452C40.8686 37.7526 40.9286 37.8601 41.0086 37.948C41.0086 37.948 41.0085 37.948 40.9985 37.948C40.8185 38.0652 40.6486 38.1823 40.4786 38.3093C40.4786 38.28 40.4985 38.2507 40.4985 38.2214ZM35.6986 44.1883C35.7586 44.2078 35.8186 44.2176 35.8886 44.2273C36.0986 44.2273 36.2786 44.1492 36.4186 43.9832C36.4586 43.9344 36.4986 43.8758 36.5386 43.8269C36.5586 43.9637 36.6285 44.1004 36.7485 44.2078C36.9985 44.4324 37.4186 44.491 37.7286 44.1785C39.2686 42.4793 41.0685 40.9949 43.0785 39.7644C43.0985 39.7839 43.1186 39.7937 43.1386 39.8132L43.1186 39.8718C41.9586 40.9363 40.9286 42.1277 40.0286 43.407C39.9486 43.5242 39.9086 43.6512 39.8986 43.7781L39.7685 43.9246C39.6985 44.0125 39.6486 44.1199 39.6386 44.2273C38.4486 44.4227 37.0986 44.5105 35.6386 44.491C35.6586 44.3934 35.6786 44.2957 35.7085 44.198L35.6986 44.1883ZM30.5986 45.2918C30.6886 45.2918 30.7586 45.2625 30.8386 45.2137C31.1686 45.3211 31.5085 45.4481 31.8285 45.5848C31.9385 45.6238 32.0386 45.6727 32.1486 45.7215C32.1386 45.7508 32.1185 45.7801 32.1085 45.8192C32.0685 45.7996 32.0385 45.7899 31.9985 45.7801C31.5485 45.6043 30.8685 45.3797 30.1585 45.3406L30.5886 45.2918H30.5986ZM31.0586 46.8153C31.0386 46.8739 31.0286 46.9422 31.0286 47.0106C30.9286 46.9227 30.8186 46.825 30.7086 46.7371L31.0386 46.8055H31.0586V46.8153ZM31.3886 50.4091C30.9986 50.2235 30.6386 49.9989 30.3186 49.7352C29.7586 49.2079 29.3885 48.7391 29.2485 48.3876C30.2685 48.6415 30.9886 49.5106 31.3886 50.4091ZM29.1186 45.4383C29.0486 45.4578 28.9886 45.4774 28.9286 45.5067C28.9086 45.4969 28.8785 45.4774 28.8585 45.4676L29.1186 45.4383ZM27.2185 45.6336C27.1985 46.034 27.2185 46.4442 27.2985 46.8739C26.8385 46.5028 26.3385 46.2 25.7985 45.9949C25.7185 45.9656 25.6385 45.9461 25.5485 45.9461C25.4885 45.9461 25.4285 45.9461 25.3785 45.9656C25.3585 45.9168 25.3386 45.868 25.3186 45.8289L27.2185 45.6336ZM27.9085 51.5614C27.2885 51.0145 26.8085 50.3407 26.4985 49.5692C26.5885 49.3837 26.7085 49.2176 26.8585 49.0614C26.8585 49.0614 26.8786 49.0712 26.8886 49.0809C27.5086 49.6083 27.8485 50.4188 27.9085 51.5614ZM21.5286 46.3074C21.6286 46.2489 21.7186 46.2 21.8186 46.1414C21.8986 46.1707 21.9886 46.1707 22.0686 46.161C21.8986 46.4442 21.7486 46.7469 21.5886 47.0789C21.5486 47.0789 21.5086 47.0789 21.4586 47.0789C21.5586 46.9618 21.6185 46.8055 21.6085 46.6395C21.6085 46.5125 21.5686 46.3953 21.5086 46.2977L21.5286 46.3074ZM20.5486 52.1376C20.5486 52.1962 20.5486 52.245 20.5486 52.3036C20.4786 52.5673 20.3885 52.8212 20.2685 53.0653C20.3685 52.7626 20.4586 52.4501 20.5386 52.1376H20.5486ZM18.4686 51.0438L18.5086 50.7802C18.5286 50.6727 18.5386 50.5458 18.5486 50.4091C18.5686 50.1845 18.5985 49.9012 18.6585 49.6669C18.6685 49.8915 18.7085 50.1259 18.7685 50.3602C18.6385 50.6532 18.5286 50.9462 18.4386 51.2489C18.4486 51.1806 18.4586 51.1122 18.4686 51.0536V51.0438ZM16.0286 65.4972C13.8786 62.5284 13.2685 59.0127 14.3485 55.8291C14.4685 55.4677 14.6085 55.0966 14.7685 54.7255C14.8385 54.9599 15.0385 55.1259 15.3085 55.1455C15.6085 55.1845 15.9786 54.9892 16.0686 54.6181L16.8785 51.0341C16.9886 50.8778 17.1086 50.7313 17.2186 50.5848C17.1286 51.2196 17.0886 51.7763 17.0786 52.0497C17.0786 52.831 17.3486 54.2177 18.0986 54.9599C18.0686 55.2431 18.2286 55.5068 18.5086 55.6044C18.7786 55.7021 19.0686 55.6337 19.2486 55.4482C19.5486 55.4482 19.8686 55.3505 20.1886 55.165C20.6386 54.9111 21.0186 54.5497 21.3186 54.081C21.5886 54.12 21.8386 53.9638 21.9586 53.7099C22.1786 53.2314 22.3586 52.7235 22.4886 52.206C22.7085 52.206 22.9286 52.0888 23.0586 51.8251C23.1586 51.6005 23.2586 51.3759 23.3386 51.1415C23.8086 51.7567 24.5485 52.0692 25.3785 51.9618C25.4385 51.9618 25.5085 51.9325 25.5785 51.9032C26.1185 52.6943 26.9586 53.1532 27.8986 53.163L27.9685 53.2118C28.0685 53.2802 28.1686 53.3486 28.2786 53.4072C28.4486 53.5048 28.6686 53.5048 28.8686 53.4072C29.0786 53.2997 29.2186 53.1044 29.2286 52.8993C29.2486 52.665 29.2486 52.4208 29.2286 52.2157C29.3386 51.6688 29.3786 51.1317 29.3186 50.5946C29.4086 50.6727 29.4986 50.7509 29.5986 50.829C30.7586 51.9325 32.1786 52.6454 33.8386 52.9677C34.0586 53.0068 34.2885 52.9286 34.4385 52.7528C34.5985 52.5673 34.6486 52.3036 34.5586 52.079C34.1586 51.0438 33.6385 50.0868 33.0185 49.2176C33.6485 49.6571 34.3386 50.0184 35.0985 50.2919C35.3585 50.3895 35.6786 50.3016 35.8686 50.0868C36.0386 49.8915 36.0686 49.6473 35.9486 49.4227C35.8886 49.3055 35.8186 49.1981 35.7586 49.0809L36.2985 49.4813C36.6085 49.7157 37.0085 49.5985 37.2185 49.3739C37.2785 49.3055 37.3285 49.2372 37.3585 49.1688C40.2685 51.9325 42.0786 55.5361 42.3886 59.3057C42.7886 64.1104 40.5785 70.0675 35.5785 72.1965C35.3685 72.1769 35.1586 72.2746 35.0086 72.4308C34.2186 72.7043 33.4086 72.8801 32.5886 72.9484C26.6486 73.4074 19.3786 70.1456 16.0286 65.5069V65.4972ZM21.1986 78.0168L21.4586 77.802C21.6686 77.636 21.7486 77.3821 21.6786 77.1379C21.6286 76.9621 21.5185 76.8157 21.3785 76.7278L22.0386 71.9133C24.5486 73.1144 27.3185 73.9055 30.0485 74.1887C31.8085 74.3742 33.5085 74.1887 35.1285 73.6613C35.6885 75.0774 36.2785 76.5032 36.8785 77.8997C36.8585 78.1243 36.9586 78.3391 37.1386 78.4856C38.8786 82.4603 40.8986 86.6498 43.3186 91.2787C43.7985 92.2065 44.2985 93.1342 44.7886 94.0522L44.8686 94.1987C42.2286 97.7534 37.2686 99.1206 33.2286 99.9117C27.7486 100.986 22.6286 100.419 18.4286 98.2905L21.1986 78.0168Z" fill="black"/>
</svg>
