<svg width="86" height="134" viewBox="0 0 86 134" fill="none" xmlns="http://www.w3.org/2000/svg">
<path d="M51.7505 129.208V129.286C51.7505 129.443 51.8205 129.579 51.9305 129.696C51.9305 129.872 51.9805 130.038 52.0805 130.165C52.2105 130.312 52.4005 130.38 52.6105 130.361C52.6205 130.361 52.6405 130.361 52.6705 130.361C52.7405 130.39 52.8005 130.429 52.8705 130.458L52.9506 130.497C53.1206 130.585 53.3105 130.654 53.4905 130.722C53.7305 130.81 53.9705 130.878 54.2105 130.946L54.4405 131.025C54.5005 131.044 54.5505 131.073 54.6105 131.093L54.8605 131.171C54.9605 131.23 55.0505 131.288 55.1505 131.357C55.3005 131.464 55.4605 131.562 55.6505 131.65C55.7305 131.689 55.8105 131.708 55.8905 131.738C55.9905 131.767 56.0805 131.796 56.1505 131.845C56.3605 131.972 56.5506 132.07 56.7606 132.157C56.9305 132.236 57.1005 132.323 57.2705 132.411C57.4405 132.499 57.6105 132.587 57.7805 132.665C58.0205 132.773 58.2605 132.831 58.4905 132.89C58.6205 132.919 58.7505 132.958 58.8805 132.997L58.9605 133.017C59.3005 133.124 59.6305 133.232 60.0305 133.251C60.2005 133.251 60.3605 133.29 60.5406 133.329C60.8005 133.378 61.0705 133.437 61.3705 133.407C61.4905 133.398 61.6105 133.349 61.7105 133.281C61.9905 133.222 62.2205 132.997 62.2805 132.734C62.3805 132.616 62.4405 132.46 62.4405 132.314C62.4405 132.157 62.3905 132.021 62.2805 131.894C62.2805 131.894 62.2605 131.796 62.2505 131.767C62.2005 131.601 62.0905 131.474 62.0205 131.396C61.9105 131.279 61.7905 131.171 61.6705 131.064L61.6005 130.995C61.2505 130.683 60.8405 130.39 60.3505 130.097L60.2606 130.048C60.2006 130.019 60.0805 129.95 60.0605 129.931C60.0605 129.882 60.1305 129.745 60.1705 129.677C60.2105 129.609 60.2505 129.54 60.2705 129.482C60.4205 129.111 60.4505 128.7 60.4905 128.3C60.5005 128.144 60.5205 127.987 60.5406 127.841C60.5705 127.636 60.5905 127.431 60.6205 127.226C60.6605 126.874 60.7105 126.523 60.7705 126.171C60.8505 125.732 60.9406 125.302 61.0406 124.862L61.1305 124.452C61.2405 123.944 61.3606 123.437 61.4806 122.929C61.6306 122.284 61.7905 121.64 61.9105 120.995C62.0605 120.214 62.1905 119.433 62.3205 118.651C62.3806 118.251 62.4505 117.851 62.5205 117.45C62.5505 117.294 62.5705 117.148 62.6005 116.991L62.6305 116.796C62.8805 116.239 63.0005 115.614 63.1105 115.106C63.3905 113.72 63.7105 112.138 63.9205 110.595C64.1305 109.11 64.2205 107.772 64.2205 106.542C64.3705 105.311 64.5005 104.11 64.5106 102.88C64.5106 102.225 64.5106 101.552 64.4806 100.819C64.4806 100.731 64.4705 100.634 64.4605 100.546C64.5405 100.38 64.5506 100.204 64.5106 100.038C64.6005 100.038 64.6905 100.038 64.7805 100.009C64.9605 99.95 65.1005 99.8328 65.1805 99.6668C65.3005 99.491 65.3305 99.2762 65.2705 99.0711C65.3005 99.032 65.3306 98.9832 65.3505 98.9246C65.4605 98.6609 65.3205 98.368 65.2205 98.1629L65.1805 98.075C65.1805 98.075 65.1505 97.9871 65.1405 97.9773L65.1205 97.7918C65.1005 97.4988 65.0605 97.2058 65.0305 96.9128L64.9705 96.2C64.9305 95.6531 64.8805 95.1062 64.8305 94.5593C64.7405 93.5925 64.6405 92.6257 64.5205 91.6393C64.4605 91.1315 64.3905 90.6042 64.3005 90.1354V89.7936C64.3605 89.6862 64.3805 89.5788 64.3905 89.4713C64.3905 89.442 64.3905 89.4128 64.3905 89.3639C64.3905 89.3639 64.4605 89.276 64.4905 89.2272C64.5705 89.0514 64.5705 88.9049 64.5605 88.7878C64.5605 88.7389 64.5605 88.6901 64.5605 88.6413C64.5605 88.5729 64.6005 88.485 64.6305 88.4069C64.6705 88.2995 64.7206 88.1725 64.7306 88.0065C64.7306 87.9479 64.7406 87.8698 64.7306 87.8014C64.7306 87.8014 64.7306 87.7916 64.7306 87.7819C64.7505 87.7526 64.7805 87.7233 64.7906 87.6842C64.9006 87.4596 64.9105 87.1959 64.9005 86.942V86.7467C64.8805 86.3854 64.8605 86.0533 64.9005 85.7018C64.9805 84.9303 65.2105 84.1686 65.4205 83.4166L65.5406 83.0064C65.6206 82.7134 65.6905 82.4205 65.7705 82.1373C65.9205 81.5318 66.0806 80.9068 66.3205 80.3306C66.4006 80.1451 66.4905 79.9693 66.5705 79.7935C66.6906 79.5591 66.8105 79.315 66.9005 79.0708C67.0705 78.6216 67.2405 78.2603 67.4605 77.8599C67.6505 77.5181 67.8505 77.1567 68.0605 76.8735L68.1405 76.7954C68.2805 76.6587 68.4205 76.522 68.5305 76.4243C68.6405 76.3559 68.7505 76.2974 68.8705 76.2388C69.1205 76.1216 69.3306 75.9653 69.5406 75.8091C69.6705 75.7114 69.8106 75.6138 69.9506 75.5259C70.0906 75.438 70.2405 75.3501 70.3905 75.2719C70.6605 75.1157 70.9406 74.9497 71.2006 74.7837C71.6206 74.5102 72.0205 74.227 72.4205 73.934C72.6605 73.768 72.8905 73.602 73.1005 73.4458C73.7206 73.1235 74.3306 72.811 74.9506 72.518C76.3306 71.8442 77.9106 70.9848 79.2606 69.7641C79.9106 69.1781 80.5405 68.4945 81.1805 67.6937C81.5705 67.4105 81.8605 67.0394 82.0705 66.7464C82.2105 66.5511 82.3306 66.3363 82.4506 66.1312C82.5506 65.9554 82.6606 65.7699 82.7706 65.6039C82.8606 65.4769 82.9505 65.3499 83.0405 65.223C83.2105 64.9886 83.3806 64.7542 83.5206 64.5101C83.7006 64.2073 83.8305 63.8851 83.9405 63.5726C83.9905 63.4456 84.0306 63.3187 84.0906 63.2015C84.2106 62.8987 84.4006 62.6058 84.5705 62.3226L84.7505 62.0296C85.0405 61.5315 85.2305 61.1409 85.3705 60.76C85.5305 60.2913 85.5105 59.8128 85.4905 59.3538V59.2659C85.4705 58.9143 85.5506 58.6213 85.6406 58.2698L85.7006 58.0159C85.8206 57.5276 85.8205 57.0295 85.8105 56.5119C85.8005 56.092 85.8005 55.6721 85.8005 55.2424V54.8127C85.8305 54.0998 85.8305 53.3674 85.8005 52.6252V52.2638C85.8005 51.6486 85.8105 51.0431 85.8105 50.4279V50.3009C85.8105 49.4025 85.8106 48.4845 85.6406 47.5665C85.5106 46.8927 85.2805 46.2774 85.0106 45.6524V45.5743C84.9406 45.2618 84.8905 44.9493 84.8205 44.6465C84.4706 43.0938 84.0105 41.541 83.5505 40.0469L83.3005 39.2265C83.0105 38.2597 82.6506 37.4394 82.2106 36.7168L81.8906 36.2089C81.5106 35.6035 81.1506 35.0273 80.8205 34.412C80.5005 33.8163 80.0505 33.3085 79.6005 32.8202C79.4505 32.6542 79.3005 32.498 79.1605 32.3222C79.0205 32.1659 78.8905 32.0097 78.7505 31.8534V31.8339C78.9005 31.5995 78.8705 31.2968 78.7305 31.0819C78.5605 30.8182 78.2006 30.662 77.8406 30.8671C77.6606 30.6718 77.4705 30.4862 77.2805 30.3007C76.0305 29.1385 74.5705 28.201 72.9405 27.4979C71.4505 26.8631 69.8005 26.4334 68.0305 26.2186C68.0305 25.8865 68.0306 25.535 67.9806 25.1932C67.9206 24.7342 67.7805 24.2947 67.6505 23.8748C67.6005 23.7283 67.5605 23.5818 67.5205 23.4256C67.3505 22.8494 67.2205 22.2146 67.1205 21.5408C67.1005 21.3748 67.0806 21.2087 67.0705 21.0427C67.0705 20.9255 67.0506 20.8083 67.0406 20.6912C67.0305 20.574 67.0105 20.447 66.9905 20.3201C66.9605 20.1345 66.9305 19.949 66.9305 19.7732C66.9305 19.4411 66.8805 19.1286 66.8405 18.8161C66.8005 18.5427 66.7606 18.279 66.7606 18.0153C66.7606 17.7321 66.7005 17.4587 66.6605 17.195L66.6405 17.0974C66.6105 16.9313 66.6005 16.7751 66.5905 16.6091C66.5805 16.4431 66.5705 16.2868 66.5406 16.1208C66.3605 14.988 66.1205 13.8551 65.8905 12.7516L65.7705 12.1559C65.4205 10.5152 65.0705 9.06014 64.6905 7.7027C64.6705 7.64411 64.6505 7.60504 64.6505 7.62457C64.5705 7.3316 64.4505 7.12653 64.2805 6.98004C64.0805 6.79449 63.8405 6.71636 63.5905 6.74566C63.2805 6.78472 62.9606 6.9898 62.7606 7.29254C62.6606 7.43903 62.6005 7.59528 62.5305 7.75153L62.4905 7.8492C62.4305 7.97615 62.3205 8.191 62.2205 8.38631L62.1605 8.49374C61.8105 9.13828 61.4805 9.70469 61.1505 10.2125C60.4005 11.3746 59.7005 12.5368 59.0605 13.6305C58.3905 14.7731 57.7105 15.9059 57.0305 17.0388L56.7606 17.4977C56.5706 17.8103 56.3905 18.1228 56.2105 18.4353C56.0005 18.7966 55.7905 19.1482 55.5805 19.5095L55.4005 19.822C55.4005 19.822 55.3505 19.9001 55.3305 19.949C55.3205 19.9197 55.3105 19.8806 55.3005 19.8513C55.2305 19.6657 55.1505 19.4704 55.0805 19.2849C54.9505 18.9626 54.8106 18.6208 54.7006 18.279C54.5706 17.8786 54.4505 17.4685 54.3305 17.0681C54.1205 16.3747 53.9105 15.6618 53.6605 14.9587C53.2805 13.8649 52.8905 12.7028 52.6605 11.5406C52.6005 11.2184 52.5405 10.8863 52.4905 10.5543C52.4505 10.3102 52.4105 10.0562 52.3705 9.81211C52.2905 9.34335 52.1805 8.87459 52.0705 8.40584L51.9705 7.98592C51.8405 7.40974 51.7005 6.74567 51.6105 6.0816L51.5905 5.92534C51.5205 5.35893 51.4405 4.76322 51.0705 4.24563C50.9105 4.02102 50.6905 3.90382 50.4605 3.93312C50.1705 3.96242 49.9206 4.09914 49.7306 4.35305L49.7006 4.37259C49.4406 4.57767 49.3405 4.90969 49.2705 5.18313C49.2405 5.27103 49.2205 5.35892 49.1905 5.42728C49.0705 5.72025 48.9205 6.00346 48.7805 6.28667L48.6205 6.60894L48.2505 7.17536C47.9205 7.67341 47.5705 8.21053 47.2505 8.76718L47.0705 9.08944C46.8405 9.4996 46.6105 9.91952 46.3405 10.3102C46.0605 10.7301 45.7205 11.1305 45.3905 11.5211L45.1605 11.7946C44.6605 12.3903 44.1805 13.0153 43.7205 13.6208C43.4105 14.0309 43.0905 14.4313 42.7705 14.8415C42.5005 15.1833 42.1805 15.5153 41.8805 15.8278L41.5406 16.1794C41.3706 16.3649 41.2005 16.5505 41.0305 16.7458C40.8505 16.9509 40.6606 17.156 40.4806 17.3513C40.4106 17.3903 40.3405 17.4294 40.2705 17.4587C40.0105 17.5954 39.7506 17.7321 39.5106 17.947C39.3306 18.113 39.1005 18.2204 38.8705 18.3278C38.7005 18.406 38.5205 18.4939 38.3505 18.5915C38.3005 18.6306 38.2405 18.6696 38.1705 18.7282C38.1005 18.7868 37.9706 18.8845 37.9806 18.904C37.9806 18.904 37.9706 18.904 37.9506 18.8747V18.8552C37.9206 18.7966 37.8905 18.7282 37.8605 18.6697C37.6505 18.279 37.5305 17.8688 37.4005 17.4392L37.3105 17.1267C37.2305 16.8532 37.1205 16.5505 36.9305 16.2673C36.7805 16.0427 36.6905 15.8376 36.6105 15.5544C36.4605 15.0368 36.2505 14.529 36.0505 14.0309L35.9105 13.6794C35.3905 12.3805 34.7605 11.1305 34.1505 9.90977L34.0406 9.68515C33.7606 9.13826 33.4505 8.48397 33.1705 7.8199L33.0805 7.60505C32.9905 7.39997 32.9105 7.20465 32.8505 6.99956C32.7505 6.67729 32.6605 6.3941 32.4205 6.14019C32.3205 6.03277 32.1705 5.96441 32.0305 5.94488L32.0505 5.2515L32.0905 5.37846V5.10502C32.4305 5.18315 32.8605 5.23197 33.2405 5.08549C34.0405 4.78275 34.3105 3.86477 34.1505 3.15187C34.0805 2.8003 33.8905 2.4878 33.6305 2.28272C33.3005 2.01904 32.8405 1.88231 32.3405 1.92138C32.2605 1.92138 32.1905 1.94091 32.1105 1.95067C32.0305 1.96044 31.9405 1.97997 31.8505 1.97997C31.8006 1.97997 31.7605 1.97997 31.7105 1.97997C31.6705 1.97997 31.6305 1.97997 31.5905 1.97997L31.5706 1.90186V1.97997C31.5706 1.97997 31.5306 1.97997 31.5106 1.97997C31.2106 1.97997 30.9705 2.07763 30.8005 2.24365C30.5705 2.46826 30.5105 2.81007 30.6205 3.15187C30.6505 3.24953 30.7105 3.34717 30.7805 3.41554C30.6205 3.86476 30.7005 4.31399 30.9905 4.65579C31.1505 4.84134 31.3606 4.939 31.5706 5.00736V5.83745L31.7705 5.06595C31.7705 5.06595 31.8005 5.06595 31.8105 5.06595L31.9905 5.95464C31.8405 5.93511 31.6805 5.9644 31.5605 6.04252C30.9605 6.41362 30.8505 7.07769 30.7505 7.6734C30.7205 7.86872 30.6805 8.06404 30.6305 8.23982C30.4405 8.88436 30.2305 9.5289 30.0205 10.1637C29.8805 10.5836 29.7505 11.0035 29.6105 11.4235C29.2805 12.4879 28.9305 13.5817 28.6705 14.7047C28.6305 14.8805 28.5905 15.0466 28.5505 15.2223C28.4805 15.5641 28.4005 15.8962 28.3105 16.2282C28.2505 16.4431 28.1705 16.6579 28.1005 16.8727C28.0005 17.1559 27.9005 17.4392 27.8305 17.7419C27.7805 17.947 27.7405 18.1521 27.6905 18.3571C27.6105 18.7282 27.5305 19.1091 27.4205 19.4704C27.3705 19.6365 27.3105 19.7927 27.2505 19.949C27.1805 20.115 27.1206 20.2908 27.0706 20.4665C26.6106 20.5837 26.1305 20.7302 25.5905 20.9353C25.4705 20.9646 25.3506 20.9939 25.2306 21.0232C25.0006 21.0818 24.7605 21.1306 24.5205 21.2283C24.3705 21.2869 24.2305 21.3552 24.0805 21.4236C23.9505 21.4919 23.8105 21.5505 23.6805 21.6091C23.4605 21.6873 23.2205 21.7166 22.9705 21.7459C22.8605 21.7556 22.7605 21.7654 22.6505 21.7849C21.9805 21.8826 21.3206 22.1658 20.7006 22.4588C20.3206 22.6345 19.9605 22.8592 19.6205 23.074C19.4105 23.201 19.2005 23.3377 18.9905 23.4549C18.4505 23.7576 17.8505 24.0506 17.1605 24.3338C17.0305 24.3924 16.9005 24.4607 16.7705 24.5291C16.6105 24.617 16.4706 24.6951 16.3206 24.7439C16.2606 24.7635 16.2005 24.7635 16.1205 24.7732C16.0405 24.7732 15.9705 24.783 15.8905 24.8025C15.6405 24.8514 15.4506 25.0076 15.3205 25.1248C15.1105 25.3201 14.8605 25.5447 14.6405 25.8084C14.5505 25.9158 14.4705 26.0135 14.3605 26.0721L14.2205 26.1404C14.1105 26.199 14.0105 26.2479 13.9105 26.3162C13.7005 26.4627 13.5205 26.6287 13.3405 26.7947C13.2405 26.8924 13.1305 26.9803 13.0305 27.0682L12.5106 27.4979C12.3306 27.5858 12.1305 27.6834 11.9605 27.8202L11.4605 28.201C11.1305 28.4452 10.8006 28.6991 10.4806 28.953L10.6405 29.1385L10.4305 28.992C8.34054 30.6034 6.62054 32.3417 5.37054 34.1093C4.70054 34.6952 3.75053 35.5937 3.30053 36.7265L3.17053 37.0683C2.99053 37.5176 2.82053 37.9375 2.61053 38.3574C2.34053 38.8945 2.17055 39.4512 2.10055 40.0566C2.09055 40.1641 2.08055 40.2617 2.07055 40.3692C2.07055 40.5156 2.05053 40.6621 2.02053 40.8086C1.95053 41.1211 1.83053 41.4336 1.71053 41.7461C1.59053 42.0586 1.44053 42.3614 1.30053 42.6641C1.16053 42.9473 1.03055 43.2305 0.910546 43.5235C0.790546 43.8165 0.710527 44.1192 0.640527 44.4219C0.570527 44.7051 0.500537 44.9688 0.400537 45.2227C0.290537 45.5059 0.190545 45.8087 0.190545 46.1798C0.190545 46.3849 0.160538 46.5899 0.120538 46.795C0.100538 46.9024 0.0905294 47.0001 0.0805294 47.1075C0.0105294 47.6837 0.0205318 48.2599 0.0205318 48.8165V49.2951C0.0205318 50.0275 0.0205428 50.7599 0.000542789 51.4923C-0.00945721 52.049 0.120533 52.5666 0.240533 52.9865C0.300533 53.631 0.380543 54.2658 0.500543 54.8225C0.500543 54.9299 0.520551 55.0373 0.540551 55.1545C0.560551 55.2229 0.580549 55.2912 0.600549 55.3596C0.630549 55.4572 0.660546 55.5354 0.660546 55.6135C0.660546 55.7112 0.690533 55.8088 0.740533 55.8967L0.800531 56.1506C0.860531 56.3947 0.910544 56.6487 0.970544 56.8733C1.07054 57.4787 1.18053 58.0842 1.30053 58.6897C1.60053 60.3108 2.20054 61.9026 3.12054 63.553C3.68054 64.5491 4.21053 65.4085 4.74053 66.1898L4.78054 66.2582C4.78054 66.2582 4.82055 66.307 4.85055 66.3363C5.26055 66.9222 5.61053 67.391 5.96053 67.7914C6.94053 68.934 8.13053 70.0375 9.71053 71.2875L10.2606 71.7172C10.4106 71.8735 10.5605 72.0297 10.7105 72.186C11.1105 72.5961 11.5105 73.0258 11.9605 73.4067C12.1605 73.5825 12.3706 73.7485 12.5705 73.9243C13.0406 74.3149 13.4905 74.6762 13.8905 75.1157L14.0805 75.3208C14.2305 75.4868 14.3905 75.6528 14.5205 75.8188C14.6405 75.9848 14.7205 76.1997 14.8005 76.4243C14.8505 76.5513 14.8905 76.6782 14.9405 76.8052C15.0205 76.9907 15.1205 77.1763 15.2105 77.3521C15.3105 77.5474 15.4105 77.7427 15.5005 77.9478C15.6705 78.3384 15.8205 78.7583 15.9405 79.188C16.0405 79.5298 16.1005 79.8716 16.1205 80.2915C16.1405 80.6333 16.2405 80.9459 16.3405 81.2486L16.4205 81.5123C16.5805 82.0689 16.7005 82.6549 16.8105 83.2213C16.8705 83.524 16.9205 83.817 16.9905 84.1197L17.0505 84.4029C17.1205 84.7154 17.1905 85.0084 17.2205 85.3111L17.2705 86.0143C17.1905 86.1998 17.2105 86.3951 17.3305 86.5709C17.3305 86.6002 17.3305 86.6198 17.3305 86.6491C17.3705 86.8737 17.3705 87.0885 17.3705 87.3326C17.3705 87.528 17.3705 87.7233 17.3905 87.9186C17.4205 88.1823 17.4605 88.4362 17.4905 88.6999L17.5106 88.8366C17.4406 89.3346 17.4806 89.8522 17.5106 90.3405C17.5106 90.487 17.5306 90.6237 17.5406 90.7604C17.5906 91.6686 17.8905 92.5769 18.2105 93.4265C18.2905 93.6413 18.3705 93.8659 18.4405 94.0613L18.4905 94.2566C18.5205 94.4031 18.5605 94.5495 18.6105 94.7155C18.6405 94.862 18.6605 95.0085 18.6805 95.155C18.7205 95.3992 18.7605 95.6433 18.8105 95.8777C18.8505 96.0437 18.8905 96.1999 18.9305 96.366C19.0005 96.6296 19.0705 96.8836 19.1005 97.1375C19.1105 97.2351 19.1105 97.3425 19.1205 97.4402V97.4695C19.0305 97.655 18.9905 97.8504 18.9905 98.0262C18.9705 98.075 18.9606 98.1141 18.9506 98.1629C18.9006 98.407 18.8905 98.6609 18.8905 98.9734C18.8905 99.1785 18.9105 99.3933 18.9305 99.5984C18.9505 99.8133 18.9605 100.018 18.9605 100.233C18.9605 100.419 19.0405 100.595 19.1805 100.722C19.3105 100.839 19.4705 100.897 19.6305 100.897C19.6505 100.897 19.6806 100.897 19.7006 100.897C19.8106 101.386 19.9205 101.884 20.0305 102.372C20.0105 102.479 20.0305 102.577 20.0605 102.665L20.1705 102.968C20.6605 105.018 21.2805 107.108 22.0605 109.345C22.5205 110.673 23.0505 112.06 23.7705 113.827C23.9205 114.267 24.0705 114.716 24.2205 115.155L24.4605 115.858C24.5405 116.103 24.6405 116.337 24.7405 116.571C24.8305 116.776 24.9105 116.991 24.9905 117.206C25.1005 117.519 25.1806 117.831 25.2606 118.144L25.3705 118.544C25.6105 119.413 25.9305 120.302 26.3605 121.249C26.5605 121.689 26.7805 122.128 27.0005 122.558C27.2005 122.948 27.3905 123.339 27.5805 123.739C27.7705 124.15 27.9906 124.521 28.3206 124.989C28.4306 125.155 28.5405 125.312 28.6205 125.478C28.6705 125.605 28.7105 125.732 28.7405 125.859C28.7705 125.956 28.8005 126.064 28.8305 126.161C28.9505 126.503 29.1405 126.757 29.3305 127.011C29.4305 127.138 29.5305 127.275 29.6105 127.411C29.6805 127.528 29.7405 127.646 29.8005 127.773C29.9305 128.036 30.0605 128.3 30.3005 128.544L30.3505 128.661C30.3505 128.661 30.3705 128.691 30.3805 128.71C30.3405 128.818 30.3206 128.935 30.3206 129.081C30.2306 129.189 30.1405 129.296 30.0605 129.394L29.9305 129.54C29.5305 130.009 29.0806 130.419 28.7006 130.751C28.3106 131.093 27.9106 131.493 27.7006 132.04C27.4206 132.773 27.6305 133.349 28.2505 133.583C28.5405 133.691 28.8305 133.74 29.1205 133.74C29.7905 133.74 30.4305 133.505 31.0205 133.29C31.2605 133.202 31.5005 133.114 31.7405 133.046C32.0005 132.968 32.2705 132.9 32.5305 132.831C32.9005 132.734 33.2805 132.636 33.6505 132.509C34.1905 132.333 34.7206 132.216 35.2906 132.099L35.5005 132.05C35.8405 131.982 36.1205 131.904 36.3705 131.825C36.5105 131.777 36.6506 131.718 36.7906 131.65C36.9305 131.591 37.0605 131.523 37.2105 131.484L37.3205 131.454C37.5606 131.396 37.8306 131.318 38.0406 131.103C38.2305 130.917 38.3305 130.673 38.4105 130.468L38.4506 130.37C38.6506 129.882 38.7805 129.423 38.8405 128.954H39.2606C39.7006 128.954 39.9305 128.612 39.9305 128.28C39.9305 127.9 39.6406 127.607 39.2606 127.607C39.1706 127.607 39.0706 127.607 38.9806 127.607C39.0206 127.431 39.0705 127.255 39.1205 127.079L39.2006 126.777C39.2606 126.571 39.3105 126.366 39.3605 126.161C39.4605 125.741 39.5505 125.351 39.6905 124.96C39.7105 124.911 39.7205 124.853 39.7405 124.804L39.7705 124.716C40.0405 124.071 40.2505 123.359 40.4205 122.558C40.4305 122.489 40.4505 122.421 40.4605 122.353L40.6105 121.845C40.9005 120.976 41.1905 120.077 41.4005 119.149C41.4905 118.749 41.6106 118.339 41.7306 117.948C41.8206 117.655 41.9105 117.362 41.9905 117.06C42.0505 116.825 42.0905 116.581 42.1205 116.386L42.3605 115.692C42.4705 115.438 42.5905 115.136 42.6405 114.833L42.9905 113.7L43.0305 113.642C43.0305 113.642 43.0805 113.563 43.1105 113.524C43.1705 113.456 43.2405 113.388 43.3105 113.329C43.4505 113.192 43.5905 113.056 43.7105 112.88C43.7705 112.782 43.8405 112.685 43.9105 112.587L43.9506 112.528C44.1106 112.499 44.2505 112.411 44.3505 112.294L44.4605 112.235C44.5405 112.196 44.6105 112.157 44.6905 112.118C44.7205 112.099 44.7505 112.079 44.7805 112.069C44.9105 112.069 45.0305 112.069 45.1605 112.079C45.3705 112.079 45.5806 112.099 45.7906 112.099H46.3205C46.8505 112.099 47.4005 112.099 47.9405 112.079C48.0705 112.88 48.3205 113.642 48.5705 114.394C48.6805 114.735 48.8005 115.087 48.9005 115.438C49.0505 115.937 49.1605 116.435 49.2906 117.021L49.3205 117.206C49.3405 117.333 49.3605 117.46 49.3805 117.587C49.4505 117.997 49.5405 118.398 49.6305 118.808C49.7205 119.218 49.8205 119.628 49.8805 120.048C49.9305 120.36 49.9506 120.663 49.9806 120.976C50.0206 121.454 50.0605 121.952 50.1905 122.441C50.2705 122.773 50.3405 123.105 50.4105 123.446C50.5005 123.896 50.6006 124.364 50.7306 124.823C50.8806 125.341 50.9805 125.888 51.0805 126.415C51.1505 126.786 51.2205 127.167 51.3005 127.538C51.4005 127.958 51.5505 128.32 51.7205 128.73C51.7805 128.866 51.8105 128.984 51.8105 129.071C51.8105 129.091 51.8105 129.13 51.8105 129.159C51.8105 129.189 51.8105 129.228 51.8105 129.277L51.7505 129.208ZM32.2505 3.52296C32.3105 3.43507 32.3705 3.33742 32.4205 3.23976H32.5605L32.6105 3.00538L32.6305 3.25929C32.6305 3.25929 32.7006 3.26906 32.7306 3.28859C32.7506 3.31789 32.7705 3.34719 32.7906 3.39601C32.7906 3.42531 32.8005 3.45461 32.8105 3.53273C32.8105 3.5718 32.8105 3.60109 32.8005 3.67921L32.7505 3.80617L32.7705 3.8257H32.7006C32.6406 3.83546 32.5905 3.83546 32.5505 3.8257L32.4806 3.99173L32.4506 4.01125V3.80617L32.1205 3.73781C32.1605 3.66945 32.2005 3.60109 32.2505 3.53273V3.52296ZM60.1005 131.532C60.1005 131.532 60.0505 131.513 60.0205 131.503C59.3305 131.191 58.6005 131.025 57.9005 130.868C57.7305 130.829 57.5605 130.79 57.3905 130.751C57.1105 130.683 56.8505 130.546 56.5805 130.409L56.3305 130.282C56.0105 130.126 55.6705 130.019 55.3405 129.911L55.2705 129.872C55.1905 129.833 55.1205 129.804 55.0305 129.775C54.9605 129.755 54.8806 129.736 54.7606 129.696L54.6905 129.677C54.4105 129.579 54.1205 129.472 53.8505 129.345C53.7705 129.306 53.6805 129.267 53.6005 129.237C53.5705 129.12 53.5105 129.003 53.4205 128.915C53.2405 128.73 53.1905 128.339 53.1605 127.997C53.2305 127.997 53.3005 127.997 53.3705 127.997C53.6005 128.007 53.8305 128.066 54.0705 128.134L54.2105 128.173C54.8205 128.339 55.4505 128.446 56.0605 128.564L56.2306 128.593C56.6506 128.671 57.0305 128.818 57.4305 128.974C57.6105 129.042 57.7805 129.111 57.9605 129.169C58.0205 129.189 58.1005 129.208 58.1805 129.237C58.3305 129.277 58.5205 129.335 58.6305 129.404C58.6405 129.501 58.6705 129.589 58.7205 129.677C58.7005 129.775 58.6805 129.882 58.6905 130.009C58.7105 130.321 58.8605 130.624 59.1105 130.868C59.3505 131.093 59.6305 131.259 59.9005 131.425C59.9705 131.464 60.0405 131.513 60.1105 131.552L60.1005 131.532ZM72.3805 28.6795C73.9205 29.3436 75.2905 30.2323 76.4405 31.3261C76.5105 31.3847 76.5705 31.453 76.6305 31.5214C76.6105 31.5409 76.5905 31.5507 76.5705 31.5604C76.3905 31.6776 76.1905 31.7655 75.9705 31.8534C75.7405 31.9511 75.5005 32.0487 75.2805 32.1854C75.0605 32.3319 74.8805 32.4394 74.6805 32.5175L74.5505 32.5663C74.3505 32.6444 74.1506 32.7226 73.9506 32.8398C73.7706 32.9472 73.6005 33.0741 73.4305 33.2011C73.2405 33.3476 73.0505 33.4941 72.8405 33.6015C72.2505 33.914 71.7005 34.3046 71.1805 34.6855C70.8805 34.9003 70.5905 35.1152 70.2805 35.3105C69.7205 35.6816 69.2705 36.082 68.9605 36.5019C68.8305 36.4433 68.6805 36.4043 68.5106 36.3945C68.3205 36.3945 68.1705 36.3652 67.9705 36.3164C67.8505 36.2871 67.7405 36.248 67.6305 36.2089L67.4405 36.1503C67.3405 36.121 67.2305 36.082 67.1305 36.0429C66.8105 35.9257 66.4805 35.8085 66.1105 35.8085H66.0805C65.8505 35.8085 65.6205 35.7402 65.3805 35.6718C65.2105 35.623 65.0305 35.5644 64.8505 35.5351C64.7105 35.5058 64.5605 35.496 64.4105 35.4765L64.2705 35.457C64.0105 35.3984 63.7505 35.3398 63.5305 35.291L63.3805 35.2324C63.2205 35.164 63.0505 35.0859 62.8305 35.0663C62.7905 35.0663 62.7505 35.0663 62.6905 35.0663C62.5505 35.0175 62.4105 34.9687 62.2705 34.9199C62.1105 34.8613 61.9506 34.8027 61.7906 34.7538L61.6505 34.705C61.3205 34.5976 60.9805 34.4804 60.7205 34.2851C60.6105 34.207 60.5705 34.1581 60.5505 34.1484C60.6805 34.0409 61.0705 33.9823 61.2505 33.9628H61.3405C61.6405 33.914 61.9505 33.9042 62.1905 33.914L62.3505 33.9628C62.4805 34.0019 62.6105 34.0409 62.7405 34.0898C63.1905 34.246 63.6705 34.3925 64.1905 34.3925C64.5005 34.3925 64.7705 34.1679 64.8505 33.8652C64.9205 33.5722 64.8005 33.289 64.5305 33.1425C64.1005 32.9179 63.5705 32.8007 63.1005 32.7128L62.9705 32.6835C62.8405 32.6542 62.7105 32.6444 62.5805 32.6249H62.5305C62.2805 32.5468 62.0505 32.4784 61.8305 32.3905C61.5005 32.244 61.0206 32.0194 60.7306 31.7265C60.6506 31.6483 60.6205 31.5507 60.6405 31.4726C60.6605 31.3944 60.7205 31.3358 60.8305 31.2968C61.2205 31.16 61.7505 31.2675 62.2205 31.3554C62.3705 31.3847 62.5105 31.4139 62.6405 31.4335C63.0505 31.5018 63.4705 31.5604 63.8805 31.6776C63.9605 31.6972 64.0406 31.7167 64.1305 31.746C64.2906 31.7851 64.4605 31.8241 64.5805 31.8632C64.6505 31.9022 64.7305 31.9413 64.8105 31.9804C64.8905 32.0194 64.9705 32.0585 65.0505 32.1073C65.4005 32.3124 65.7906 32.1464 65.9806 31.8729C66.1506 31.6288 66.1405 31.3358 65.9605 31.121L65.9905 31.0819L65.5505 30.8378C65.5505 30.8378 65.4905 30.8085 65.4705 30.7987C64.7405 30.3886 63.9605 29.9979 63.1405 29.6366C63.0905 29.6171 63.0105 29.5878 62.9105 29.5487C62.7805 29.4999 62.4605 29.3924 62.3105 29.3046C62.4105 29.2362 62.6405 29.1483 62.8405 29.1092C63.4005 29.0018 63.9706 29.1092 64.5705 29.2167C64.7705 29.2557 64.9805 29.2948 65.1805 29.3143C65.4205 29.3534 65.6705 29.3827 65.8505 29.412L65.9305 29.451C66.1505 29.5585 66.3705 29.6561 66.5905 29.7538C66.8505 29.871 67.1705 29.8221 67.3805 29.6463C67.5705 29.4803 67.6506 29.2362 67.5705 28.9823C67.4006 28.3963 66.7505 28.2108 66.2705 28.1131C65.9105 27.9373 65.4905 27.742 65.0406 27.6053C64.9605 27.5858 64.8905 27.5565 64.8105 27.537C64.7105 27.5077 64.6005 27.4783 64.5005 27.4491C64.5305 27.4491 64.5705 27.4393 64.6105 27.4295C65.0205 27.3612 65.4605 27.3612 65.8805 27.3709C68.2805 27.4198 70.4605 27.8592 72.3705 28.6795H72.3805ZM70.5106 45.252L70.5605 45.4473C70.5805 45.5352 70.6105 45.6231 70.6205 45.6524V46.2286C70.6205 46.7755 70.6105 47.3517 70.5605 47.9864V48.1427C70.5005 48.7091 70.4405 49.2755 70.3605 49.8908C70.1905 51.1994 69.8705 52.1466 69.3105 53.0158L69.2405 53.0646C68.8905 53.299 68.5205 53.5431 68.2105 53.8752C67.8805 54.2267 67.5705 54.549 67.1805 54.8127C66.7905 55.0861 66.3405 55.34 65.8705 55.5647C64.9105 56.0139 63.8805 56.3264 62.9905 56.5705L62.7306 56.6389C62.2706 56.7658 61.8005 56.8928 61.3405 56.9905C60.9905 57.0588 60.6505 57.1467 60.3105 57.2346C60.0305 57.303 59.7606 57.3713 59.4806 57.4299C58.8106 57.5764 58.1705 57.7034 57.5005 57.8205L57.3305 57.8498C57.1205 57.8889 56.9106 57.928 56.7006 57.928C56.5106 57.928 56.3305 57.9768 56.1805 58.0256C56.0705 58.0549 55.9605 58.094 55.8405 58.1037C55.6605 58.1135 55.5005 58.2014 55.3805 58.3284L55.1405 58.3577C54.1505 58.4651 53.1305 58.592 52.1405 58.5725C51.0505 58.6018 49.9706 58.6409 49.0106 58.7092C49.0106 58.5823 49.0106 58.4553 49.0106 58.3186C49.0106 58.1721 49.0105 58.0256 49.0005 57.8791C49.0005 57.6252 49.0005 57.3616 48.9605 57.1077C48.9205 56.678 48.8405 56.2776 48.7105 55.8967C48.7605 55.7795 48.8005 55.6623 48.8405 55.5451L48.9005 55.3791C49.0605 54.9299 49.2106 54.5002 49.2606 54.0021C49.3306 53.2111 49.2005 52.4396 49.0805 51.6877L49.0305 51.3654C48.9605 50.9162 48.8005 49.9689 47.8905 49.7833C47.5505 49.715 47.2105 49.7833 46.9105 49.8615L46.6905 49.9103C46.5705 49.9396 46.2905 50.0079 46.2105 49.9689C46.2105 49.9689 46.1905 49.9201 46.1705 49.9005L46.1405 49.8322C46.1405 49.8322 46.1005 49.7736 46.0605 49.715C46.0605 49.3829 45.8006 49.1095 45.4806 49.0607C45.2006 48.8946 44.8706 48.8458 44.5106 48.9044C44.1606 48.963 43.8005 49.1095 43.4205 49.3536L43.4005 49.3732C43.4005 49.3732 43.3805 49.3536 43.3705 49.3341C43.3105 49.2657 43.2405 49.1876 43.1605 49.129C42.7005 48.8068 42.1905 48.7482 41.7205 48.9435C41.5905 49.0021 41.4705 49.0704 41.3505 49.1486C41.2905 49.1876 41.2205 49.2267 41.1605 49.2658L41.0406 49.3341C40.8806 49.422 40.7206 49.5099 40.5705 49.6173C40.3005 49.8029 40.0505 50.0275 39.8005 50.2326L39.5605 50.4279C39.3305 50.6232 39.1506 50.8478 38.9806 51.0724C38.8806 51.2091 38.7705 51.3459 38.6505 51.4728L38.5205 51.5998C38.3905 51.7365 38.2505 51.8732 38.1405 52.0294C38.0605 52.1369 38.0005 52.2541 37.9405 52.3713C37.8905 52.4591 37.8506 52.547 37.7906 52.6252C37.4906 53.0646 37.3006 53.5334 37.2306 54.0314C37.1206 54.7639 37.0405 55.6916 37.4305 56.4045C37.3205 57.2151 37.3405 58.0549 37.3505 58.8557V59.0803H37.2405C36.8605 59.0608 36.4805 59.0413 36.1005 59.0217C35.5505 59.0022 34.9905 58.9924 34.4405 58.9924C33.8905 58.9924 33.3205 58.9924 32.7705 59.012H32.1605C31.3305 59.0413 30.4905 58.9436 29.6805 58.8557C29.2005 58.8069 28.7205 58.7483 28.2405 58.719C27.1605 58.6409 26.2005 58.5041 25.3005 58.2893H25.2906C25.1706 58.1819 25.0405 58.0842 24.9105 57.9963C24.7605 57.8987 24.6106 57.8303 24.4506 57.7522C24.3206 57.6936 24.1906 57.635 24.0706 57.5569C23.9806 57.4983 23.8905 57.4299 23.8105 57.3518C23.7005 57.2541 23.5805 57.1467 23.4405 57.0686C23.2005 56.9319 22.9406 56.8928 22.7006 56.8537C22.6006 56.8342 22.4905 56.8244 22.3905 56.7951C22.2205 56.7561 22.0605 56.7073 21.9005 56.6584C21.7005 56.5998 21.4905 56.5315 21.2805 56.4924C21.1105 56.4533 20.9405 56.424 20.7805 56.385C20.2205 56.2776 19.7006 56.1701 19.2306 55.8967C18.7206 55.594 18.2205 55.135 17.8005 54.5686C17.6305 54.3439 17.4706 54.09 17.3206 53.7873C17.1906 53.5431 17.0205 53.3576 16.8605 53.1818C16.7805 53.0939 16.7005 53.006 16.6205 52.9084C16.3105 52.508 16.0805 52.0294 15.8705 51.5705C15.7605 51.3458 15.6605 51.1212 15.5605 50.9357C15.3305 50.3497 15.0805 49.6466 14.9905 48.9435C14.9305 48.4747 14.9405 47.9864 14.9605 47.5079V46.5704C14.9705 46.1407 14.9706 45.7012 15.0106 45.2716C15.1206 44.1094 15.6205 43.0157 16.0905 42.1075C16.5705 41.1895 17.2005 40.418 18.1405 39.6172L18.3605 39.4316C18.7705 39.0801 19.1805 38.7285 19.5805 38.3672C20.0505 37.9375 20.5605 37.6054 21.1205 37.2539C21.3905 37.0879 21.6505 36.9121 21.9205 36.7363C22.1805 36.5703 22.4505 36.3945 22.7105 36.2285L22.7705 36.1894C22.9105 36.1015 23.0505 36.0039 23.1605 35.9355L23.2606 35.8964C23.3606 35.8574 23.4506 35.8183 23.5406 35.7695C23.6006 35.7402 23.6605 35.7011 23.7205 35.6718L23.7505 35.6523C23.8405 35.6132 23.9406 35.5839 24.0406 35.5644C24.3206 35.5058 24.5905 35.4179 24.8405 35.33C25.0905 35.2421 25.3306 35.164 25.5706 35.1152C25.7906 35.0663 26.0105 35.0273 26.2405 34.9882C26.6405 34.9199 27.0605 34.8417 27.4705 34.7148C27.6405 34.6659 27.8106 34.6074 27.9806 34.5488L28.3305 34.4316L28.5005 34.412C28.7305 34.3827 28.9605 34.3632 29.1905 34.3339C29.6205 34.2753 30.1905 34.1777 30.7405 33.9823L30.8805 33.9335C31.2605 33.7968 31.6905 33.6503 31.9605 33.3183C32.1405 33.1034 32.2405 32.8593 32.3205 32.6249C32.6705 32.3319 33.0005 31.9999 33.1505 31.5507C33.2805 31.1698 33.2505 30.7596 33.0905 30.4081C33.4305 30.4667 33.7705 30.535 34.1105 30.6034C34.6805 30.7206 35.2605 30.8378 35.8605 30.8866C36.1405 30.9159 36.4105 30.955 36.6805 30.994C36.9005 31.0233 37.1305 31.0624 37.3505 31.0819C37.8205 31.1405 38.2806 31.1307 38.7306 31.1307H38.8105C39.5305 31.1503 40.2605 31.2186 40.9705 31.2968L41.2805 31.3358L41.4005 31.3651C41.4005 31.3651 41.5005 31.3847 41.5505 31.3944C41.7405 31.4433 41.9305 31.5116 42.1105 31.5702C42.3905 31.6679 42.6705 31.7655 42.9705 31.8241C43.3805 31.9022 43.7905 31.9022 44.1805 31.9022H44.4405C44.8105 31.9022 45.1905 31.9413 45.5605 31.9804L45.8705 32.0097C46.2705 32.0487 46.6605 32.0683 47.0605 32.0976H47.1205C47.4405 32.1659 47.7605 32.2343 48.0905 32.2831L48.7906 32.4003C49.5606 32.537 50.3605 32.6737 51.1505 32.7714L51.4605 32.8105C51.8705 32.8691 52.2905 32.9179 52.7105 32.9472C52.8605 32.9472 53.0205 32.9667 53.1705 32.9667C53.5405 32.9862 53.8906 32.996 54.2306 33.0448L54.6005 33.1034C55.0505 33.1718 55.5105 33.2402 55.9705 33.2694C56.1205 33.2694 56.2605 33.2792 56.4105 33.2792H56.5705C56.8205 33.3378 57.0705 33.4062 57.3205 33.4745L57.5705 33.5429C58.0005 33.6601 58.4805 33.787 58.9705 33.748C59.0205 33.748 59.0805 33.7382 59.1605 33.7284C59.1905 33.7284 59.2205 33.7284 59.2505 33.7187C59.1805 33.914 59.1806 34.1288 59.2306 34.3339C59.3606 34.8613 59.8105 35.291 60.1805 35.5058C60.4005 35.6328 60.6205 35.7304 60.8305 35.7988C60.9505 35.9746 61.1605 36.0625 61.3905 36.0429C61.4905 36.0429 61.5705 36.082 61.7105 36.1601C61.8005 36.2089 61.9105 36.2773 62.0406 36.3164C62.1805 36.3652 62.3205 36.3652 62.4305 36.3652H62.4705C62.4705 36.3652 62.5505 36.4043 62.6005 36.4238C62.9105 36.5117 63.2206 36.5898 63.5406 36.6582L63.6405 36.6777C63.7105 36.6972 63.7905 36.707 63.8505 36.7168L64.1405 36.7753C64.7805 36.9023 65.4406 37.039 66.0705 37.2539C66.6506 37.459 67.4005 37.7324 68.1205 38.1133C68.1605 38.2988 68.2805 38.4551 68.4605 38.5625C68.6205 38.6504 68.7905 38.6797 68.9605 38.6308C69.3505 38.9238 69.6506 39.2363 69.8505 39.5879L69.9605 39.9785C70.0805 40.3887 70.2005 40.8184 70.1805 41.2285C70.1805 41.3164 70.1705 41.3946 70.1605 41.4824C70.1505 41.6485 70.1305 41.8047 70.1405 41.9707C70.1405 42.1661 70.1805 42.3516 70.2205 42.5274C70.2405 42.6348 70.2605 42.7422 70.2805 42.8496C70.2905 42.9668 70.3105 43.084 70.3205 43.2012C70.3306 43.3282 70.3505 43.4649 70.3605 43.5918C70.3705 43.6895 70.3905 43.7969 70.4105 43.8946C70.4405 44.0801 70.4705 44.2559 70.4705 44.4317V44.5196C70.4705 44.7442 70.4705 44.9786 70.5205 45.2227L70.5106 45.252ZM41.9105 55.5842L42.0106 55.5061C42.0806 55.4377 42.1405 55.3596 42.1505 55.301C42.2005 55.2131 42.2205 55.1154 42.2205 55.0178V54.9982C42.2205 54.9397 42.2105 54.8908 42.2105 54.8518C42.2305 54.9396 42.2606 55.0373 42.2906 55.1252C42.3205 55.2424 42.3605 55.3498 42.3905 55.4963C42.3905 55.5256 42.4005 55.5451 42.4105 55.5744V55.6037V55.7795C42.4105 55.8772 42.4105 55.9748 42.4105 56.0725C42.4205 56.2287 42.4706 56.3655 42.5106 56.4924C42.5406 56.5803 42.5705 56.6779 42.5805 56.7756C42.6105 56.9416 42.7105 57.0881 42.8805 57.1858C43.0005 57.2541 43.1306 57.2932 43.2606 57.2932C43.3206 57.2932 43.3906 57.2932 43.4506 57.2639C43.8006 57.1565 43.9805 56.844 43.9205 56.4729C43.9005 56.3557 43.8605 56.2385 43.8205 56.1213C43.8106 56.0822 43.7905 56.0432 43.7705 55.965C43.7805 55.7307 43.7805 55.4475 43.7205 55.1643C43.6905 55.0275 43.6505 54.9006 43.6005 54.7639L43.5406 54.5588C43.5106 54.4709 43.4906 54.383 43.4806 54.3342V54.217C43.4806 54.1682 43.4806 54.1193 43.4806 54.0607C43.5106 53.6994 43.2005 53.4162 42.8905 53.3771C42.5905 53.3478 42.3205 53.4845 42.1805 53.7678C42.1705 53.7873 42.1505 53.8068 42.1405 53.8361C42.0105 53.9728 41.9506 54.1389 41.9506 54.3049C41.9006 54.2658 41.8505 54.2267 41.8105 54.217C41.7205 54.1682 41.6205 54.1389 41.5205 54.1486L41.3505 54.1682C41.2505 54.1974 41.1705 54.2365 41.0905 54.3049C41.0105 54.3342 40.9505 54.383 40.9005 54.4318C40.8305 54.5002 40.7705 54.5783 40.7606 54.6369C40.7206 54.715 40.7006 54.7932 40.7006 54.8908L39.5505 54.5588C39.5505 54.5588 39.5705 54.51 39.5905 54.4904C39.9305 53.9435 40.3105 53.3771 40.7505 52.8888C41.2005 52.4006 41.6605 52.1076 42.1405 52.0099C42.7005 51.8927 43.3305 51.9513 43.8205 52.1466C44.2305 52.3127 44.6105 52.5959 44.9905 52.8595C45.0905 52.9377 45.2005 53.006 45.3005 53.0842C45.3205 53.2013 45.3805 53.3185 45.4605 53.4162C45.6905 53.6701 45.8705 53.9631 46.0605 54.2658C46.1605 54.4318 46.2705 54.5979 46.3705 54.7541C46.6705 55.1936 46.9305 55.5842 47.0705 56.053C47.1105 56.1799 47.1105 56.3069 47.1205 56.4436C47.1205 56.551 47.1305 56.6584 47.1505 56.7756C47.1905 57.049 47.2205 57.2737 47.2205 57.5276C47.2205 57.9377 47.2205 58.3479 47.2205 58.7581C47.2205 58.7581 47.2005 58.7581 47.1905 58.7483C46.5305 58.5139 45.7405 58.6702 45.1105 58.7971L44.8205 58.8557C44.5105 58.9143 44.2305 58.9729 43.9305 58.9924C43.6405 59.012 43.3306 58.9924 43.0406 58.9924H42.6805C41.9305 58.9631 41.1605 58.9436 40.4005 58.9924C39.9505 59.0217 39.5505 59.0706 39.2205 59.1389H38.9305C38.8705 59.1389 38.8005 59.1389 38.7405 59.1389C38.7405 59.0217 38.7405 58.9045 38.7405 58.7971C38.7205 57.967 38.6905 57.1076 38.8505 56.3166C38.9705 55.7307 39.2005 55.1643 39.5205 54.6271L40.9005 55.3986C40.9005 55.3986 40.9105 55.4084 40.9205 55.4182L41.0406 55.5061L41.1305 55.5354C41.1305 55.5354 41.2205 55.6037 41.2505 55.6135C41.3205 55.6526 41.4105 55.6819 41.4405 55.6721C41.4805 55.6721 41.5205 55.6818 41.5605 55.6818C41.6205 55.6818 41.6906 55.6721 41.7606 55.6428L41.9205 55.5647H41.9305L41.9105 55.5842ZM40.9905 51.0236C40.9905 51.0236 41.0505 50.9747 41.0805 50.9454C41.3405 50.7208 41.6005 50.5744 41.8905 50.4083C41.9505 50.3791 42.0005 50.34 42.0605 50.3107C42.1805 50.2326 42.2406 50.1935 42.2906 50.1935C42.3306 50.1935 42.3705 50.2228 42.4305 50.2911C42.5505 50.4083 42.6805 50.5353 42.8405 50.633C42.2005 50.6134 41.5605 50.7501 40.9905 51.0236ZM46.8605 52.6056C46.6105 52.3713 46.3205 52.1857 46.0406 52.0099L45.9205 51.9318C45.7605 51.8341 45.6006 51.717 45.4506 51.6095C45.2706 51.4826 45.0905 51.3556 44.9005 51.2384C44.5205 51.004 44.0905 50.838 43.6605 50.7404C43.8505 50.6818 44.0105 50.5841 44.1605 50.4865C44.2105 50.4572 44.2605 50.4279 44.3105 50.3986C44.4505 50.3204 44.6705 50.2326 44.7705 50.2326C44.8105 50.4376 44.8705 50.6232 44.9405 50.799C45.0405 51.0431 45.2605 51.5998 45.9205 51.5998C45.9805 51.5998 46.0405 51.5998 46.1005 51.5998C46.2105 51.5998 46.3105 51.5998 46.4205 51.5998C46.5805 51.5802 46.7105 51.5509 46.8605 51.4826L46.9405 51.4435L46.8905 51.1994L47.0406 51.4142C47.0406 51.4142 47.1105 51.3947 47.1805 51.3849H47.3105C47.4205 51.3654 47.5305 51.3654 47.6405 51.3654C47.8105 52.0685 47.9005 52.7619 47.9105 53.3869C47.9105 53.6896 47.9005 53.9533 47.8505 54.1974C47.8105 54.1193 47.7805 54.051 47.7405 53.9728C47.5205 53.4943 47.2905 53.006 46.8705 52.6154L46.8605 52.6056ZM29.4806 18.5622L29.6105 17.3903C29.6205 17.2634 29.6906 17.1267 29.7606 16.9802C29.7906 16.9313 29.8105 16.8727 29.8305 16.8141C29.9305 16.57 30.0305 16.3259 30.1105 16.0817C30.2405 15.6716 30.3005 15.2614 30.3605 14.861L30.4105 14.5485C30.4805 14.1188 30.6506 13.7086 30.8206 13.279L30.8505 13.2106C31.0705 12.6735 31.2005 12.1168 31.3305 11.5797C31.4305 11.1793 31.5205 10.7692 31.6605 10.3785C31.7405 10.1441 31.8305 9.90976 31.9305 9.67539C31.9805 9.54843 32.0305 9.43124 32.0805 9.30428C32.1705 9.4996 32.2705 9.69492 32.3705 9.88047C32.5205 10.1637 32.6605 10.4371 32.7705 10.7301C33.1905 11.8727 33.6605 13.0543 34.1705 14.2458C34.3005 14.5387 34.4206 14.8415 34.5406 15.1344C34.8806 15.9645 35.2306 16.8337 35.7006 17.6345C35.8206 17.8395 35.9205 18.0544 36.0305 18.2595C36.1705 18.5427 36.3105 18.8357 36.4905 19.1091C36.5705 19.2263 36.6606 19.3532 36.7306 19.4411C36.8306 19.656 36.9405 19.8708 37.0505 20.0759C37.2305 20.3982 37.4905 20.6228 37.7705 20.7009C38.0005 20.7693 38.2405 20.74 38.4705 20.613C38.6105 20.5349 38.7305 20.4372 38.8305 20.3396C38.8905 20.281 38.9605 20.2224 39.0305 20.1736C39.1505 20.0954 39.2805 20.0173 39.4105 19.9392C39.5605 19.8513 39.7105 19.7634 39.8505 19.6657C40.3205 19.3337 40.7705 18.9431 41.3005 18.406C41.5205 18.2693 41.7506 18.1032 42.0106 17.8689C42.4206 17.4978 42.7906 17.1755 43.2306 16.8727C43.4306 16.736 43.6605 16.5602 43.8505 16.2868C43.9005 16.2184 43.9406 16.1501 43.9806 16.0817C44.0606 15.9548 44.1205 15.8473 44.2205 15.7594C44.3005 15.6813 44.4005 15.613 44.4905 15.5446C44.5805 15.4762 44.6805 15.4079 44.7606 15.3298C44.9606 15.154 45.1205 14.9587 45.2705 14.7536L45.3605 14.6462C45.6905 14.2262 46.0505 13.7965 46.4705 13.3278C46.7505 13.0153 47.0105 12.6832 47.2705 12.361C47.3905 12.2145 47.5005 12.068 47.6205 11.9215C48.0205 11.4235 48.4305 10.8863 48.6905 10.2516C48.7705 10.066 48.8005 9.88047 48.8405 9.70468C48.8705 9.56796 48.8905 9.43124 48.9405 9.29452C49.0005 9.10897 49.0905 8.9332 49.1705 8.76718C49.2405 8.62069 49.3105 8.47419 49.3705 8.32771C49.5205 7.95661 49.6705 7.59529 49.8205 7.27302C49.8905 7.15583 49.9605 7.0484 50.0305 6.94097C50.0905 7.24371 50.1505 7.54646 50.2205 7.8492C50.4505 8.77694 50.6405 9.72422 50.8205 10.6422L50.9405 11.2184C51.0505 11.7555 51.1705 12.3317 51.3905 12.8883L51.5106 13.1911C51.6706 13.5817 51.8205 13.9528 51.9105 14.3434C52.0405 14.9001 52.1805 15.4567 52.3305 16.0036C52.3905 16.2087 52.4605 16.4138 52.5406 16.6091C52.6605 16.9118 52.7705 17.195 52.8005 17.4977C52.8805 18.2106 53.1105 18.8943 53.3405 19.5486C53.5105 20.0564 53.6906 20.574 53.7906 21.1013C53.8205 21.2478 53.8905 21.3748 54.0005 21.4627C54.0305 21.5603 54.0705 21.6384 54.1105 21.7166C54.1605 21.8142 54.2505 21.9412 54.3905 22.0486C54.5105 22.1462 54.6705 22.2634 54.8905 22.3025C55.0005 22.3318 55.2205 22.3513 55.4105 22.2244C55.5605 22.1267 55.6605 21.9998 55.7205 21.8044C55.7305 21.7654 55.7405 21.7263 55.7505 21.697C56.0805 21.3259 56.3505 20.8962 56.5605 20.5349L56.9705 19.8415C57.1405 19.5583 57.3005 19.2849 57.4705 19.0017C57.8105 18.4255 58.1505 17.8493 58.5005 17.2731C58.8205 16.7458 59.1406 16.2184 59.4506 15.6911L59.8705 14.9782C60.3705 14.1188 60.8805 13.2497 61.4005 12.4C61.6105 12.0582 61.8205 11.7164 62.0406 11.3844C62.5005 10.652 62.9805 9.9 63.3905 9.12851L63.4605 8.99179C63.4605 8.99179 63.4805 8.95272 63.4905 8.94295V9.08944C63.5305 9.46053 63.6005 9.82187 63.6705 10.1734L63.7306 10.4762C63.9906 11.8239 64.2406 13.1813 64.4806 14.5387C64.7006 15.7497 64.9105 16.9606 65.1505 18.1716C65.4105 19.5388 65.6805 20.9841 65.9005 22.449L65.9405 22.7127C65.9805 22.9861 66.0305 23.2596 66.0505 23.533C66.0605 23.6697 66.0505 23.8162 66.0505 23.9529C66.0505 24.1678 66.0505 24.3826 66.0805 24.6072C66.1005 24.7147 66.1205 24.8221 66.1405 24.9295C66.1805 25.1346 66.2205 25.3299 66.2205 25.5252C66.2205 25.701 66.2205 25.8865 66.2205 26.0623C66.1305 26.0623 66.0405 26.0525 65.9405 26.0428H65.8205C65.0106 26.0135 63.9105 25.994 63.2505 26.5701C62.9005 26.8729 62.7805 27.3221 62.9105 27.7518C62.6005 27.7811 62.3205 27.8397 62.0605 27.9373C61.4605 28.162 60.9805 28.7186 60.9105 29.2753C60.8805 29.4999 60.9205 29.7147 61.0305 29.9003C60.5905 29.9198 60.1105 30.037 59.7405 30.4081C59.2905 30.8573 59.1405 31.4921 59.3505 32.0487C59.3805 32.1269 59.4105 32.205 59.4605 32.2733C59.2905 32.2733 59.1406 32.2636 58.9806 32.2245C58.6806 32.1464 58.3805 32.1269 58.0905 32.1073C57.9205 32.0976 57.7505 32.0878 57.5805 32.0585C57.3705 32.0292 57.1605 32.0194 56.9905 32.0097C56.6405 31.9315 56.2705 31.8632 55.8205 31.7948L55.6805 31.7753C55.2505 31.7069 54.8005 31.6386 54.3805 31.5409C54.1805 31.4921 53.9805 31.4335 53.7805 31.3749C53.5105 31.2968 53.2306 31.2186 52.9506 31.16C52.4006 31.0429 51.8405 31.0331 51.2906 31.0331C51.2006 31.0331 51.1105 31.0331 51.0205 31.0331C50.6605 31.0331 50.3006 31.0331 49.9506 31.0136C49.5206 30.9843 49.1005 30.9452 48.6705 30.8964C48.2005 30.8475 47.7305 30.7987 47.2906 30.7792L47.0505 30.7303C46.8805 30.701 46.7105 30.662 46.5505 30.6327C45.7905 30.4569 45.0005 30.3885 44.2405 30.3202C43.9505 30.2909 43.6605 30.2714 43.3805 30.2323C42.7605 30.1639 42.1305 30.0956 41.5305 30.037L41.4506 30.0175C41.3306 29.9882 41.2005 29.9589 41.0805 29.9393C40.8905 29.9003 40.7105 29.8514 40.5305 29.8124C40.2405 29.7342 39.9505 29.6659 39.6405 29.6171C39.4205 29.5878 39.2006 29.578 38.9806 29.5682C38.7206 29.5682 38.4805 29.5487 38.2405 29.5096C38.0205 29.4706 37.8105 29.3924 37.5905 29.3143C37.3405 29.2264 37.0905 29.1385 36.8105 29.0897C36.3405 29.0116 35.8505 29.0213 35.3805 29.0311H34.7606C34.3605 29.0506 33.9406 29.0604 33.5406 29.0311H33.4605C33.2405 29.0116 33.0205 29.0018 32.8505 29.0018L32.5705 28.9432C32.4006 28.9139 32.2405 28.8846 32.0705 28.8456C32.3405 28.6893 32.6205 28.5038 32.9205 28.2791C33.6405 27.7518 34.4605 27.1463 34.6805 26.1404C34.7805 25.7108 34.7105 25.3104 34.4905 24.9881C34.3605 24.7928 34.1705 24.6365 33.9405 24.5291C34.4105 23.992 34.5106 23.4158 34.2006 22.8982C34.0406 22.6248 33.7905 22.4392 33.4605 22.3318C33.5505 22.2244 33.6306 22.1072 33.7006 21.9705C34.0406 21.2478 33.7005 20.3689 32.9105 19.9685C32.3105 19.656 31.5005 19.7829 30.8505 19.8806L30.6605 19.9099C30.5705 19.8611 30.4705 19.8318 30.3705 19.8122C29.9905 19.7732 29.6605 19.9001 29.3405 20.0271C29.2705 20.0564 29.2005 20.0857 29.1805 20.0954C29.1605 20.0954 29.1405 20.0954 29.1305 20.0954C29.3605 19.6267 29.4405 19.0896 29.4905 18.5622H29.4806ZM20.9605 24.6463V24.5486C20.9705 24.451 20.9605 24.3631 20.9605 24.2654C22.3505 23.6599 23.7505 23.0838 25.4405 22.4002C25.6405 22.322 25.8505 22.2342 26.0205 22.1658C26.1405 22.1365 26.2605 22.0974 26.3805 22.0681L26.4806 22.0388C26.8506 21.9314 27.2205 21.824 27.5905 21.7361C27.7405 21.7556 27.8806 21.7166 28.0106 21.6482C28.2106 21.6091 28.4105 21.5798 28.6105 21.5603C28.9105 21.531 29.2305 21.4822 29.4905 21.3943L30.5406 21.2673C30.9006 21.2185 31.3706 21.1697 31.8505 21.1501C32.2006 21.1404 32.3205 21.1502 32.4205 21.3259C32.4805 21.4334 32.3406 21.5994 31.9806 21.8142C31.8106 21.9216 31.6405 22.0291 31.4705 22.1463C31.3105 22.2537 31.1505 22.3513 30.9905 22.449C30.7205 22.615 30.4105 22.7029 30.0905 22.8006C29.7105 22.9177 29.3205 23.0252 28.9705 23.2791C28.7105 23.4646 28.6006 23.7771 28.7006 24.0701C28.7906 24.3436 29.0305 24.5193 29.3405 24.5193C29.6705 24.5389 29.9505 24.4217 30.2205 24.3143C30.2905 24.285 30.3605 24.2654 30.4305 24.2361C30.6705 24.158 30.9105 24.0603 31.1505 23.9627C31.3305 23.8846 31.5206 23.8162 31.7006 23.7478C31.9306 23.6599 32.1605 23.6111 32.4405 23.5818C32.6305 23.5623 32.7605 23.5525 32.8405 23.5525C32.9305 23.5525 32.9705 23.5525 32.9905 23.5525C32.9605 23.699 32.4105 24.0701 32.0305 24.2361C31.8405 24.3143 31.6305 24.3729 31.4105 24.4217C31.2105 24.4705 31.0205 24.5193 30.8305 24.5877C30.5905 24.6756 30.4005 24.8025 30.2105 24.9295C30.0505 25.0369 29.9005 25.1346 29.7405 25.2029C29.4205 25.3299 29.2905 25.6717 29.4205 26.0135C29.5605 26.3651 29.9205 26.5506 30.2505 26.4432C30.5405 26.3553 30.8405 26.2772 31.1405 26.199C31.4305 26.1307 31.7305 26.0526 32.0205 25.9647C32.0905 25.9451 32.1706 25.9158 32.2606 25.8865C32.5906 25.7694 33.1005 25.5936 33.3405 25.7205C33.3405 25.7303 33.3706 25.7987 33.2306 26.1014C33.0706 26.4432 32.7706 26.6776 32.4506 26.9315L32.3905 26.9803C31.8705 27.3905 31.4205 27.6834 30.9905 27.8983C30.8105 27.9862 30.6205 28.0545 30.4305 28.1327C30.1005 28.2596 29.7606 28.3866 29.4506 28.6014C29.0606 28.8749 28.8605 29.2264 28.9005 29.6073C28.9405 30.0077 29.2406 30.3592 29.7006 30.5643C30.0106 30.7011 30.3506 30.7889 30.7306 30.8378C30.8806 30.8573 31.0406 30.8378 31.2006 30.8378C31.3106 30.8378 31.4205 30.8182 31.5205 30.828C31.5405 30.8573 31.5605 30.8866 31.5505 30.9061C31.5505 31.0038 31.4805 31.121 31.4205 31.2382L31.3805 31.3163C31.2905 31.4921 31.2005 31.6776 31.1205 31.8827C30.9005 32.0487 30.6905 32.1952 30.4905 32.3124C30.0505 32.5663 29.5405 32.7616 28.9305 32.9081C28.6205 32.9862 28.3105 33.0741 28.0505 33.1523L27.7505 33.1913C27.5005 33.2206 27.2605 33.2792 27.0205 33.3378C26.7605 33.3964 26.5105 33.455 26.2705 33.4745C25.7105 33.5233 25.2805 33.5917 24.8605 33.7089C24.4905 33.8066 24.0105 33.953 23.5905 34.1972C23.5505 33.9726 23.4805 33.7577 23.4105 33.5526C23.3805 33.4648 23.3506 33.3769 23.3206 33.2792C23.2106 32.9276 23.0905 32.5858 22.9605 32.244L22.8605 31.9706C22.6505 31.4042 22.5105 30.7987 22.3805 30.203C22.3105 29.9003 22.2405 29.5975 22.1605 29.2948C22.0505 28.8749 21.9206 28.4647 21.7906 28.0545C21.6506 27.5955 21.5005 27.1268 21.3805 26.658C21.2605 26.1795 21.1405 25.7498 21.0005 25.3299C20.9305 25.1053 20.9406 24.9197 20.9506 24.6658L20.9605 24.6463ZM37.0106 129.286C37.0006 129.394 36.9505 129.501 36.9105 129.618C36.7705 129.736 36.7006 129.911 36.7006 130.107C36.7006 130.126 36.7006 130.146 36.7006 130.165C36.6006 130.195 36.5105 130.234 36.4205 130.273C35.9905 130.478 35.5205 130.614 34.8805 130.741C34.3005 130.849 33.7305 130.995 33.0705 131.21C32.7405 131.318 32.4105 131.405 32.0705 131.493C31.7905 131.572 31.5005 131.64 31.2205 131.728C30.9505 131.806 30.6805 131.904 30.4105 132.001C30.1305 132.099 29.8605 132.197 29.5805 132.284C29.3905 132.343 29.2106 132.363 29.0106 132.333C29.1506 132.05 29.4206 131.835 29.7006 131.601L29.8605 131.464C30.3105 131.073 30.7305 130.634 31.2205 130.019C31.3605 129.843 31.5105 129.657 31.6305 129.452C31.6705 129.452 31.7206 129.443 31.7606 129.433C31.8706 129.413 31.9805 129.394 32.0905 129.364L32.2405 129.335C32.5405 129.277 32.8405 129.208 33.1405 129.15C33.7605 129.032 34.3705 128.984 35.0505 129.003C35.4305 129.003 35.8005 128.984 36.1705 128.954C36.4505 128.935 36.7305 128.905 37.0205 128.905C37.0205 128.935 37.0205 128.964 37.0205 128.984C37.0205 129.091 37.0305 129.198 37.0205 129.296L37.0106 129.286ZM51.5905 100.487C51.3605 100.516 51.1405 100.565 50.9305 100.614C50.8005 100.643 50.6805 100.673 50.5505 100.702C50.2105 100.761 49.8305 100.731 49.4605 100.751C48.7005 100.79 47.9505 100.917 47.3605 101.034C45.1305 101.034 42.9105 101.034 40.6805 101.034H38.1105C37.6605 101.034 37.2106 101.044 36.7606 101.054C35.6706 101.073 34.5505 101.083 33.4405 101.024C32.6805 100.985 31.9906 100.917 31.3206 100.8C30.8706 100.731 30.4105 100.614 29.9705 100.507C29.7205 100.448 29.4705 100.38 29.2105 100.331C28.3205 100.136 27.4406 100.106 26.7006 100.106C25.7706 100.106 24.9705 100.038 24.1905 99.9207C24.1205 99.9109 24.0405 99.9012 23.9705 99.8914L23.8105 99.8621C23.7605 99.8426 23.7005 99.823 23.6505 99.823C23.4805 99.7937 23.3005 99.7742 23.1105 99.7742C23.1105 99.7742 23.0905 99.7742 23.0805 99.7742C22.5505 99.7156 22.1005 99.6863 21.6705 99.6668C21.4605 99.6668 21.2606 99.6277 21.0406 99.5887C20.9606 99.5789 20.8805 99.5594 20.8005 99.5496C20.7505 99.2957 20.6805 99.0125 20.5805 98.7391L20.4605 98.3973V97.3132C20.4905 95.9363 20.5106 94.5105 20.3206 93.1238C20.1706 92.0202 19.9705 90.9069 19.7805 89.8229C19.6605 89.1393 19.5305 88.4557 19.4205 87.7819C19.3405 87.2643 19.2605 86.7467 19.1805 86.2291C18.7305 83.3189 18.2706 80.3013 17.0406 77.5767C16.7206 76.8638 16.3605 76.063 15.9205 75.3305C15.5005 74.6274 14.9105 74.0122 14.3405 73.4262L14.2405 73.3188C13.3405 72.3813 12.3205 71.5903 11.3205 70.809L10.9205 70.4379C10.8105 70.3305 10.7105 70.2231 10.6005 70.1156L10.3205 69.8227C9.83055 69.3051 9.32055 68.768 8.73055 68.2992C7.99055 67.723 7.38055 67.1566 6.88055 66.5707C6.67055 66.3265 6.46053 66.1019 6.24053 65.8773L6.09054 65.721C5.88054 65.4964 5.78053 65.2816 5.74053 64.9691L5.72054 64.8226C5.67054 64.471 5.63054 64.1097 5.47054 63.7484C5.31054 63.3675 5.08053 63.0159 4.86053 62.6839L4.82055 62.6253C4.39055 61.9612 4.14054 61.2386 3.87054 60.4768C3.62054 59.7639 3.37054 59.0315 2.93054 58.3186C2.73054 57.9963 2.58053 57.7424 2.49053 57.3909C2.43053 57.1565 2.37055 56.9221 2.32055 56.6877L2.25054 56.385C2.18054 56.0041 2.11053 55.633 2.05053 55.2522C1.94053 54.5881 1.88053 53.8947 1.83053 53.2306L1.77053 52.547C1.59053 50.7111 1.83054 48.9239 2.09054 47.2442C2.38054 45.379 2.88053 43.5918 3.33053 42.0879L3.42053 41.8047C3.87053 40.3008 4.34053 38.748 5.02053 37.3125C5.39053 36.541 5.84054 35.7695 6.31054 35.0761C6.46054 34.9394 6.62054 34.8027 6.78054 34.6757C6.93054 34.5488 7.07054 34.4218 7.22054 34.3046L7.42053 34.1288C7.56053 34.0019 7.70055 33.8749 7.85055 33.7675L8.01055 33.6503C8.21055 33.5038 8.41054 33.3573 8.59054 33.1718C8.81054 32.9472 8.93053 32.6835 9.05053 32.4296C9.16053 32.1952 9.26054 31.9804 9.43054 31.8046C9.59054 31.6483 9.76053 31.4921 9.92053 31.3456C10.1605 31.1307 10.4205 30.8964 10.6505 30.6425C10.6905 30.5936 10.7406 30.5546 10.7906 30.5057C10.8306 30.4667 10.8705 30.4374 10.8905 30.4179C11.5705 29.871 12.2705 29.3534 12.9405 28.8846C12.9505 28.8846 12.9805 28.8651 13.0305 28.826L13.2205 28.6893C13.2905 28.6405 13.3605 28.5916 13.3805 28.5623L13.4506 28.5331C13.5406 28.494 13.6406 28.4549 13.7306 28.4159C14.0006 28.2889 14.2305 28.1229 14.4605 27.9666L14.5505 27.8983C14.8205 27.7127 15.0905 27.5467 15.3905 27.3709C15.6305 27.2342 15.9305 27.0389 16.1405 26.8143C17.3105 26.1112 18.3105 25.5545 19.2705 25.076C19.3505 25.4275 19.4605 25.7693 19.5605 26.1111C19.6205 26.326 19.6905 26.5408 19.7505 26.7557C19.8605 27.1463 19.9605 27.5369 20.0605 27.9276C20.2205 28.5135 20.3705 29.0995 20.5305 29.6854C20.6505 30.1346 20.7805 30.5936 20.9605 31.0526C21.0205 31.2089 21.0805 31.3554 21.1405 31.5018C21.2505 31.7851 21.3705 32.0683 21.4605 32.3515C21.5205 32.537 21.5705 32.7128 21.6205 32.8983C21.6905 33.1523 21.7605 33.4159 21.8505 33.6601C21.9305 33.8652 22.0005 34.0605 22.1005 34.2558L22.1505 34.3437C22.2005 34.4413 22.2505 34.5292 22.2405 34.5976C22.2405 34.6952 22.2505 34.7831 22.2805 34.871C21.1005 35.3398 20.2005 35.7793 19.4405 36.248C19.0105 36.5117 18.6205 36.7949 18.2805 37.0976C18.1105 37.2539 17.9606 37.4199 17.8206 37.5859C17.6706 37.7519 17.5305 37.9082 17.3705 38.0449L17.2205 38.1719C16.9305 38.416 16.6505 38.6504 16.4405 39.0117C16.3005 39.2559 16.1306 39.4707 15.9506 39.6953C15.8306 39.8418 15.7105 39.9981 15.6005 40.1543C15.4805 40.3301 15.3605 40.5059 15.2505 40.6817C15.0605 40.9746 14.8905 41.2481 14.6705 41.502C14.3005 41.9414 14.0305 42.4102 13.7405 42.9766C13.7005 43.0645 13.6505 43.1426 13.6005 43.2305C13.5305 43.3477 13.4505 43.4747 13.4005 43.6016C13.2605 43.9044 13.2305 44.2168 13.2105 44.4903C13.1905 44.8419 13.2106 45.2032 13.2306 45.545C13.2406 45.7696 13.2606 45.9845 13.2606 46.2091C13.2606 46.3751 13.3205 46.5118 13.4205 46.629V47.0001C13.4205 47.2345 13.4205 47.4786 13.4205 47.713C13.4205 47.8497 13.3805 47.9864 13.3305 48.1329C13.2805 48.2989 13.2305 48.4845 13.2205 48.6798C13.2205 49.0411 13.3306 49.3341 13.4506 49.6271C13.5106 49.7736 13.5505 49.9201 13.5905 50.0665C13.6505 50.2619 13.7005 50.4572 13.8005 50.6525C13.8905 50.8576 14.0105 51.0529 14.1205 51.2384L14.2705 51.5021C14.5705 52.3615 14.9205 53.3381 15.4705 54.1291C16.2705 55.2815 17.0605 56.1506 17.8905 56.7951C18.7905 57.4983 19.7905 58.0159 20.9205 58.3674C21.4405 58.5237 21.9605 58.6995 22.4705 58.8753C23.1305 59.0999 23.8005 59.3245 24.4905 59.5198C24.5405 59.5296 24.5905 59.5491 24.6505 59.5589L24.7105 59.5784C24.7605 59.6175 24.8205 59.6565 24.8705 59.6956C25.1805 59.8811 25.4706 60.0276 25.7606 60.1448C26.1806 60.3108 26.5905 60.2913 26.9905 60.262H27.0605C27.3805 60.2327 27.6706 60.2913 28.0106 60.3596L28.1305 60.3792C28.5305 60.4573 28.9405 60.5257 29.3405 60.594C30.3505 60.76 31.1705 60.8382 31.9305 60.8675C32.0505 60.8675 32.1805 60.8675 32.3005 60.8675C32.5905 60.8675 32.8605 60.8675 33.1305 60.9065L33.4205 60.9456C33.7305 60.9846 34.0505 61.0237 34.3705 61.0335C34.7505 61.0335 35.1205 61.0335 35.5005 61.0335C35.9605 61.0335 36.4105 61.0335 36.8705 61.053C37.2905 61.0628 37.6305 61.0432 37.9405 60.9553C38.1205 60.9065 38.2905 60.8382 38.4705 60.7796C38.6905 60.7014 38.9105 60.6233 39.1305 60.5745C39.1705 60.5745 39.2005 60.5647 39.2405 60.555H39.2705H39.5605C39.7405 60.555 39.9305 60.5745 40.1005 60.5647C40.8705 60.5647 41.6405 60.5159 42.3905 60.4768C42.8105 60.4573 43.2205 60.428 43.6405 60.4085H43.7805C43.9205 60.3987 44.0606 60.3889 44.2006 60.3889C45.2206 60.3694 46.1905 60.2913 47.0205 60.2229C47.0505 60.2327 47.0705 60.2522 47.1005 60.262C47.2805 60.3303 47.4706 60.3694 47.7006 60.3889C48.0406 60.4182 48.3805 60.4182 48.7105 60.4085H49.0705C49.3505 60.4085 49.5805 60.2522 49.6805 60.0081C50.5605 59.9593 51.2906 59.9397 51.9506 59.9397C53.0006 59.9397 54.0505 59.8421 55.0705 59.7346C55.4006 59.6956 55.7305 59.6663 56.0605 59.637C58.7305 59.3928 61.1306 59.1292 63.4506 58.426C64.5906 58.0745 65.7505 57.5569 66.8905 56.883C67.9205 56.2678 68.9105 55.6525 69.6705 54.8225C69.8905 54.5881 70.1005 54.3146 70.3305 53.9826C70.6705 53.7482 71.0105 53.4845 71.2805 53.1427C71.5905 52.7423 71.6305 52.3322 71.6605 51.9318C71.6605 51.8244 71.6805 51.717 71.6905 51.5998C71.7805 50.9259 71.8305 50.3595 71.8305 49.8029C71.8305 49.5197 71.8505 49.2364 71.8705 48.963V48.8458C71.9105 48.6505 71.9306 48.465 71.9506 48.2696C72.0006 47.7032 72.0106 47.1466 72.0106 46.6485L72.0305 46.2091C72.0405 45.9845 72.0305 45.7696 72.0005 45.5841C72.0005 45.2423 72.0005 44.9102 72.0005 44.5684C72.0305 43.3868 71.9105 42.2246 71.6305 41.1309C71.5805 40.9258 71.5605 40.7207 71.5305 40.5059C71.5005 40.2617 71.4705 39.9981 71.4005 39.7441C71.3405 39.5195 71.2405 39.3047 71.1305 39.0801L71.1105 39.0019C70.9905 38.5234 70.8105 37.8398 70.4005 37.4199C70.6105 37.2343 70.8405 37.0586 71.0605 36.8828C71.2205 36.7656 71.3705 36.6386 71.5305 36.5117C72.0905 36.0527 72.6805 35.623 73.2606 35.2031L73.8005 34.8124C74.4005 34.373 75.0306 34.0312 75.7006 33.6601L76.2105 33.3769C76.5805 33.1718 76.9805 32.9667 77.4805 32.7519C77.5605 32.7128 77.6306 32.6737 77.7006 32.6347C77.8606 32.8202 78.0305 33.0058 78.1905 33.1913C78.3205 33.3378 78.4506 33.4843 78.5806 33.6308C79.0206 34.1191 79.4306 34.5878 79.7106 35.1445C79.9906 35.6914 80.3206 36.1992 80.6406 36.6972C80.7906 36.9316 80.9406 37.166 81.0906 37.4101C81.5706 38.2011 81.8606 39.041 82.0906 39.8223L82.3705 40.75C82.6305 41.6289 82.9106 42.5469 83.1506 43.4454C83.0706 43.5821 83.0406 43.7579 83.0705 43.9336C83.1805 44.6368 83.4506 45.2813 83.7006 45.8868C83.9206 47.088 84.0505 48.3282 84.1905 49.5294L84.2905 50.3986C84.4005 51.3556 84.4605 52.2345 84.4905 53.0646C84.4905 53.592 84.4805 54.1096 84.4805 54.6271C84.4705 55.008 84.4505 55.3889 84.4105 55.7697C84.2405 57.6448 83.9406 59.2659 83.5106 60.7014C83.0606 62.1858 82.3706 63.6214 81.4006 65.1058C81.0706 65.6136 80.7005 66.1214 80.2805 66.6488C80.1805 66.7171 80.0706 66.7757 79.9506 66.8441C79.5306 67.0785 79.1706 67.4007 78.8406 67.7035C78.7106 67.8207 78.5905 67.9574 78.4705 68.0844C78.3005 68.2699 78.1306 68.4457 77.9506 68.5922C77.8806 68.6508 77.8005 68.6996 77.7205 68.7582C77.6305 68.8168 77.5406 68.8754 77.4606 68.934C77.3506 69.0219 77.2506 69.1098 77.1406 69.1976C77.0706 69.2562 77.0005 69.3246 76.9305 69.3832C76.5805 69.6762 76.2505 69.8715 75.9105 69.9984C75.4805 70.1547 75.1205 70.3695 74.7205 70.7016C74.3805 70.9848 74.0005 71.2387 73.6205 71.4828C73.4005 71.6293 73.1805 71.7758 72.9605 71.9321L72.6205 72.1664C70.6005 73.2114 69.0905 74.188 67.9005 75.2133C67.5305 75.4184 67.2705 75.7212 67.1105 75.9262C66.7805 76.2485 66.5005 76.5415 66.2405 76.8442C64.0405 79.4126 63.4205 82.8306 63.0705 86.151C62.9706 87.0787 62.9205 88.1041 62.9205 89.3444C62.8605 89.4225 62.8205 89.5104 62.7906 89.5983C62.7305 89.8229 62.7306 90.0671 62.7306 90.2721V90.3893C62.7306 90.9069 62.7505 91.4343 62.7705 91.9616C62.7705 92.1472 62.8505 92.3034 62.9905 92.4206C63.0305 93.1921 63.0805 94.1785 63.2205 95.1648C63.2805 95.5847 63.3405 95.9558 63.4105 96.2878L63.4605 96.6882C63.4805 96.9031 63.5106 97.1179 63.5406 97.3328L63.5605 97.5672C63.5605 97.5672 63.5606 97.6648 63.5705 97.7429C63.5705 97.7722 63.5905 97.8015 63.6005 97.8113C63.6305 98.0652 63.6705 98.3289 63.7105 98.5828C63.6805 98.5828 63.6605 98.5828 63.6305 98.5828C63.4205 98.5144 63.1906 98.5535 63.0106 98.6805C62.8106 98.7391 62.6305 98.8074 62.4305 98.8855L62.3405 98.9148C61.7905 99.1199 61.1605 99.2176 60.5605 99.3152L60.1805 99.3738C59.9905 99.4031 59.7905 99.4422 59.6005 99.4812C59.0905 99.5789 58.5605 99.6961 58.0505 99.6766H57.9506C57.6206 99.6766 57.2705 99.657 56.9205 99.7156C56.7405 99.7449 56.5705 99.7937 56.4005 99.8426C56.2405 99.8816 56.0705 99.9305 55.9105 99.9598C55.6705 99.9988 55.4105 99.9891 55.1405 99.9793H54.8705C54.4805 99.9598 54.0806 99.9988 53.7006 100.087C53.5006 100.136 53.3005 100.184 53.1005 100.243C52.9705 100.282 52.8306 100.321 52.7006 100.35L52.7606 100.585L52.6305 100.36C52.3605 100.399 52.0905 100.438 51.8405 100.477L51.6305 100.497L51.5905 100.487Z" fill="black"/>
<path d="M64.1006 5.51519C64.2906 5.51519 64.4706 5.48589 64.6506 5.41753C65.1606 5.22221 65.5006 4.86088 65.6506 4.36283C65.7706 3.9429 65.7506 3.44485 65.5906 3.02492C65.3906 2.52687 65.0206 2.12647 64.4806 1.84326C64.2706 1.72607 64.0306 1.61865 63.7706 1.61865C63.4106 1.62842 63.1006 1.81397 62.9706 2.15577C62.8806 2.19483 62.7906 2.25342 62.7106 2.33155C62.4706 2.54639 62.3306 2.85891 62.2806 3.23977C62.2106 3.79642 62.4106 4.42142 62.8306 4.90971C63.1606 5.30034 63.6306 5.51519 64.1106 5.51519H64.1006ZM63.5706 3.88431L63.7206 3.82571L63.6906 3.75735C63.6606 3.68899 63.6406 3.61087 63.6306 3.53275C63.6306 3.49368 63.6306 3.45462 63.6306 3.36673C63.6306 3.3472 63.6306 3.32766 63.6506 3.29836H63.7306C63.8506 3.29836 63.9706 3.25929 64.0806 3.2007L64.1906 3.3179L64.2306 3.37649C64.2306 3.37649 64.2306 3.39603 64.2406 3.39603L64.2706 3.45462C64.2906 3.50345 64.3006 3.55228 64.3206 3.61087L64.3406 3.71828C64.3406 3.76711 64.3406 3.82571 64.3406 3.90384C64.3406 3.93313 64.3306 3.96244 64.3306 3.99174L64.2806 4.11868L64.0706 4.20657H64.0206C64.0206 4.20657 63.9706 4.16752 63.9306 4.13822C63.9006 4.10892 63.8706 4.08938 63.8306 4.04056C63.8106 4.01126 63.7906 3.9722 63.7606 3.94291C63.7406 3.91361 63.7206 3.87454 63.7206 3.87454L63.5106 3.94291L63.5806 3.91361H63.5606L63.5706 3.88431Z" fill="black"/>
<path d="M50.7207 2.81041C50.8907 2.97643 51.1107 3.10338 51.3607 3.20104C51.5607 3.27916 51.7607 3.30846 51.9707 3.30846C52.2407 3.30846 52.5007 3.24988 52.7307 3.12293C53.0007 2.97644 53.2107 2.74205 53.3407 2.43931H54.0307L53.3907 2.29283C53.4207 2.20494 53.4407 2.10728 53.4507 1.99985C53.5007 1.5604 53.3707 1.16 53.1007 0.906095C52.9007 0.720546 52.6207 0.574057 52.2807 0.476399C51.9107 0.368976 51.5607 0.349447 51.2407 0.417807C50.8807 0.495933 50.5907 0.749845 50.4907 1.09165C50.2807 1.39438 50.2207 1.80455 50.3207 2.17565C50.3807 2.37096 50.4807 2.5565 50.6207 2.71275L50.1807 2.94713L50.7107 2.81041H50.7207ZM52.0807 1.90221L52.0507 1.95102H51.9107C51.9107 1.95102 51.9007 1.95102 51.8907 1.95102H51.8507C51.8507 1.95102 51.8407 1.9315 51.8307 1.9315L51.7707 1.91197L51.7507 1.89243C51.8607 1.89243 51.9707 1.89243 52.0907 1.89243L52.0807 1.90221Z" fill="black"/>
<path d="M41.6206 58.0158C41.6206 58.3771 41.9306 58.6896 42.3106 58.6896C43.0306 58.6896 43.8406 58.6896 44.5306 58.3381C44.8106 58.2013 45.0206 57.9963 45.2306 57.7912L45.3406 57.6935C45.5506 57.4982 45.7206 57.2834 45.9006 56.9611C46.0806 56.6388 45.9706 56.2287 45.6506 56.0529C45.4906 55.965 45.3006 55.9455 45.1206 55.9845C44.9406 56.0333 44.8006 56.1408 44.7006 56.3165C44.6506 56.4044 44.6006 56.4923 44.5306 56.5998C44.5006 56.6291 44.4706 56.6584 44.4106 56.7169L44.2906 56.8341C44.1506 56.9709 44.0206 57.0881 43.8706 57.1662L43.7906 57.1955C43.7206 57.215 43.6506 57.2345 43.5806 57.2541C43.4606 57.2834 43.3306 57.3029 43.2306 57.3127C42.9206 57.342 42.6006 57.342 42.3206 57.342C41.9506 57.342 41.6306 57.6447 41.6306 58.0158H41.6206Z" fill="black"/>
<path d="M44.2005 54.9107L44.3304 54.9595C44.3904 54.979 44.4505 54.9888 44.5105 54.9888C44.5705 54.9888 44.6304 54.9888 44.6904 54.9595L44.8504 54.8911C44.8504 54.8911 44.9104 54.8521 44.9204 54.8325C44.9404 54.8325 44.9605 54.813 44.9805 54.8032C45.0205 54.7739 45.0704 54.7446 45.1304 54.686C45.1704 54.647 45.2004 54.6079 45.2504 54.5298C45.2704 54.481 45.2904 54.4419 45.3104 54.4028L45.3304 54.3345C45.3304 54.3345 45.3404 54.2368 45.3504 54.1782C45.3504 54.0806 45.3304 53.9829 45.3004 53.9341C45.2704 53.8364 45.2204 53.7583 45.1604 53.7095C45.0904 53.6313 45.0105 53.5825 44.9505 53.5728C44.8605 53.5239 44.7604 53.5142 44.6304 53.5142L44.4805 53.5337C44.4005 53.5532 44.3305 53.5923 44.2605 53.6313H44.2005L44.1704 53.69C44.1604 53.69 44.1504 53.6997 44.1504 53.7095C44.0704 53.7583 44.0005 53.8364 43.9505 53.9146L43.9204 53.9732C43.8604 54.061 43.8304 54.1489 43.8404 54.2075C43.8204 54.3052 43.8204 54.4028 43.8404 54.4907C43.8604 54.5786 43.9004 54.6568 43.9604 54.7251C44.0104 54.8032 44.0804 54.8618 44.1804 54.9107H44.2005Z" fill="black"/>
</svg>
