<svg width="64" height="134" viewBox="0 0 64 134" fill="none" xmlns="http://www.w3.org/2000/svg">
<path d="M63.0493 84.6662C63.4293 84.3927 63.4293 84.0802 63.4293 83.8068C63.4293 83.3185 63.0892 83.1134 62.8492 82.9669L62.7693 82.9181C61.8293 82.3322 60.8593 81.7853 59.8993 81.2286C58.2593 80.2911 56.5693 79.3145 55.0193 78.2012C53.8693 77.3712 52.7893 76.3848 51.7493 75.4375L51.4392 75.1543C50.6292 74.4219 49.8293 73.6699 49.0293 72.9277L48.0392 72.0098C45.8892 70.0273 43.5593 68.1035 41.1093 66.287C40.8093 66.0624 40.4992 65.8476 40.1892 65.6327L39.6493 65.2616C39.3893 64.9296 39.0893 64.6268 38.7793 64.3534C37.7993 63.494 36.6692 62.9471 35.4392 62.3807C35.0992 62.1854 34.7492 62.0194 34.4392 61.912L33.9893 61.6971C33.8293 61.619 33.6593 61.5995 33.4893 61.6483C33.0793 61.5799 32.6893 61.5799 32.2893 61.6288C32.2893 61.6288 32.2793 61.6288 32.2693 61.6288C32.2193 61.619 32.1693 61.6092 32.1193 61.6092C31.8693 61.6092 31.6093 61.5897 31.3593 61.5799C30.8893 61.5506 30.3993 61.5213 29.8993 61.5799C29.2193 61.6385 28.5692 61.8241 27.9392 62.0096L27.5693 62.117C27.1693 62.2245 26.7693 62.3221 26.3193 62.41C26.2693 62.1659 26.1893 61.951 26.0893 61.7752C25.9493 61.5213 25.7493 61.3651 25.5293 61.2284C25.5793 61.1893 25.6292 61.1405 25.6592 61.1112L25.7693 61.0135C26.2393 60.5838 26.4293 60.0955 26.3393 59.5584C26.2393 59.0213 25.8292 58.6209 25.1892 58.4451C25.0792 58.4158 24.9592 58.3865 24.8492 58.3572C24.5292 58.2791 24.2793 58.2205 24.0593 58.035C23.8893 57.8885 23.7693 57.7517 23.6493 57.5369C23.5393 57.3318 23.3992 57.0779 23.1292 56.9217C22.6892 56.6775 22.1193 56.7068 21.6093 56.7556C21.3293 56.7849 21.0793 56.8728 20.8393 56.951C20.6093 57.0291 20.3893 57.1072 20.1693 57.1072C20.0993 57.1072 20.0193 57.1072 19.9493 57.1072C19.7593 57.1072 19.5493 57.0877 19.3293 57.1365C19.0093 57.1951 18.6992 57.3709 18.4392 57.6346C18.2692 57.8006 18.1093 58.0057 17.9593 58.2498C17.6793 58.406 17.4493 58.6404 17.2493 58.8553C17.1393 58.9822 17.0093 59.0994 16.8893 59.2166C16.6693 59.4315 16.4393 59.6561 16.2493 59.9295C16.0293 60.2518 15.9493 60.5838 16.0393 60.8963C16.1093 61.1405 16.2693 61.3846 16.5293 61.5995C16.6293 61.6873 16.7392 61.7557 16.8492 61.8338C16.8492 62.0975 16.8692 62.3709 16.8792 62.6346C16.8892 62.8397 16.8992 63.035 16.9092 63.2401C16.7792 63.1717 16.6393 63.0936 16.4993 63.0155C15.8493 62.6639 15.4393 62.2245 15.1693 61.5799C15.0093 61.1893 14.8993 60.7791 14.7893 60.3494C14.7292 60.1053 14.6692 59.8611 14.5992 59.6268C14.4492 59.1385 14.2793 58.6697 14.1093 58.1912C13.9993 57.8982 13.8993 57.6053 13.7993 57.3123C13.2593 55.7205 12.9693 54.031 12.7493 52.5759C12.6193 51.7458 12.5093 50.906 12.3993 50.0661C12.0893 47.693 11.7593 45.2418 10.9993 42.9078C10.7093 42.0191 10.3793 41.1793 10.0093 40.4273C9.95925 40.3296 9.90925 40.232 9.84925 40.1441C10.1992 38.5523 10.7293 36.9702 11.2393 35.437C11.4393 34.8413 11.6393 34.2554 11.8293 33.6499C12.0593 32.937 12.1892 32.1948 12.3192 31.4819C12.4092 30.9741 12.4992 30.4662 12.6292 29.9682C12.7392 29.5287 12.8993 29.1088 13.0793 28.6693C13.3593 27.9662 13.6392 27.2435 13.6892 26.433L13.7093 26.1009C13.7393 25.7298 13.7693 25.3588 13.7493 24.9681C13.7493 24.8412 13.7293 24.7044 13.7093 24.558C13.7293 24.5384 13.7493 24.5287 13.7693 24.5091C13.8993 24.3919 13.9793 24.2162 13.9793 24.0306C13.9793 23.8548 13.9793 23.679 13.9893 23.513C14.0093 22.9661 14.0193 22.39 13.9193 21.8138L13.8792 21.5696C13.7892 21.0813 13.7193 20.6224 13.7093 20.1438C13.7793 20.1341 13.8392 20.1341 13.9092 20.1048C14.1392 19.9973 14.2793 19.7825 14.2993 19.5384C14.4093 18.0247 15.2193 16.7356 16.1093 15.4367C16.9693 14.1867 17.9393 12.8781 19.1093 11.8332C19.6193 11.384 20.2193 10.8859 20.8693 10.6222C21.4493 10.3879 22.1093 10.3488 22.7493 10.4953C23.0093 10.5539 23.2593 10.6515 23.4793 10.7785C22.9193 11.4328 22.2493 12.2433 21.9493 13.1809C21.6393 14.1281 21.9793 15.3781 23.0593 15.7395C24.0193 16.0617 24.8293 15.4074 25.2693 14.6848C26.0493 13.4152 26.0792 11.8332 25.3792 10.7199C25.5392 10.5539 25.7092 10.3781 25.8792 10.2121C26.6592 9.45035 27.5193 8.65932 28.4793 8.04408C29.0193 7.70227 29.4592 7.47765 29.8792 7.33116C30.1892 7.22374 30.6493 7.08703 31.0393 7.18468C31.4293 7.28234 31.6293 7.64367 31.7093 7.84875C31.7426 7.92687 31.7593 8.0278 31.7593 8.1515C31.7593 8.35658 31.7492 8.55189 31.7192 8.75697C31.6992 8.92299 31.6692 9.089 31.6292 9.25502L31.5493 9.34292C31.0093 10.0265 30.5692 10.7883 30.2192 11.5988C30.1392 11.7746 30.1593 11.9797 30.2593 12.1457C30.3793 12.341 30.5993 12.4777 30.8393 12.4973C31.2093 12.5266 31.7593 12.3996 32.2493 11.589C32.5193 11.1496 32.7292 10.6125 32.9092 9.87027C33.2492 9.46987 33.5693 9.13784 33.8893 8.85463C34.8593 7.99525 35.9892 7.34094 37.3492 6.85265L37.6292 6.74523C38.2492 6.52062 38.8793 6.28624 39.4793 6.33507C39.8493 6.36437 40.1592 6.12022 40.1892 5.74912C40.2192 5.40732 39.9893 5.02645 39.5493 4.98739C38.7293 4.91903 37.9393 5.20224 37.1993 5.46592C36.4493 5.72959 35.7792 5.97374 35.1292 6.33507C34.4092 6.71593 33.7292 7.19444 33.0992 7.74132C33.0092 7.25304 32.7593 6.79406 32.3993 6.44249C31.5593 5.62217 30.2793 5.60263 28.6793 6.38389C27.4193 6.99913 26.3593 7.90735 25.6793 8.54212C25.2693 8.92299 24.8593 9.32338 24.4293 9.76284C23.1393 8.91322 21.2992 8.82534 19.9092 9.58707C18.1592 10.5539 16.8392 12.1359 15.8792 13.4152C15.3292 14.1477 14.8093 14.8899 14.3393 15.6125C13.7493 16.5305 13.3693 17.3118 13.1493 18.0833C13.0493 18.4348 12.9892 18.8255 12.9392 19.2259C12.6992 19.2356 12.4793 19.3724 12.3893 19.597C12.1093 20.222 11.7593 20.8372 11.4293 21.4329C11.1193 21.9798 10.7993 22.5462 10.5193 23.1322C10.4293 23.3275 10.4293 23.5326 10.4993 23.7083C10.2293 23.7669 9.87924 23.8939 9.68924 24.265C9.60924 24.4212 9.57925 24.5775 9.53925 24.7533C9.49925 24.9291 9.45925 25.1048 9.40925 25.2806L9.35926 25.4857C9.27926 25.8177 9.18927 26.1498 9.11927 26.4818C9.04927 26.7748 8.97925 27.058 8.90925 27.351C8.77925 27.8685 8.63927 28.3764 8.49927 28.8842C8.29927 29.6264 8.08926 30.3784 7.91926 31.1303L7.35926 33.601C7.24926 34.1089 7.12924 34.6362 6.93924 35.105C6.82924 35.3882 6.68926 35.6714 6.54926 35.9546C6.14926 36.7554 5.74925 37.5855 5.81925 38.523C5.77925 38.5523 5.73925 38.5816 5.69925 38.6206C5.64925 38.6792 5.59925 38.7378 5.56925 38.8062C5.52925 38.8062 5.47924 38.8062 5.43924 38.8062C4.83924 38.8062 4.54925 39.1382 4.40925 39.5484C4.04925 39.1578 3.57927 38.982 3.08927 39.0503C1.67927 39.2554 1.52925 41.0035 1.44925 41.9312V42.0484C1.28925 43.7574 1.20925 45.5836 1.19925 47.6344C1.19925 48.3669 1.17926 49.1091 1.16926 49.8415C1.14926 50.9645 1.12926 52.0974 1.13926 53.2204C1.15926 54.8123 1.36926 56.3748 1.57926 57.8885L1.68924 58.7088C1.76924 59.3143 1.84927 59.9295 1.92927 60.535C2.00927 61.1698 2.08926 61.8045 2.16926 62.3709C2.11926 63.4256 2.06925 64.5096 2.22925 65.6229C2.31925 66.248 2.43925 66.873 2.56925 67.4882L2.93924 67.4198L2.58927 67.5956C2.67927 68.0839 2.80925 68.7577 3.28925 69.1288C3.39925 69.2167 3.53927 69.2753 3.67927 69.2851C3.74927 69.7929 3.98924 70.2226 4.21924 70.623L4.47925 71.1113C4.56925 71.2871 4.65925 71.4531 4.75925 71.6289L4.90925 71.8828C5.01925 72.0586 5.12925 72.2344 5.22925 72.4199L5.42927 72.791C5.65927 73.2305 5.88927 73.6602 6.14927 74.0801C6.45927 74.5781 6.79926 75.0957 7.20926 75.6524C7.49926 76.0528 7.75927 76.4532 8.02927 76.8633C8.39927 77.4297 8.77924 78.0157 9.18924 78.5235C9.91924 79.7931 10.6093 81.0821 11.2293 82.3712L11.3693 82.6642C11.4993 82.9962 11.6293 83.3185 11.7893 83.631C11.8193 83.6798 11.8492 83.7287 11.9092 83.8068C12.2892 84.6076 12.6593 85.4084 13.0293 86.2189C13.9493 88.2209 14.8993 90.2912 15.9293 92.2835C16.5293 93.4358 17.0393 94.6565 17.5393 95.8382C17.7093 96.2386 17.8793 96.6292 18.0493 97.0296C18.3593 97.7425 18.7292 98.5726 19.1592 99.4124C19.2892 99.6566 19.4193 99.9007 19.5493 100.135C19.8393 100.653 20.1093 101.141 20.2993 101.668C20.4493 102.069 20.5692 102.479 20.6892 102.879C20.7992 103.241 20.9093 103.592 21.0293 103.954C21.3293 104.813 21.7593 105.584 22.1693 106.297L22.5493 106.952C22.8393 107.459 23.1293 107.957 23.4193 108.465C23.5193 108.846 23.6893 109.237 23.9493 109.696C24.1193 109.989 24.3093 110.282 24.4893 110.565L24.6993 110.897C24.9293 111.375 25.1093 111.854 25.2893 112.362C25.4093 112.694 25.5393 113.036 25.6693 113.368C25.9693 114.1 26.3393 114.95 26.8193 115.751C26.9692 116.004 27.1193 116.239 27.2693 116.483C27.5593 116.942 27.8393 117.381 28.0593 117.86C28.3893 118.573 28.7893 119.286 29.2693 120.047C29.3993 120.253 29.5393 120.458 29.6793 120.663C30.0193 121.18 30.3493 121.669 30.6193 122.196C30.9393 122.831 31.3692 123.661 31.8492 124.501C32.3692 125.399 32.7093 126.112 32.9493 126.815C33.0093 126.981 33.0593 127.147 33.1093 127.313C33.2093 127.645 33.3092 127.987 33.4692 128.329C33.5592 128.534 33.6693 128.71 33.7793 128.866C33.6793 129.227 33.6792 129.579 33.7593 129.93C33.3193 130.184 32.9492 130.526 32.6892 130.927C32.5492 131.132 32.4293 131.376 32.3293 131.678C32.2293 131.962 32.0793 132.382 32.3193 132.743C32.4293 132.909 32.5693 133.055 32.7393 133.173C32.7393 133.202 32.7493 133.221 32.7593 133.251C32.8793 133.612 33.2493 133.729 33.5093 133.817C33.7793 133.905 34.0692 133.954 34.3492 133.954C34.7892 133.954 35.2093 133.846 35.5793 133.632C35.6093 133.632 35.6493 133.641 35.6793 133.651C35.9093 133.72 36.1293 133.671 36.2993 133.534C36.4093 133.446 36.4893 133.309 36.5193 133.173C38.2093 132.245 40.4792 130.731 41.3492 128.28C41.3492 128.28 41.3492 128.28 41.3492 128.27C41.3992 128.241 41.4493 128.202 41.4993 128.163C41.6693 128.007 41.7493 127.772 41.7093 127.548C41.6493 127.157 41.4693 126.815 41.2693 126.444C41.1593 126.229 41.0593 126.005 40.9593 125.79L40.7993 125.428C40.5293 124.852 40.2193 124.266 39.8693 123.68L39.7593 123.27C39.6593 122.792 39.5692 122.303 39.4092 121.815L39.3393 121.59C39.2793 121.376 39.2092 121.141 39.0992 120.917C38.9892 120.331 38.6493 119.911 38.3192 119.51L38.1793 119.335C37.9393 119.032 37.8293 118.641 37.7093 118.231C37.6493 118.026 37.5893 117.831 37.5193 117.635C37.2793 116.991 36.9893 116.356 36.7093 115.741C36.3793 115.018 36.0392 114.276 35.7892 113.514C35.7292 113.348 35.6792 113.182 35.6292 113.016L35.5893 112.86C35.5493 112.704 35.5093 112.528 35.4193 112.362C35.3393 112.206 35.2292 112.059 35.1292 111.913C35.0492 111.795 34.9693 111.688 34.8993 111.571C34.7793 111.366 34.6992 111.131 34.5992 110.887L34.4793 110.584C34.3393 110.233 34.1893 109.872 34.0593 109.52C33.5793 108.26 33.0892 106.776 33.0992 105.252C33.2492 105.252 33.3993 105.223 33.5493 105.204C34.0093 105.135 34.3493 105.008 34.6993 104.764C34.7093 104.764 34.7293 104.745 34.7393 104.735C34.7893 104.784 34.8492 104.832 34.9092 104.891C35.3192 105.262 35.6993 105.614 36.0193 106.024C36.3993 106.522 36.7693 107.108 37.1793 107.87C37.5093 108.475 37.8192 109.1 38.1292 109.715L38.1892 109.833C38.5292 110.516 38.9893 111.102 39.4593 111.688C39.5393 111.786 39.6193 111.883 39.6993 111.991C39.6693 112.147 39.6693 112.303 39.6793 112.44C39.7393 113.065 40.0793 113.592 40.3593 113.993L40.4493 114.12C40.5893 114.315 40.7392 114.54 40.9392 114.715C40.9692 114.745 40.9993 114.764 41.0293 114.784C41.1493 114.989 41.2793 115.204 41.4193 115.409C41.6293 115.711 41.8593 116.053 42.0193 116.415C42.0893 116.571 42.1493 116.717 42.2093 116.874C42.2793 117.04 42.3393 117.206 42.4193 117.362C42.6993 117.977 43.0792 118.456 43.5692 118.797C43.7992 119.403 44.2393 120.174 45.0392 120.633C45.1792 120.868 45.3293 121.102 45.4893 121.337L46.1493 122.313C46.2993 122.538 46.4593 122.801 46.7293 122.997C47.2393 123.358 47.8993 123.417 48.5692 123.173C48.5892 123.866 48.5892 124.432 48.5692 124.969C48.5492 125.409 48.5193 125.848 48.4793 126.288C48.4493 126.532 48.4092 126.776 48.3792 127.02C48.3492 127.235 48.3093 127.45 48.2793 127.665C48.2593 127.88 48.2893 128.153 48.4893 128.358C48.4993 128.397 48.5192 128.436 48.5392 128.475C48.6292 128.632 48.7692 128.729 48.9092 128.817C48.9492 128.846 48.9992 128.866 49.0392 128.886C49.0592 128.915 49.0893 128.954 49.1193 128.983C49.7093 129.589 50.7693 129.579 51.4493 129.208C51.9793 128.925 52.4193 128.407 52.7793 127.635C52.8093 127.577 52.8293 127.509 52.8593 127.44L52.8893 127.382C53.0393 127.294 53.1693 127.196 53.2693 127.079C53.4093 126.932 53.5193 126.757 53.6393 126.522C53.6893 126.444 53.7393 126.366 53.7892 126.288C54.2192 125.487 54.2393 124.579 54.2693 123.788C54.2893 123.085 54.2493 122.352 54.1393 121.63C54.4593 121.258 54.5793 120.712 54.4793 120.087C54.4193 119.745 54.2992 119.432 54.1292 119.188C54.0192 119.032 53.8493 118.924 53.6693 118.885C53.6193 118.827 53.5693 118.758 53.5093 118.7L53.4793 118.671C53.4293 118.465 53.2793 118.299 53.0793 118.212L52.9793 118.094C52.8593 117.967 52.7393 117.85 52.6793 117.792C52.6393 117.713 52.5793 117.635 52.5593 117.626C52.4793 117.528 52.3993 117.44 52.3293 117.342L52.2793 117.284C52.2293 117.157 52.1493 117.049 52.0493 116.971C52.0293 116.952 52.0093 116.922 51.9793 116.903L51.8693 116.756C51.7893 116.659 51.7092 116.551 51.6292 116.454C51.3592 116.131 51.0992 115.79 50.8792 115.506C50.8392 115.438 50.7993 115.37 50.7793 115.36C50.6093 115.135 50.4492 114.911 50.2892 114.686C50.0892 114.403 49.8893 114.12 49.7093 113.817C49.6593 113.739 49.6193 113.661 49.5593 113.534C49.5493 113.368 49.4593 113.211 49.2993 113.055L49.2593 112.997C49.2593 112.997 49.2093 112.909 49.1793 112.87C49.1193 112.792 49.0393 112.713 48.9493 112.665C48.4093 112.049 48.0192 111.307 47.6592 110.604L47.5493 110.379C47.3293 109.959 47.1192 109.54 46.8792 109.129C46.8292 109.041 46.7693 108.954 46.7093 108.866C46.6193 108.739 46.5193 108.592 46.4893 108.495C46.4693 108.416 46.4693 108.338 46.4593 108.26C46.4593 108.114 46.4393 107.928 46.3593 107.733C46.1693 107.293 45.9092 106.903 45.6592 106.522C45.5492 106.356 45.4393 106.18 45.3293 106.014C45.0693 105.594 44.8793 105.145 44.6693 104.666L44.4993 104.286C43.9493 103.065 43.3893 101.854 42.8293 100.653C41.3193 97.4495 39.7292 94.2171 38.1892 91.092C37.4192 89.5197 36.6392 87.9572 35.8792 86.3849L35.0093 84.5978C34.9193 84.4025 34.8293 84.2072 34.7393 84.0119C34.5493 83.6017 34.3593 83.2013 34.1493 82.8107L33.9392 82.42C33.4992 81.6388 33.0892 80.8966 32.9392 80.0665C32.8792 79.754 32.8493 79.2852 33.0393 78.8555C33.2993 78.2598 33.5492 78.2891 33.6592 78.3087C33.7492 78.3184 33.8193 78.3673 33.9493 78.4649L34.9293 79.1388C35.4793 79.5099 36.0293 79.881 36.5793 80.2423C40.8593 83.0646 45.3293 85.6232 49.8393 87.8498C50.9693 88.4064 52.1092 88.9436 53.2593 89.4709C53.4393 89.5588 53.6292 89.6369 53.8192 89.7151C54.1992 89.8811 54.5693 90.0373 54.9293 90.2326C55.4893 90.5354 56.0693 90.7307 56.6393 90.8186C57.8693 90.9846 59.3193 90.6135 59.5893 89.3635C59.6493 89.0803 59.6493 88.7678 59.5893 88.465C60.1893 88.4553 60.7493 88.3088 61.2693 88.0353C61.4993 87.9182 61.6493 87.6545 61.6193 87.4104C61.5393 86.6877 61.2593 86.0431 60.7693 85.4865C60.8893 85.4865 60.9993 85.4767 61.1093 85.4572C61.8093 85.3693 62.4792 85.1154 63.0392 84.7052L63.0493 84.6662ZM24.0992 12.1652C24.1892 12.0383 24.2893 11.9211 24.3893 11.7941C24.4993 12.1262 24.5293 12.507 24.4593 12.8977C24.3593 13.5129 24.1193 14.0402 23.7893 14.3234C23.6993 14.4016 23.5693 14.4699 23.4793 14.4406C23.3393 14.382 23.2092 14.177 23.1892 13.9817C23.1292 13.4152 23.6193 12.7805 24.0093 12.2629L24.0893 12.1554L24.0992 12.1652ZM47.7993 115.907L48.0193 115.868C47.9193 115.946 47.8193 116.024 47.7293 116.083C47.7493 116.024 47.7793 115.965 47.7993 115.907ZM46.6093 112.831C46.7593 113.045 46.9093 113.27 47.0593 113.495C46.8893 113.377 46.7092 113.241 46.5392 113.065C46.4992 113.026 46.4593 112.977 46.4193 112.938C46.4793 112.909 46.5493 112.879 46.6093 112.84V112.831ZM43.2593 110.497C43.3092 110.565 43.3793 110.624 43.4593 110.672C43.5993 110.995 43.7393 111.317 43.8893 111.61C43.8593 111.61 43.8293 111.61 43.7993 111.61H43.7892L43.5893 111.2C43.4193 110.848 43.2293 110.516 43.0293 110.174C43.0993 110.282 43.1793 110.379 43.2493 110.487L43.2593 110.497ZM42.2593 105.789C42.4492 106.336 42.6093 106.903 42.7493 107.42C42.5593 107.157 42.3693 106.903 42.1793 106.639C42.0593 106.102 42.0093 105.614 42.0293 105.164C42.1093 105.37 42.1893 105.575 42.2593 105.789ZM24.4893 59.6463C24.5793 59.6658 24.6693 59.6854 24.7693 59.7147C24.9493 59.7635 24.9893 59.8123 24.9793 59.8319C24.9693 59.8905 24.7992 60.0272 24.7192 60.0955C24.6992 60.1151 24.6693 60.1346 24.6493 60.1541C24.6293 60.0955 24.6093 60.0369 24.5793 59.9783C24.5193 59.8611 24.4593 59.744 24.3893 59.6268C24.4193 59.6268 24.4493 59.6365 24.4793 59.6463H24.4893ZM23.4893 62.6151C23.5093 62.5467 23.5293 62.4686 23.5393 62.4002C23.5493 62.4686 23.5693 62.5272 23.5793 62.5956C23.5993 62.6737 23.6092 62.7518 23.6292 62.8299C23.5792 62.8202 23.5192 62.8104 23.4692 62.8104C23.4392 62.8104 23.4092 62.8104 23.3792 62.8104C23.4292 62.7518 23.4593 62.6835 23.4893 62.6053V62.6151ZM23.3393 60.5643C23.4093 60.7401 23.4092 60.9744 23.4092 61.2186C23.4092 61.326 23.4092 61.4237 23.4092 61.5213C23.2692 61.2381 23.0293 60.994 22.7093 60.8377C22.6893 60.7987 22.6592 60.7694 22.6292 60.7303C22.8692 60.6619 23.0993 60.6034 23.3393 60.5643ZM22.0793 59.0213C22.2893 59.0701 22.4393 59.1678 22.5893 59.3631C22.3293 59.4315 22.0593 59.5096 21.7893 59.5877C21.6693 59.3436 21.5392 59.1483 21.3792 58.9725C21.6492 58.9627 21.8793 58.9725 22.0793 59.0213ZM20.9293 61.2284C20.9993 61.4334 21.0893 61.6581 21.1993 61.8631C21.2993 62.0487 21.4293 62.2245 21.5793 62.3807L21.4893 62.41C21.4293 62.4295 21.3693 62.4393 21.3093 62.4491V62.8202L21.1693 62.4686C21.1193 62.4686 21.0593 62.4686 21.0093 62.4784C20.8893 62.0975 20.6593 61.7069 20.4793 61.4041L20.4392 61.326C20.6192 61.287 20.7792 61.2479 20.9392 61.2088L20.9293 61.2284ZM20.0493 59.617C20.1893 59.7147 20.3093 59.8319 20.4193 59.9783C20.2193 60.0272 20.0093 60.0662 19.7993 60.0858C19.8393 59.9686 19.8493 59.8416 19.8293 59.7244L19.8093 59.6268C19.8093 59.6268 19.8093 59.5389 19.7993 59.4998C19.8193 59.4998 19.9093 59.5291 20.0593 59.6268L20.0493 59.617ZM18.5992 60.8768C18.5992 60.8768 18.6293 60.9549 18.6493 60.994C18.7893 61.2967 18.9592 61.5799 19.1292 61.8631L19.2993 62.1561C19.3393 62.2245 19.3793 62.2928 19.4193 62.3612C19.3493 62.3319 19.2792 62.2928 19.2192 62.2635L18.9293 62.117C18.9293 62.117 18.9093 62.117 18.8993 62.0975C18.9393 61.9022 18.8793 61.6971 18.7393 61.5213C18.6493 61.4139 18.5392 61.3162 18.4392 61.2284C18.5292 61.1307 18.5893 61.0135 18.6093 60.8768H18.5992ZM12.5692 22.1458C12.6292 22.5755 12.6192 23.015 12.5992 23.4837C12.5992 23.5228 12.5992 23.5716 12.5992 23.6204C12.5792 23.6204 12.5593 23.6204 12.5393 23.6204C12.3193 23.6009 12.0992 23.5912 11.8792 23.5912C11.8492 23.5912 11.8293 23.5912 11.7993 23.5912C12.0293 23.1029 12.2992 22.6243 12.5692 22.1556V22.1458ZM6.91926 39.021C7.10926 38.8941 7.20924 38.6792 7.18924 38.4449C7.13924 37.7808 7.47927 37.1069 7.80927 36.4526C7.91927 36.228 8.03925 36.0034 8.12925 35.7788C8.36925 35.2319 8.49926 34.6655 8.63926 34.0991C8.77926 33.5034 8.91925 32.9077 9.06925 32.2241C9.36925 30.8764 9.67925 29.6557 10.0093 28.4935C10.1693 27.9369 10.2992 27.3705 10.4392 26.8041L10.4893 26.6088C10.5393 26.4135 10.5893 26.2084 10.6393 26.0131C10.7193 25.6908 10.8092 25.3587 10.8792 25.0169C10.8792 25.0169 10.8792 25.0072 10.8792 24.9974C10.8992 24.9974 10.9093 24.9974 10.9293 24.9974H11.1292C11.5292 24.9681 11.9493 24.9388 12.3393 24.9779C12.3593 25.2123 12.3393 25.4564 12.3293 25.6908V25.8763C12.2993 26.2767 12.2793 26.6478 12.1793 27.0092C12.0893 27.3705 11.9392 27.7221 11.7893 28.0834L11.6193 28.4935C11.4293 28.9818 11.2692 29.519 11.1292 30.2026C11.0592 30.5248 10.9992 30.8471 10.9392 31.1694C10.7892 31.9799 10.6393 32.7514 10.3893 33.5034C10.2393 33.9428 10.0893 34.3823 9.94925 34.8218C9.71925 35.5151 9.47925 36.1987 9.25925 36.8921C9.02925 37.5952 8.82926 38.3472 8.63926 39.1187C8.53926 39.0894 8.43926 39.0601 8.32926 39.0503C7.79926 38.9917 7.32926 39.2164 6.98926 39.5484C6.98926 39.5484 6.96926 39.5289 6.95926 39.5191C6.92926 39.4898 6.89926 39.4605 6.85926 39.441V39.0992C6.85926 39.0992 6.85926 39.0796 6.85926 39.0699C6.86926 39.0699 6.88927 39.0503 6.89927 39.0503L6.91926 39.021ZM2.84925 41.6676C2.87925 41.3258 2.93926 40.7398 3.20926 40.4371C3.24926 40.398 3.26926 40.3785 3.26926 40.3687C3.29926 40.3882 3.43927 40.4761 3.61927 40.8472L3.66926 40.9449C3.81926 41.2476 3.98926 41.5894 4.26926 41.8531V43.5914C4.26926 43.9723 4.56926 44.2555 4.95926 44.2555C5.34926 44.2555 5.64927 43.9723 5.64927 43.5914V40.8765C5.64927 40.7984 5.62925 40.7105 5.59925 40.6324C5.59925 40.4859 5.59926 40.3785 5.60926 40.3004C5.68926 40.398 5.74926 40.5152 5.79926 40.6129V40.8668C5.79926 41.1011 5.92925 41.316 6.12925 41.4332C6.24925 41.7847 6.35926 42.1363 6.45926 42.4879C6.55926 42.8199 6.88927 43.0152 7.24927 42.9664C7.59927 42.9078 7.83925 42.6344 7.81925 42.2926C7.81925 42.1461 7.79925 41.9996 7.78925 41.8531C7.74925 41.4429 7.70926 41.023 7.82926 40.691C7.89926 40.5054 8.08925 40.3199 8.22925 40.3492C8.26925 40.359 8.30925 40.3785 8.34925 40.4175C8.32925 40.525 8.29925 40.6226 8.28925 40.7203C8.23925 41.0425 8.40924 41.3453 8.71924 41.4722C8.81924 41.5113 8.91926 41.5308 9.01926 41.5308C9.59926 42.7808 9.94925 44.1383 10.1693 45.0758C10.2493 45.4274 10.3293 45.7789 10.3993 46.1305C10.1493 45.8571 9.66927 45.9059 9.24927 45.9059C8.77927 45.9059 8.31925 45.8961 7.84925 45.9157C7.51925 45.9352 7.21926 46.0133 6.91926 46.0914C6.64926 46.1598 6.39925 46.2282 6.15925 46.2379C5.95925 46.2379 5.76925 46.2282 5.56925 46.2086L5.31925 46.1891C4.98925 46.1696 4.64927 46.1891 4.24927 46.2575L3.91926 46.3258C3.45926 46.4137 3.01926 46.5016 2.57926 46.5114C2.60926 44.7535 2.69925 43.1519 2.84925 41.648V41.6676ZM23.7693 106.346C23.3293 105.604 22.8893 104.852 22.5593 104.071C22.5593 104.071 22.5793 104.08 22.5793 104.09C22.7293 104.227 22.8593 104.373 22.9893 104.53L23.1892 104.745C23.2892 104.852 23.3793 104.959 23.4793 105.057C23.4793 105.477 23.5693 105.916 23.7693 106.336V106.346ZM23.8193 101.659C23.6893 101.58 23.5493 101.502 23.3993 101.444C23.3393 101.414 23.2393 101.375 23.1193 101.336L23.1693 101.317C23.2393 101.366 23.3193 101.395 23.3993 101.414C23.5993 101.463 23.7993 101.493 23.9993 101.532C23.9393 101.571 23.8792 101.61 23.8193 101.659ZM25.4293 109.286C25.1993 108.856 24.9593 108.416 24.7093 107.957C24.7093 107.928 24.7093 107.899 24.6993 107.87C24.9693 108.172 25.2393 108.456 25.5093 108.729C25.4693 108.915 25.4493 109.1 25.4293 109.286ZM24.8093 102.723C24.8093 102.723 24.8793 102.743 24.9293 102.752C24.8993 102.782 24.8793 102.811 24.8593 102.84C24.8493 102.801 24.8293 102.752 24.8093 102.713V102.723ZM26.0693 103.534C26.1493 103.455 26.2393 103.368 26.3393 103.289C26.5493 103.25 26.7293 103.123 26.8393 102.948L26.9893 102.85C27.1693 102.743 27.3493 102.645 27.5393 102.547C27.4893 102.655 27.4593 102.772 27.4293 102.889C27.4193 102.948 27.4093 102.996 27.3993 103.055C26.9493 103.231 26.5093 103.387 26.0693 103.534ZM27.3193 104.637C27.3193 104.637 27.2993 104.579 27.2793 104.549C27.2893 104.549 27.2993 104.549 27.3093 104.539C27.3093 104.559 27.3093 104.579 27.3093 104.598C27.3093 104.618 27.3093 104.627 27.3093 104.647L27.3193 104.637ZM27.7793 106.659C27.5593 106.786 27.2593 106.815 26.9793 106.834C26.9293 106.834 26.8893 106.834 26.8393 106.834C26.7793 106.346 26.7793 105.897 26.8293 105.487C26.9393 105.457 27.0492 105.399 27.1292 105.321C27.2392 105.223 27.3093 105.077 27.3293 104.93C27.3593 105.291 27.4193 105.682 27.5293 106.053C27.5893 106.248 27.6793 106.434 27.8093 106.629C27.7993 106.639 27.7893 106.649 27.7693 106.659H27.7793ZM29.2693 109.579C29.2693 109.579 29.1792 109.5 29.1292 109.471C29.1492 109.383 29.1693 109.286 29.1993 109.198C29.2193 109.325 29.2493 109.452 29.2693 109.579ZM29.4193 106.034V106.053C29.3993 106.112 29.3793 106.18 29.3693 106.239C29.3693 106.131 29.3893 106.034 29.3893 105.926V105.643C29.4093 105.467 29.4193 105.291 29.4293 105.116C29.4293 105.125 29.4393 105.145 29.4493 105.155C29.5793 105.399 29.5293 105.633 29.4193 106.024V106.034ZM28.6093 100.233C28.3393 100.399 27.9693 100.643 27.7093 100.995H27.6993C27.6293 100.975 27.5493 100.955 27.4793 100.946C27.3193 100.916 27.1493 100.907 26.9893 100.897C26.7093 100.741 26.4092 100.643 26.0992 100.555C26.2092 100.536 26.3193 100.516 26.4293 100.496C26.9293 100.409 27.4392 100.311 27.9392 100.174C28.7792 99.9398 29.6193 99.6761 30.4493 99.3636C30.3493 99.4027 30.2493 99.4515 30.1393 99.5004C29.6193 99.7152 29.0892 99.9398 28.5992 100.243L28.6093 100.233ZM30.8193 114.95L30.4193 113.856C30.2993 113.543 30.2093 113.221 30.1393 112.879C30.2093 112.723 30.2593 112.557 30.2893 112.391C30.5093 112.684 30.7193 113.016 30.9493 113.446C30.7293 113.973 30.7693 114.54 30.8293 114.95H30.8193ZM31.1993 107.635C31.1993 107.635 31.2193 107.616 31.2393 107.606C31.2393 107.625 31.2493 107.655 31.2593 107.674C31.2393 107.655 31.2293 107.645 31.2093 107.625L31.1993 107.635ZM31.1093 103.192C31.1093 103.329 31.1492 103.465 31.2192 103.582C30.9692 103.69 30.7993 103.905 30.7893 104.168C30.7893 104.325 30.7592 104.481 30.7192 104.637C30.6092 104.413 30.4793 104.198 30.3393 103.993C30.2493 103.846 30.1493 103.709 30.0693 103.553C30.0392 103.495 30.0193 103.436 29.9993 103.368C30.6493 103.045 31.2493 102.733 31.7993 102.411H31.8293C31.9393 102.411 32.0493 102.401 32.1693 102.391C31.9893 102.479 31.8193 102.547 31.6393 102.577C31.3193 102.625 31.0992 102.87 31.0992 103.182L31.1093 103.192ZM32.1693 112.469C32.1093 112.469 32.0593 112.469 31.9993 112.489C31.7993 112.147 31.5893 111.835 31.3693 111.551C31.3893 111.502 31.4093 111.454 31.4193 111.415C31.4193 111.395 31.4193 111.366 31.4293 111.346C31.5993 111.268 31.7293 111.122 31.7793 110.936C31.8193 110.809 31.8393 110.682 31.8393 110.555C31.9793 111.161 32.1493 111.756 32.3693 112.342C32.3993 112.411 32.4292 112.469 32.4692 112.528C32.4192 112.508 32.3793 112.499 32.3293 112.489C32.2793 112.479 32.2193 112.469 32.1693 112.469ZM32.6693 123.163C32.5793 123.007 32.4993 122.85 32.4193 122.694C32.4893 122.772 32.5493 122.85 32.6193 122.928C32.6993 123.046 32.7792 123.143 32.8792 123.221C32.8892 123.231 32.9092 123.251 32.9392 123.26C33.0792 123.397 33.2193 123.534 33.3593 123.671L33.4692 123.964C33.4892 124.217 33.5193 124.471 33.5493 124.716C33.2893 124.208 32.9893 123.7 32.6793 123.173L32.6693 123.163ZM33.2192 112.772C33.2192 112.772 33.3092 112.743 33.3492 112.733C33.3992 112.909 33.4493 113.075 33.4993 113.241C33.5093 113.28 33.5193 113.309 33.5293 113.338C33.4993 113.29 33.4593 113.251 33.4293 113.211C33.3093 113.075 33.1592 112.918 32.9692 112.792C33.0492 112.801 33.1292 112.792 33.2192 112.772ZM32.3993 100.457C32.2893 100.526 32.1793 100.594 32.0693 100.662L31.9993 100.711H31.9092C31.5492 100.692 31.1793 100.682 30.8193 100.672C30.8493 100.662 30.8792 100.643 30.9092 100.633C31.1992 100.506 31.4893 100.379 31.7793 100.243C32.2893 99.9984 32.8093 99.7543 33.3093 99.5004C33.3893 99.559 33.4792 99.598 33.5692 99.6175C33.6192 99.6273 33.6793 99.6371 33.7393 99.6371C33.7393 99.6761 33.7292 99.725 33.7192 99.764C33.2592 99.9203 32.8493 100.155 32.3993 100.448V100.457ZM33.7093 103.739C33.6093 103.778 33.4893 103.807 33.3693 103.817C33.4493 103.651 33.5392 103.524 33.6592 103.416C33.6592 103.416 33.6693 103.407 33.6793 103.397C33.7293 103.485 33.7892 103.573 33.8492 103.661C33.7992 103.69 33.7493 103.719 33.7093 103.739ZM35.7493 102.069C35.6893 102.049 35.6292 102.03 35.5692 102.01C35.5692 101.844 35.4793 101.678 35.3393 101.541C35.3193 101.522 35.3092 101.502 35.2892 101.483C35.2793 101.473 35.2692 101.463 35.2593 101.454C35.2493 101.434 35.2292 101.414 35.2192 101.395C35.2192 101.395 35.2192 101.375 35.2192 101.366L35.1892 101.268C35.1692 101.2 35.1492 101.121 35.1292 101.053C35.1192 100.995 35.1092 100.946 35.0992 100.887C35.1892 100.887 35.2793 100.868 35.3693 100.858C35.4993 101.053 35.6192 101.239 35.7192 101.434C35.8392 101.668 35.9493 101.903 36.0593 102.137C36.0793 102.166 36.0893 102.205 36.1093 102.235C35.9993 102.176 35.8792 102.127 35.7593 102.078L35.7493 102.069ZM37.9293 102.547C37.8893 102.411 37.8493 102.284 37.7892 102.137C37.8092 102.118 37.8292 102.088 37.8492 102.069C37.9092 102.088 37.9792 102.108 38.0392 102.127C37.9893 102.274 37.9593 102.411 37.9293 102.547ZM39.3192 96.4632C39.5492 96.9417 39.7893 97.4105 40.0193 97.889C39.9293 97.7718 39.8292 97.6644 39.7192 97.557C39.1892 97.0101 38.5793 96.7366 37.9893 96.7366C37.6693 96.7366 37.3493 96.8148 37.0493 96.9906C36.8793 97.0784 36.7693 97.2347 36.7293 97.4007C36.6993 97.4007 36.6793 97.4007 36.6493 97.4007C36.4793 97.4007 36.2993 97.4593 36.1693 97.5863C36.0393 97.5081 35.9093 97.4495 35.7793 97.4105C36.0893 97.2835 36.4092 97.1468 36.7192 97.0199C36.9892 96.9027 37.2992 96.7757 37.5992 96.7269C37.6992 96.7073 37.7993 96.6976 37.8993 96.6878C38.0093 96.6781 38.1293 96.6683 38.2393 96.6487C38.6393 96.5804 38.9693 96.4437 39.1993 96.2288L39.3192 96.473V96.4632ZM47.7593 85.2326C44.1292 83.3283 40.5393 81.2091 37.0793 78.9141C36.5293 78.5528 35.9792 78.1817 35.4392 77.8106C35.3392 77.7422 35.2493 77.6739 35.1493 77.5958C34.7893 77.3223 34.3793 77.0196 33.8693 76.9415C33.3893 76.8731 32.9293 76.9903 32.5493 77.2735C32.0293 77.6544 31.6593 78.338 31.5593 79.1095C31.3993 80.2618 31.8593 81.3458 32.3193 82.2638C32.4293 82.4786 32.5493 82.6935 32.6693 82.9083C32.8093 83.1525 32.9492 83.4064 33.0693 83.6603C33.3592 84.256 33.6393 84.8615 33.9293 85.4572C35.0093 87.6936 36.0993 89.9201 37.1993 92.1467L38.5193 94.8421H38.4993C38.3393 94.9593 38.2392 95.1057 38.2192 95.262C38.1692 95.3011 37.9493 95.3304 37.7693 95.3401C37.2393 95.3987 36.7193 95.5355 36.1093 95.7991C35.5093 96.053 34.9092 96.307 34.2892 96.5316C33.7192 96.7464 33.1193 96.8831 32.3393 96.971H32.2192C31.5592 97.0589 30.8792 97.1468 30.2192 97.3812C29.9992 97.4593 29.7793 97.5472 29.5593 97.6253C29.1593 97.7816 28.7792 97.9281 28.3792 98.0355L28.0593 98.1136C27.4993 98.2601 26.9092 98.4066 26.3492 98.6019C25.9592 98.7289 25.5892 98.8949 25.2192 99.0609C24.9592 99.1781 24.6992 99.2855 24.4392 99.3929C24.2192 99.4808 23.9993 99.5589 23.7893 99.6371C23.2993 99.8226 22.8093 99.9984 22.3293 100.213C22.1993 100.272 22.0493 100.35 21.8993 100.438C21.8893 100.418 21.8692 100.399 21.8492 100.389C21.7392 100.282 21.5992 100.203 21.4392 100.184C21.3392 100.008 21.2592 99.8031 21.1592 99.5687L21.0493 99.305C20.8993 98.9339 20.7393 98.5433 20.5393 98.1624C20.3493 97.8109 20.1392 97.4691 19.9392 97.1273C19.8192 96.9319 19.6993 96.7366 19.5893 96.5413C19.3293 96.1019 19.1293 95.6136 18.8993 94.9202L18.8093 94.637C18.6593 94.1585 18.5093 93.6702 18.2493 93.2112C18.1193 92.9671 17.9593 92.7424 17.7993 92.5178C17.6193 92.2639 17.4492 92.0295 17.3193 91.7659C17.1093 91.3362 16.9993 90.8674 16.8893 90.3694L16.8293 90.1155C16.6893 89.4904 16.4793 88.8947 16.1793 88.2307C15.9293 87.674 15.6592 87.0881 15.3192 86.5217C15.1992 86.3068 15.0393 86.1408 14.8993 85.9748L14.7593 85.8088C14.6793 85.7111 14.6193 85.5744 14.5593 85.4181C14.5293 85.3302 14.4893 85.2424 14.4493 85.1545C14.2393 84.7052 13.9492 84.3146 13.6592 83.9435L13.4793 83.6993C13.3293 83.4943 13.1993 83.2892 13.0893 83.0939L12.6693 82.215C12.5593 81.9318 12.4593 81.6583 12.3593 81.3751C12.0593 80.5255 11.7493 79.6368 11.1993 78.8555C10.9693 78.5333 10.7093 78.2208 10.4593 77.9083L10.3192 77.7422C10.0092 77.1954 9.68926 76.6485 9.35926 76.1114L8.84925 75.3008C8.18925 74.2461 7.50927 73.1621 6.89927 72.0684C6.20927 70.8183 5.69927 69.5586 5.14927 68.2109L4.72925 67.1757C4.48925 66.5995 4.23925 66.0038 4.06925 65.3983C3.84925 64.6366 3.72926 63.8163 3.60926 63.0252L3.51926 62.4002V62.2831C3.53926 62.0194 3.54927 61.7557 3.55927 61.492C3.57927 60.8377 3.58927 60.0662 3.49927 59.2947C3.45927 58.992 3.41927 58.699 3.36927 58.3963C3.29927 57.9764 3.22926 57.5564 3.20926 57.1365C3.18926 56.7752 3.18924 56.4138 3.18924 56.0525C3.18924 55.6716 3.18925 55.2908 3.15925 54.9197C3.12925 54.5193 3.06927 54.1189 2.99927 53.7283C2.94927 53.4158 2.88926 53.0935 2.85926 52.781C2.82926 52.4392 2.76924 52.1071 2.71924 51.7653C2.64924 51.2966 2.57927 50.8571 2.55927 50.4079C2.53927 49.822 2.53926 49.2262 2.54926 48.6305V47.8786C3.14926 47.8688 3.71926 47.7516 4.26926 47.6442L4.39927 47.6149C4.64927 47.5661 4.92924 47.527 5.21924 47.5465L5.48926 47.5661C5.72926 47.5856 5.96926 47.6149 6.20926 47.5954C6.53926 47.5758 6.83926 47.4977 7.13926 47.4196C7.40926 47.3512 7.65925 47.2829 7.90925 47.2731C8.35925 47.2536 8.80925 47.2536 9.25925 47.2731C9.47925 47.2731 9.68925 47.2731 9.90925 47.2731C10.2092 47.2731 10.4593 47.0973 10.5493 46.8239C10.7693 48.0641 10.9392 49.3141 11.0992 50.5349C11.2692 51.8435 11.4493 53.2009 11.6993 54.5193C12.0093 56.2088 12.5193 57.7615 12.9793 59.0506C13.1193 59.4412 13.2293 59.8611 13.3393 60.2811C13.5793 61.1893 13.8192 62.1268 14.3792 62.9276C14.8392 63.5721 15.4293 63.953 15.9493 64.2264L16.1193 64.3143C16.6393 64.5975 17.1793 64.8905 17.8093 64.9882C17.8493 64.9882 17.8993 64.9979 17.9493 65.0077C18.0293 65.2421 18.1893 65.4667 18.3993 65.6425C18.8493 66.0136 19.4593 66.2284 20.2793 66.2968C20.5893 66.3261 20.8793 66.3065 21.1493 66.2675C21.5893 66.1894 21.9493 65.9452 22.2393 65.7206L22.3393 65.6425C22.4693 65.5448 22.5892 65.4472 22.7192 65.3593H22.9692C23.3292 65.369 23.6793 65.3788 24.0393 65.3593C24.6693 65.3397 25.1693 65.1835 25.5593 64.8905C25.9293 64.6073 26.1793 64.2264 26.3093 63.7772L27.1193 63.6014C27.4993 63.5135 27.8693 63.4061 28.2493 63.2987C28.7493 63.1522 29.2193 63.0155 29.7093 62.9374C30.2293 62.8495 30.7593 62.8788 31.3193 62.9081C31.5793 62.9276 31.8493 62.9374 32.1193 62.9374C32.1793 62.9374 32.2393 62.9374 32.2893 62.9178C32.3793 62.9374 32.4693 62.9374 32.5593 62.9178C32.9393 62.869 33.3393 62.9178 33.7293 63.035L33.8293 63.0839C34.1493 63.2303 34.4593 63.3768 34.7493 63.5038C35.0193 63.66 35.2793 63.826 35.5293 63.9921C36.5393 64.6659 37.5393 65.3593 38.5293 66.0624L38.6292 66.1503C38.7992 66.3651 38.9592 66.5702 39.1592 66.7558C39.4692 67.0487 39.8093 67.2929 40.1393 67.5273C40.4593 67.7519 40.7692 67.9667 41.0392 68.2304C41.4092 68.5917 41.7593 68.9726 42.1093 69.3535C42.3493 69.6171 42.5893 69.871 42.8293 70.125C43.3293 70.6328 43.8693 71.082 44.3993 71.5117L45.1193 72.1074C45.3993 72.3418 45.6792 72.5762 45.9692 72.8008C46.2792 73.0449 46.6092 73.2598 46.9392 73.4746L47.1193 73.6016C47.3893 73.7871 47.6092 74.0801 47.8192 74.3633C48.0492 74.666 48.3192 75.0176 48.6592 75.3301C49.2292 75.8379 49.8693 76.209 50.4993 76.5801C50.7093 76.6973 50.9192 76.8243 51.1292 76.9512C51.3692 77.0977 51.5392 77.3516 51.7192 77.6153C51.8492 77.8106 51.9793 78.0059 52.1493 78.1817C52.2393 78.4161 52.4693 78.5919 52.7493 78.6212H52.7793C52.7393 78.7384 52.6892 78.8555 52.6292 78.963C52.5492 79.1192 52.3993 79.2462 52.2293 79.3829C52.1193 79.4708 52.0093 79.5684 51.9193 79.6661C51.6593 79.9395 51.4892 80.252 51.3192 80.5548L51.2393 80.711C51.0593 81.0333 50.8592 81.3067 50.5992 81.5606C50.4192 81.7364 50.2292 81.9122 50.0392 82.088C49.6292 82.4689 49.2092 82.8595 48.8192 83.3087C48.3892 83.797 47.8593 84.4025 47.7793 85.1545C47.7793 85.1838 47.7793 85.2228 47.7793 85.2521L47.7593 85.2326ZM60.1693 84.0704C59.4793 83.9923 58.7292 83.7287 57.8192 83.2208C57.7692 83.2013 57.7193 83.1818 57.6793 83.1818C57.6093 83.1622 57.4993 83.1622 57.3993 83.1818C57.3793 83.1818 57.3092 83.2111 57.2892 83.2111C57.2492 83.2306 57.2193 83.2501 57.1793 83.2697C57.1593 83.2794 57.0493 83.3868 57.0293 83.3966C57.0093 83.4161 56.9393 83.5138 56.9293 83.5431C56.8093 83.7775 56.8393 84.0509 56.9993 84.2462C56.9993 84.256 57.0193 84.2658 57.0193 84.2853C57.2193 84.5294 57.4792 84.8419 57.9092 84.9884C57.9392 84.9982 57.9693 85.008 57.9993 85.008L58.2192 85.1545C59.0392 85.6916 59.8193 86.1994 60.1193 86.9904C59.6593 87.1174 59.1693 87.1076 58.6793 86.9611C58.5793 86.883 58.4692 86.8049 58.3492 86.7267C58.1492 86.5998 57.9493 86.4728 57.7493 86.3459C57.3993 86.131 57.0493 85.9162 56.7793 85.7209C56.6493 85.5744 56.4792 85.4865 56.2892 85.4865C56.0993 85.4865 55.9193 85.5646 55.8293 85.6721C55.6793 85.7892 55.5892 85.965 55.5692 86.1408C55.5592 86.3263 55.6293 86.5021 55.7393 86.6193C55.8693 86.7756 55.9993 86.9318 56.1393 87.0685C56.1893 87.1174 56.2393 87.1467 56.2993 87.176C56.7693 87.5861 57.3293 87.9084 57.9293 88.133C58.0593 88.26 58.1392 88.3869 58.1892 88.5529C58.2492 88.7189 58.3093 89.0412 58.1393 89.2268C57.9093 89.4807 57.3293 89.51 56.8993 89.4611C56.3993 89.4025 55.9492 89.1877 55.4092 88.924C55.0692 88.758 54.7193 88.6018 54.3693 88.4553C54.1393 88.3576 53.8993 88.2502 53.6693 88.1428C52.5293 87.6252 51.3993 87.0881 50.2793 86.5314C49.7693 86.2775 49.2593 86.0236 48.7493 85.7599C48.9493 85.6623 49.0992 85.4767 49.1292 85.2131C49.1492 85.0568 49.2993 84.8517 49.4493 84.6369C49.6093 84.422 49.7993 84.2169 49.9793 84.0119C50.2593 83.6994 50.5793 83.4162 50.8893 83.1329C51.1993 82.8497 51.4993 82.5763 51.7793 82.2736C52.0793 81.9513 52.2893 81.59 52.4893 81.2384C52.6493 80.9454 52.7892 80.6818 53.0093 80.4864L53.1292 80.379C53.3692 80.1642 53.6293 79.9493 53.7993 79.6173C53.8793 79.461 53.9492 79.3048 54.0093 79.1388C54.4893 79.5001 54.9393 79.8223 55.3593 80.1056C56.6093 80.9356 57.9392 81.6876 59.2192 82.4298C60.0292 82.8986 60.8693 83.3771 61.6793 83.8654C61.1993 84.0705 60.6793 84.1486 60.1393 84.09L60.1693 84.0704Z" fill="black"/>
<path d="M33.1193 29.9193C33.4393 29.8412 33.7493 29.8412 34.1593 29.8314C34.5393 29.8314 35.0393 29.7728 35.4693 29.4799C35.6893 29.3236 35.8093 29.0697 35.7693 28.8158C35.7293 28.5619 35.5493 28.3568 35.2993 28.2689L35.0793 28.1908C34.8793 28.1224 34.6793 28.1419 34.5193 28.2494C34.4293 28.308 34.3593 28.3763 34.2993 28.474C34.2093 28.474 34.1193 28.4837 34.0393 28.4837C33.6793 28.4837 33.3493 28.4935 32.9893 28.5619C32.5493 28.6498 32.1193 28.7767 31.6993 28.9037C31.3693 29.0013 31.0393 29.099 30.7093 29.1771C30.2793 29.2748 29.8393 29.3431 29.4193 29.392C29.0193 28.6888 28.6193 27.9759 28.2293 27.2533C28.3093 26.7943 28.4093 26.2181 28.5393 25.6614C28.7493 24.7825 28.9993 24.0599 29.3093 23.4348C29.4993 23.0442 29.2893 22.6634 28.9693 22.5071C28.6293 22.3411 28.2493 22.468 28.0893 22.8001C27.7293 23.513 27.4493 24.3138 27.2093 25.2806C27.1693 25.1927 27.1293 25.1048 27.0793 25.0169C26.8693 24.5579 26.6993 24.0696 26.5293 23.5911C26.4393 23.3177 26.3393 23.0442 26.2393 22.7805C26.2793 22.7024 26.2893 22.6145 26.2993 22.5266C26.2993 22.3411 26.2093 22.1458 26.0693 22.0188C25.9293 21.8919 25.7493 21.8333 25.5693 21.8528L25.3693 21.8723C25.1293 21.9016 24.9293 22.0188 24.8193 22.2044C24.7093 22.3899 24.6993 22.6243 24.7893 22.8489C24.9593 23.2298 25.0893 23.6204 25.2293 24.0403C25.3693 24.47 25.5193 24.9095 25.7093 25.3294C26.0093 26.0032 26.3693 26.7161 26.7793 27.5169C26.7393 27.7806 26.6993 28.0443 26.6593 28.308C26.4493 28.1908 26.2493 28.0736 26.0393 27.9564L25.6293 27.7123C25.3593 27.5462 25.0793 27.3802 24.7993 27.2337C24.5793 27.1165 24.3593 27.0189 24.1293 26.9115L23.8293 26.7747C23.4993 26.6185 23.1093 26.4329 22.7793 26.2083C22.4793 26.0032 22.3193 25.8275 22.2593 25.6419C22.1893 25.4075 21.9993 25.2415 21.7593 25.1829C21.5093 25.1341 21.2393 25.2025 21.0693 25.388C20.9093 25.554 20.8593 25.7884 20.9293 26.0228C21.1893 26.8529 21.9393 27.3412 22.6493 27.7123C22.9193 27.849 23.1893 27.9857 23.4593 28.1126C23.8993 28.3275 24.3193 28.5228 24.7193 28.767C25.2793 29.099 25.8493 29.4213 26.4293 29.7338C26.2693 29.7533 26.0993 29.7826 25.9393 29.8119C25.6693 29.8705 25.3993 29.9388 25.1293 30.017C24.5893 30.1732 24.0693 30.3099 23.5193 30.2904C23.1393 30.3002 22.8593 30.5834 22.8493 30.9545C22.8493 31.3256 23.1293 31.6186 23.5393 31.6479H23.7593C23.7593 31.6479 23.7893 31.6479 23.7993 31.6479C24.3993 31.6283 24.9593 31.4818 25.5093 31.3256L25.8693 31.2279C26.0093 31.1889 26.1493 31.1596 26.2993 31.14C26.2693 31.3842 26.2393 31.6381 26.2293 31.892C26.1693 32.8393 26.1593 33.767 26.1493 34.558C26.1493 34.5678 26.1493 34.5873 26.1493 34.5971V34.8022C26.1493 35.1831 26.4493 35.4663 26.8393 35.4663C27.2293 35.4663 27.5293 35.1831 27.5293 34.8022C27.5293 33.2592 27.5793 32.058 27.6993 30.9447C27.8893 30.9252 28.0693 30.9057 28.2593 30.8861L28.6093 30.8568L29.5193 32.4389C29.9593 33.2006 30.3693 33.8744 30.7893 34.4897C30.7593 34.6752 30.8093 34.8705 30.9293 35.017C31.0993 35.2319 31.3693 35.3295 31.6493 35.2514L31.8393 35.2026C32.0493 35.144 32.2293 34.978 32.3093 34.7729C32.3893 34.5678 32.3593 34.3627 32.2393 34.1869C31.6593 33.3666 31.1293 32.4877 30.6293 31.6088C30.7493 31.6478 30.8793 31.6869 30.9993 31.726C31.2693 31.8041 31.5393 31.8627 31.8093 31.9311C32.1393 32.0092 32.4793 32.0873 32.7993 32.1947C33.0993 32.2826 33.3693 32.4291 33.6593 32.5854C33.7793 32.7416 33.9593 32.849 34.1793 32.8686L34.3793 32.8881C34.6993 32.9272 34.9793 32.7416 35.0693 32.4291C35.1693 32.1068 35.0393 31.765 34.7493 31.6186L34.3993 31.433C34.1193 31.2865 33.8393 31.1303 33.5393 31.0131C33.1593 30.8568 32.7693 30.7689 32.3893 30.681L32.0193 30.5931C31.8093 30.5443 31.5993 30.4857 31.3893 30.4174C31.5993 30.3588 31.8093 30.3002 32.0293 30.2318C32.3693 30.1342 32.7193 30.0267 33.0693 29.9486L33.1193 29.9193Z" fill="black"/>
<path d="M35.9493 19.8901C35.8393 19.7925 35.7093 19.7339 35.5693 19.7241C35.4493 19.5972 35.3093 19.4995 35.1593 19.4311C35.0693 19.3921 34.9493 19.3335 34.7893 19.3042C34.7193 19.2944 34.6393 19.2749 34.5493 19.2749C34.3393 19.2749 34.1793 19.3726 34.0793 19.4507C33.5893 19.812 33.3493 20.3784 33.4393 20.9546C33.4893 21.2769 33.6693 21.5796 33.9393 21.8042C33.9393 21.8238 33.9593 21.8433 33.9593 21.8531C34.0993 22.0777 34.3293 22.2339 34.6093 22.3121C34.7093 22.3413 34.8193 22.3511 34.9293 22.3511C35.1493 22.3511 35.3693 22.2925 35.5493 22.1949C35.9293 21.9702 36.1593 21.521 36.1293 21.0132C36.1293 20.9155 36.1093 20.8277 36.0893 20.7495C36.1593 20.6421 36.1893 20.5152 36.1893 20.3882C36.1893 20.2026 36.0893 20.0171 35.9493 19.8999V19.8901Z" fill="black"/>
<path d="M39.1993 16.1886C38.9993 16.3742 38.8893 16.6281 38.8593 16.9503C38.8493 17.1066 38.8793 17.2531 38.9493 17.3703C39.0293 17.507 39.1593 17.5949 39.2493 17.6535C39.3593 17.7218 39.4793 17.7609 39.5893 17.7804C39.6593 17.7902 39.7293 17.8 39.7993 17.8C39.8993 17.8 39.9893 17.7902 40.0693 17.7609C40.1793 17.7316 40.2593 17.6828 40.3393 17.6339C40.3993 17.6339 40.4693 17.6339 40.5393 17.6339C40.8993 17.5851 41.1693 17.2726 41.1293 16.8917V16.7452C41.0993 16.5597 41.0293 16.4132 40.9093 16.296C40.8393 16.2277 40.7393 16.1691 40.6393 16.1398C40.6293 16.1398 40.6193 16.1202 40.6093 16.1202C40.4193 15.9835 40.1793 15.9054 39.9393 15.8956C39.6593 15.8859 39.3893 15.9933 39.1893 16.1886H39.1993Z" fill="black"/>
<path d="M1.06921 9.88952C1.44921 9.99694 1.81921 9.79186 1.91921 9.43053C2.24921 8.27817 2.76923 7.13558 3.61923 5.73908H3.63921C4.08921 6.35432 4.5492 7.02816 4.9392 7.77035L4.99923 7.87778C5.16923 8.20005 5.34922 8.52231 5.57922 8.83482C5.64922 8.92271 5.71921 9.0106 5.78921 9.08872C5.93921 9.2645 6.08921 9.44029 6.16921 9.62584C6.26921 9.84069 6.44922 9.97741 6.67922 10.0067C6.69922 10.0067 6.71923 10.0067 6.74923 10.0067C6.96923 10.0067 7.18922 9.89928 7.32922 9.71373C7.47922 9.50865 7.5092 9.25475 7.4092 9.02037C7.2692 8.70786 7.05921 8.46372 6.81921 8.19027C6.60921 7.94613 6.44923 7.67269 6.30923 7.39925L6.23922 7.28207C5.94922 6.75472 5.64922 6.20783 5.29922 5.69024C5.25922 5.63165 5.21922 5.57305 5.17922 5.51445C5.34922 5.48516 5.5192 5.46564 5.6892 5.43634C5.8692 5.40704 6.07921 5.38751 6.28921 5.35821C6.52921 5.32891 6.78923 5.29961 7.02923 5.26055C7.47923 5.18242 8.08922 5.08477 8.48922 4.68437C8.65922 4.51835 8.71921 4.29373 8.66921 4.07889C8.61921 3.84451 8.44922 3.65897 8.20922 3.57108L8.00921 3.49295C7.79921 3.41482 7.56922 3.44411 7.39922 3.5613C7.29922 3.63943 7.21921 3.73709 7.16921 3.85428C7.00921 3.89334 6.82922 3.92263 6.67922 3.94217H6.57922C6.37922 3.98123 6.18922 4.01054 5.98922 4.03007C5.73922 4.05937 5.48923 4.08865 5.24923 4.12772C5.02923 4.16678 4.80923 4.19608 4.58923 4.23514C4.69923 4.06912 4.8092 3.90312 4.9092 3.72733C5.1792 3.29764 5.44921 2.82887 5.59921 2.31129C5.86921 2.17457 6.00922 1.8816 5.92922 1.56909C5.83922 1.198 5.46923 0.973379 5.08923 1.06127L4.83923 1.11986C4.55923 1.18822 4.34921 1.43237 4.31921 1.73511C4.27921 2.18433 3.95922 2.66286 3.67922 3.08279L3.54922 3.28786C3.40922 3.09255 3.2592 2.88747 3.1292 2.68239C2.7192 2.04762 2.42921 1.44213 2.22921 0.846423C2.10921 0.48509 1.71923 0.289773 1.33923 0.416728C0.969227 0.533917 0.789203 0.885495 0.909203 1.23706C1.3292 2.50661 2.05922 3.60038 2.73922 4.51836C2.05922 4.63555 1.27923 4.77226 0.49923 4.98711C0.12923 5.08477 -0.080771 5.4461 0.029229 5.8172C0.129229 6.1883 0.489225 6.38361 0.869225 6.29572C1.19923 6.20782 1.53921 6.12971 1.84921 6.06135C1.25921 7.13558 0.849217 8.11215 0.579217 9.07896C0.479217 9.44029 0.679228 9.80162 1.05923 9.89928L1.06921 9.88952ZM3.13921 4.43045L3.10922 4.46952H3.09921L3.13921 4.43045Z" fill="black"/>
</svg>
