<svg width="64" height="134" viewBox="0 0 64 134" fill="none" xmlns="http://www.w3.org/2000/svg">
<path d="M62.2803 32.4094L61.9203 32.5071L62.2803 32.3899C62.1303 31.8528 61.9603 31.2375 61.4503 30.7981C60.9403 30.3586 60.2603 30.3 59.7303 30.2903C59.2503 30.2903 58.7003 30.3098 58.2703 30.6614C57.9103 30.9446 57.7703 31.3645 57.7103 31.7356C57.2903 31.2473 56.7003 30.886 56.1303 30.8078C55.7803 30.759 55.4303 30.8274 55.1403 30.9934C55.1403 30.9055 55.1403 30.8274 55.1403 30.7395C55.1403 30.4953 55.1503 30.2414 55.1403 29.9973C55.1203 29.7141 55.0903 29.4211 55.0503 29.1379C55.0203 28.9328 55.0003 28.7375 54.9803 28.5324C54.9503 28.1809 54.9603 27.839 54.9703 27.4875V27.0383C54.9703 26.4621 54.9103 25.8957 54.8503 25.339C54.8003 24.88 54.7403 24.4113 54.7303 23.9523C54.7103 23.2784 54.7303 22.6046 54.7403 21.9308C54.7403 21.5402 54.7603 21.1593 54.7603 20.7687C54.7703 18.7862 54.7103 16.7745 54.6403 14.8311L54.5903 13.2002C54.5703 12.5166 54.5603 11.833 54.5203 11.1494C54.4903 10.5537 54.4503 9.9482 54.4003 9.35248C54.3703 8.89349 54.3303 8.4345 54.3103 7.97551L54.2803 7.4091C54.3503 6.58877 54.4403 5.97353 54.5503 5.39735C54.6203 5.05555 54.5703 4.72351 54.5303 4.43054C54.5103 4.25475 54.4803 4.08874 54.4803 3.96179C54.6003 3.26842 54.7003 2.46763 54.3903 1.72543C54.3003 1.51059 54.0803 1.3641 53.8503 1.34457C53.0703 1.29574 52.3003 1.33479 51.5403 1.36409C50.8003 1.39339 50.0403 1.43246 49.3003 1.38363C47.6403 1.2762 46.0303 1.34457 44.6803 1.4227C43.4403 1.50082 41.8003 1.58871 40.1503 1.59848C39.1203 1.59848 38.0903 1.57894 37.0503 1.54964C36.5503 1.53988 36.0503 1.52035 35.5503 1.51059C34.9503 1.51059 34.3503 1.53989 33.7803 1.58871L33.2803 1.62777C32.6203 1.66683 31.9303 1.65707 31.2703 1.64731H30.9603C29.5103 1.61801 28.0603 1.57895 26.6103 1.53012C26.0303 1.51059 25.2603 1.47152 24.4903 1.37387H24.3803C23.6803 1.26644 22.9503 1.17855 22.2103 1.17855C21.8103 1.15902 21.4203 1.17854 21.0203 1.19808C19.9203 1.22737 18.8803 1.24691 17.8203 1.07113C17.5403 1.0223 17.2603 0.963704 16.9803 0.914875C16.5003 0.826984 16.0303 0.729326 15.5503 0.670732C15.1203 0.621903 14.7403 0.602364 14.3703 0.602364C14.2303 0.602364 14.0903 0.612134 13.9603 0.6219C13.7103 0.641431 13.4803 0.651197 13.2503 0.6219C13.0203 0.592603 12.8003 0.553539 12.5703 0.514476C12.1003 0.43635 11.6203 0.348453 11.1003 0.387516H10.9103C10.2003 0.455877 9.46027 0.504714 8.77027 0.778155C8.52027 0.885579 8.37027 1.11995 8.38027 1.41292C8.38027 1.63754 8.36027 1.87191 8.34027 2.09652L8.31027 2.41879C8.28027 2.7606 8.31027 3.07311 8.33027 3.38561V3.50279C8.38027 3.99108 8.38027 4.71376 8.16027 5.3583C8.11027 5.51455 8.03027 5.65126 7.95027 5.78798C7.89027 5.8954 7.83027 5.99306 7.78027 6.10049C7.58027 6.51065 7.57027 6.93058 7.58027 7.32121V7.67277C7.60027 7.92668 7.61027 8.19035 7.59027 8.44426C7.57027 8.69817 7.54027 8.94232 7.50027 9.19623C7.48027 9.35248 7.46027 9.49897 7.44027 9.65522C7.26027 11.1689 7.17027 12.7705 7.14027 14.792L6.90027 16.3643C6.84027 16.7452 6.77027 17.126 6.71027 17.4971C6.62027 17.9854 6.54027 18.4835 6.46027 18.9815C6.34027 19.8116 6.24027 20.6222 6.34027 21.4132C6.39027 21.8331 6.50027 22.253 6.60027 22.6437C6.66027 22.8781 6.72027 23.1027 6.77027 23.3761C6.84027 23.6984 6.92027 24.0792 6.89027 24.4015C6.84027 24.4308 6.79027 24.4601 6.75027 24.4992C6.37027 24.1769 5.92027 24.0695 5.43027 24.1867C4.95027 24.3039 4.36027 24.6359 4.04027 25.5148C4.02027 25.5148 4.00027 25.4953 3.97027 25.4855L3.87027 25.4464C3.75027 25.3976 3.64027 25.3097 3.53027 25.2121C3.32027 25.0363 3.06027 24.8117 2.61027 24.7921C2.27027 24.7531 1.99027 24.9972 1.92027 25.3293C0.460272 32.5071 -0.119728 38.054 0.020272 43.2885C0.160272 48.5034 1.11027 53.23 2.85027 57.3316C2.81027 57.3805 2.77027 57.4488 2.74027 57.5074C2.66027 57.7125 2.68027 57.9273 2.82027 58.1129C3.54027 59.0992 4.11027 60.2125 4.66027 61.2868C5.06027 62.0582 5.47027 62.859 5.94027 63.6208C6.53027 64.5876 7.19027 65.4079 7.94027 66.1306C8.71027 66.8728 9.43027 67.6345 10.0903 68.3767C13.1303 71.8338 15.1103 75.3983 15.9503 78.9725C16.0403 79.3436 16.1003 79.7245 16.1603 80.037C16.1403 81.6093 16.1103 83.0546 16.0403 84.4316C16.0303 84.7246 16.0003 85.0175 15.9803 85.3105C15.9703 85.5156 15.9503 85.7109 15.9403 85.916C15.9003 86.0039 15.8603 86.1015 15.8203 86.1992C15.6303 86.6972 15.4703 87.1953 15.3403 87.6738C15.1503 88.4063 15.0903 89.1484 15.0203 89.8613L14.9603 90.4571C14.7503 92.42 14.6203 94.3438 14.4803 96.4532C14.2103 96.5509 14.0503 96.8243 14.0503 97.0782C14.0503 97.3029 14.1703 97.4884 14.3403 97.5861C14.3003 97.6544 14.2703 97.7228 14.2503 97.8009L14.2003 98.0158C14.1603 98.2111 14.2103 98.3966 14.3303 98.5236C14.2503 99.6955 14.1603 100.858 14.0703 101.99C13.8503 103.28 13.6303 104.569 13.3903 105.848C13.3303 105.897 13.2803 105.965 13.2403 106.043C13.1603 106.199 13.1503 106.405 13.2203 106.58C13.2203 106.6 13.2403 106.619 13.2403 106.629C12.6803 109.51 12.1203 112.157 11.5203 114.774L11.4003 115.106C11.2103 115.594 11.0103 116.073 10.8003 116.541C10.7203 116.727 10.7303 116.922 10.8203 117.079C10.8503 117.127 10.8903 117.176 10.9403 117.225L10.9203 117.293C10.8503 117.596 11.0003 117.899 11.2803 118.026C11.2003 118.358 11.1303 118.69 11.0803 119.032C10.9803 119.627 10.9203 120.233 10.8503 120.829L10.7803 121.493C10.6903 122.254 10.6103 123.075 10.5803 123.905C10.5403 124.833 10.5403 125.75 10.5603 126.649C10.5603 127.02 10.6003 127.362 10.6703 127.684C10.5503 127.801 10.4303 127.889 10.3103 127.958C9.91027 128.192 9.47027 128.251 9.15027 128.28H9.05027C7.80027 128.192 6.38027 128.104 5.41027 129.256C5.29027 129.393 5.25027 129.569 5.29027 129.745C5.25027 129.842 5.22027 129.95 5.20027 130.067C5.19027 130.155 5.20027 130.243 5.21027 130.321C5.17027 130.36 5.14027 130.409 5.12027 130.458C5.08027 130.565 5.09027 130.741 5.14027 130.838C5.74027 131.874 7.24027 131.903 8.04027 131.913C8.66027 131.922 9.27027 131.883 9.87027 131.835H10.0403C10.1403 131.903 10.2703 131.952 10.4203 131.952C10.7603 131.952 11.0803 131.971 11.4303 132.001C12.3803 132.069 13.3503 132.147 14.2403 131.737C15.0003 131.385 15.2403 130.731 15.4903 130.057C15.7103 129.452 15.9003 128.807 16.0503 128.172C16.2003 127.84 16.3603 127.518 16.5203 127.196C16.7403 126.747 16.9503 126.307 17.1603 125.848C17.7503 124.549 18.0803 123.172 18.4103 121.844C18.5603 121.229 18.7103 120.604 18.9103 119.92C19.1703 119.354 19.3903 118.788 19.5503 118.28C20.0003 117.567 20.4003 116.776 20.7903 115.838C20.8203 115.799 20.8403 115.75 20.8703 115.711C20.9003 115.662 20.9103 115.604 20.9203 115.555C20.9403 115.516 20.9503 115.467 20.9503 115.428C21.0503 115.164 21.1503 114.901 21.2403 114.637C21.3903 114.207 21.5303 113.778 21.6703 113.348C22.1303 111.951 22.6103 110.506 23.3403 109.217C23.4603 109.178 23.5503 109.129 23.6303 109.071C23.7403 109.119 23.8603 109.149 23.9903 109.129C24.4103 109.08 24.8303 109.051 25.2503 109.051C25.5203 109.158 25.8303 109.276 26.1503 109.344C26.3103 109.383 26.4703 109.403 26.6703 109.432C27.4703 109.764 28.1803 110.125 28.8203 110.535C29.0203 110.662 29.2603 110.672 29.4603 110.575C29.5203 110.545 29.5703 110.506 29.6203 110.457C29.6503 110.575 29.6803 110.701 29.7103 110.819C30.2203 113.016 30.3303 115.321 30.3703 117.489C30.3703 117.948 30.3803 118.397 30.3903 118.856C30.3003 118.934 30.2203 119.032 30.1803 119.149C30.1103 119.354 30.1603 119.579 30.3103 119.745C30.3403 119.774 30.3703 119.823 30.4003 119.872V120.116C30.4003 120.497 30.4003 120.877 30.4203 121.258C30.4203 121.366 30.4503 121.532 30.6003 121.678L30.6503 126.463V126.961C30.6703 127.362 30.6603 127.772 30.6503 128.172C30.6503 128.26 30.6703 128.338 30.6903 128.397V128.426C30.6903 128.739 30.6903 129.051 30.6903 129.364C30.6903 129.501 30.6603 129.637 30.6203 129.794C30.5703 129.823 30.5203 129.852 30.4703 129.891C30.3503 129.999 30.2803 130.155 30.2803 130.419C30.2803 130.614 30.2803 130.819 30.3003 131.014C30.2703 131.258 30.2603 131.473 30.3003 131.678C30.3303 131.864 30.4303 132.01 30.5803 132.098C30.6703 132.157 30.7803 132.186 30.8903 132.196C30.9603 132.245 31.0303 132.294 31.1003 132.323C31.3703 132.45 31.6503 132.518 31.9203 132.577L32.1103 132.616C32.5203 132.713 32.9303 132.87 33.4103 133.104L33.5503 133.172C33.9603 133.378 34.3803 133.592 34.8503 133.719C35.2303 133.817 35.6203 133.846 35.9903 133.876C36.3603 133.905 36.7603 133.924 37.1703 133.924C37.6203 133.924 38.0803 133.895 38.5403 133.807C38.6503 133.788 38.7603 133.749 38.8703 133.719C39.0303 133.729 39.1903 133.739 39.3403 133.719C39.5603 133.71 39.7603 133.563 39.8703 133.338C39.9703 133.133 40.0203 132.919 40.0103 132.694C40.0703 132.489 40.0803 132.274 40.0403 132.049C39.8603 131.112 38.8303 130.721 38.1503 130.467L38.0103 130.809L38.0303 130.419C37.2703 130.135 36.4203 129.803 36.1603 129.11C36.0803 128.895 36.0503 128.67 36.0803 128.417C36.1003 128.28 36.1403 128.143 36.1703 128.006L36.1903 127.918C36.2803 127.645 36.4003 127.381 36.5303 127.118C36.6003 126.971 36.6703 126.825 36.7303 126.678C37.0903 125.829 37.4103 124.862 37.7103 123.661L37.7803 123.495C37.8803 123.221 37.9903 122.957 38.1103 122.665C38.3803 122.049 38.6503 121.414 38.8403 120.75C38.9103 120.487 39.0003 120.135 39.0003 119.852C39.7203 117.245 40.4903 114.647 41.3003 112.137C41.3503 112.235 41.4203 112.313 41.5003 112.381C41.6403 112.479 41.8003 112.518 41.9703 112.489C42.3703 112.43 42.7703 112.381 43.1403 112.332C43.3203 112.332 43.5003 112.303 43.6803 112.254C44.0203 112.166 44.2303 111.854 44.1703 111.512C44.1103 111.18 43.8003 110.946 43.4503 111.004L43.0703 111.053C42.9903 111.053 42.9003 111.053 42.8103 111.053C42.8303 110.955 42.8303 110.858 42.8103 110.76C42.7303 110.418 42.4103 110.213 42.0603 110.291C42.0103 110.301 41.9503 110.311 41.8903 110.321C42.6603 107.977 43.5003 105.574 44.4203 103.026L44.6303 102.625C44.9103 102.088 45.0803 101.531 45.2103 101.043C45.2703 100.819 45.3503 100.594 45.4203 100.369L45.5203 100.047C46.3203 97.8986 47.1303 95.7501 47.9603 93.5919L49.0803 90.6817C49.1803 90.418 49.2903 90.1641 49.4003 89.9004C49.6003 89.4121 49.8203 88.9043 49.9803 88.3867C50.1103 87.9766 50.1103 87.5957 50.1203 87.2148C50.1203 87.0098 50.1203 86.8047 50.1503 86.5898C50.1803 86.375 50.2603 86.1601 50.3503 85.9355C50.3903 85.8281 50.4303 85.7305 50.4703 85.6133C50.5103 85.5058 50.5403 85.4082 50.5803 85.3105L51.3903 84.08C51.7803 83.5136 51.9703 82.9081 52.1303 82.3417C52.1803 82.1757 52.2403 82.0097 52.2803 81.8534C52.4603 81.5898 52.6403 81.3359 52.8303 81.0917C53.7903 79.8905 54.6403 78.7675 55.4203 77.6639C55.7403 77.2147 56.0503 76.7557 56.3603 76.2967C56.4203 76.2674 56.4703 76.2284 56.5303 76.1991C56.8503 75.994 57.0903 75.7303 57.2903 75.3494C57.4703 75.0076 57.6203 74.6561 57.7603 74.2557C58.2503 73.6795 58.6103 73.1814 58.9003 72.6932C59.5903 71.5213 60.1003 70.2127 60.5503 69.0505C60.8103 68.3767 61.0503 67.6931 61.2703 67.0095L61.4103 66.5798C61.5703 66.1013 61.7403 65.613 61.8503 65.1052C61.8603 65.0563 61.8703 64.9977 61.8603 64.9392C62.1403 63.9723 62.3303 63.1618 62.4803 62.3805C62.7003 61.2575 62.7703 60.1051 62.8403 59.0016C62.8703 58.5719 62.8903 58.1422 62.9303 57.7223C63.0203 56.5797 63.1303 55.4273 63.2303 54.2847L63.3603 52.8589C63.8003 48.0151 64.1603 42.8588 63.3703 37.888C63.1303 35.9739 62.7803 34.138 62.3003 32.4387L62.2803 32.4094ZM8.33027 21.2179C8.36027 20.6808 8.39027 20.1436 8.39027 19.6065C8.39027 18.9425 8.39027 18.2686 8.38027 17.6045C8.38027 16.7647 8.36027 15.9248 8.37027 15.1338C8.52027 14.1865 8.65027 13.2295 8.79027 12.2822C8.98027 10.9443 9.11027 9.58686 9.25027 8.27825L9.43027 6.56924C9.53027 5.65126 9.63027 4.73329 9.68027 3.81531C9.70027 3.54186 9.69027 3.27819 9.68027 3.00475V2.74107C9.68027 2.74107 9.68027 2.72154 9.68027 2.70201C9.74027 2.67271 9.79027 2.63365 9.84027 2.59459C9.98027 2.45787 10.0503 2.27231 10.0203 2.06723C10.0103 1.96957 9.99027 1.86215 9.98027 1.76449C10.2403 1.72543 10.5103 1.70589 10.7803 1.68636L11.1203 1.65707C11.5203 1.618 11.9303 1.69614 12.3503 1.77427C12.5603 1.81333 12.7603 1.85238 12.9703 1.87191C13.3503 1.92074 13.7203 1.90121 14.0803 1.88168C14.3603 1.87191 14.6303 1.85238 14.9103 1.88168C15.5003 1.92074 16.1003 2.03794 16.6803 2.15513L16.9303 2.20395C17.6003 2.3309 18.3103 2.45786 19.0603 2.48716C19.6703 2.51646 20.2903 2.48715 20.8903 2.47739H21.3003C22.1303 2.43832 22.8303 2.43833 23.5103 2.52622L23.9103 2.57505C24.4703 2.64341 25.0503 2.72154 25.6403 2.7606C26.7303 2.82896 27.8303 2.84849 28.9003 2.86803L30.3403 2.89732C30.9703 2.91685 31.6103 2.92662 32.2403 2.92662C32.7703 2.90709 33.3103 2.88755 33.8503 2.84849C34.0703 2.82896 34.3003 2.81919 34.5203 2.79966C35.1203 2.7606 35.7203 2.7899 36.3503 2.80943L36.8103 2.82895C37.5503 2.84849 38.2803 2.86803 39.0203 2.86803C40.6903 2.87779 42.1903 2.83873 43.5803 2.7606L44.3403 2.71177C45.7603 2.62388 47.2203 2.53598 48.6503 2.61411C49.6403 2.6727 50.4203 2.68248 51.1503 2.65318H51.3203C51.9503 2.61412 52.5903 2.58482 53.2303 2.60435V2.63364C53.2303 2.63364 53.2303 2.64341 53.2303 2.65318C53.2503 2.90709 53.2203 3.17076 53.1903 3.4442L53.1703 3.64929C53.1703 3.74695 53.1603 3.83484 53.1703 3.86414L53.1503 3.98132C53.1203 4.13757 53.0903 4.28405 53.0703 4.43054C52.9203 5.37782 52.9403 6.34463 52.9703 7.21378L52.9503 7.50676C52.9403 7.66301 52.9203 7.81926 52.9103 7.97551C52.8503 8.98138 52.8103 9.99703 52.7803 11.0029C52.7503 11.7549 52.6703 12.5263 52.5803 13.2685L52.5103 13.8545C52.3903 14.9776 52.4003 15.9151 52.5503 16.8331C52.5903 17.0577 52.6303 17.2823 52.6703 17.5069C52.7203 17.7901 52.7703 18.0733 52.8103 18.3565C52.8703 18.7862 52.8703 19.1768 52.8103 19.6749C52.7103 20.4854 52.8603 21.2862 53.0103 22.0577C53.0403 22.2335 53.0803 22.4093 53.1103 22.5851L53.1703 22.9367C53.3203 23.7472 53.4703 24.5871 53.4403 25.3976V25.6906C53.4103 26.0812 53.3903 26.4816 53.4403 26.9015C53.4603 27.0969 53.4903 27.2824 53.5203 27.4777C53.5703 27.8293 53.6203 28.1613 53.6103 28.4934C53.6003 28.8156 53.5703 29.1379 53.5403 29.4504C53.4903 29.9973 53.4403 30.5539 53.4703 31.091C53.4403 31.1106 53.4203 31.1301 53.4003 31.1496C53.4003 31.1496 53.3903 31.1496 53.3803 31.1496C52.8803 31.2375 52.2603 31.5403 51.8903 32.4094C51.7703 32.3118 51.6303 32.2434 51.4903 32.2043C50.6203 31.9309 49.7803 32.5168 49.4703 33.2297C49.3703 33.4641 49.3103 33.6985 49.2603 33.9231C49.2203 34.1087 49.1703 34.2942 49.1003 34.47C48.8903 34.9876 48.6803 35.4759 48.6603 36.1009C48.6503 36.4232 48.6603 36.7454 48.6803 37.0775C48.6803 37.2337 48.6903 37.3997 48.7003 37.5169C48.6603 37.888 48.6303 38.2591 48.6203 38.5814L48.5803 38.806C48.5303 39.0599 48.4803 39.3138 48.4503 39.5775C48.3903 40.1439 48.4903 40.6615 48.5803 41.0228C48.6103 42.3412 48.7003 43.6498 48.8003 44.8705L48.8703 45.7592C48.9603 46.8627 49.0503 47.9663 49.1203 49.0698C49.1203 49.2163 49.1303 49.3628 49.1403 49.5093C48.9503 49.4507 48.7303 49.4116 48.5003 49.4507C48.5003 49.4507 48.4903 49.4507 48.4803 49.4507C47.6703 49.2358 46.8303 49.2846 46.2503 49.3432C45.3603 49.4409 44.4903 49.6264 43.6403 49.812L43.4003 49.8706C43.1103 49.8804 42.8103 49.8901 42.5203 49.8999C41.8503 49.9194 41.1803 49.9194 40.5003 49.9194C38.7703 49.9194 36.9903 49.939 35.2303 50.1733C33.9903 50.3394 32.8303 50.3979 31.6703 50.3589C30.4303 50.3101 29.2303 50.5151 28.0603 50.7104L27.9003 50.7397C26.8803 50.9058 26.1203 50.9058 25.3303 50.8862C25.0203 50.8862 24.7203 50.8667 24.4103 50.8667C23.6903 50.8667 22.9703 50.9448 22.2703 51.0229C21.7903 51.0718 21.3103 51.1206 20.8303 51.1499C20.7803 51.1499 20.7303 51.1499 20.6803 51.1499H20.5803C19.3203 51.1206 18.2903 51.0425 17.3303 50.8862C17.1703 50.8569 17.0003 50.8374 16.8403 50.8179C16.3303 50.7495 15.8003 50.6811 15.3403 50.5151C15.2403 50.4761 15.1303 50.437 15.0303 50.3979C14.6003 50.2319 14.1203 50.0268 13.5803 50.0952C13.5403 50.0952 13.5003 50.1147 13.4603 50.1343C13.4403 49.1382 13.4603 48.1909 13.4803 47.3608C13.5103 46.0034 13.5603 44.6459 13.6003 43.2885C13.6403 42.2338 13.6703 41.1888 13.7003 40.1341C13.7803 37.2435 13.7303 34.7044 13.5403 32.3704C13.5203 32.0676 13.5003 31.7649 13.4903 31.4817C13.4903 30.4953 13.4403 29.3332 13.0203 28.1418C12.8803 27.7316 12.6103 26.9797 11.9503 26.6867C11.5803 26.5304 11.2003 26.5597 10.8703 26.5793C10.7903 26.5793 10.7103 26.589 10.6303 26.589C10.4403 25.505 10.0003 24.7824 9.28027 24.3722C8.93027 24.1769 8.62027 24.0988 8.37027 24.1183C8.25027 23.1613 8.31027 22.2238 8.37027 21.2276L8.33027 21.2179ZM48.7203 55.1343C48.6603 55.359 48.5803 55.6324 48.5603 55.9156C48.5403 56.1597 48.5603 56.4039 48.5703 56.648V56.8726C48.6103 57.3121 48.5103 57.7613 48.4003 58.2594L48.7703 58.3375H48.3803C48.2703 58.6891 48.1303 59.0309 47.9703 59.3727C47.7503 59.3824 47.5503 59.5094 47.4503 59.6949C47.3803 59.8219 47.3603 59.9684 47.3803 60.1051C47.3603 60.1442 47.3403 60.1832 47.3103 60.2223C47.2303 60.3883 47.1903 60.5446 47.1903 60.7399C46.9303 61.1207 46.6903 61.4235 46.4403 61.6872C45.7203 62.4489 44.7903 63.0641 43.7603 63.4743C43.6303 63.5036 43.5103 63.5133 43.4003 63.5133H43.1703C42.9503 63.5036 42.7203 63.4938 42.5003 63.5329C42.1503 63.5817 41.8603 63.738 41.6203 63.8844C41.4303 64.0016 41.2803 64.0798 41.1203 64.0895C41.0003 64.0895 40.8803 64.0895 40.7603 64.0895C40.5603 64.0895 40.3603 64.0895 40.1503 64.1091C39.9003 64.1384 39.6603 64.1969 39.4203 64.2458L39.3403 64.2751C38.6703 64.2849 38.0703 64.2653 37.5103 64.2165C37.2303 64.1872 36.9603 64.1579 36.6803 64.1286C36.4403 63.777 35.9903 63.611 35.3903 63.5915C35.2303 63.5915 35.0703 63.5915 34.9103 63.5915C35.0503 63.3864 35.2203 63.1325 35.3303 62.82C35.5203 62.2633 35.5003 61.6481 35.4703 61.1012C36.1303 60.6813 36.0903 59.7535 36.0703 59.4313C36.0503 58.9234 35.9703 58.191 35.5303 57.732C35.3403 57.5269 35.0903 57.3902 34.8403 57.3219C34.8403 57.3219 34.8403 57.3023 34.8403 57.2926C34.7403 56.7262 34.3003 56.2574 33.9103 56.0133C33.5303 55.7691 33.0803 55.6519 32.5803 55.6812C32.3603 55.6422 32.1103 55.6129 31.8103 55.6031C31.3103 55.5836 30.7703 55.6031 30.2303 55.6812C30.0003 55.6812 29.7603 55.73 29.5203 55.7886C29.1603 55.8863 28.9603 56.2379 29.0503 56.5894C29.0603 56.6285 29.0703 56.6676 29.0903 56.6968C28.2603 57.0191 28.0003 57.8394 27.7703 58.5719C27.7403 58.5719 27.7103 58.5816 27.6803 58.5914C27.5003 58.65 27.3503 58.777 27.2803 58.9527C26.8703 59.9293 27.3503 60.8961 28.0703 61.443C28.0503 61.5407 28.0403 61.6481 28.0403 61.7457C27.2303 61.609 26.4203 61.4918 25.6103 61.3649C24.8303 61.2477 24.0503 61.1305 23.3103 61.0036L23.1703 60.9645C22.8303 60.8766 22.4703 60.7789 22.1003 60.7301C21.9703 60.7106 21.8303 60.7106 21.7503 60.7106L21.4703 60.652C21.3003 60.6227 21.1303 60.5836 20.9603 60.5446L20.7703 60.4957C20.6503 60.4176 20.5403 60.3199 20.4203 60.2223C20.2803 60.1051 20.1503 59.9977 20.0103 59.9C19.5803 59.6168 19.1903 59.3922 18.8203 59.1969C18.6703 59.1188 18.5203 59.0602 18.3703 58.9918C18.1303 58.8941 17.9003 58.7965 17.7103 58.6598C17.3603 58.4156 16.9903 58.191 16.5003 57.9371C16.3503 57.859 16.2003 57.7613 16.0303 57.6344C15.8503 57.3902 15.7203 57.0973 15.5703 56.7945L15.4903 56.6383C15.2303 56.0816 15.0403 55.5836 14.9003 55.0464C14.7403 54.4312 14.5603 53.816 14.3603 53.2105C14.1803 52.6636 14.0003 52.1558 13.8203 51.6675C13.8803 51.6577 13.9403 51.6577 13.9803 51.6284C14.0203 51.7456 14.1003 51.8433 14.2203 51.9214C14.9203 52.3999 15.7803 52.4878 16.5703 52.4878C16.6803 52.4878 16.7803 52.4878 16.8903 52.4878C17.2203 52.4878 17.5603 52.4585 17.8903 52.439C18.4303 52.4097 18.9803 52.3804 19.5203 52.3902C19.8003 52.3902 20.0803 52.3902 20.3403 52.3902H20.4403C20.4903 52.3902 20.5503 52.3999 20.6003 52.3999C21.2303 52.3999 21.8703 52.3999 22.5003 52.3902C23.1203 52.3902 23.7403 52.3706 24.3503 52.3804C24.6203 52.3804 24.8803 52.3902 25.1503 52.4097C25.5003 52.4195 25.8503 52.439 26.2103 52.439C26.7803 52.439 27.3803 52.3902 28.1603 52.2925L28.7603 52.2144C29.1903 52.1558 29.6303 52.107 30.0603 52.0679C30.6403 52.0191 31.2003 52.0093 31.8003 52.0093H32.0003C33.1103 51.9995 34.4203 51.9605 35.7103 51.7944C36.9503 51.6284 38.1903 51.5796 39.3603 51.5503C40.5003 51.5112 41.6203 51.4624 42.7403 51.2476C42.9303 51.2085 43.1203 51.1694 43.3103 51.1304L43.4303 51.1011C44.0403 51.0815 44.7703 51.0815 45.4903 51.1304H45.6703C46.7203 51.2183 47.9103 51.3062 48.9003 50.7495L48.9703 50.769C48.9703 50.769 49.0703 50.7886 49.1303 50.7886C49.1303 51.1011 49.1003 51.4331 49.0103 51.7456C48.8503 52.312 48.8003 52.8296 48.8203 53.4058C48.8403 53.9917 48.8703 54.5484 48.7103 55.1246L48.7203 55.1343ZM1.40027 45.6127C1.01027 40.4466 1.43027 34.763 2.74027 27.7219C2.82027 27.2824 2.91027 26.8527 2.99027 26.4133C3.06027 26.4719 3.14027 26.5207 3.23027 26.5597L3.34027 26.6086C3.42027 26.6476 3.48694 26.716 3.54027 26.8137C3.64027 27.009 3.73027 27.2238 3.79027 27.3996C3.81027 28.0344 3.89027 28.6691 3.97027 29.2844C4.03027 29.7531 4.09027 30.2317 4.12027 30.7004C4.14027 31.0325 4.44027 31.2375 4.79027 31.2571C5.15027 31.2473 5.41027 30.9836 5.41027 30.6516C5.41027 29.5188 5.37027 28.3273 5.06027 27.2726C5.03027 26.6183 5.06027 25.7199 5.59027 25.4562C5.75027 25.3781 5.83027 25.4172 5.86027 25.4367C6.09027 25.5539 6.51027 26.1007 6.76027 28.3762C6.78027 29.0793 6.84027 29.7824 6.89027 30.4953V30.6614C6.93027 30.9934 7.22027 31.218 7.58027 31.218C7.93027 31.2082 8.20027 30.9446 8.20027 30.6125C8.20027 29.5285 8.14027 28.6496 8.04027 27.9074C8.04027 27.2043 8.06027 26.6672 8.15027 26.1789C8.25027 25.5636 8.37027 25.4171 8.50027 25.3976C9.27027 25.6808 9.39027 26.8332 9.41027 27.8098C9.41027 27.9269 9.41027 28.0539 9.41027 28.1711V28.2785C9.30027 28.6496 9.23027 29.0598 9.18027 29.5676C9.12027 30.2707 9.13027 30.9641 9.15027 31.5989C9.15027 31.5989 9.15027 31.7356 9.15027 31.7453C9.15027 31.9211 9.24027 32.0676 9.37027 32.175C9.52027 32.2922 9.73027 32.3313 9.91027 32.2922C9.97027 32.2922 10.1103 32.2629 10.2203 32.175C10.3703 32.0676 10.4503 31.8918 10.4503 31.7356C10.4803 31.2473 10.5203 30.759 10.5703 30.2805C10.6303 29.675 10.6803 29.0695 10.7003 28.4641C10.7503 28.3273 10.8003 28.2199 10.8603 28.1125C10.9403 27.9855 11.0503 27.9074 11.1603 27.8977C11.2703 27.8781 11.3903 27.9465 11.4903 28.0637C11.8403 28.4641 11.9503 29.1477 12.0203 29.6555C12.1103 30.2512 12.1403 30.8567 12.1703 31.4036C12.1703 31.6868 12.1703 31.97 12.1603 32.2629V32.8684C12.1303 33.9036 12.1103 34.8704 11.9603 35.8665C11.9203 36.1399 11.8603 36.4134 11.8003 36.6868C11.7403 36.9896 11.6703 37.2825 11.6303 37.5853C11.5503 38.181 11.5803 38.7669 11.6103 39.2747L11.6503 39.7435C11.6803 40.1341 11.7103 40.5248 11.7103 40.9154C11.7103 41.267 11.6503 41.6185 11.5903 41.9799C11.5603 42.1654 11.5303 42.351 11.5103 42.5365C11.3803 43.5424 11.4103 44.5678 11.4303 45.5541V46.1791C11.4503 46.5112 11.4303 46.8432 11.4303 47.1752C11.4003 48.0249 11.3603 48.9038 11.6203 49.7436C11.7503 50.1831 11.9403 50.5835 12.1203 50.9839L12.1803 51.1108C12.2403 52.4585 12.3603 53.5913 12.5603 54.6363C12.3503 54.7046 12.1503 54.7828 11.9703 54.8511L11.6903 54.9683C11.3703 55.0757 11.0603 55.1832 10.7203 55.3101C9.95027 55.6129 9.15027 55.9156 8.43027 56.3648C8.19027 56.5211 7.95027 56.6773 7.72027 56.8433L7.60027 56.9019C7.38027 57.0094 7.16027 57.1168 6.94027 57.2437C6.68027 57.3902 6.44027 57.566 6.26027 57.7027C5.73027 57.9566 5.25027 58.2008 4.82027 58.5719C2.91027 54.773 1.76027 50.4175 1.39027 45.603L1.40027 45.6127ZM15.1003 104.744C15.1903 103.963 15.2603 103.172 15.3303 102.362V102.303C15.5603 102.332 15.7803 102.43 15.9803 102.576C16.3103 102.83 16.5303 103.211 16.5703 103.582C16.6203 104.002 16.2903 104.539 15.9403 104.871C15.7103 105.096 15.3903 105.174 15.0403 105.223C15.0603 105.057 15.0803 104.901 15.1003 104.744ZM15.5903 108.748C15.5103 108.778 15.4403 108.826 15.3803 108.885C15.4103 108.797 15.4203 108.709 15.4303 108.612C15.4803 108.66 15.5403 108.7 15.5903 108.739V108.748ZM15.1903 109.481C15.1903 109.481 15.1403 109.461 15.1103 109.451C15.1303 109.412 15.1503 109.383 15.1703 109.344C15.1703 109.393 15.1703 109.432 15.1903 109.481ZM6.65027 130.907C6.71027 130.907 6.76027 130.907 6.82027 130.907C6.94027 130.946 7.06027 130.985 7.19027 131.014C7.00027 130.995 6.82027 130.956 6.65027 130.907ZM11.0603 129.901C10.8303 129.901 10.5903 129.92 10.3503 129.93C9.66027 129.96 8.95027 129.999 8.37027 129.94C8.18027 129.881 8.00027 129.803 7.82027 129.735C7.76027 129.715 7.70027 129.686 7.64027 129.667C8.04027 129.608 8.46027 129.598 8.89027 129.579H9.09027C9.09027 129.579 9.17027 129.569 9.18027 129.559C9.78027 129.598 10.3803 129.627 10.9803 129.51C11.0103 129.51 11.0303 129.501 11.0603 129.491C11.1103 129.637 11.2203 129.764 11.3603 129.842C11.4103 129.872 11.4703 129.891 11.5303 129.911C11.3803 129.911 11.2303 129.911 11.0803 129.911L11.0603 129.901ZM19.4303 114.061C19.1703 114.686 18.9103 115.311 18.6403 115.936L18.4603 116.327L18.3803 116.424C18.2303 116.59 18.0703 116.766 17.9403 116.952C17.3203 117.801 16.9503 118.778 16.7003 119.53L16.4903 120.184C16.4203 120.418 16.3403 120.653 16.2603 120.887C16.1803 121.112 16.1003 121.336 16.0103 121.571C15.9303 121.776 15.8503 121.981 15.7803 122.196C15.5503 122.87 15.3703 123.612 15.2503 124.403C15.1703 124.5 15.1303 124.627 15.1303 124.764C15.1303 124.891 15.1303 125.008 15.1203 125.135V125.282C14.8903 126.034 14.7003 126.835 14.8203 127.635V127.713C14.6303 128.104 14.3903 128.631 14.1903 129.188C14.1603 129.276 14.1303 129.374 14.1103 129.471C14.0703 129.618 14.0303 129.774 14.0203 129.813C13.9703 129.842 13.8103 129.862 13.6503 129.891C13.1503 129.979 12.6203 129.96 12.0703 129.93C11.9903 129.93 11.9003 129.93 11.8103 129.92C11.8803 129.911 11.9503 129.881 12.0103 129.842C12.1903 129.735 12.3003 129.549 12.3003 129.325C12.3003 129.178 12.2803 129.032 12.2603 128.866C12.4003 128.719 12.5003 128.563 12.5703 128.377C12.7203 127.948 12.7203 127.518 12.7103 127.088C12.7103 126.922 12.7103 126.756 12.7103 126.59C12.7103 126.551 12.7103 126.493 12.6903 126.444V126.151C12.6503 123.885 12.6203 121.532 12.8803 119.246C13.0303 117.938 13.3003 116.62 13.7103 115.223L13.8703 114.686C14.2103 113.543 14.5703 112.352 14.5803 111.073C14.5803 110.916 14.5803 110.76 14.5903 110.614C14.7603 110.672 14.9203 110.75 15.0903 110.838C15.2003 110.887 15.3103 110.946 15.4203 110.994C16.0803 111.287 16.8203 111.395 17.5303 111.483C17.6703 111.502 17.8203 111.512 17.9703 111.532C18.4503 111.571 18.9503 111.619 19.3103 111.854C19.4103 111.922 19.5103 111.991 19.6103 112.059C19.7703 112.176 19.9303 112.284 20.1103 112.381C19.8703 112.938 19.6403 113.504 19.4103 114.061H19.4303ZM20.7803 110.946C20.2403 110.594 19.6103 110.408 19.0703 110.252C19.1803 110.106 19.2203 109.92 19.1803 109.754C19.1803 109.744 19.1803 109.735 19.1803 109.725C19.4403 109.754 19.7003 109.754 19.9603 109.696C19.9303 109.852 19.9603 110.008 20.0603 110.145C20.2003 110.34 20.4503 110.448 20.6903 110.428C20.8203 110.418 20.9503 110.389 21.0703 110.36C20.9703 110.555 20.8803 110.75 20.7803 110.946ZM21.6903 100.067C21.5503 100.545 21.0403 100.819 20.6103 100.877C20.1503 100.936 19.5703 100.809 19.1303 100.535C18.8803 100.379 18.7803 100.125 18.8003 99.6759C18.8203 99.217 18.9403 99.0802 18.9703 99.0509C18.9903 99.0314 19.0203 99.0119 19.0903 99.0119C19.0903 99.0119 19.1003 99.0119 19.1103 99.0119C19.4003 99.0216 19.6503 98.8654 19.7403 98.6115C19.9503 98.6505 20.1603 98.6798 20.3803 98.7091C20.8103 98.7677 21.2403 98.8556 21.6503 98.9533C21.7203 99.3341 21.7803 99.7345 21.6803 100.067H21.6903ZM25.1103 107.596C24.9203 107.557 24.7403 107.518 24.5603 107.498C24.6703 107.401 24.7903 107.323 24.9103 107.235C24.9503 107.313 25.0003 107.371 25.0703 107.43C25.1003 107.449 25.1203 107.469 25.1503 107.489C25.1303 107.518 25.1203 107.557 25.1103 107.586V107.596ZM23.8403 106.268C23.8403 106.268 23.7403 106.209 23.6803 106.19C23.6103 106.17 23.5403 106.16 23.4703 106.16C23.4203 106.16 23.3703 106.16 23.3203 106.18C23.2103 106.024 23.1103 105.848 23.0303 105.643C22.9203 105.369 22.8903 104.998 23.1103 104.764C23.3403 104.52 23.7403 104.412 24.1603 104.334C24.2403 104.315 24.3103 104.305 24.3903 104.295C24.6703 104.344 24.9103 104.412 25.1603 104.49C25.3203 104.617 25.4203 104.725 25.4903 104.842C24.9003 105.262 24.3403 105.74 23.8303 106.268H23.8403ZM25.9203 104.862L25.8903 104.881L25.9303 104.862H25.9203ZM26.0603 106.59C26.1203 106.561 26.1903 106.522 26.2603 106.492C26.2903 106.619 26.3603 106.737 26.4503 106.824C26.3103 106.746 26.1803 106.668 26.0603 106.59ZM26.2903 102.879C26.2903 102.879 26.3303 102.85 26.3403 102.84C26.3403 102.879 26.3303 102.918 26.3303 102.957C26.3303 102.957 26.3003 102.908 26.2903 102.879ZM28.5703 108.377C28.6003 108.28 28.5903 108.172 28.5703 108.075C28.5003 107.86 28.3803 107.606 28.1403 107.401C28.1903 107.332 28.2303 107.254 28.2603 107.176V107.157C28.4903 107.567 28.7003 107.987 28.8903 108.416C28.7803 108.407 28.6803 108.397 28.5803 108.387L28.5703 108.377ZM28.2703 103.026V103.006C28.2703 103.006 28.3103 103.006 28.3303 103.006L28.2703 103.026ZM28.5603 102.918C28.5603 102.918 28.5703 102.918 28.5803 102.908C28.6003 102.928 28.6203 102.947 28.6403 102.967H28.6003C28.6003 102.967 28.5803 102.938 28.5703 102.918H28.5503H28.5603ZM32.0403 102.371C31.8203 102.332 31.5803 102.293 31.4403 102.195C31.3903 102.166 31.3403 102.108 31.3203 101.922C31.2803 101.668 31.3203 101.365 31.4203 101.024C31.5203 100.701 31.6203 100.457 31.7403 100.242C32.0803 100.252 32.4303 100.252 32.7703 100.242H33.1103C33.1703 100.35 33.2203 100.467 33.2603 100.584C33.3503 100.819 33.4103 101.072 33.4703 101.365C33.5003 101.551 33.5303 101.707 33.5203 101.893C33.4803 101.932 33.4203 101.971 33.3403 102.02C32.8903 102.274 32.4003 102.401 32.0803 102.352L32.0403 102.371ZM33.1203 107.528C33.0003 107.547 32.8703 107.576 32.7403 107.596C32.7203 107.508 32.6903 107.42 32.6603 107.342C32.6803 107.342 32.7003 107.362 32.7203 107.371C32.8303 107.41 32.9403 107.43 33.0503 107.41C33.0703 107.459 33.0903 107.498 33.1203 107.537V107.528ZM32.6303 111.463C32.5803 111.463 32.5303 111.444 32.4803 111.424C32.4603 111.424 32.4403 111.414 32.4303 111.405C32.3903 111.209 32.3403 111.014 32.2903 110.819C32.3103 110.809 32.3203 110.789 32.3403 110.78C32.4003 110.741 32.4503 110.692 32.4803 110.643C32.4803 110.643 32.4803 110.643 32.4903 110.643C32.4703 110.672 32.4503 110.701 32.4403 110.731C32.3103 111.004 32.3903 111.297 32.6303 111.463ZM39.2403 113.133C39.0203 113.719 38.7803 114.295 38.5403 114.881C38.0503 116.092 37.5303 117.332 37.1603 118.612C36.8903 119.52 36.7103 120.36 36.6103 121.19C36.5903 121.385 36.6503 121.561 36.7803 121.678V121.727C36.7103 122.157 36.6203 122.616 36.5003 123.104L36.3003 123.592C36.1803 123.895 36.0603 124.198 35.9303 124.5C35.7203 125.018 35.5003 125.545 35.3203 126.092C35.1703 126.561 35.0303 127.03 34.9103 127.499C34.9103 127.508 34.8803 127.586 34.8703 127.596C34.8003 127.811 34.7603 128.036 34.7303 128.329C34.6403 128.905 34.6403 129.374 34.7303 129.794C34.8503 130.321 35.1503 130.731 35.6303 131.014C35.9903 131.229 36.3703 131.385 36.7403 131.542L37.0403 131.669C37.5003 131.864 37.9803 132.069 38.3603 132.342C38.3803 132.352 38.4003 132.372 38.4103 132.381C38.0903 132.313 37.7703 132.206 37.4403 132.088C36.9203 131.913 36.3703 131.727 35.7903 131.688L35.0703 131.649C34.1203 131.6 33.2303 131.561 32.3403 131.356C32.2003 130.458 32.2403 129.53 32.2803 128.622C32.3003 128.143 32.3203 127.655 32.3103 127.176V126.024C32.3603 125.086 32.3303 124.129 32.3003 123.211C32.2903 122.821 32.2703 122.42 32.2603 122.03C32.3203 122.02 32.3703 121.991 32.4203 121.971C32.6103 121.864 32.7203 121.678 32.7203 121.454C32.7203 120.614 32.7503 119.764 32.7803 118.895C32.8503 116.854 32.9203 114.754 32.6503 112.723C32.8903 112.743 33.1103 112.733 33.3003 112.723C33.5503 112.703 33.8103 112.674 34.0603 112.645C34.3803 112.606 34.6903 112.616 35.0103 112.684C35.6803 112.987 36.5103 113.368 37.3203 113.25C37.5003 113.221 37.6603 113.114 37.7603 112.967C38.3403 113.143 38.8303 113.172 39.2403 113.065V113.133ZM39.9103 108.836V108.875L39.9003 108.944C38.9703 108.914 37.9803 108.817 36.8903 108.631C36.8803 108.485 36.8903 108.348 36.8903 108.299C36.8903 108.133 36.9103 107.977 36.9603 107.86C37.0203 107.733 37.1503 107.625 37.3603 107.547C37.7303 107.41 38.2503 107.371 38.8603 107.449C39.4603 107.528 39.8103 107.694 39.9003 107.948C40.0003 108.201 39.9503 108.524 39.9203 108.836H39.9103ZM41.4903 102.195C41.4903 102.254 41.5003 102.313 41.5003 102.362C41.5103 102.713 41.4503 103.065 41.3603 103.426C41.1603 103.446 40.9303 103.358 40.8203 103.221C40.7703 103.162 40.7303 103.074 40.6903 102.967C40.7003 102.918 40.7103 102.85 40.6903 102.781L40.6203 102.332C40.6203 102.156 40.6203 101.99 40.6003 101.824C40.6303 101.61 40.7003 101.473 40.8103 101.404C40.8803 101.365 40.9703 101.336 41.0803 101.326C41.1703 101.453 41.3003 101.541 41.4603 101.571C41.4803 101.571 41.4903 101.571 41.5103 101.571C41.5103 101.6 41.5003 101.619 41.4903 101.649C41.4503 101.844 41.4703 102.029 41.4903 102.195ZM58.1903 68.9431C58.1903 69.1384 58.1803 69.324 58.1903 69.5779C58.2003 69.8904 58.2203 70.1638 58.0803 70.3884C57.9903 70.5349 57.8603 70.6716 57.7203 70.8084C57.5403 70.9939 57.3603 71.1892 57.2203 71.4431C56.9703 71.8924 56.8703 72.3807 56.7703 72.8689C56.7303 73.0545 56.6903 73.24 56.6303 73.4256L56.2303 73.9822C55.7503 74.5096 55.2603 75.0174 54.7603 75.5252C54.2403 76.0623 53.7203 76.5897 53.2203 77.1463C52.3403 78.1327 51.8303 79.4022 51.4203 80.4374C51.3003 80.7499 51.1803 81.0624 51.0603 81.3749C50.7803 81.8144 50.5003 82.2538 50.2603 82.7128C49.9503 83.289 49.6803 83.9042 49.4403 84.5488C49.2403 84.832 49.0103 85.164 48.8303 85.5351C48.5603 86.0527 48.3703 86.6484 48.2403 87.3906C48.1803 87.7031 48.1603 88.0156 48.1303 88.3281C48.1003 88.6309 48.0803 88.9238 48.0203 89.2168C47.9403 89.6367 47.7803 90.0469 47.6103 90.4668C47.5503 90.6133 47.4903 90.7598 47.4403 90.9063C47.2903 91.3165 47.1603 91.7266 47.0303 92.1465C46.9503 92.42 46.8603 92.6934 46.7703 92.9571C46.6803 93.211 46.5503 93.4063 46.3603 93.6993C46.1703 93.9923 46.0503 94.3048 45.9203 94.6563C45.4303 95.9649 44.9603 97.3517 44.5003 98.7775C44.4103 99.0509 44.3303 99.3341 44.2303 99.6662L44.1103 100.008C44.1103 100.008 44.0703 99.9396 44.0403 99.9005C43.9303 99.7736 43.7603 99.6857 43.5903 99.6759C43.5803 99.6759 43.5703 99.6759 43.5503 99.6759C43.5103 99.6759 43.4703 99.6759 43.4203 99.6857C43.3603 99.6466 43.2903 99.5978 43.2303 99.5588C42.7903 99.3048 42.3303 99.2072 41.8503 99.1193C41.3703 99.0314 40.8903 98.963 40.4003 98.8947C39.9103 98.8263 39.4303 98.7482 38.9403 98.6603C37.8203 98.4552 36.8703 98.3869 35.9103 98.3673C34.8603 98.3673 33.8203 98.3771 32.7703 98.4064C32.5903 98.4064 32.4203 98.4162 32.2403 98.4259C31.9203 98.4455 31.6003 98.465 31.2803 98.4454C30.9603 98.4357 30.6403 98.3673 30.3003 98.3087L29.9903 98.2501C29.6203 98.1818 29.2603 98.172 28.9103 98.1622C28.7703 98.1622 28.6403 98.1623 28.5003 98.1525C28.0403 98.133 27.5603 98.0841 27.0303 98.006C26.5603 97.9376 26.1003 97.8595 25.6403 97.7618C25.1803 97.6642 24.7503 97.674 24.3203 97.6837H24.1203C23.7803 97.6935 23.4703 97.6154 23.1303 97.547L22.8603 97.4884C22.5003 97.4103 22.1303 97.3907 21.7803 97.3712L21.3803 97.3419C20.2903 97.254 19.1903 97.0783 18.0203 96.8048C17.5703 96.6974 17.1003 96.6193 16.6203 96.5509C16.5103 96.4532 16.3703 96.4044 16.2103 96.3946H16.1903C16.6203 93.1524 16.9203 90.1739 17.1203 87.293C17.1303 87.0781 17.1403 86.8535 17.1503 86.6387C17.1503 86.4824 17.1603 86.3359 17.1703 86.1797L17.3903 85.6914C17.4903 85.4472 17.5203 85.1933 17.5403 84.9687V84.8222C17.6103 84.3046 17.6403 83.7773 17.6503 83.2499C17.6703 82.205 17.6003 81.1405 17.4303 80.1054L17.3903 79.9687V79.1776C17.4103 78.4842 17.4203 77.7714 17.2803 77.0682C17.0403 75.7791 16.6003 74.5193 15.9503 73.2498C15.9103 73.1326 15.8503 73.0154 15.7903 72.9275C15.5603 72.4978 15.3003 72.0486 15.0003 71.5799C14.8903 71.3943 14.7803 71.199 14.6803 70.9939C14.4803 70.574 14.2403 70.115 13.9103 69.6951C13.8003 69.5486 13.6703 69.4119 13.5503 69.2751C13.3303 69.0212 13.1203 68.7868 12.9703 68.5329C12.9303 68.4548 12.8903 68.3767 12.8603 68.3083C12.8103 68.1911 12.7503 68.0642 12.6803 67.9568C12.5303 67.7224 12.3403 67.5564 12.1503 67.4099C11.8903 67.2048 11.6803 66.9411 11.4703 66.6677L11.3303 66.4821C10.9403 65.9841 10.4403 65.6227 9.97027 65.2712C9.69027 65.0661 9.40027 64.861 9.15027 64.6169L8.96027 64.4509C8.77027 64.2848 8.58027 64.1091 8.43027 63.9723L7.83027 63.2399C7.57027 62.9176 7.31027 62.6051 7.06027 62.3122L6.88027 62.0778C6.50027 61.5309 6.12027 60.9547 5.74027 60.3102C5.89027 60.1735 6.03027 60.027 6.17027 59.8903C6.49027 59.5778 6.79027 59.275 7.14027 59.0406C7.72027 58.6402 8.35027 58.2789 8.96027 57.9273L9.63027 57.5367C9.98027 57.3316 10.3503 57.1558 10.7103 56.9801C11.1603 56.7652 11.6203 56.5504 12.0503 56.2769C12.3003 56.1207 12.4203 56.0621 12.7503 56.0523C12.7903 56.0523 12.8303 56.0523 12.8603 56.0523C13.1903 57.2144 13.7603 58.5914 15.0903 59.5875C16.5203 60.6422 18.2903 61.1891 19.6703 61.5504C19.7803 61.5797 19.9003 61.609 20.0203 61.6286L20.1903 61.6579C20.1903 61.6579 20.2703 61.7067 20.2803 61.7164C20.6803 61.9118 21.1003 61.9508 21.4603 61.9606C21.9603 62.0583 22.4503 62.1461 22.9203 62.2243C23.9303 62.4782 24.7403 62.7223 25.4703 62.986C25.6903 63.0641 25.9103 63.152 26.1403 63.2399C26.7503 63.4743 27.3903 63.7184 28.0503 63.8844C28.5503 64.0114 28.9803 64.0798 29.3803 64.1091C29.6603 64.1286 29.9403 64.1091 30.2203 64.1091C30.4403 64.1091 30.6603 64.0895 30.8803 64.1091C30.9803 64.1091 31.0803 64.1286 31.1803 64.1384L31.6803 64.3532C32.3903 64.695 33.1103 65.0466 33.8703 65.3298C34.8003 65.6813 35.7603 65.6813 36.6803 65.6813C36.8903 65.6813 37.1103 65.6813 37.3203 65.6813H37.5003C38.0603 65.7009 38.6403 65.7106 39.2203 65.6032L39.4003 65.5544C41.1603 65.5349 42.7503 65.2419 44.0603 64.7145L44.0203 64.3532L44.1503 64.7048C44.5603 64.5973 44.9403 64.4216 45.3103 64.2556C45.4703 64.1774 45.6403 64.1091 45.8003 64.0407L46.0803 63.9333C46.4503 63.7868 46.8403 63.6403 47.1903 63.3962C47.4103 63.2399 47.6103 63.0544 47.7503 62.8395C47.8703 62.6637 47.9303 62.4879 47.9703 62.3415C47.9903 62.2731 48.0103 62.195 48.0403 62.1266C48.0403 62.1071 48.1003 62.0583 48.1303 62.029C48.2103 61.9508 48.3203 61.8434 48.3903 61.6872C48.4803 61.4821 48.4803 61.2868 48.4603 61.1012C48.5003 61.0329 48.5503 60.9645 48.5903 60.8961C48.6103 60.8961 48.6303 60.8864 48.6403 60.8766C49.2003 61.111 49.7303 61.4625 50.2903 61.8434C50.5903 62.0485 50.9103 62.234 51.2203 62.4293C51.7503 62.7516 52.2503 63.0544 52.7103 63.4255L52.9203 63.6012C53.2603 63.8845 53.6203 64.1872 54.0203 64.4313C54.2103 64.5485 54.4103 64.6657 54.6103 64.7731C54.8703 64.9196 55.1303 65.0563 55.3703 65.2321C55.6003 65.3981 55.7903 65.5935 56.0003 65.8083C56.1603 65.9646 56.3103 66.1306 56.4803 66.2673C56.7203 66.4724 56.9703 66.6482 57.2203 66.8337C57.3603 66.9314 57.5003 67.029 57.6303 67.1267C57.7003 67.3318 57.8003 67.5075 57.8903 67.6736C57.9903 67.8493 58.0803 68.0154 58.1103 68.1814C58.1103 68.2107 58.1103 68.24 58.1203 68.2986C58.1003 68.3865 58.1103 68.4841 58.1403 68.5818C58.1403 68.7087 58.1403 68.8455 58.1403 68.9724L58.1903 68.9431ZM61.2703 47.1752C61.2603 47.5854 61.2503 48.0932 61.2803 48.5815C61.3103 48.9526 61.3803 49.3139 61.4403 49.6655C61.5003 49.9585 61.5503 50.2612 61.5803 50.564C61.6203 50.9351 61.6203 51.3257 61.6303 51.7066C61.6303 51.9507 61.6403 52.1948 61.6503 52.439C61.6803 53.0933 61.7103 53.7378 61.6503 54.3628C61.6203 54.7535 61.5103 55.1246 61.4003 55.5054C61.3403 55.7105 61.2803 55.9156 61.2303 56.1304C61.0703 56.8043 61.0803 57.4879 61.1003 58.152C61.1003 58.3473 61.1203 58.5523 61.1403 58.7574C61.1703 59.1969 61.2103 59.6461 61.1203 60.0074C61.0903 60.1051 61.0203 60.2125 60.9403 60.3297C60.8803 60.4274 60.8103 60.5153 60.7603 60.6129C60.5903 60.9352 60.5503 61.2868 60.5303 61.5602C60.5003 62.0192 60.5303 62.4684 60.5703 62.8981L60.6003 63.3473C60.6303 63.8747 60.6103 64.3239 60.5503 64.695C60.3603 65.3395 60.1403 66.0231 59.8603 66.7653C59.6103 66.3845 59.2703 66.0329 58.9503 65.7204C58.5803 65.3591 58.1603 64.988 57.6503 64.5876C57.2903 64.1677 56.9303 63.7282 56.4703 63.3473C56.1203 63.0446 55.7303 62.8102 55.3603 62.5856L55.1703 62.4684C54.8903 62.2926 54.6203 62.0973 54.3603 61.902C54.2303 61.8043 54.0903 61.7067 53.9603 61.609C53.1203 61.0035 52.2103 60.5153 51.2603 60.1539C51.0303 60.066 50.8103 59.9684 50.5903 59.861L50.4603 59.7926C50.3803 59.7535 50.3103 59.7145 50.2203 59.6754C50.1203 59.6363 50.0003 59.5973 49.8703 59.5485L49.7503 59.8903L49.7903 59.5094C49.6603 59.4606 49.5303 59.4215 49.4103 59.3922C49.4603 59.2555 49.5103 59.1188 49.5503 58.982C49.5603 58.9332 49.5703 58.8844 49.5903 58.777C49.8503 58.025 50.0503 57.2437 50.1803 56.4625C50.5503 54.2652 50.5103 52.107 50.4203 50.2808C50.4203 50.0073 50.4003 49.7241 50.3803 49.4507V49.3042C50.3403 48.7671 50.3703 48.2006 50.3803 47.6635C50.4003 47.0678 50.4303 46.4623 50.3803 45.8471C50.3503 45.4369 50.2603 45.0756 50.1703 44.7143C50.1303 44.5482 50.0803 44.3822 50.0503 44.2162C49.9703 43.8354 49.9903 43.435 50.0003 43.0053C50.0003 42.8197 50.0103 42.6244 50.0103 42.4486C50.0103 41.9408 49.9203 41.4623 49.8303 41.0814C49.8103 40.1048 49.8303 39.1966 49.9003 38.3079C49.9003 38.2103 49.9203 38.1224 49.9203 38.0345L49.9403 37.8196C49.9503 37.6829 49.9603 37.5364 49.9803 37.3997C50.0303 36.9505 50.1003 36.4231 50.2103 35.9251C50.3103 35.4856 50.4403 34.9876 50.7203 34.6946C50.8003 34.6067 50.8603 34.6165 50.8703 34.6165C50.9403 34.6165 51.0303 34.6751 51.1003 34.7727C51.3703 35.1145 51.4703 35.6126 51.5203 35.9153L51.5603 36.7161C51.5803 37.0775 51.6203 37.5071 51.7103 37.9271C51.7103 38.0443 51.7303 38.1419 51.7703 38.1908C51.7703 38.2103 51.7903 38.2786 51.8003 38.2982C51.8903 38.5423 52.0203 38.7376 52.2003 38.8939C52.4303 39.0892 52.7603 39.0892 53.0003 38.8939C53.2503 38.6986 53.3303 38.3763 53.1803 38.1126C53.1503 38.054 53.1103 37.9857 53.0803 37.9271C53.0403 37.8392 52.9903 37.7513 52.9803 37.7513C52.9303 37.5364 52.9003 37.3118 52.8803 37.0872L52.8603 36.8138C52.8603 36.8138 52.8703 36.7552 52.8703 36.7259C52.8703 36.7259 52.8703 36.638 52.8703 36.6282C52.8703 36.3841 52.8503 36.1399 52.8303 35.8958C52.8003 35.2806 52.7603 34.7044 52.8003 34.1087C52.8303 33.5911 52.8903 32.6243 53.4403 32.429C53.5603 32.6731 53.7003 32.8684 53.8803 33.0344C53.9903 33.1321 54.1203 33.2005 54.2703 33.22C54.2703 33.259 54.2703 33.2981 54.2703 33.3372C54.2803 33.5032 54.3003 33.679 54.3003 33.845C54.3003 34.0208 54.3803 34.177 54.5003 34.2942C54.5503 34.343 54.6103 34.3821 54.6703 34.4114C54.7103 34.636 54.7503 34.8704 54.7803 35.095C54.8703 35.7591 54.9203 36.4329 54.9203 37.0872C54.9203 37.1165 54.9203 37.1458 54.9303 37.1653C54.9303 37.2728 54.9703 37.3802 55.0303 37.4681V38.181C55.0403 38.5228 55.2903 38.806 55.6203 38.8353C55.8003 38.8548 55.9903 38.7865 56.1303 38.6693C56.2603 38.5521 56.3303 38.3958 56.3303 38.2298L56.3003 35.0462C56.3003 34.8118 56.1903 34.6165 56.0103 34.4993C55.9003 33.7766 55.7403 33.2004 55.5203 32.6926C55.5203 32.5559 55.5303 32.4192 55.5703 32.2825C55.6203 32.1165 55.6903 32.0969 55.7203 32.0872C55.9103 32.0383 56.2703 32.1848 56.5203 32.4094C57.1103 32.9465 57.1603 33.8841 57.1903 34.7337C57.2003 35.056 57.2303 35.4661 57.3103 35.8665C57.3103 35.886 57.3103 35.9056 57.3103 35.9251C57.3503 36.1595 57.3903 36.3841 57.4403 36.6185C57.5503 37.1946 57.6603 37.7904 57.7103 38.347C57.7103 38.6888 57.7103 39.0306 57.7103 39.3724C57.7103 39.724 57.9503 39.9877 58.2903 40.0267C58.3403 40.0365 58.4303 40.0267 58.4903 39.9974C58.7803 39.9486 58.9803 39.7435 59.0103 39.4408C59.0303 39.1185 59.0503 38.7962 59.0803 38.4837C59.1503 37.595 59.2103 36.6868 59.1803 35.7688C59.1803 35.5833 59.0703 35.427 58.9203 35.3196C58.9003 34.5872 58.8903 33.8548 58.8903 33.1223C58.8903 33.0149 58.8903 32.9075 58.8903 32.8001C58.8803 32.4192 58.8703 31.9797 59.0103 31.7063C59.0503 31.6184 59.1803 31.5793 59.4603 31.5696C59.8103 31.5598 60.1603 31.5696 60.4003 31.6672C60.3603 31.8039 60.3603 31.9504 60.4203 32.0872L60.4503 32.1653C60.4103 32.3118 60.4403 32.4583 60.5103 32.595C60.6403 32.8196 60.7603 33.054 60.8503 33.259C61.1503 34.1477 61.4103 35.0657 61.6303 36.0423C61.8803 37.8392 61.7503 39.7337 61.6203 41.5697C61.5803 42.1459 61.5403 42.7221 61.5103 43.2885C61.5003 43.5229 61.4903 43.767 61.4903 44.0014C61.4103 44.0795 61.3403 44.1772 61.3203 44.2943C61.1003 45.1928 61.0703 46.1889 61.2403 47.185L61.2703 47.1752Z" fill="black"/>
<path d="M20.6103 22.7027C20.1803 22.8687 19.8303 23.0738 19.5403 23.3277C19.2703 23.5718 19.0703 23.8746 18.9403 24.2359C18.0003 25.1246 17.8003 26.4234 18.4603 27.4195C18.8503 27.9957 19.7103 28.6207 21.6003 28.2789C21.9903 28.2106 22.3903 28.1129 22.7603 28.025H22.9503C23.9403 28.0055 24.9703 27.859 25.9703 27.5856C26.5703 27.4977 27.3403 27.3414 28.0503 26.9313C28.1103 26.8922 28.1703 26.8531 28.2403 26.7848L28.3903 26.7164C28.7103 26.5699 29.0203 26.4332 29.3503 26.3062C29.8803 26.1109 30.4603 25.8766 30.9403 25.4566C30.8903 25.7398 30.8403 26.0133 30.7803 26.2672C30.5303 27.4977 30.1903 28.7575 29.7403 30.1247C29.2203 31.6969 28.6503 32.9372 27.9403 34.0212C27.5503 34.6169 27.1203 35.1735 26.6603 35.6814C26.1103 36.2868 25.6403 36.5993 25.0403 36.7361C24.6303 36.8337 24.2103 36.8826 23.7603 36.9314C23.5103 36.9607 23.2703 36.9802 23.0303 37.0193C22.6703 37.0681 22.4403 37.3806 22.5003 37.7322C22.5203 37.8884 22.6003 38.0349 22.7203 38.1326C22.8403 38.2302 22.9803 38.2791 23.1303 38.2791C23.1603 38.2791 23.2003 38.2791 23.2303 38.2791C23.4603 38.2498 23.6903 38.2205 23.9303 38.1912C24.4703 38.1326 25.0303 38.074 25.5803 37.908C25.6103 37.908 25.6403 37.8884 25.6703 37.8787C25.7503 37.8982 25.8403 37.908 25.9303 37.8982C26.0203 37.8884 26.1003 37.8689 26.1803 37.8494H26.2103C26.5203 37.8787 26.8203 37.8396 27.1203 37.7224C27.1303 37.7224 27.1403 37.7224 27.1503 37.7224C27.8603 37.7127 28.5103 37.4978 28.9703 37.3025C29.9403 37.7322 31.0703 37.8982 32.5103 37.8201C33.1603 37.9568 33.8203 38.0056 34.4803 37.9861C35.0503 37.9665 35.6103 37.8884 36.1503 37.8103L38.7203 37.4685C39.2503 37.4001 39.8003 37.322 40.3403 37.1951C40.8603 37.0681 41.3003 36.8435 41.6003 36.6775C42.0603 36.57 42.4303 36.3943 42.6903 36.1404C43.2503 35.8376 43.9503 35.3298 43.8903 34.4997C43.8103 33.5231 42.6503 33.1618 41.9503 32.9567L41.7503 32.8981C41.6703 32.8688 41.5903 32.8493 41.5103 32.8298L41.4003 32.8005C41.0203 32.6735 40.5903 32.5954 40.1003 32.5563H39.9803C39.7603 32.527 39.5503 32.527 39.3303 32.527C39.1203 32.527 38.9103 32.5466 38.7103 32.5563C37.3203 32.6247 35.9403 32.8786 34.6103 33.1227L33.5803 33.3083C32.6203 33.4743 31.6303 33.6403 30.7003 34.1189C30.3303 34.3044 29.9803 34.5192 29.6403 34.7439C29.7103 34.6169 29.7803 34.4802 29.8403 34.3532C29.9503 34.1286 30.0703 33.9138 30.1903 33.6892L30.4803 33.1716C30.8003 32.5856 31.1403 31.9802 31.4203 31.3454C31.9703 30.0758 32.3703 28.8746 32.6403 27.7125C32.6903 27.7711 32.7403 27.8199 32.8003 27.8688C33.6103 28.6403 34.6203 29.1774 35.7203 29.4215C36.6803 29.6364 37.7403 29.6559 38.9503 29.4606L39.0803 29.441C39.9303 29.3043 40.9803 29.1481 41.6603 28.445C42.1903 27.8981 42.4203 27.107 42.3103 26.1988C42.2703 25.8473 42.1703 25.4664 42.0403 25.1539C41.9503 24.5777 41.6503 23.982 41.2103 23.4742C41.5603 23.3082 41.9103 23.0543 42.1503 22.6636C42.3203 22.6148 42.4603 22.566 42.5903 22.4976C43.3003 22.1363 43.5903 21.4136 43.3303 20.6519C43.1003 19.9683 42.6303 19.3237 42.0703 18.9331C41.6503 18.6401 41.1503 18.4643 40.5703 18.4155C40.1103 18.2495 39.5903 18.1616 38.9803 18.1518C38.6603 18.1518 38.3403 18.1518 38.0303 18.1811C38.3103 17.8491 38.5503 17.478 38.7403 17.0776C39.1103 16.3061 39.3303 15.4272 39.4203 14.3627V14.226C39.5003 13.5522 39.4803 12.9076 39.3603 12.3315L39.3403 12.1752C39.3403 12.0775 39.3203 11.9701 39.3003 11.8725C39.1103 10.9154 38.7403 10.1635 38.2103 9.6361C37.8603 9.28453 37.4103 9.03063 36.9403 8.88415C36.3103 8.59118 35.6603 8.53257 35.0003 8.71812C34.8003 8.77671 34.6003 8.84508 34.4503 8.9232C33.8503 9.12829 33.3303 9.45055 32.9203 9.88024C32.6803 10.1244 32.4603 10.4174 32.2503 10.7689C31.9803 11.1303 31.7403 11.5014 31.5303 11.8822C31.1103 12.6635 30.8703 13.5522 30.8203 14.5483C30.6903 15.1635 30.6203 15.7104 30.6003 16.2768C30.6003 16.3159 30.6003 16.3549 30.5903 16.4038C30.3403 16.1889 30.1003 15.9545 29.8603 15.7299L29.7203 15.5932C29.3803 15.2709 29.0603 15.0073 28.8003 14.8412C27.7203 13.728 26.6203 12.976 25.4303 12.5268C24.0003 11.9897 22.5203 11.7748 21.2703 11.9213C20.4403 12.019 19.8003 12.2924 19.3703 12.7318C19.0003 13.1127 18.7703 13.6694 18.6903 14.3725C18.5503 15.6225 18.8103 16.9214 19.3903 17.8393C20.1803 19.0991 21.5103 19.8706 22.6903 20.4859L23.3203 20.8081C23.7103 21.0034 24.0903 21.1987 24.4703 21.4136C23.6403 21.4136 22.7503 21.5894 21.9003 21.9117C21.3903 22.0972 20.9403 22.3609 20.5603 22.6929L20.6103 22.7027ZM42.2103 35.3884L42.1503 35.3591L42.1203 35.3103L42.2103 35.3982V35.3884ZM33.4003 35.281C34.3003 34.9099 35.4903 34.4509 36.7303 34.1774C37.2603 34.0603 38.0703 33.8942 38.8603 33.8259C39.4103 33.7966 39.9103 33.8063 40.3703 33.8649C40.6803 33.9138 40.9703 33.9821 41.2103 34.0603C41.5403 34.1872 41.7403 34.3337 41.8403 34.5388C41.9503 34.7536 41.9703 35.0271 41.9303 35.1443L41.7403 35.2419C41.5903 35.3103 41.4503 35.3884 41.3003 35.4665L41.1603 35.5056C40.8703 35.5446 40.5803 35.5642 40.2903 35.5837C40.0703 35.5935 39.8503 35.613 39.6403 35.6325C39.0803 35.6911 38.5303 35.7693 37.9703 35.8572L37.1903 35.9743C36.7903 36.0329 36.3803 36.0915 35.9703 36.1501C34.8603 36.3161 33.7003 36.4919 32.5703 36.5603C32.3103 36.5017 32.0803 36.4236 31.8603 36.3357C31.7103 36.2771 31.5703 36.2087 31.4303 36.1404C32.0303 35.8571 32.6803 35.5739 33.3903 35.281H33.4003ZM39.7303 26.9117C37.5203 27.9469 34.5803 27.0484 33.2803 24.9586L33.2103 24.6168C33.1803 24.4898 33.1703 24.3629 33.1503 24.2359L33.1203 24.0699C33.1203 23.3667 33.0703 22.6343 32.9903 21.8238C32.9903 21.7652 32.9903 21.7066 33.0103 21.6577C33.0603 21.648 33.1203 21.6382 33.1703 21.6284C33.3103 21.5991 33.4403 21.5796 33.5503 21.5406C33.5803 21.5406 33.6103 21.521 33.6503 21.5015C33.9803 21.648 34.3103 21.7749 34.6503 21.8921L34.8703 21.9605C35.3103 22.3414 35.8803 22.7027 36.5503 23.0152C37.0903 23.2691 37.9303 23.6011 38.8403 23.7379C38.9703 23.8355 39.0903 23.9332 39.2103 24.0308C39.4703 24.2554 39.8003 24.5679 39.9703 24.9293C40.1103 25.232 40.1803 25.564 40.2303 25.857C40.2703 26.0719 40.2903 26.2965 40.3003 26.5309C40.1403 26.6676 39.9403 26.7945 39.7303 26.8922V26.9117ZM39.8203 19.7144C39.9903 19.6948 40.1603 19.6851 40.3303 19.6851C40.6503 19.8316 40.8803 20.0366 41.0203 20.3003C41.2303 20.6909 41.3103 21.1597 41.2303 21.5601C40.9503 21.5894 40.6703 21.6089 40.3903 21.6284C40.2003 21.6382 40.0103 21.6577 39.8303 21.6675C39.2803 21.7163 38.6703 21.6675 37.9703 21.521L37.9303 21.4917C37.5403 21.189 37.1403 20.8765 36.7303 20.5933C37.1703 20.4859 37.5903 20.3491 38.0103 20.2027C38.6203 19.9976 39.2103 19.8023 39.8103 19.7241L39.8203 19.7144ZM32.3303 14.8803L32.4603 14.4702C32.6203 13.9428 32.7803 13.4252 32.9603 12.9076C33.1303 12.4193 33.3303 11.9018 33.6003 11.433C33.7803 11.1107 34.0103 10.7592 34.3503 10.6029C35.2103 10.1928 36.4203 10.6224 37.1303 11.2377C37.7503 11.7846 38.0103 12.7221 37.9203 14.1088C37.8903 14.5971 37.7803 15.0756 37.5603 15.6616C37.3703 16.1889 37.1303 16.7944 36.7503 17.3022C36.3503 17.8296 35.7603 18.1616 35.1403 18.4839C35.0203 18.5522 34.8903 18.6206 34.7703 18.689L34.6103 18.7768L34.5103 18.7964C34.3503 18.8257 34.1903 18.8647 34.0303 18.894C33.8203 18.9331 33.6603 19.0601 33.5803 19.2358L32.7203 19.5679C32.6903 19.4311 32.6603 19.2944 32.6303 19.1479C32.4103 18.0054 32.2503 17.0385 32.1703 16.062C32.1503 15.8862 32.1503 15.7006 32.1403 15.5151C32.2003 15.3002 32.2703 15.0952 32.3303 14.8803ZM31.8003 20.7788H31.8903L31.8103 20.7984L31.7903 20.7788H31.8003ZM23.3203 26.7262V26.609L23.4103 26.8629L23.3203 26.7262ZM21.8603 17.6343C21.2503 16.9897 20.8403 16.3647 20.6203 15.7299C20.4803 15.3295 20.2903 14.5873 20.6303 14.1381C20.9103 13.767 21.4803 13.7084 21.7103 13.6987C21.7303 13.6987 21.7503 13.6987 21.7703 13.6987C22.3203 13.6987 22.8003 13.894 23.3503 14.1088L23.4703 14.1576C24.3303 14.4995 25.2203 14.7729 26.0803 15.0366L26.2903 15.1049C26.8403 15.2709 27.4303 15.476 27.9603 15.8081C28.2803 16.1499 28.6003 16.4917 28.9003 16.853L28.9903 16.9604C29.2303 17.2339 29.4503 17.4878 29.6103 17.7807C29.7703 18.0542 29.9003 18.3374 30.0303 18.6304L30.1403 18.8647C30.3303 19.2749 30.5903 19.7827 30.9703 20.2124V20.3003C31.0203 20.5054 31.1403 20.6714 31.3203 20.7593C31.3503 20.7788 31.3903 20.7886 31.4303 20.7984C31.3803 20.8472 31.3303 20.896 31.2903 20.9351C31.2003 20.9351 31.1103 20.9644 31.0303 21.0132C30.9803 21.0425 30.9303 21.0816 30.8903 21.1304L29.4003 21.3355C28.9603 21.3745 28.6203 21.355 28.3203 21.2964C27.4603 21.1109 26.6103 20.7398 25.8203 20.3589C24.0803 19.5191 22.8303 18.6597 21.8703 17.644L21.8603 17.6343ZM25.0403 23.6304C25.3303 23.6011 25.6203 23.5718 25.9103 23.5328C26.5203 23.4644 27.1103 23.3375 27.6903 23.2203C28.1903 23.1226 28.6903 23.0152 29.1903 22.9468C29.3403 22.9273 29.4903 22.9078 29.6403 22.898C29.1103 23.5425 28.4803 24.1968 27.7003 24.6558C27.0803 25.0269 26.3903 25.3101 25.7203 25.5934L25.5903 25.6422C24.8103 25.9644 24.0403 26.2574 23.2903 26.5016C23.1103 26.5016 22.9303 26.5016 22.7503 26.482C21.7503 26.3746 21.1103 26.0328 20.8703 25.4469C20.7203 25.0953 20.7703 24.7535 20.8703 24.4898C21.0403 24.4215 21.2003 24.3531 21.3603 24.2945C22.5203 23.8843 23.8003 23.7476 25.0503 23.6109L25.0403 23.6304Z" fill="black"/>
</svg>
