<svg width="46" height="46" viewBox="0 0 46 46" fill="none" xmlns="http://www.w3.org/2000/svg">
<g clip-path="url(#clip0_6263_5004)">
<path d="M23 0C10.2976 0 0 10.2976 0 23C0 33.7861 7.42624 42.837 17.4441 45.3229V30.0288H12.7015V23H17.4441V19.9714C17.4441 12.1431 20.987 8.5146 28.6727 8.5146C30.13 8.5146 32.6444 8.80072 33.6729 9.08592V15.4569C33.1301 15.3999 32.1871 15.3714 31.016 15.3714C27.2449 15.3714 25.7876 16.8001 25.7876 20.5142V23H33.3003L32.0096 30.0288H25.7876V45.8316C37.1763 44.4562 46.0009 34.7594 46.0009 23C46 10.2976 35.7024 0 23 0Z" fill="#7986CB"/>
</g>
<defs>
<clipPath id="clip0_6263_5004">
<rect width="46" height="46" fill="white"/>
</clipPath>
</defs>
</svg>
