<svg width="50" height="46" viewBox="0 0 50 46" fill="none" xmlns="http://www.w3.org/2000/svg">
<g clip-path="url(#clip0_6250_8928)">
<path d="M24.7706 0C11.2525 0 0.293579 10.2976 0.293579 23C0.293579 33.7861 8.19673 42.837 18.858 45.3229V30.0288H13.8108V23H18.858V19.9714C18.858 12.1431 22.6284 8.5146 30.8077 8.5146C32.3585 8.5146 35.0344 8.80072 36.129 9.08592V15.4569C35.5513 15.3999 34.5478 15.3714 33.3014 15.3714C29.2881 15.3714 27.7373 16.8001 27.7373 20.5142V23H35.7325L34.3588 30.0288H27.7373V45.8316C39.8573 44.4562 49.2487 34.7594 49.2487 23C49.2477 10.2976 38.2888 0 24.7706 0Z" fill="#E67C73"/>
</g>
<defs>
<clipPath id="clip0_6250_8928">
<rect width="48.9541" height="46" fill="white" transform="translate(0.293579)"/>
</clipPath>
</defs>
</svg>
