<svg width="45" height="46" viewBox="0 0 45 46" fill="none" xmlns="http://www.w3.org/2000/svg">
<g clip-path="url(#clip0_6263_5003)">
<path d="M22.5 4.1418C28.5117 4.1418 29.2236 4.16875 31.5879 4.27656C33.7852 4.37539 34.9717 4.75274 35.7627 5.06719C36.8086 5.48047 37.5645 5.98359 38.3467 6.7832C39.1377 7.5918 39.6211 8.35547 40.0254 9.42461C40.333 10.2332 40.7022 11.4551 40.7988 13.6922C40.9043 16.118 40.9307 16.8457 40.9307 22.982C40.9307 29.1273 40.9043 29.8551 40.7988 32.2719C40.7022 34.518 40.333 35.7309 40.0254 36.5395C39.6211 37.6086 39.1289 38.3813 38.3467 39.1809C37.5557 39.9895 36.8086 40.4836 35.7627 40.8969C34.9717 41.2113 33.7764 41.5887 31.5879 41.6875C29.2148 41.7953 28.5029 41.8223 22.5 41.8223C16.4883 41.8223 15.7764 41.7953 13.4121 41.6875C11.2148 41.5887 10.0283 41.2113 9.23731 40.8969C8.19141 40.4836 7.43555 39.9805 6.65332 39.1809C5.8623 38.3723 5.37891 37.6086 4.97461 36.5395C4.66699 35.7309 4.29785 34.509 4.20117 32.2719C4.0957 29.8461 4.06934 29.1184 4.06934 22.982C4.06934 16.8367 4.0957 16.109 4.20117 13.6922C4.29785 11.4461 4.66699 10.2332 4.97461 9.42461C5.37891 8.35547 5.87109 7.58281 6.65332 6.7832C7.44434 5.97461 8.19141 5.48047 9.23731 5.06719C10.0283 4.75274 11.2236 4.37539 13.4121 4.27656C15.7764 4.16875 16.4883 4.1418 22.5 4.1418ZM22.5 0C16.3916 0 15.627 0.0269531 13.2275 0.134766C10.8369 0.242578 9.19336 0.637891 7.76953 1.20391C6.28418 1.79688 5.02734 2.57852 3.7793 3.86328C2.52246 5.13906 1.75781 6.42383 1.17773 7.9332C0.624023 9.39766 0.237305 11.0688 0.131836 13.5125C0.0263672 15.9742 0 16.7559 0 23C0 29.2441 0.0263672 30.0258 0.131836 32.4785C0.237305 34.9223 0.624023 36.6023 1.17773 38.0578C1.75781 39.5762 2.52246 40.8609 3.7793 42.1367C5.02734 43.4125 6.28418 44.2031 7.76074 44.7871C9.19336 45.3531 10.8281 45.7484 13.2188 45.8563C15.6182 45.9641 16.3828 45.991 22.4912 45.991C28.5996 45.991 29.3643 45.9641 31.7637 45.8563C34.1543 45.7484 35.7979 45.3531 37.2217 44.7871C38.6982 44.2031 39.9551 43.4125 41.2031 42.1367C42.4512 40.8609 43.2246 39.5762 43.7959 38.0668C44.3496 36.6024 44.7363 34.9313 44.8418 32.4875C44.9473 30.0348 44.9736 29.2531 44.9736 23.009C44.9736 16.7648 44.9473 15.9832 44.8418 13.5305C44.7363 11.0867 44.3496 9.40664 43.7959 7.95117C43.2422 6.42383 42.4775 5.13906 41.2207 3.86328C39.9727 2.5875 38.7158 1.79688 37.2393 1.21289C35.8066 0.646875 34.1719 0.251563 31.7813 0.14375C29.373 0.0269531 28.6084 0 22.5 0Z" fill="#7986CB"/>
<path d="M22.5 11.1855C16.1191 11.1855 10.9424 16.4773 10.9424 23C10.9424 29.5227 16.1191 34.8145 22.5 34.8145C28.8809 34.8145 34.0576 29.5227 34.0576 23C34.0576 16.4773 28.8809 11.1855 22.5 11.1855ZM22.5 30.6637C18.3604 30.6637 15.0029 27.2316 15.0029 23C15.0029 18.7684 18.3604 15.3363 22.5 15.3363C26.6396 15.3363 29.9971 18.7684 29.9971 23C29.9971 27.2316 26.6396 30.6637 22.5 30.6637Z" fill="#7986CB"/>
<path d="M37.2129 10.7182C37.2129 12.2455 36 13.4764 34.5146 13.4764C33.0205 13.4764 31.8164 12.2365 31.8164 10.7182C31.8164 9.19082 33.0293 7.95996 34.5146 7.95996C36 7.95996 37.2129 9.19981 37.2129 10.7182Z" fill="#7986CB"/>
</g>
<defs>
<clipPath id="clip0_6263_5003">
<rect width="45" height="46" fill="white"/>
</clipPath>
</defs>
</svg>
