<svg width="49" height="46" viewBox="0 0 49 46" fill="none" xmlns="http://www.w3.org/2000/svg">
<path d="M41.8201 6.69312C39.5648 4.56315 36.8784 2.87436 33.9177 1.72525C30.957 0.576134 27.7811 -0.0103042 24.5755 0.00013701C11.1438 0.00013701 0.196801 10.2351 0.196801 22.7931C0.196801 26.8181 1.3284 30.728 3.44401 34.178L0 46L12.915 42.826C16.482 44.643 20.4919 45.609 24.5755 45.609C38.0071 45.609 48.9541 35.374 48.9541 22.8161C48.9541 16.7211 46.4203 10.9941 41.8201 6.69312ZM24.5755 41.745C20.9347 41.745 17.3676 40.825 14.2434 39.1L13.5054 38.686L5.83021 40.572L7.87202 33.58L7.38002 32.867C5.35727 29.8471 4.28322 26.3563 4.28041 22.7931C4.28041 12.3511 13.3824 3.84113 24.5509 3.84113C29.9629 3.84113 35.0551 5.81912 38.8681 9.40711C40.7561 11.1642 42.2523 13.2542 43.27 15.556C44.2877 17.8577 44.8066 20.3254 44.7967 22.8161C44.8459 33.258 35.7439 41.745 24.5755 41.745ZM35.6947 27.5771C35.0797 27.3011 32.0785 25.9211 31.5373 25.7141C30.9715 25.5301 30.5779 25.4381 30.1597 25.9901C29.7415 26.5651 28.5853 27.8531 28.2409 28.2211C27.8965 28.6121 27.5275 28.6581 26.9125 28.3591C26.2975 28.0831 24.3295 27.4621 22.0171 25.5301C20.1967 24.0121 18.9912 22.1491 18.6222 21.5741C18.2778 20.9991 18.573 20.7001 18.8928 20.4011C19.1634 20.1481 19.5079 19.7341 19.8031 19.4121C20.0983 19.0901 20.2213 18.8371 20.4181 18.4691C20.6149 18.0781 20.5165 17.7561 20.3689 17.4801C20.2213 17.2041 18.9912 14.3981 18.4992 13.2481C18.0072 12.1441 17.4906 12.2821 17.1216 12.2591H15.9408C15.5226 12.2591 14.883 12.3971 14.3172 12.9721C13.776 13.5471 12.2016 14.9271 12.2016 17.7331C12.2016 20.5391 14.391 23.2531 14.6862 23.6211C14.9814 24.0121 18.9912 29.762 25.0921 32.223C26.5435 32.821 27.6751 33.166 28.5607 33.419C30.0121 33.856 31.3405 33.787 32.3983 33.649C33.5791 33.488 36.0145 32.269 36.5065 30.935C37.0231 29.601 37.0231 28.4741 36.8509 28.2211C36.6787 27.9681 36.3097 27.8531 35.6947 27.5771Z" fill="#E67C73"/>
</svg>
