<svg width="50" height="34" viewBox="0 0 50 34" fill="none" xmlns="http://www.w3.org/2000/svg">
<path d="M49.1912 7.8002C49.1912 7.8002 48.7132 4.62871 47.2407 3.23613C45.3763 1.40332 43.2919 1.39434 42.3357 1.28652C35.4898 0.819336 25.2114 0.819336 25.2114 0.819336H25.1922C25.1922 0.819336 14.9138 0.819336 8.06785 1.28652C7.11172 1.39434 5.02734 1.40332 3.16288 3.23613C1.69043 4.62871 1.22192 7.8002 1.22192 7.8002C1.22192 7.8002 0.724731 11.5287 0.724731 15.2482V18.7342C0.724731 22.4537 1.21236 26.1822 1.21236 26.1822C1.21236 26.1822 1.69043 29.3537 3.15332 30.7463C5.01778 32.5791 7.46549 32.5162 8.55548 32.7139C12.4756 33.0643 25.2018 33.1721 25.2018 33.1721C25.2018 33.1721 35.4898 33.1541 42.3357 32.6959C43.2919 32.5881 45.3763 32.5791 47.2407 30.7463C48.7132 29.3537 49.1912 26.1822 49.1912 26.1822C49.1912 26.1822 49.6789 22.4627 49.6789 18.7342V15.2482C49.6789 11.5287 49.1912 7.8002 49.1912 7.8002ZM20.1438 22.9658V10.0373L33.3672 16.524L20.1438 22.9658Z" fill="#E67C73"/>
</svg>
