<svg width="46" height="46" viewBox="0 0 46 46" fill="none" xmlns="http://www.w3.org/2000/svg">
<path d="M45.5418 13.8002C45.5418 13.8002 45.0926 10.6287 43.709 9.23613C41.957 7.40332 39.9984 7.39434 39.1 7.28652C32.6672 6.81934 23.009 6.81934 23.009 6.81934H22.991C22.991 6.81934 13.3328 6.81934 6.9 7.28652C6.00156 7.39434 4.04297 7.40332 2.29102 9.23613C0.907422 10.6287 0.467187 13.8002 0.467187 13.8002C0.467187 13.8002 0 17.5287 0 21.2482V24.7342C0 28.4537 0.458203 32.1822 0.458203 32.1822C0.458203 32.1822 0.907422 35.3537 2.28203 36.7463C4.03398 38.5791 6.33398 38.5162 7.3582 38.7139C11.0418 39.0643 23 39.1721 23 39.1721C23 39.1721 32.6672 39.1541 39.1 38.6959C39.9984 38.5881 41.957 38.5791 43.709 36.7463C45.0926 35.3537 45.5418 32.1822 45.5418 32.1822C45.5418 32.1822 46 28.4627 46 24.7342V21.2482C46 17.5287 45.5418 13.8002 45.5418 13.8002ZM18.2473 28.9658V16.0373L30.6727 22.524L18.2473 28.9658Z" fill="#7986CB"/>
</svg>
