<svg width="19" height="19" viewBox="0 0 19 19" fill="none" xmlns="http://www.w3.org/2000/svg">
<path d="M18.8107 5.6998C18.8107 5.6998 18.6252 4.38984 18.0537 3.81465C17.3301 3.05762 16.5211 3.05391 16.15 3.00937C13.493 2.81641 9.50371 2.81641 9.50371 2.81641H9.49629C9.49629 2.81641 5.50703 2.81641 2.85 3.00937C2.47891 3.05391 1.66992 3.05762 0.946289 3.81465C0.374805 4.38984 0.192969 5.6998 0.192969 5.6998C0.192969 5.6998 0 7.23984 0 8.77617V10.216C0 11.7523 0.189258 13.2924 0.189258 13.2924C0.189258 13.2924 0.374805 14.6023 0.942578 15.1775C1.66621 15.9346 2.61621 15.9086 3.03926 15.9902C4.56074 16.135 9.5 16.1795 9.5 16.1795C9.5 16.1795 13.493 16.1721 16.15 15.9828C16.5211 15.9383 17.3301 15.9346 18.0537 15.1775C18.6252 14.6023 18.8107 13.2924 18.8107 13.2924C18.8107 13.2924 19 11.7561 19 10.216V8.77617C19 7.23984 18.8107 5.6998 18.8107 5.6998ZM7.53691 11.9639V6.62383L12.6691 9.30312L7.53691 11.9639Z" fill="black"/>
</svg>
