<svg width="26" height="26" viewBox="0 0 26 26" fill="none" xmlns="http://www.w3.org/2000/svg">
<path d="M13 0.8125C6.28 0.8125 0.8125 6.28 0.8125 13C0.8125 19.72 6.28 25.1875 13 25.1875C19.72 25.1875 25.1875 19.72 25.1875 13C25.1875 6.28 19.72 0.8125 13 0.8125ZM13 2.6875C18.7066 2.6875 23.3125 7.29344 23.3125 13C23.3125 18.7066 18.7066 23.3125 13 23.3125C7.29344 23.3125 2.6875 18.7066 2.6875 13C2.6875 7.29344 7.29344 2.6875 13 2.6875ZM12.0625 7.375V12.0625H7.375V13.9375H12.0625V18.625H13.9375V13.9375H18.625V12.0625H13.9375V7.375H12.0625Z" fill="#D27C2C"/>
</svg>
