<svg width="40" height="40" viewBox="0 0 40 40" fill="none" xmlns="http://www.w3.org/2000/svg">
<path d="M5.72266 17.5613C5.95717 16.8318 6.24862 16.1219 6.59432 15.438" stroke="white" stroke-width="1.66667" stroke-linecap="round" stroke-linejoin="round"/>
<path d="M5.115 24.0413C5.0379 23.4221 4.9995 22.7987 5.00001 22.1747C5.00001 21.6891 5.02278 21.2097 5.06834 20.7363" stroke="white" stroke-width="1.66667" stroke-linecap="round" stroke-linejoin="round"/>
<path d="M7.31516 30.1847C6.74713 29.2866 6.27616 28.3306 5.91016 27.333" stroke="white" stroke-width="1.66667" stroke-linecap="round" stroke-linejoin="round"/>
<path d="M11.9397 34.833C11.0341 34.2577 10.1927 33.5873 9.42969 32.833" stroke="white" stroke-width="1.66667" stroke-linecap="round" stroke-linejoin="round"/>
<path d="M18.2989 37.0797C17.2153 36.9569 16.1484 36.7161 15.1172 36.3613" stroke="white" stroke-width="1.66667" stroke-linecap="round" stroke-linejoin="round"/>
<path d="M16.668 7.08301H20.0013C27.9725 7.10634 34.5427 13.3416 34.9827 21.3007C35.4226 29.2598 29.5797 36.1812 21.6596 37.083" stroke="white" stroke-width="1.66667" stroke-linecap="round" stroke-linejoin="round"/>
<path d="M22.5013 2.9165L16.668 7.08317L22.5013 11.2498" stroke="white" stroke-width="1.66667" stroke-linecap="round" stroke-linejoin="round"/>
<path d="M15.3288 23.8603C14.5918 23.8603 14.0068 23.6418 13.5737 23.205C13.1407 22.7643 12.9241 22.1489 12.9241 21.3587C12.9241 20.485 13.1654 19.7993 13.6478 19.3017C14.1303 18.8002 14.7685 18.5495 15.5624 18.5495C15.5814 18.5495 15.6004 18.5495 15.6194 18.5495C16.4438 18.5495 17.1067 18.8762 17.6081 19.5296C18.1133 20.183 18.366 21.0643 18.366 22.1736C18.366 22.1926 18.366 22.2097 18.366 22.2249C18.366 25.4843 17.1048 27.114 14.5823 27.114C14.1455 27.114 13.796 27.076 13.5339 27V26.1852C13.8416 26.2839 14.1873 26.3333 14.5709 26.3333C15.4827 26.3333 16.1702 26.0522 16.6337 25.49C17.101 24.9239 17.3555 24.0578 17.3973 22.8916H17.3289C17.1237 23.2069 16.8483 23.4481 16.5026 23.6152C16.1569 23.7786 15.7657 23.8603 15.3288 23.8603ZM15.5624 19.3587C15.0192 19.3587 14.5994 19.5334 14.3031 19.8829C14.0068 20.2286 13.8587 20.6977 13.8587 21.2904C13.8587 21.883 13.9973 22.3331 14.2746 22.6408C14.5557 22.9485 14.9698 23.1024 15.5168 23.1024C15.5396 23.1024 15.5624 23.1024 15.5852 23.1024C16.0677 23.1024 16.4912 22.9485 16.8559 22.6408C17.2244 22.3293 17.4087 21.9779 17.4087 21.5867C17.4087 21.5753 17.4087 21.5639 17.4087 21.5525C17.4125 21.1574 17.3365 20.7908 17.1807 20.4527C17.025 20.1146 16.8065 19.8487 16.5254 19.655C16.2443 19.4574 15.9366 19.3587 15.6023 19.3587C15.5871 19.3587 15.5738 19.3587 15.5624 19.3587ZM19.5797 22.7947C19.5797 21.3663 19.8057 20.3008 20.2578 19.598C20.7098 18.8914 21.3917 18.5381 22.3035 18.5381C23.219 18.5381 23.9123 18.9047 24.3833 19.6379C24.8544 20.3672 25.0899 21.4423 25.0899 22.8631C25.0899 24.28 24.862 25.3437 24.4061 26.0541C23.9502 26.7607 23.2646 27.114 22.349 27.114C21.4373 27.114 20.7478 26.7512 20.2806 26.0256C19.8133 25.2962 19.5797 24.2193 19.5797 22.7947ZM23.6938 20.1963C23.4127 19.6379 22.9587 19.3587 22.3319 19.3587C21.7051 19.3587 21.2493 19.6341 20.9644 20.1849C20.6795 20.7319 20.537 21.6114 20.537 22.8232C20.537 24.035 20.6795 24.9182 20.9644 25.4729C21.2493 26.0237 21.7051 26.2991 22.3319 26.2991C22.9587 26.2991 23.4127 26.0199 23.6938 25.4615C23.9787 24.8992 24.1212 24.0198 24.1212 22.8232C24.1212 21.6266 23.9787 20.7509 23.6938 20.1963ZM26.9133 19.068C27.259 18.7224 27.6788 18.5495 28.1726 18.5495C28.6665 18.5495 29.0863 18.7224 29.432 19.068C29.7776 19.4099 29.9505 19.8297 29.9505 20.3274C29.9505 20.6465 29.8726 20.9428 29.7169 21.2163C29.5611 21.486 29.3446 21.7006 29.0673 21.8602C28.79 22.0197 28.4917 22.0995 28.1726 22.0995C27.6788 22.0995 27.259 21.9286 26.9133 21.5867C26.5714 21.2448 26.4005 20.8269 26.4005 20.3331C26.4005 19.8392 26.5714 19.4175 26.9133 19.068ZM28.9704 19.5296C28.7577 19.3131 28.4955 19.2048 28.184 19.2048C27.8725 19.2048 27.6066 19.3131 27.3863 19.5296C27.166 19.7461 27.0558 20.0121 27.0558 20.3274C27.0558 20.6389 27.166 20.9048 27.3863 21.1251C27.6066 21.3416 27.8706 21.4499 28.1783 21.4499C28.486 21.4499 28.7482 21.3416 28.9647 21.1251C29.185 20.9086 29.2952 20.6408 29.2952 20.3217C29.2952 20.0026 29.1869 19.7385 28.9704 19.5296Z" fill="white"/>
</svg>
