<svg width="25" height="25" viewBox="0 0 25 25" fill="none" xmlns="http://www.w3.org/2000/svg">
<path d="M1.99996 12.6667C1.99996 18.6315 6.83512 23.4667 12.8 23.4667C18.7648 23.4667 23.6 18.6315 23.6 12.6667C23.6 6.70186 18.7648 1.8667 12.8 1.8667C6.83512 1.8667 1.99996 6.70186 1.99996 12.6667Z" stroke="#D27C2C" stroke-width="2.5" stroke-linecap="round" stroke-linejoin="round"/>
<path d="M13.8799 1.92041C13.8799 1.92041 17.1199 6.18641 17.1199 12.6664C17.1199 19.1464 13.8799 23.4124 13.8799 23.4124M11.7199 23.4124C11.7199 23.4124 8.47995 19.1464 8.47995 12.6664C8.47995 6.18641 11.7199 1.92041 11.7199 1.92041M2.68035 16.4464H22.9195M2.68035 8.88641H22.9195" stroke="#D27C2C" stroke-width="2.5" stroke-linecap="round" stroke-linejoin="round"/>
</svg>
