<svg width="25" height="20" viewBox="0 0 25 20" fill="none" xmlns="http://www.w3.org/2000/svg">
<g clip-path="url(#clip0_6334_3003)">
<path d="M20.0895 19.9997C19.8842 19.9363 19.5637 19.842 19.2461 19.7385C17.7339 19.2462 16.2221 18.7523 14.7106 18.2573C14.1326 18.0678 13.8564 17.5291 14.0463 16.9503C14.8251 14.5799 15.6072 12.2109 16.388 9.84118C16.848 8.44554 17.3097 7.05094 17.7673 5.65461C17.9882 4.98052 18.4792 4.70929 19.1542 4.92648C20.8717 5.47898 22.5867 6.03946 24.3 6.60478C24.8654 6.79149 25.126 7.33048 24.9413 7.89234C24.1118 10.4159 23.2805 12.939 22.4496 15.4622C22.0279 16.7428 21.6069 18.0238 21.1827 19.3037C21.0363 19.7457 20.6646 20.0083 20.0895 20.0003V19.9997Z" fill="white"/>
<path d="M8.52432 7.16317C8.4937 5.83023 8.46378 4.49763 8.43211 3.16469C8.41715 2.53598 8.41645 1.90623 8.37679 1.2789C8.33782 0.664041 8.75292 0.133359 9.46412 0.122621C11.2665 0.0959483 13.0689 0.0398318 14.8712 -4.01406e-06C15.4429 -0.0124744 15.8799 0.40736 15.8949 0.977186C15.9516 3.15187 16.0059 5.32691 16.0581 7.50194C16.0602 7.58647 16.0473 7.67549 16.0212 7.75551C15.3698 9.7376 14.7157 11.719 14.0615 13.7004C13.9412 14.0652 13.9398 14.0679 13.5525 14.078C12.2835 14.1109 11.0146 14.1434 9.74526 14.1712C9.11652 14.1847 8.69133 13.7738 8.67602 13.1507C8.62627 11.1547 8.57651 9.15877 8.52675 7.16282C8.52606 7.16282 8.52536 7.16282 8.52467 7.16282L8.52432 7.16317Z" fill="white"/>
<path d="M10.9157 15.174C10.7817 15.4549 10.5653 15.6343 10.2685 15.7299C9.12897 16.0978 7.99083 16.4692 6.85235 16.8395C6.28589 17.0237 5.71978 17.2101 5.15263 17.3927C4.50266 17.6022 3.98631 17.3355 3.7758 16.6929C3.04929 14.4749 2.32034 12.2577 1.59208 10.0404C1.08513 8.49646 0.576427 6.95291 0.0708594 5.40832C-0.138257 4.76921 0.120616 4.25343 0.758751 4.04455C2.47343 3.48304 4.18916 2.92429 5.90558 2.36729C6.45812 2.18785 6.97413 2.4667 7.19786 2.99842C7.45673 3.61432 7.45673 4.25342 7.47135 4.89911C7.52319 7.23003 7.58269 9.56059 7.64288 11.8912C7.65715 12.4388 7.64045 12.992 7.71595 13.5317C7.84782 14.4725 8.69368 15.1632 9.65019 15.1733C10.0663 15.1778 10.4828 15.174 10.9157 15.174Z" fill="white"/>
</g>
<defs>
<clipPath id="clip0_6334_3003">
<rect width="25" height="20" fill="white"/>
</clipPath>
</defs>
</svg>
