<svg width="47" height="41" viewBox="0 0 47 41" fill="none" xmlns="http://www.w3.org/2000/svg">
<path d="M32.7379 12.9877L25.0126 0.818802C24.3103 -0.272934 22.6897 -0.272934 21.9874 0.818802L14.2621 12.9877C13.6138 13.9995 12.1552 14.106 11.3718 13.2007L3.16034 3.64134C2.07989 2.38984 0 3.13541 0 4.78633V39.2426C0 40.2278 0.810345 41 1.78276 41H45.2172C46.2167 41 47 40.2012 47 39.2426V4.7597C47 3.10878 44.9201 2.36321 43.8397 3.61471L35.6012 13.1741C34.8178 14.0794 33.3592 13.9729 32.7109 12.961L32.7379 12.9877Z" fill="url(#paint0_linear_6319_3080)"/>
<defs>
<linearGradient id="paint0_linear_6319_3080" x1="0" y1="20.5" x2="47" y2="20.5" gradientUnits="userSpaceOnUse">
<stop stop-color="#E67C73"/>
<stop offset="1" stop-color="#7986CB"/>
</linearGradient>
</defs>
</svg>
