<svg width="22" height="19" viewBox="0 0 22 19" fill="none" xmlns="http://www.w3.org/2000/svg">
<path fill-rule="evenodd" clip-rule="evenodd" d="M11 5.62503C11 2.80806 15.4367 1.18158 20.1317 1.00223C20.3587 0.993376 20.5797 1.0709 20.7437 1.21684C20.9076 1.36279 21.0002 1.5645 21 1.77527V14.144C21.0004 14.5591 20.6472 14.9004 20.2 14.917C16.8391 14.9092 13.5824 15.9983 11 17.9937C8.41786 15.9977 5.16109 14.9081 1.8 14.9155C1.35283 14.8989 0.999642 14.5576 1 14.1424V1.77373C0.9998 1.56295 1.09239 1.36124 1.25632 1.21529C1.42025 1.06935 1.64132 0.99183 1.86833 1.00068C6.56333 1.18776 11 2.81424 11 5.62503Z" fill="black" stroke="black" stroke-linecap="round" stroke-linejoin="round"/>
<path d="M11 5.63135V18" stroke="black" stroke-linecap="round" stroke-linejoin="round"/>
</svg>
