<svg width="25" height="20" viewBox="0 0 25 20" fill="none" xmlns="http://www.w3.org/2000/svg">
<path d="M20.089 19.9999C19.8837 19.9365 19.5633 19.8422 19.2456 19.7387C17.7334 19.2464 16.2216 18.7525 14.7101 18.2575C14.1321 18.068 13.8559 17.5293 14.0459 16.9505C14.8246 14.5801 15.6067 12.2111 16.3875 9.84138C16.8475 8.44574 17.3093 7.05114 17.7668 5.65481C17.9878 4.98071 18.4787 4.70948 19.1537 4.92668C20.8712 5.47918 22.5862 6.03965 24.2995 6.60498C24.8649 6.79168 25.1255 7.33068 24.9408 7.89254C24.1113 10.4161 23.28 12.9392 22.4491 15.4624C22.0274 16.743 21.6064 18.024 21.1823 19.3039C21.0358 19.7459 20.6642 20.0085 20.089 20.0005V19.9999Z" fill="black"/>
<path d="M8.52505 7.16344C8.49443 5.8305 8.46451 4.49791 8.43284 3.16497C8.41788 2.53625 8.41719 1.9065 8.37752 1.27917C8.33855 0.664316 8.75365 0.133634 9.46486 0.122896C11.2672 0.096223 13.0696 0.0401064 14.872 0.000270644C15.4436 -0.0121997 15.8807 0.407635 15.8956 0.97746C15.9523 3.15215 16.0066 5.32718 16.0588 7.50222C16.0609 7.58674 16.048 7.67576 16.0219 7.75578C15.3706 9.73787 14.7164 11.7193 14.0623 13.7007C13.9419 14.0654 13.9405 14.0682 13.5532 14.0782C12.2843 14.1112 11.0153 14.1437 9.746 14.1714C9.11726 14.1849 8.69207 13.7741 8.67676 13.1509C8.627 11.155 8.57724 9.15904 8.52749 7.16309C8.52679 7.16309 8.52609 7.16309 8.5254 7.16309L8.52505 7.16344Z" fill="black"/>
<path d="M10.9159 15.1743C10.782 15.4552 10.5655 15.6346 10.2687 15.7302C9.12921 16.0981 7.99108 16.4695 6.85259 16.8398C6.28613 17.024 5.72002 17.2104 5.15287 17.393C4.50291 17.6025 3.98655 17.3358 3.77604 16.6932C3.04953 14.4752 2.32058 12.2579 1.59233 10.0406C1.08537 8.49675 0.576671 6.9532 0.0711035 5.40861C-0.138013 4.7695 0.12086 4.25372 0.758995 4.04484C2.47368 3.48333 4.1894 2.92458 5.90583 2.36758C6.45837 2.18814 6.97437 2.46699 7.1981 2.99871C7.45698 3.61461 7.45698 4.25371 7.47159 4.8994C7.52343 7.23032 7.58293 9.56088 7.64313 11.8915C7.65739 12.4391 7.64069 12.9923 7.7162 13.532C7.84807 14.4728 8.69393 15.1635 9.65044 15.1736C10.0666 15.1781 10.4831 15.1743 10.9159 15.1743Z" fill="black"/>
</svg>
