<svg width="21" height="19" viewBox="0 0 21 19" fill="none" xmlns="http://www.w3.org/2000/svg">
<path fill-rule="evenodd" clip-rule="evenodd" d="M10.2735 5.6235C10.2735 2.80746 14.3878 1.18152 18.7417 1.00223C18.9522 0.993379 19.1572 1.07087 19.3092 1.21677C19.4612 1.36267 19.5471 1.56431 19.5469 1.77502V14.1396C19.5472 14.5546 19.2197 14.8958 18.805 14.9124C15.6883 14.9046 12.6682 15.9934 10.2735 17.9881C7.87892 15.9928 4.85877 14.9035 1.74188 14.9109C1.3272 14.8943 0.999668 14.5531 1 14.1381V1.77347C0.999814 1.56277 1.08567 1.36112 1.2377 1.21522C1.38972 1.06933 1.59473 0.991833 1.80525 1.00068C6.15913 1.1877 10.2735 2.81364 10.2735 5.6235Z" stroke="black" stroke-linecap="round" stroke-linejoin="round"/>
<path d="M10.2734 5.62988V17.9945" stroke="black" stroke-linecap="round" stroke-linejoin="round"/>
</svg>
