<svg width="19" height="15" viewBox="0 0 19 15" fill="none" xmlns="http://www.w3.org/2000/svg">
<path d="M14.556 13.539L14.4871 13.5177C14.4561 13.5081 14.4182 13.4966 14.3756 13.4837C14.2633 13.4495 14.1179 13.4054 13.9775 13.3595L14.556 13.539ZM14.556 13.539L14.628 13.54M14.556 13.539L14.628 13.54M14.628 13.54C14.8763 13.5435 15.1207 13.4886 15.3303 13.3513C15.5433 13.2118 15.6854 13.0096 15.7608 12.7817L15.7608 12.7817M14.628 13.54L15.7608 12.7817M11.2752 12.4752L11.275 12.4752C10.9891 12.3812 10.7514 12.19 10.6161 11.9239C10.4806 11.6575 10.4661 11.3521 10.5603 11.0645L10.5603 11.0643C10.889 10.0618 11.2188 9.05962 11.5484 8.05767C11.6841 7.64537 11.8197 7.23312 11.9553 6.82091L11.9553 6.82086C12.039 6.56639 12.1227 6.31216 12.2064 6.05805C12.3969 5.47953 12.5873 4.90166 12.7765 4.32298L12.7765 4.32294C12.8691 4.03991 13.0415 3.77327 13.3281 3.62043C13.6183 3.46569 13.9389 3.47367 14.2312 3.56792L11.2752 12.4752ZM11.2752 12.4752C12.1756 12.7707 13.0763 13.0656 13.9773 13.3595L11.2752 12.4752ZM17.2998 4.57076L17.2999 4.57079C17.9066 4.77154 18.1931 5.38086 17.9999 5.9698L17.2998 4.57076ZM17.2998 4.57076C16.2784 4.23306 15.2557 3.89815 14.2313 3.56793L17.2998 4.57076ZM15.7608 12.7817C15.9659 12.1616 16.1697 11.541 16.3734 10.921C16.4209 10.7767 16.4683 10.6323 16.5157 10.488C16.5934 10.2515 16.6712 10.015 16.7489 9.77841M15.7608 12.7817L16.7489 9.77841M16.7489 9.77841C17.1661 8.50905 17.5833 7.23952 17.9999 5.96985L16.7489 9.77841Z" stroke="black"/>
<path d="M6.60453 6.45363L6.57779 5.28687C6.5726 5.06056 6.56745 4.83434 6.56229 4.60816C6.54933 4.03892 6.53637 3.46999 6.52288 2.90084L6.60453 6.45363ZM6.60453 6.45363L6.60818 6.45M6.60453 6.45363L6.60818 6.45M6.60818 6.45L6.62372 7.07453L6.66817 8.86123C6.66817 8.86128 6.66817 8.86133 6.66817 8.86138C6.66817 8.86139 6.66817 8.8614 6.66817 8.86141C6.67554 9.16028 6.78399 9.44635 7.00322 9.65676C7.22284 9.86753 7.51413 9.96442 7.81565 9.95793L7.81582 9.95793C8.57301 9.94136 9.32978 9.9219 10.0856 9.90226C10.0886 9.90218 10.0917 9.90211 10.0949 9.90202C10.1428 9.90081 10.2109 9.89908 10.272 9.89108C10.3432 9.88178 10.4651 9.85779 10.5829 9.76979C10.7007 9.68185 10.7583 9.57193 10.7872 9.50696C10.8118 9.45183 10.8327 9.38818 10.8474 9.34363C10.8485 9.34015 10.8496 9.33678 10.8507 9.33354L6.60818 6.45ZM6.51665 2.58574C6.51186 2.31493 6.5073 2.05689 6.49078 1.79502L6.51665 2.58574ZM6.51665 2.58574C6.51847 2.68862 6.52032 2.79335 6.52288 2.90082L6.51665 2.58574ZM10.8507 9.33351L10.8509 9.33301C11.2404 8.15067 11.6301 6.96795 12.0181 5.78476L12.0185 5.78369C12.0517 5.68146 12.0674 5.57192 12.0648 5.46564C12.0337 4.16718 12.0014 2.86869 11.9676 1.57038L11.9676 1.57029C11.9515 0.9576 11.4655 0.486765 10.8471 0.500281L10.847 0.500284C10.4612 0.508827 10.0774 0.518567 9.69454 0.528282C9.00526 0.545773 8.31904 0.563186 7.63002 0.573404L7.62987 0.573406C7.28851 0.578571 6.98416 0.712699 6.77233 0.951028C6.56408 1.18533 6.47154 1.49059 6.49078 1.79495L10.8507 9.33351Z" stroke="black"/>
<path d="M8.2935 10.176L7.95332 10.8908C7.81038 11.1912 7.56857 11.3872 7.26994 11.4836C6.74624 11.653 6.22319 11.8236 5.69948 11.9944C5.54524 12.0447 5.39095 12.095 5.23657 12.1454C5.12119 12.183 5.00518 12.2209 4.88883 12.259C4.66737 12.3315 4.44466 12.4044 4.22267 12.476M8.2935 10.176L1.29619 3.55841C1.00854 3.65277 0.753856 3.8359 0.611242 4.1196C0.468885 4.40279 0.473456 4.71602 0.56705 5.00264L0.567065 5.00269C0.763504 5.60406 0.960837 6.20548 1.15804 6.80649C1.26321 7.12704 1.36835 7.44747 1.4733 7.76772L1.47331 7.76775C1.5632 8.04201 1.65311 8.31625 1.74302 8.59048C2.08697 9.63964 2.43087 10.6886 2.77387 11.7379L2.77387 11.7379C2.86783 12.0253 3.04953 12.282 3.3333 12.4272C3.61733 12.5725 3.93264 12.5697 4.22267 12.476M8.2935 10.176H7.50183M8.2935 10.176H7.50183M4.22267 12.476L4.0692 12.0001M4.22267 12.476C4.22275 12.476 4.22284 12.476 4.22292 12.4759L4.0692 12.0001M4.0692 12.0001C3.68206 12.1252 3.3745 11.966 3.24912 11.5825L5.54395 11.5192C5.38984 11.5695 5.23572 11.6197 5.0816 11.67C4.96498 11.708 4.84838 11.7462 4.73178 11.7843C4.51103 11.8566 4.29025 11.9289 4.0692 12.0001ZM7.50183 10.176C7.41692 10.176 7.33454 10.1762 7.2537 10.1764C7.08308 10.1769 6.91937 10.1774 6.75349 10.1756L6.75333 10.1756M7.50183 10.176L6.75333 10.1756M5.7484 3.21554L5.74847 3.21571C5.93282 3.6552 5.94169 4.10581 5.94859 4.45594C5.9491 4.48194 5.9496 4.50739 5.95016 4.53223L5.95017 4.53243C5.98102 5.92258 6.01644 7.31271 6.0523 8.70365L5.7484 3.21554ZM5.7484 3.21554C5.52796 2.69057 4.97127 2.35908 4.36306 2.55694L5.7484 3.21554ZM6.75333 10.1756C6.41131 10.172 6.13286 9.92407 6.09118 9.62664M6.75333 10.1756L6.09118 9.62664M6.09118 9.62664C6.06226 9.41951 6.05986 9.21853 6.05705 8.98396M6.09118 9.62664L6.05705 8.98396M6.05705 8.98396C6.05599 8.89598 6.05488 8.80328 6.0523 8.70376L6.05705 8.98396ZM4.36296 2.55697C3.34034 2.8895 2.31803 3.22311 1.29625 3.55839L4.36296 2.55697Z" stroke="black"/>
</svg>
