<svg width="19" height="15" viewBox="0 0 19 15" fill="none" xmlns="http://www.w3.org/2000/svg">
<path d="M14.556 13.539L14.4871 13.5177C14.4561 13.5081 14.4182 13.4966 14.3756 13.4837C14.2633 13.4495 14.1179 13.4054 13.9775 13.3595C13.0765 13.0656 12.1757 12.7707 11.2752 12.4752L11.275 12.4752C10.9891 12.3812 10.7514 12.19 10.6161 11.9239C10.4806 11.6575 10.4661 11.3521 10.5603 11.0645L10.5603 11.0643C10.889 10.0618 11.2188 9.0596 11.5484 8.05764C11.6841 7.64535 11.8197 7.23311 11.9553 6.82091L11.9553 6.82086C12.039 6.56638 12.1227 6.31214 12.2064 6.05803C12.397 5.47952 12.5873 4.90165 12.7765 4.32298L12.7765 4.32294C12.8691 4.03991 13.0415 3.77327 13.3281 3.62043C13.6183 3.46569 13.9389 3.47367 14.2312 3.56792L14.556 13.539ZM14.556 13.539L14.628 13.54M14.556 13.539L14.628 13.54M14.628 13.54C14.8763 13.5435 15.1207 13.4886 15.3303 13.3513C15.5433 13.2118 15.6854 13.0096 15.7608 12.7817L15.7608 12.7817C15.9659 12.1616 16.1697 11.541 16.3734 10.921C16.4209 10.7767 16.4683 10.6323 16.5157 10.488C16.5935 10.2512 16.6714 10.0143 16.7492 9.77744C17.1663 8.50841 17.5835 7.2392 17.9999 5.96986C18.1931 5.3809 17.9066 4.77155 17.2999 4.57079L17.2998 4.57076M14.628 13.54L17.2998 4.57076M17.2998 4.57076C16.2784 4.23306 15.2557 3.89815 14.2313 3.56793L17.2998 4.57076Z" stroke="white"/>
<path d="M6.60452 6.45301L6.57779 5.28687C6.5726 5.06056 6.56745 4.83434 6.56229 4.60816C6.54933 4.03892 6.53637 3.46999 6.52288 2.90084L6.60452 6.45301ZM6.60452 6.45301L6.60816 6.44938M6.60452 6.45301L6.60816 6.44938M6.60816 6.44938L6.66817 8.86123C6.66817 8.86128 6.66817 8.86133 6.66817 8.86138C6.66817 8.86139 6.66817 8.8614 6.66817 8.86141C6.67554 9.16028 6.78399 9.44635 7.00322 9.65676C7.22284 9.86753 7.51413 9.96442 7.81565 9.95793L7.81582 9.95793C8.57301 9.94136 9.32978 9.9219 10.0856 9.90226C10.0886 9.90218 10.0917 9.90211 10.0949 9.90202C10.1428 9.90081 10.2109 9.89908 10.272 9.89108C10.3432 9.88178 10.4651 9.85779 10.5829 9.76979C10.7007 9.68185 10.7583 9.57193 10.7872 9.50696C10.8118 9.45184 10.8327 9.38819 10.8474 9.34364C10.8485 9.34014 10.8496 9.33676 10.8507 9.33351L10.851 9.33254C11.2405 8.15035 11.6301 6.96779 12.0181 5.78476L12.0185 5.78369C12.0517 5.68146 12.0674 5.57192 12.0648 5.46564L6.60816 6.44938ZM7.62987 0.573406L7.63002 0.573404C8.31904 0.563186 9.00526 0.545773 9.69454 0.528282C10.0774 0.518567 10.4612 0.508827 10.847 0.500284L10.8471 0.500281C11.4655 0.486765 11.9515 0.957601 11.9676 1.57029L11.9676 1.57038C12.0014 2.86857 12.0337 4.16694 12.0648 5.46529L7.62987 0.573406ZM7.62987 0.573406C7.28851 0.578571 6.98416 0.712699 6.77233 0.951028M7.62987 0.573406L6.77233 0.951028M6.51665 2.58574C6.51186 2.31493 6.5073 2.05689 6.49078 1.79502L6.51665 2.58574ZM6.51665 2.58574C6.51847 2.68862 6.52032 2.79335 6.52288 2.90082L6.51665 2.58574ZM6.77233 0.951028C6.56408 1.18533 6.47154 1.49059 6.49078 1.79495L6.77233 0.951028Z" stroke="white"/>
<path d="M8.2935 10.176L7.95332 10.8908C7.81038 11.1912 7.56857 11.3872 7.26994 11.4836C6.74632 11.653 6.22334 11.8236 5.69971 11.9943C5.54539 12.0447 5.39102 12.095 5.23657 12.1454L8.2935 10.176ZM8.2935 10.176H7.50183M8.2935 10.176H7.50183M7.50183 10.176C7.41693 10.176 7.33454 10.1762 7.25371 10.1764C7.08308 10.1769 6.91937 10.1774 6.75349 10.1756L6.75333 10.1756M7.50183 10.176L6.75333 10.1756M2.77387 11.7379L2.77387 11.7379C2.43089 10.6887 2.08701 9.63977 1.74308 8.59067C1.65315 8.31638 1.56323 8.04208 1.47331 7.76775L1.4733 7.76772C1.36835 7.44747 1.26321 7.12704 1.15804 6.80649C0.960837 6.20548 0.763504 5.60406 0.567065 5.00269L0.56705 5.00264C0.473456 4.71602 0.468885 4.40279 0.611242 4.1196C0.753856 3.8359 1.00854 3.65277 1.29619 3.55841L2.77387 11.7379ZM2.77387 11.7379C2.86783 12.0253 3.04953 12.282 3.3333 12.4272M2.77387 11.7379L3.3333 12.4272M5.7484 3.21554L5.74847 3.21571C5.93282 3.6552 5.94169 4.10581 5.94859 4.45594C5.9491 4.48194 5.9496 4.50739 5.95016 4.53223L5.95017 4.53243C5.98102 5.92258 6.01644 7.31271 6.0523 8.70365L5.7484 3.21554ZM5.7484 3.21554C5.52796 2.69057 4.97127 2.35908 4.36306 2.55694L5.7484 3.21554ZM6.75333 10.1756C6.41131 10.172 6.13286 9.92407 6.09118 9.62664M6.75333 10.1756L6.09118 9.62664M4.88884 12.259C4.66745 12.3315 4.44483 12.4044 4.22292 12.4759L4.88884 12.259ZM4.88884 12.259C5.00518 12.2209 5.12117 12.183 5.23654 12.1454L4.88884 12.259ZM3.3333 12.4272C3.61733 12.5725 3.93264 12.5697 4.22267 12.476L3.3333 12.4272ZM6.09118 9.62664C6.06226 9.41951 6.05986 9.21853 6.05705 8.98396M6.09118 9.62664L6.05705 8.98396M6.05705 8.98396C6.05599 8.89598 6.05488 8.80328 6.0523 8.70376L6.05705 8.98396ZM4.36296 2.55697C3.34034 2.8895 2.31803 3.22311 1.29625 3.55839L4.36296 2.55697Z" stroke="white"/>
</svg>
