<svg width="12" height="11" viewBox="0 0 12 11" fill="none" xmlns="http://www.w3.org/2000/svg">
<path d="M6.42662 9.46057L6.42501 9.46197C6.16178 9.69268 5.74944 9.69243 5.48644 9.4586L5.48403 9.45647L5.4186 9.39904L5.41769 9.39824C3.84523 8.0249 2.58893 6.9249 1.72884 5.89574C0.875511 4.87468 0.469373 3.98909 0.501807 3.05046C0.531769 2.23522 0.966172 1.44861 1.66889 0.986756L1.66917 0.986577C3.00479 0.107502 4.67223 0.509762 5.577 1.53204L5.95142 1.95508L6.32583 1.53204C7.23161 0.508627 8.89849 0.10294 10.2326 0.98588L10.2339 0.986756C10.9368 1.4487 11.3712 2.23551 11.401 3.05092L11.401 3.05132C11.4361 3.98919 11.0306 4.87434 10.1761 5.89727C9.31628 6.92666 8.06085 8.02774 6.49116 9.40445L6.48611 9.40888L6.48437 9.4104L6.42662 9.46057Z" stroke="black"/>
</svg>
