<svg width="10" height="16" viewBox="0 0 10 16" fill="none" xmlns="http://www.w3.org/2000/svg">
<rect x="0.771484" y="0.806641" width="8.58571" height="14" rx="1.5" stroke="black"/>
<path d="M5.40088 5.30439C6.09969 5.30439 6.64898 5.45706 7.04875 5.76239C7.44852 6.06773 7.6484 6.48953 7.6484 7.0278C7.6484 7.40554 7.56027 7.73448 7.38399 8.01463C7.20771 8.29479 6.94015 8.54976 6.5813 8.77955C6.2256 9.00619 6.00368 9.17145 5.91555 9.27532C5.83056 9.3792 5.78806 9.49724 5.78806 9.62945V9.87025H4.33851V9.46419C4.33851 9.15571 4.40146 8.89601 4.52737 8.68511C4.65643 8.47106 4.86576 8.27275 5.15536 8.09018C5.44495 7.90761 5.64326 7.75179 5.75029 7.62273C5.86046 7.49368 5.91555 7.35517 5.91555 7.20723C5.91555 7.05928 5.85574 6.94753 5.73612 6.87199C5.61651 6.79329 5.46069 6.75395 5.26868 6.75395C4.79651 6.75395 4.24092 6.92235 3.60192 7.25916L2.94561 5.97487C3.72626 5.52788 4.54469 5.30439 5.40088 5.30439ZM4.13547 11.5228C4.13547 11.2301 4.21889 11.0066 4.38572 10.8524C4.5557 10.695 4.79966 10.6163 5.11758 10.6163C5.43866 10.6163 5.68418 10.6965 5.85416 10.8571C6.02415 11.0145 6.10914 11.2364 6.10914 11.5228C6.10914 11.8061 6.02257 12.0281 5.84944 12.1886C5.67632 12.346 5.43394 12.4247 5.1223 12.4247C4.81382 12.4247 4.57144 12.3476 4.39517 12.1933C4.22204 12.0359 4.13547 11.8124 4.13547 11.5228Z" fill="black"/>
</svg>
