<svg width="33" height="13" viewBox="0 0 33 13" fill="none" xmlns="http://www.w3.org/2000/svg">
<path d="M17.1816 10.7313L16.1206 11.7913C15.3396 12.572 14.0736 12.572 13.2926 11.7913L12.5856 11.0843C11.8048 10.3033 11.8048 9.03726 12.5856 8.25626L15.6156 5.22526C16.2852 4.55642 17.37 4.55642 18.0396 5.22526L18.5956 5.78126" stroke="black" stroke-linecap="round" stroke-linejoin="round"/>
<path d="M17.8886 2.95221L18.9496 1.89221C19.7306 1.11145 20.9966 1.11145 21.7776 1.89221L22.4846 2.59921C23.2654 3.38021 23.2654 4.64621 22.4846 5.42721L19.4546 8.45821C18.7847 9.12716 17.6995 9.12716 17.0296 8.45821L16.4746 7.90221" stroke="black" stroke-linecap="round" stroke-linejoin="round"/>
<path fill-rule="evenodd" clip-rule="evenodd" d="M4 7.30664C5.10457 7.30664 6 6.41121 6 5.30664C6 4.20207 5.10457 3.30664 4 3.30664C2.89543 3.30664 2 4.20207 2 5.30664C2 6.41121 2.89543 7.30664 4 7.30664Z" stroke="black" stroke-linecap="round" stroke-linejoin="round"/>
<path fill-rule="evenodd" clip-rule="evenodd" d="M7.98657 11.3066H1.01343C0.83863 9.28693 2.39055 7.50648 4.5 7.30664C6.60945 7.50648 8.16137 9.28693 7.98657 11.3066V11.3066Z" stroke="black" stroke-linecap="round" stroke-linejoin="round"/>
<path fill-rule="evenodd" clip-rule="evenodd" d="M29 7.30664C30.1046 7.30664 31 6.41121 31 5.30664C31 4.20207 30.1046 3.30664 29 3.30664C27.8954 3.30664 27 4.20207 27 5.30664C27 6.41121 27.8954 7.30664 29 7.30664Z" stroke="black" stroke-linecap="round" stroke-linejoin="round"/>
<path fill-rule="evenodd" clip-rule="evenodd" d="M31.9885 11.3066H26.0115C25.8617 9.28693 27.1919 7.50648 29 7.30664C30.8081 7.50648 32.1383 9.28693 31.9885 11.3066V11.3066Z" stroke="black" stroke-linecap="round" stroke-linejoin="round"/>
</svg>
