<svg width="21" height="21" viewBox="0 0 21 21" fill="none" xmlns="http://www.w3.org/2000/svg">
<path fill-rule="evenodd" clip-rule="evenodd" d="M10.5 20C15.7467 20 20 15.7467 20 10.5C20 5.25329 15.7467 1 10.5 1C5.25329 1 1 5.25329 1 10.5C1 15.7467 5.25329 20 10.5 20Z" stroke="black" stroke-linecap="round" stroke-linejoin="round"/>
<path fill-rule="evenodd" clip-rule="evenodd" d="M7.33399 7.25085C7.33323 6.99516 7.47046 6.75894 7.69294 6.63293C7.91543 6.50692 8.18858 6.51071 8.40749 6.64285L14.8992 9.89185C15.1126 10.0201 15.2431 10.2509 15.2431 10.4998C15.2431 10.7488 15.1126 10.9796 14.8992 11.1078L8.40749 14.3568C8.18858 14.489 7.91543 14.4928 7.69294 14.3668C7.47046 14.2408 7.33323 14.0045 7.33399 13.7488V7.25085Z" stroke="black" stroke-linecap="round" stroke-linejoin="round"/>
</svg>
