<svg width="32" height="16" viewBox="0 0 32 16" fill="none" xmlns="http://www.w3.org/2000/svg">
<rect x="0.5" y="0.806641" width="10" height="14" rx="1.5" stroke="black"/>
<rect x="21.5" y="0.806641" width="10" height="14" rx="1.5" stroke="black"/>
<path d="M27.7803 10.3066H26.2791V7.40907C26.2791 7.05717 26.2866 6.73522 26.3016 6.44321C26.1943 6.57299 26.0795 6.69029 25.9572 6.79511L25.3357 7.30799L24.5683 6.3646L26.4476 4.83345H27.7803V10.3066Z" fill="black"/>
<path d="M5.5599 4.75483C5.89183 4.75483 6.19632 4.81848 6.47334 4.94576C6.75037 5.07055 6.96501 5.2465 7.11725 5.47361C7.27199 5.70072 7.34935 5.95155 7.34935 6.22608C7.34935 6.23357 7.34935 6.2423 7.34935 6.25229C7.34935 6.66159 7.23954 7.0397 7.01991 7.38661C6.89762 7.57129 6.74538 7.75847 6.56319 7.94815C6.3835 8.13783 5.99042 8.50471 5.38395 9.04878V9.08622H7.45418V10.3066H3.48218V9.3333L4.81866 7.98184C5.22048 7.56006 5.47504 7.28179 5.58236 7.14701C5.68968 7.01224 5.7658 6.89245 5.81072 6.78763C5.85814 6.6828 5.88185 6.56675 5.88185 6.43947C5.88185 6.30969 5.83443 6.20362 5.73959 6.12126C5.64725 6.0389 5.51747 5.99772 5.35025 5.99772C5.18553 5.99772 5.01582 6.04514 4.84112 6.13998C4.66891 6.23482 4.46676 6.38331 4.23465 6.58547L3.42228 5.63084C3.69931 5.38376 3.93641 5.20407 4.13357 5.09176C4.52541 4.86714 4.98837 4.75483 5.52246 4.75483C5.53494 4.75483 5.54742 4.75483 5.5599 4.75483Z" fill="black"/>
<path d="M19 10.3066H13" stroke="black" stroke-linecap="round" stroke-linejoin="round"/>
<path d="M13 4.30664L19 4.30664" stroke="black" stroke-linecap="round" stroke-linejoin="round"/>
<path d="M15 8.30664L13 10.3066L15 12.3066" stroke="black" stroke-linecap="round" stroke-linejoin="round"/>
<path d="M17 6.30664L19 4.30664L17 2.30664" stroke="black" stroke-linecap="round" stroke-linejoin="round"/>
</svg>
