<svg width="24" height="22" viewBox="0 0 24 22" fill="none" xmlns="http://www.w3.org/2000/svg">
<path d="M6.40803 6.24967C8.98386 4.68721 15.7266 2.00182 22.091 3.75993" stroke="black" stroke-linecap="round"/>
<path d="M9.94469 6.98697C11.1955 6.22814 14.4697 4.92392 17.5602 5.77766" stroke="black" stroke-linecap="round"/>
<path d="M13.0766 19.2385C14.1524 18.5814 17.0149 17.4115 19.8587 17.9887" stroke="black" stroke-linecap="round"/>
<path d="M13.9736 20.6907C14.6381 20.2863 16.4066 19.5667 18.1641 19.9231" stroke="black" stroke-linecap="round"/>
<path d="M11.8842 15.8913L13.9627 15.4572C14.2483 15.3965 14.4369 15.119 14.3848 14.8361L13.2397 8.66804C13.1859 8.38541 12.9114 8.20509 12.6254 8.2646L10.2174 8.76723" stroke="black" stroke-linecap="round" stroke-linejoin="round"/>
<path d="M17.2224 14.3899L19.3439 14.4323C19.6356 14.437 19.8796 14.2086 19.8901 13.921L20.1093 7.64789C20.1181 7.36015 19.8893 7.12273 19.5975 7.1167L17.1397 7.06736" stroke="black" stroke-linecap="round" stroke-linejoin="round"/>
<path d="M14.0572 16.2779L16.0714 16.2326C16.3483 16.2253 16.5674 15.9919 16.5617 15.7102L16.4306 9.56589C16.4234 9.2841 16.1936 9.06126 15.9165 9.06729L13.583 9.11956" stroke="black" stroke-linecap="round" stroke-linejoin="round"/>
<path d="M18.4131 15.2716L20.3231 15.9234C20.586 16.012 20.87 15.868 20.9585 15.601L22.883 9.77533C22.9701 9.50774 22.8282 9.21886 22.5656 9.12901L20.3528 8.37365" stroke="black" stroke-linecap="round" stroke-linejoin="round"/>
<path d="M7.55758 20.005L7.01496 18.4189C6.96617 18.2764 6.86943 18.1561 6.74195 18.0792L3.27462 15.9858C2.77538 15.7043 2.58991 15.0667 2.85847 14.5553C3.12704 14.044 3.74982 13.8488 4.25584 14.1174L5.00927 14.4901L3.41354 9.82559C3.27133 9.40987 3.48647 8.95635 3.89408 8.81262C4.30169 8.66889 4.74741 8.88938 4.88963 9.3051" stroke="black" stroke-linecap="round" stroke-linejoin="round"/>
<path d="M8.9378 11.4185L8.06308 8.85993C7.92099 8.44433 8.13593 7.99093 8.54317 7.84724C8.9504 7.70355 9.39571 7.92398 9.5378 8.33958L10.827 12.1106C10.8933 12.3046 10.9285 12.5082 10.9313 12.7134L10.9826 16.3303C10.9835 16.3985 10.9952 16.4661 11.0173 16.5305L11.7043 18.54" stroke="black" stroke-linecap="round" stroke-linejoin="round"/>
<path d="M5.77323 11.8622L4.69176 8.70117C4.54952 8.28543 4.7647 7.83188 5.17236 7.68815C5.58002 7.54441 6.0258 7.76491 6.16804 8.18065L7.24972 11.3423" stroke="black" stroke-linecap="round" stroke-linejoin="round"/>
<path d="M8.06184 8.86289L7.85559 8.26023C7.7132 7.84418 7.26694 7.62351 6.85884 7.76736C6.45074 7.9112 6.23534 8.36508 6.37773 8.78113" stroke="black" stroke-linecap="round" stroke-linejoin="round"/>
</svg>
