<svg width="21" height="22" viewBox="0 0 21 22" fill="none" xmlns="http://www.w3.org/2000/svg">
<path fill-rule="evenodd" clip-rule="evenodd" d="M1 1.85714C1 1.38376 1.36377 1 1.8125 1H13.1875C13.6362 1 14 1.38376 14 1.85714V10.4286C14 10.902 13.6362 11.2857 13.1875 11.2857H11.9688V13L9.9375 11.2857H1.8125C1.36377 11.2857 1 10.902 1 10.4286V1.85714Z" stroke="black" stroke-linecap="round" stroke-linejoin="round"/>
<path d="M18.0436 11.8696C17.9235 11.8696 17.8262 11.967 17.8262 12.087C17.8262 12.2071 17.9235 12.3044 18.0436 12.3044C18.1636 12.3044 18.261 12.2071 18.261 12.087C18.261 11.967 18.1636 11.8696 18.0436 11.8696" stroke="black" stroke-linecap="round" stroke-linejoin="round"/>
<path d="M20.0003 21H18.696C17.915 20.9233 17.2431 20.415 16.9568 19.6843C16.8714 19.5162 16.904 19.3122 17.0377 19.1791L18.696 17.5217H16.9568C16.7167 17.5217 16.5221 17.3271 16.5221 17.0869V15.7826H14.5099C14.3713 15.7829 14.2409 15.7171 14.1587 15.6054C14.0766 15.4937 14.0527 15.3496 14.0942 15.2174C15.4203 10.987 16.0473 6.35308 20.0003 4.91309" stroke="black" stroke-linecap="round" stroke-linejoin="round"/>
</svg>
