<svg width="18" height="21" viewBox="0 0 18 21" fill="none" xmlns="http://www.w3.org/2000/svg">
<path d="M7.08984 10.7635H1.08984V20.3035H7.08984V10.7635Z" fill="white"/>
<path d="M16.4805 10.7635H10.4805V20.3035H16.4805V10.7635Z" fill="white"/>
<path d="M7.09 6.14355H0V10.0436H7.09V6.14355Z" fill="white"/>
<path d="M17.5705 6.14355H10.4805V10.0436H17.5705V6.14355Z" fill="white"/>
<path d="M8.86965 5.52356C8.86965 5.52356 7.39965 -2.09644 4.14965 0.563557C0.899651 3.22356 8.14965 5.83356 8.14965 5.83356L8.49965 5.71356C8.49965 5.71356 3.12965 2.78356 4.82965 1.41356C6.52965 0.0335571 8.77965 5.83356 8.77965 5.83356L8.86965 5.52356Z" fill="white"/>
<path d="M8.7002 5.52356C8.7002 5.52356 10.1702 -2.09644 13.4202 0.563557C16.6702 3.22356 9.4202 5.83356 9.4202 5.83356L9.0502 5.66356C9.0502 5.66356 14.4402 2.79356 12.7402 1.41356C11.0402 0.0335571 8.7902 5.83356 8.7902 5.83356L8.7002 5.52356Z" fill="white"/>
</svg>
