<svg width="20" height="17" viewBox="0 0 20 17" fill="none" xmlns="http://www.w3.org/2000/svg">
<path d="M11.0127 16.1058L11.0111 16.1072C10.4407 16.606 9.55533 16.6057 8.98526 16.0999L8.98284 16.0978L8.87299 16.0016L8.87207 16.0008C6.23936 13.7061 4.10664 11.8438 2.64175 10.0945C1.18359 8.35323 0.444587 6.78988 0.503249 5.09903C0.55742 3.62474 1.34285 2.20578 2.61508 1.37132L2.61535 1.37114C5.01765 -0.206791 8.00224 0.521834 9.61775 2.34346L9.99183 2.76527L10.3659 2.34346C11.9824 0.520704 14.9664 -0.215232 17.3672 1.37044L17.3686 1.37132C18.6409 2.20587 19.4264 3.62503 19.4804 5.0995L19.4804 5.0999C19.5437 6.78999 18.8053 8.3529 17.3455 10.097C15.885 11.8419 13.7611 13.701 11.1425 15.9929L11.1125 16.0192L11.1108 16.0207L11.0127 16.1058Z" stroke="white"/>
</svg>
