<svg width="282" height="248" viewBox="0 0 282 248" fill="none" xmlns="http://www.w3.org/2000/svg">
<g clip-path="url(#clip0_6263_5497)">
<path d="M145.811 209.99C126.744 219.481 92.8425 236.989 73.8464 246.569C68.2359 249.343 61.3531 247.921 56.8735 243.689C54.4438 241.52 52.6502 238.745 51.3514 235.786C50.2205 233.381 38.973 197.68 37.6918 194.194C29.0773 167.713 9.42734 107.611 1.29876 81.727C-1.15749 73.5876 -0.167924 64.3946 4.56786 57.2123C6.50282 54.3412 9.12693 51.8212 12.3342 50.1618L46.2975 33.1455C48.6124 31.9602 83.477 14.6805 84.6521 14.1537C93.2578 10.1586 102.632 14.7332 107.006 22.574C108.702 25.3222 109.594 28.65 110.522 31.7143C122.75 72.1213 141.985 136.13 154.47 176.458C155.371 179.469 156.502 182.446 156.837 185.607C157.968 194.826 154.452 205.468 145.811 209.99ZM145.811 209.99C154.417 205.442 157.88 194.809 156.714 185.616C156.369 182.481 155.229 179.513 154.311 176.502C141.499 136.279 120.683 72.7535 107.615 32.6099C106.926 30.608 106.228 28.0441 105.265 26.1476C101.978 18.9477 93.9823 13.7849 86.2248 17.5253C67.2993 27.1222 33.3183 44.5336 14.331 54.0602C6.58233 58.1343 3.47227 67.9155 4.49718 76.2217C4.74457 78.7241 6.0257 82.5348 6.78555 84.9845C19.27 125.312 38.5047 189.321 50.7417 229.719C52.014 234.276 53.4984 238.649 56.7763 242.099C60.7788 246.419 66.831 248.456 72.5122 246.393C92.1622 237.024 126.293 219.674 145.829 209.972L145.811 209.99Z" fill="#E67C73"/>
<path d="M140.951 200.103C125.958 207.611 95.9085 223.002 80.9854 230.641C78.4585 231.853 72.2472 235.242 69.7291 236.41C66.9725 237.657 63.562 236.867 61.415 234.812C59.1708 232.872 58.2431 229.921 57.4125 227.252C50.0438 204.775 32.4083 150.855 24.8452 127.745L14.5873 95.8547C14.225 94.643 8.95911 78.4609 8.94144 77.6004C7.89003 71.9635 9.98402 65.3782 15.3295 62.5685C33.928 53.2877 64.4985 37.9573 83.1236 28.8521L85.0144 27.9302L85.9598 27.4648C89.3702 25.5244 93.9293 26.2268 96.6506 28.9838C99.0008 31.0735 99.9993 34.331 100.768 37.0968C101.148 38.5017 110.946 70.8747 111.618 73.1927C117.988 94.4147 134.387 148.914 140.748 169.381L145.723 185.37C147.498 190.55 146.058 197.373 140.943 200.103H140.951ZM140.951 200.103C146.041 197.355 147.437 190.55 145.652 185.396L140.589 169.425C134.192 149.23 116.327 94.6869 109.497 73.8424C108.737 71.5332 98.2675 39.5553 97.7639 38.0275C97.3221 36.7105 96.9157 35.2969 96.4386 34.2608C94.857 30.7135 91.0225 28.5272 87.5855 30.6345C87.0907 30.8979 85.3325 31.8023 84.7847 32.0833C66.3805 41.5484 35.8718 57.1335 17.3351 66.467C13.3592 68.5567 12.1664 74.4659 13.6684 78.5926L18.6427 94.5816L28.4677 126.612C35.5449 150.082 51.749 203.949 58.6318 226.866C59.3917 229.5 60.0897 232.134 62.1395 234.022C64.0126 235.874 66.9194 236.647 69.3934 235.602C71.7701 234.496 78.2199 231.317 80.7027 230.088C95.7317 222.625 125.975 207.654 140.951 200.095V200.103Z" fill="#E67C73"/>
<path d="M23.9882 106.751C28.2645 102.897 37.418 96.5661 39.6887 105.698C40.8285 109.701 40.9257 113.942 41.9152 117.867C42.3658 119.307 42.7281 121.046 44.4421 120.826C49.3811 120.264 56.1579 113.415 60.3989 119.035C63.2086 123.926 62.6873 129.598 63.7652 134.831C64.154 136.578 64.4367 139.142 65.8415 140.16C66.7339 140.52 67.7058 140.292 68.8721 140.011C70.6568 139.537 72.5564 138.72 74.6416 138.018C78.1139 136.727 82.4521 136.455 84.0513 140.687C85.9951 146.386 84.8288 152.778 85.0497 158.415C85.0762 160.399 85.1734 162.418 85.5975 164.025C85.7477 164.57 85.9686 165.167 86.2955 165.448C86.4104 165.553 86.9758 165.693 87.7975 165.553C90.3951 165.123 93.5317 163.534 96.3149 162.673C101.006 160.996 104.656 162.181 105.848 167.283C106.864 171.515 106.696 175.615 107.403 179.724C107.73 181.665 108.26 183.386 109.374 184.536C113.659 188.496 123.175 185.019 128.75 185.151C130.375 185.045 131.559 186.494 132.372 187.653C134.687 191.306 135.12 195.669 134.881 199.84C134.634 195.529 133.468 188.882 129.333 186.696C126.346 186.766 123.475 187.679 120.489 188.189C116.248 188.953 110.964 189.795 107.377 186.617C103.993 183.386 103.993 178.284 103.321 174.07C102.906 171.392 102.756 168.284 101.298 166.212C101.113 166.01 100.98 165.931 100.821 165.878C99.8137 165.632 98.7181 166.036 97.5518 166.405C93.9293 167.572 90.5895 169.908 86.3662 169.776C81.0119 169.364 80.8087 162.375 80.7204 158.502C80.632 154.27 80.8971 150.126 80.6497 146.219C80.5525 144.849 80.3493 142.575 79.6248 141.706C79.5364 141.6 79.5364 141.6 79.3597 141.539C76.2496 141.407 73.2633 143.383 69.95 144.12C62.9877 146.105 60.5579 141.548 59.7981 135.48C58.9411 130.686 59.4005 125.383 57.4302 121.019C57.0238 120.449 56.9354 120.369 56.2816 120.29C54.6736 120.273 52.6679 121.16 51.0422 121.818C47.994 123.03 43.1433 125.409 40.7048 121.827C38.9465 118.771 39.0967 115.409 38.7433 112.177C38.4429 109.245 38.5136 106.084 37.0911 103.529C34.2549 99.7797 26.9304 104.846 23.997 106.795L23.9882 106.751Z" fill="#E67C73"/>
<path d="M183.847 3.57346C178.025 -1.59814 169.083 -1.08888 163.888 4.69734C158.684 10.4836 159.196 19.3692 165.019 24.5321C170.842 29.7037 179.783 29.1944 184.978 23.4082C190.182 17.622 189.67 8.73629 183.847 3.57346Z" fill="#E67C73"/>
<path d="M277.282 23.1184C271.459 17.9468 262.518 18.456 257.323 24.2423C252.119 30.0285 252.631 38.9142 258.454 44.077C264.276 49.2486 273.218 48.7393 278.413 42.9531C283.617 37.1669 283.104 28.2812 277.282 23.1184Z" fill="#7986CB"/>
<path d="M120.983 184C117.184 174.939 115.505 165.096 114.472 155.332C113.491 145.525 113.394 135.647 113.871 125.778C114.427 115.918 115.638 106.066 117.741 96.3111C119.844 86.565 123.033 76.9769 127.407 67.8541C129.571 63.2796 132.151 58.8982 134.943 54.6398C137.753 50.3901 141.022 46.4477 144.433 42.6371C146.182 40.7581 148.029 38.9054 150.123 37.1494C152.217 35.4109 154.576 33.7338 157.633 32.5661C159.179 32.0217 160.911 31.5563 162.854 31.6178C164.745 31.6441 166.804 32.1183 168.438 33.0665C170.152 33.9533 171.398 35.086 172.458 36.1748C173.519 37.2723 174.402 38.3962 175.215 39.5201C176.823 41.7678 178.14 44.0244 179.341 46.2809C180.561 48.5374 181.665 50.8291 182.725 53.1032C184.828 57.6777 186.63 62.0152 188.937 65.7908C191.216 69.5839 194.079 72.9643 197.392 76.1252C199.035 77.6793 200.705 79.0842 202.375 80.1466C203.206 80.6734 204.045 81.1124 204.84 81.4285C205.238 81.5865 205.627 81.727 205.998 81.8061C206.369 81.9202 206.758 81.9202 207.129 81.9992C210.203 82.4031 214.223 80.8841 217.97 78.6188C221.769 76.3623 225.418 73.3945 229.032 70.2951C232.663 67.1868 236.197 63.8152 240.27 60.5401C242.32 58.9158 244.538 57.3002 247.171 55.9392C249.777 54.5871 253.055 53.5773 256.501 53.6739C258.206 53.7442 259.832 54.0427 261.405 54.5607C262.968 55.0788 264.488 55.8075 265.955 56.87C267.413 57.906 268.871 59.5655 269.701 61.3479C270.532 63.1391 270.858 64.9566 270.938 66.5459C271.018 68.1439 270.903 69.6014 270.752 70.936C270.593 72.2794 270.408 73.4648 270.231 74.6852L269.109 81.9641L266.777 96.4516L264.347 110.904C262.721 120.527 261.122 130.186 259.602 139.765C258.144 149.265 257.349 158.906 257.34 168.529C257.323 173.341 257.535 178.152 258.065 182.92C258.577 187.688 259.487 192.403 260.919 196.942C261.67 199.19 262.571 201.394 263.719 203.449C264.903 205.477 266.352 207.356 268.164 208.831C269.957 210.315 272.166 211.333 274.534 211.676C276.902 212.027 279.367 211.764 281.761 211.184C279.455 212.027 276.981 212.571 274.455 212.431C271.936 212.308 269.418 211.447 267.289 210.007C265.151 208.567 263.401 206.636 261.952 204.555C260.53 202.448 259.381 200.191 258.392 197.873C256.457 193.228 255.229 188.355 254.336 183.465C253.453 178.565 252.896 173.622 252.569 168.678C252.004 158.774 252.313 148.853 253.276 138.975C253.762 134.066 254.38 129.22 254.981 124.364L256.837 109.815L260.627 80.77L261.537 73.535C261.829 71.0941 262.164 68.7585 262.023 67.099C261.97 66.2473 261.785 65.6415 261.581 65.2113C261.343 64.7986 261.148 64.5527 260.609 64.1664C259.54 63.4113 257.747 62.8494 256.254 62.8494C254.778 62.8669 253.196 63.2884 251.465 64.2015C249.742 65.1147 247.966 66.3966 246.208 67.8366C242.674 70.7341 239.131 74.176 235.358 77.4861C231.55 80.7875 227.591 84.0626 222.962 86.8547C220.647 88.242 218.155 89.524 215.363 90.4634C212.58 91.3942 209.391 91.9824 206.033 91.6049C205.203 91.4644 204.354 91.3766 203.541 91.1483C202.72 90.9464 201.951 90.6742 201.209 90.3756C199.725 89.7786 198.39 89.0498 197.153 88.2596C194.688 86.6791 192.621 84.8792 190.712 83.0616C186.949 79.4529 183.414 75.2998 180.702 70.6638C177.972 66.0366 176.09 61.2777 174.155 56.9578C173.174 54.789 172.185 52.6642 171.098 50.6008C170.02 48.5287 168.907 46.5355 167.696 44.7795C167.095 43.9014 166.468 43.0936 165.841 42.4176C165.213 41.7415 164.595 41.2059 164.127 40.9864C163.65 40.6703 163.217 40.6088 162.669 40.5561C162.148 40.4947 161.441 40.6615 160.681 40.8986C159.126 41.443 157.359 42.5405 155.662 43.8927C153.957 45.2448 152.287 46.8165 150.653 48.476C144.15 55.2105 138.592 62.8757 134.166 71.2258C131.983 75.414 129.987 79.7251 128.317 84.1767C126.656 88.6371 125.171 93.1766 123.908 97.795C121.381 107.032 119.72 116.567 118.607 126.164C118.05 130.967 117.617 135.787 117.378 140.625C117.14 145.463 117.087 150.31 117.158 155.157C117.237 160.004 117.564 164.85 118.147 169.679C118.713 174.509 119.587 179.303 120.992 183.991L120.983 184Z" fill="url(#paint0_linear_6263_5497)"/>
</g>
<defs>
<linearGradient id="paint0_linear_6263_5497" x1="286.63" y1="122.046" x2="110.611" y2="122.046" gradientUnits="userSpaceOnUse">
<stop offset="0.13" stop-color="#7986CB"/>
<stop offset="0.18" stop-color="#8285C3"/>
<stop offset="0.44" stop-color="#AD81A0"/>
<stop offset="0.67" stop-color="#CC7E87"/>
<stop offset="0.86" stop-color="#DF7C78"/>
<stop offset="1" stop-color="#E67C73"/>
</linearGradient>
<clipPath id="clip0_6263_5497">
<rect width="282" height="248" fill="white"/>
</clipPath>
</defs>
</svg>
