<?xml version="1.0" encoding="utf-8"?>
<!-- Generator: Adobe Illustrator 18.1.0, SVG Export Plug-In . SVG Version: 6.00 Build 0)  -->
<svg version="1.1" id="Layer_1" xmlns="http://www.w3.org/2000/svg" xmlns:xlink="http://www.w3.org/1999/xlink" x="0px" y="0px"
	 width="263px" height="76px" viewBox="0 0 263 76" enable-background="new 0 0 263 76" xml:space="preserve">
<g>
	<path fill="#F37A30" d="M229.1,22.3c-1.2-2.6-2.6-4.9-2.6-6c0-0.8,0.2-1.8,2-2c1-0.1,3.4,1.4,3.4,1.4s1.3,0.9,2.7,2
		c2.7,2.1,5.3,4.2,5.3,4.2s0.2,0.1,0.4,0.1c0.2,0,0.4-0.1,0.4-0.1s2.2-1,4.9-2.7c3.3-2,7.5-5,10.3-6.6c1.8-1.1,3-1.5,3-1.5
		s1.3-0.6,1.9-0.3c1,0.6-0.2,3.4-0.2,3.4s-1.7,3.6-3.8,6.1c-9.5,11.6-8.7,5.2-2.1,15.9c1.5,2.4,1.1,1.7,2.6,4.3
		c3.3,5.6,5,10.8,5,10.8s0.4,1.5-0.1,2.3c-0.4,0.6-0.8,0.8-0.8,0.8s-0.8,0.8-3.1-0.9c0.5,0.4-10.1-7.9-15.6-12
		c-5.7-4.2-4.1-0.9-8.2,5.7c-2.9,4.7-6.8,6.8-6.8,6.8s-1.5,0.6-2.2,0.2c-1.2-0.7-0.8-2.4,1.7-11.1c1-3.6,1.6-5.9,2.2-8.7
		c0.2-1.3-1.3-0.9-9-2.5c-5.1-1-10.1-2.5-10.1-2.5s-0.7-0.5-0.5-1c0.2-0.7,1.1-1.5,1.1-1.5s2.2-1.4,5.3-1.7
		C229.4,23.9,231.7,27.9,229.1,22.3"/>
	<path fill="#A5ACB0" d="M242,6.1c3,0,5.4,2.4,5.4,5.4c0,3-2.4,5.4-5.4,5.4c-3,0-5.4-2.4-5.4-5.4C236.5,8.5,239,6.1,242,6.1"/>
	<path fill="#AAC9E5" d="M248.5,0c1.7,0,3,1.3,3,3s-1.3,3-3,3c-1.7,0-3-1.3-3-3S246.8,0,248.5,0"/>
	<path fill="#FFFFFF" d="M33.7,36.1c0.5,0.4,0.9,0.8,1.2,1.3c0.3,0.5,0.6,1,0.7,1.6c0.3,1.1,0.5,2.5,0.5,4.2v15.6h-7.2V43.6
		c0-2.4-1.2-3.6-3.6-3.6c-0.6,0-1.1,0-1.3,0v11.5c0,0.9-0.1,1.7-0.2,2.5c-0.1,0.7-0.4,1.4-0.7,2.1c-0.4,0.7-0.8,1.2-1.4,1.7
		c-1.2,1-3.1,1.5-5.5,1.5c-0.5,0-1.1-0.1-1.7-0.2c-0.6-0.1-1-0.3-1.3-0.4l-0.4-0.2v-5.2c0.9,0.2,1.7,0.3,2.4,0.3
		c0.6,0,1.1-0.2,1.3-0.5c0.2-0.3,0.3-0.8,0.3-1.5V40.4l-2.6,0.2v-5.5c4.2-0.5,8.1-0.7,11.8-0.7S32.2,35,33.7,36.1z M48.3,58.8h-7.2
		V34.7h7.2V58.8z M59.1,34.7c0.4,0.7,0.7,1.5,0.8,2.5h0.3c0.2-0.2,0.6-0.6,1.1-0.9c0.5-0.4,1-0.7,1.5-0.9c0.5-0.2,1.1-0.5,1.9-0.7
		c0.8-0.2,1.7-0.3,2.7-0.3c1,0,2,0.2,2.9,0.5c0.9,0.4,1.7,0.9,2.3,1.5c0.6,0.6,1.1,1.4,1.4,2.3c0.7,1.7,1,3.8,1,6.5v13.6H63.2v-5.6
		h4.3v-8c0-1.3-0.1-2.2-0.2-2.8c-0.1-0.6-0.3-1-0.5-1.3c-0.5-0.7-1.2-1-2.2-1c-0.4,0-0.9,0.1-1.3,0.3c-0.4,0.2-0.8,0.4-1,0.6
		c-0.6,0.5-1,1-1.2,1.3l-0.1,0.3l-1.4,16.3h-7.1l1.4-15.2c0.1-0.9,0.1-1.7,0.1-2.5c0-2.1-0.4-4.2-1.2-6.4H59.1z M90.5,34.7v5.2
		c-0.6,0.5-1.2,1.1-1.6,1.9c-0.5,0.8-0.8,1.5-1.1,2.2c-0.2,0.7-0.4,1.4-0.5,2.2c-0.1,0.8-0.2,1.5-0.2,2c0,0.5,0,1.3,0,2.3v8.3h-7.2
		v-8.3c0-4.6,1.3-8,4-10.2H79v-5.6H90.5z M100.6,58.8h-7.2V34.7h7.2V58.8z M105.5,51V34.7h7.2V46l-4,5.1H105.5z"/>
	<path fill="#E6E7E8" d="M126.9,34.8c3.6-0.2,6.3-0.4,7.9-0.4c1.7,0,2.9,0.1,3.7,0.2c0.8,0.1,1.6,0.3,2.4,0.6
		c0.8,0.3,1.4,0.7,1.9,1.2c0.5,0.5,0.9,1.1,1.2,2c0.3,0.8,0.5,1.8,0.5,2.9v17.6h-1.9V41.2c0-1.7-0.4-2.9-1.3-3.7
		c-0.7-0.7-1.9-1.1-3.4-1.3c-0.6-0.1-1.4-0.1-2.5-0.1c-1,0-2.4,0-4,0.1v16.8c0,3.8-1.6,5.7-4.9,5.7c-0.3,0-0.7-0.1-1.2-0.2v-1.6
		c0.4,0,0.8,0.1,1.2,0.1c1,0,1.7-0.3,2.2-1c0.5-0.7,0.8-1.7,0.8-3.1V36.4l-2.7,0.2V34.8z M150.5,34.7h13v2.1l-3.6,12.6l-1.7,9.4
		h-1.9l1.7-9.2l3.8-13.1h-13.2v-6.9h1.9V34.7z M167.8,34.7h13v2.1l-3.6,12.6l-1.7,9.4h-1.9l1.7-9.2l3.8-13.1h-13.2v-6.9h1.9V34.7z
		 M183.7,35.4c0.1-0.1,0.3-0.1,0.6-0.2c0.3-0.1,0.8-0.2,1.7-0.4c0.9-0.2,1.9-0.3,3.1-0.3c1.2,0,2.3,0.2,3.4,0.7c1.1,0.4,2,1,2.7,1.7
		c0.7,0.7,1.2,1.5,1.7,2.5c0.8,1.7,1.2,3.8,1.2,6.1v3.4c0,1.8-0.3,3.5-0.9,5.1c-0.4,1.1-1.1,2.1-1.9,3c-0.9,0.9-2.1,1.6-3.6,2
		c-0.8,0.2-1.6,0.3-2.6,0.3c-0.9,0-1.8-0.1-2.7-0.2c-0.9-0.1-1.6-0.2-2-0.3l-0.7-0.2v-2c0.5,0.2,1.3,0.5,2.3,0.7
		c1,0.2,2,0.3,2.9,0.3c0.9,0,1.7-0.1,2.4-0.4c0.7-0.2,1.3-0.6,1.8-0.9c0.5-0.4,0.9-0.9,1.3-1.4c0.4-0.5,0.7-1.1,0.9-1.6
		c0.2-0.5,0.4-1.1,0.5-1.7c0.2-1,0.3-1.9,0.3-2.7v-3.4c0-2.9-0.6-5.2-1.8-6.9c-1.2-1.7-3.1-2.5-5.6-2.5c-1.4,0-2.8,0.2-4.2,0.7
		c-0.4,0.1-0.7,0.2-0.8,0.3V35.4L183.7,35.4z M212.5,34.5c2.2,0,3.9,0.7,5.1,2.1c1.2,1.4,1.7,3.3,1.7,5.8v16.5h-7.2v-1.6h5.3V42.3
		c0-1.9-0.4-3.4-1.3-4.5c-0.9-1.1-2.1-1.7-3.6-1.7c-1,0-2,0.1-2.8,0.4c-0.8,0.2-1.5,0.5-2,0.9c-0.5,0.4-0.9,0.7-1.2,1.1
		c-0.3,0.4-0.5,0.7-0.7,0.9l-0.2,0.4l-1.8,19.1H202l1.8-18.7c0-0.9,0-1.6-0.2-2.2c0-0.2-0.1-0.4-0.1-0.5c0-0.1-0.1-0.3-0.2-0.5
		c-0.1-0.2-0.1-0.4-0.2-0.4c0-0.2-0.2-0.5-0.4-0.9l-0.3-0.8h2c0.5,1.1,0.8,1.9,0.9,2.6h0.2c0.2-0.2,0.5-0.6,0.9-0.9
		c0.5-0.4,0.9-0.7,1.4-0.9c0.5-0.2,1.1-0.5,1.9-0.7C210.8,34.6,211.6,34.5,212.5,34.5z"/>
	<path fill="#FFFFFF" d="M3.3,75.4c-0.2,0.2-0.5,0.3-0.8,0.4C2.2,75.9,1.8,76,1.4,76s-0.8-0.1-1.1-0.2v-1.7c0.3,0.1,0.6,0.1,0.8,0.1
		c0.2,0,0.3,0,0.5-0.1c0.1-0.1,0.2-0.2,0.3-0.3c0.1-0.2,0.1-0.5,0.1-0.8v-4.9l-1.1,0.1v-1.7c1.5-0.2,3-0.3,4.5-0.3
		c1.1,0,1.9,0.1,2.5,0.4c0.3,0.1,0.5,0.3,0.7,0.5c0.2,0.2,0.3,0.4,0.4,0.7C9,68.1,9,68.4,9.1,68.7c0,0.3,0.1,0.6,0.1,1v6.1H6.9v-6.2
		C6.9,68.5,6.3,68,5,68c-0.3,0-0.6,0-0.9,0v5C4.2,74.2,3.9,74.9,3.3,75.4L3.3,75.4z M13.6,75.8h-2.2v-9.4h2.2V75.8z M16,75.8v-9.2
		c0.4-0.1,0.9-0.1,1.6-0.2c0.7-0.1,1.4-0.1,2-0.1c0.6,0,1.1,0,1.5,0.1c0.4,0.1,0.8,0.2,1,0.3c0.3,0.1,0.5,0.3,0.7,0.5
		c0.2,0.2,0.3,0.4,0.4,0.7c0.1,0.3,0.2,0.5,0.2,0.8c0,0.3,0.1,0.6,0.1,1v6.1h-2.2v-6.2c0-1.1-0.6-1.7-1.9-1.7c-0.3,0-0.7,0-1.2,0.1
		v7.8H16z M27.4,66.4h5v1.4L31,72.3l-0.8,3.5h-2.2l0.8-3.5l1.2-4.2h-4.9v-3.6h2.2V66.4z M41.3,75.8h-8v-1.7h3.6l1.7,0.1v0l-2-2.6
		l-3.3-5.2h2.5l2.6,4.2c0.3-0.5,0.6-1.2,0.6-2.2l0.2-2.1h2.2l-0.2,1.7C41.1,69,41,69.6,40.9,70c-0.1,0.2-0.2,0.4-0.3,0.7
		c-0.2,0.5-0.6,1-1.1,1.4l1.9,2.4V75.8z M43.2,66.6c0.4-0.1,0.9-0.1,1.6-0.2c0.7-0.1,1.4-0.1,2-0.1c0.6,0,1.1,0,1.5,0.1
		c0.4,0.1,0.8,0.2,1,0.3c0.3,0.1,0.5,0.3,0.7,0.5c0.2,0.2,0.3,0.4,0.4,0.7c0.1,0.3,0.2,0.5,0.2,0.8c0,0.3,0.1,0.6,0.1,1v6.1h-2.2
		v-6.2c0-1.1-0.6-1.7-1.9-1.7c-0.4,0-0.9,0-1.5,0.1c-0.6,0-1,0.1-1.4,0.1l-0.5,0.1V66.6L43.2,66.6z M45.4,75.8h-2.2v-6h2.2V75.8z
		 M56.9,75.8v-9.2c0.4-0.1,0.9-0.1,1.6-0.2c0.7-0.1,1.4-0.1,2.1-0.1c1.4,0,2.3,0.2,2.9,0.7c0.6,0.4,0.9,1.1,0.9,2.1v6.8H56.9z
		 M62.2,74.1V69c0-0.4-0.2-0.7-0.5-0.9C61.4,68,60.9,68,60.3,68c-0.3,0-0.7,0-1.2,0.1v6.1H62.2z M66.6,72.6v-6.2h2.2v4.3l-1.5,1.9
		H66.6z M71.1,69.8c0-0.2,0-0.4,0-0.7c0-0.9-0.2-1.8-0.5-2.8h2.1c0.1,0.2,0.1,0.4,0.2,0.7l0.2,0.8h0.1c0,0,0-0.1,0.1-0.2
		c0-0.1,0.1-0.2,0.3-0.4c0.2-0.2,0.3-0.3,0.5-0.5c0.2-0.1,0.5-0.3,0.8-0.4c0.3-0.1,0.7-0.2,1.1-0.2c0.4,0,0.8,0.1,1.1,0.2
		c0.3,0.2,0.6,0.4,0.8,0.6c0.2,0.3,0.4,0.6,0.5,1c0.2,0.7,0.4,1.5,0.4,2.4v5.3h-4v-1.7h1.8v-3.4c0-0.9-0.1-1.5-0.2-1.8
		c-0.1-0.2-0.2-0.3-0.3-0.5C76,68.2,75.7,68,75.2,68c-0.2,0-0.4,0.1-0.7,0.2c-0.2,0.1-0.4,0.2-0.5,0.4c-0.3,0.3-0.5,0.6-0.6,0.8
		l-0.1,0.2l-0.6,6.3h-2.2L71.1,69.8L71.1,69.8z M84.9,66.4v1.7c-0.2,0.2-0.4,0.4-0.6,0.8c-0.2,0.3-0.3,0.6-0.4,0.9
		c-0.1,0.3-0.2,0.6-0.2,1c0,0.4-0.1,0.7-0.1,0.9c0,0.2,0,0.5,0,1v3.2h-2.2v-3.2c0-1,0.1-1.9,0.4-2.5c0.3-0.6,0.5-1.1,0.8-1.4
		c0.3-0.3,0.5-0.5,0.7-0.5l0.1-0.1v-0.1H81v-1.7H84.9z M88.6,75.8h-2.2v-9.4h2.2V75.8z M90.9,72.6v-6.2h2.2v4.3l-1.5,1.9H90.9z
		 M99.2,75.8v-9.2c0.4-0.1,0.9-0.1,1.6-0.2c0.7-0.1,1.4-0.1,2.1-0.1c1.4,0,2.3,0.2,2.9,0.7c0.6,0.4,0.9,1.1,0.9,2.1v6.8H99.2z
		 M104.5,74.1V69c0-0.4-0.2-0.7-0.5-0.9c-0.3-0.1-0.7-0.2-1.3-0.2c-0.3,0-0.7,0-1.2,0.1v6.1H104.5z M108.9,72.6v-6.2h2.2v4.3
		l-1.5,1.9H108.9z M122.5,72.6c-0.7,2.1-2.2,3.2-4.5,3.2h-4.3l-0.8-9.4h2.1l0.4,4.7c0.1,0,0.1,0,0.2,0c0.4,0,0.7-0.1,0.9-0.3
		c0.2-0.2,0.3-0.5,0.3-1l0.3-3.4h2.1l-0.3,3.4c-0.2,1.9-1.1,2.9-3,2.9c-0.1,0-0.2,0-0.4,0l0.1,1.5h2.4c0.8,0,1.4-0.3,1.9-0.9
		c0.4-0.6,0.7-1.5,0.8-2.6l0.4-4.1h2.1l-0.4,4.1C122.7,71.4,122.6,72.1,122.5,72.6L122.5,72.6z M124.9,66.4c0.4-0.1,0.9-0.1,1.3-0.1
		c0.5,0,0.9,0,1.2,0.1c0.3,0.1,0.6,0.2,0.8,0.4c0.2,0.2,0.4,0.4,0.5,0.6c0.2,0.4,0.3,1,0.3,1.7V73c0,0.5,0,0.9-0.1,1.4
		c-0.1,0.5-0.1,0.8-0.2,1.1l-0.1,0.4h-4.3v-1.7h2.3c0.1-0.4,0.1-0.9,0.1-1.7v-3.2c0-0.6-0.1-0.9-0.4-1.1c-0.1-0.1-0.3-0.1-0.5-0.1
		c-0.4,0-0.7,0-1.1,0.1V66.4z M139.1,66.4v3.4c0,0.8-0.2,1.4-0.5,1.9c-0.1,0.2-0.3,0.3-0.6,0.5c-0.2,0.2-0.5,0.3-0.8,0.4l2.1,3.3
		h-2.5l-2.8-4.7c-0.2,0.1-0.4,0.2-0.5,0.5c-0.1,0.2-0.1,0.5-0.1,0.8v3.4h-2.2v-3.4c0-0.2,0-0.5,0-0.6c0-0.2,0.1-0.4,0.1-0.6
		c0.1-0.2,0.2-0.4,0.3-0.6c0.1-0.2,0.3-0.3,0.6-0.5c0.2-0.2,0.5-0.3,0.9-0.4l-2.1-3.3h2.5l1.9,3.2l0.9,1.4c0.2-0.1,0.4-0.2,0.5-0.5
		c0.1-0.2,0.1-0.5,0.1-0.8v-3.4H139.1z"/>
</g>
</svg>
