<svg width="30" height="24" viewBox="0 0 30 24" fill="none" xmlns="http://www.w3.org/2000/svg">
<path d="M11.9167 3.51562H17.4167C17.4167 2.95618 17.1269 2.41966 16.6112 2.02407C16.0955 1.62849 15.396 1.40625 14.6667 1.40625C13.9373 1.40625 13.2378 1.62849 12.7221 2.02407C12.2064 2.41966 11.9167 2.95618 11.9167 3.51562ZM10.0833 3.51562C10.0833 2.58322 10.5662 1.68901 11.4258 1.0297C12.2853 0.370395 13.4511 0 14.6667 0C15.8822 0 17.048 0.370395 17.9076 1.0297C18.7671 1.68901 19.25 2.58322 19.25 3.51562H28.4167C28.6598 3.51562 28.8929 3.5897 29.0648 3.72157C29.2368 3.85343 29.3333 4.03227 29.3333 4.21875C29.3333 4.40523 29.2368 4.58407 29.0648 4.71593C28.8929 4.8478 28.6598 4.92188 28.4167 4.92188H26.4843L24.2953 19.4681C24.1406 20.4964 23.4985 21.4451 22.4911 22.1338C21.4837 22.8225 20.1814 23.2031 18.832 23.2031H10.5013C9.15192 23.2031 7.84962 22.8225 6.84225 22.1338C5.83488 21.4451 5.19273 20.4964 5.038 19.4681L2.849 4.92188H0.916667C0.673552 4.92188 0.440394 4.8478 0.268486 4.71593C0.0965773 4.58407 0 4.40523 0 4.21875C0 4.03227 0.0965773 3.85343 0.268486 3.72157C0.440394 3.5897 0.673552 3.51562 0.916667 3.51562H10.0833ZM12.8333 9.14062C12.8333 8.95414 12.7368 8.7753 12.5648 8.64344C12.3929 8.51158 12.1598 8.4375 11.9167 8.4375C11.6736 8.4375 11.4404 8.51158 11.2685 8.64344C11.0966 8.7753 11 8.95414 11 9.14062V17.5781C11 17.7646 11.0966 17.9434 11.2685 18.0753C11.4404 18.2072 11.6736 18.2812 11.9167 18.2812C12.1598 18.2812 12.3929 18.2072 12.5648 18.0753C12.7368 17.9434 12.8333 17.7646 12.8333 17.5781V9.14062ZM17.4167 8.4375C17.1736 8.4375 16.9404 8.51158 16.7685 8.64344C16.5966 8.7753 16.5 8.95414 16.5 9.14062V17.5781C16.5 17.7646 16.5966 17.9434 16.7685 18.0753C16.9404 18.2072 17.1736 18.2812 17.4167 18.2812C17.6598 18.2812 17.8929 18.2072 18.0648 18.0753C18.2368 17.9434 18.3333 17.7646 18.3333 17.5781V9.14062C18.3333 8.95414 18.2368 8.7753 18.0648 8.64344C17.8929 8.51158 17.6598 8.4375 17.4167 8.4375Z" fill="#D27C2C"/>
</svg>
